<?xml version="1.0" encoding="utf-8" standalone="no"?>
<!DOCTYPE svg PUBLIC "-//W3C//DTD SVG 1.1//EN"
  "http://www.w3.org/Graphics/SVG/1.1/DTD/svg11.dtd">
<svg xmlns:xlink="http://www.w3.org/1999/xlink" width="864pt" height="576pt" viewBox="0 0 864 576" xmlns="http://www.w3.org/2000/svg" version="1.1">
 <metadata>
  <rdf:RDF xmlns:dc="http://purl.org/dc/elements/1.1/" xmlns:cc="http://creativecommons.org/ns#" xmlns:rdf="http://www.w3.org/1999/02/22-rdf-syntax-ns#">
   <cc:Work>
    <dc:type rdf:resource="http://purl.org/dc/dcmitype/StillImage"/>
    <dc:date>2023-06-04T17:57:20.760199</dc:date>
    <dc:format>image/svg+xml</dc:format>
    <dc:creator>
     <cc:Agent>
      <dc:title>Matplotlib v3.6.3, https://matplotlib.org/</dc:title>
     </cc:Agent>
    </dc:creator>
   </cc:Work>
  </rdf:RDF>
 </metadata>
 <defs>
  <style type="text/css">*{stroke-linejoin: round; stroke-linecap: butt}</style>
 </defs>
 <g id="figure_1">
  <g id="patch_1">
   <path d="M 0 576 
L 864 576 
L 864 0 
L 0 0 
z
" style="fill: #ffffff"/>
  </g>
  <g id="axes_1">
   <g id="patch_2">
    <path d="M 108 512.64 
L 777.6 512.64 
L 777.6 69.12 
L 108 69.12 
z
" style="fill: #ffffff"/>
   </g>
   <g id="matplotlib.axis_1">
    <g id="xtick_1">
     <g id="line2d_1">
      <path d="M 218.290689 512.64 
L 218.290689 69.12 
" clip-path="url(#pdc3b8a6597)" style="fill: none; stroke: #b0b0b0; stroke-width: 0.8; stroke-linecap: square"/>
     </g>
     <g id="line2d_2">
      <defs>
       <path id="ma6a05aee8e" d="M 0 0 
L 0 3.5 
" style="stroke: #000000; stroke-width: 0.8"/>
      </defs>
      <g>
       <use xlink:href="#ma6a05aee8e" x="218.290689" y="512.64" style="stroke: #000000; stroke-width: 0.8"/>
      </g>
     </g>
     <g id="text_1">
      <!-- −0.8 -->
      <g transform="translate(206.149282 527.238438) scale(0.1 -0.1)">
       <defs>
        <path id="DejaVuSans-2212" d="M 678 2272 
L 4684 2272 
L 4684 1741 
L 678 1741 
L 678 2272 
z
" transform="scale(0.015625)"/>
        <path id="DejaVuSans-30" d="M 2034 4250 
Q 1547 4250 1301 3770 
Q 1056 3291 1056 2328 
Q 1056 1369 1301 889 
Q 1547 409 2034 409 
Q 2525 409 2770 889 
Q 3016 1369 3016 2328 
Q 3016 3291 2770 3770 
Q 2525 4250 2034 4250 
z
M 2034 4750 
Q 2819 4750 3233 4129 
Q 3647 3509 3647 2328 
Q 3647 1150 3233 529 
Q 2819 -91 2034 -91 
Q 1250 -91 836 529 
Q 422 1150 422 2328 
Q 422 3509 836 4129 
Q 1250 4750 2034 4750 
z
" transform="scale(0.015625)"/>
        <path id="DejaVuSans-2e" d="M 684 794 
L 1344 794 
L 1344 0 
L 684 0 
L 684 794 
z
" transform="scale(0.015625)"/>
        <path id="DejaVuSans-38" d="M 2034 2216 
Q 1584 2216 1326 1975 
Q 1069 1734 1069 1313 
Q 1069 891 1326 650 
Q 1584 409 2034 409 
Q 2484 409 2743 651 
Q 3003 894 3003 1313 
Q 3003 1734 2745 1975 
Q 2488 2216 2034 2216 
z
M 1403 2484 
Q 997 2584 770 2862 
Q 544 3141 544 3541 
Q 544 4100 942 4425 
Q 1341 4750 2034 4750 
Q 2731 4750 3128 4425 
Q 3525 4100 3525 3541 
Q 3525 3141 3298 2862 
Q 3072 2584 2669 2484 
Q 3125 2378 3379 2068 
Q 3634 1759 3634 1313 
Q 3634 634 3220 271 
Q 2806 -91 2034 -91 
Q 1263 -91 848 271 
Q 434 634 434 1313 
Q 434 1759 690 2068 
Q 947 2378 1403 2484 
z
M 1172 3481 
Q 1172 3119 1398 2916 
Q 1625 2713 2034 2713 
Q 2441 2713 2670 2916 
Q 2900 3119 2900 3481 
Q 2900 3844 2670 4047 
Q 2441 4250 2034 4250 
Q 1625 4250 1398 4047 
Q 1172 3844 1172 3481 
z
" transform="scale(0.015625)"/>
       </defs>
       <use xlink:href="#DejaVuSans-2212"/>
       <use xlink:href="#DejaVuSans-30" x="83.789062"/>
       <use xlink:href="#DejaVuSans-2e" x="147.412109"/>
       <use xlink:href="#DejaVuSans-38" x="179.199219"/>
      </g>
     </g>
    </g>
    <g id="xtick_2">
     <g id="line2d_3">
      <path d="M 349.199871 512.64 
L 349.199871 69.12 
" clip-path="url(#pdc3b8a6597)" style="fill: none; stroke: #b0b0b0; stroke-width: 0.8; stroke-linecap: square"/>
     </g>
     <g id="line2d_4">
      <g>
       <use xlink:href="#ma6a05aee8e" x="349.199871" y="512.64" style="stroke: #000000; stroke-width: 0.8"/>
      </g>
     </g>
     <g id="text_2">
      <!-- −0.6 -->
      <g transform="translate(337.058465 527.238438) scale(0.1 -0.1)">
       <defs>
        <path id="DejaVuSans-36" d="M 2113 2584 
Q 1688 2584 1439 2293 
Q 1191 2003 1191 1497 
Q 1191 994 1439 701 
Q 1688 409 2113 409 
Q 2538 409 2786 701 
Q 3034 994 3034 1497 
Q 3034 2003 2786 2293 
Q 2538 2584 2113 2584 
z
M 3366 4563 
L 3366 3988 
Q 3128 4100 2886 4159 
Q 2644 4219 2406 4219 
Q 1781 4219 1451 3797 
Q 1122 3375 1075 2522 
Q 1259 2794 1537 2939 
Q 1816 3084 2150 3084 
Q 2853 3084 3261 2657 
Q 3669 2231 3669 1497 
Q 3669 778 3244 343 
Q 2819 -91 2113 -91 
Q 1303 -91 875 529 
Q 447 1150 447 2328 
Q 447 3434 972 4092 
Q 1497 4750 2381 4750 
Q 2619 4750 2861 4703 
Q 3103 4656 3366 4563 
z
" transform="scale(0.015625)"/>
       </defs>
       <use xlink:href="#DejaVuSans-2212"/>
       <use xlink:href="#DejaVuSans-30" x="83.789062"/>
       <use xlink:href="#DejaVuSans-2e" x="147.412109"/>
       <use xlink:href="#DejaVuSans-36" x="179.199219"/>
      </g>
     </g>
    </g>
    <g id="xtick_3">
     <g id="line2d_5">
      <path d="M 480.109054 512.64 
L 480.109054 69.12 
" clip-path="url(#pdc3b8a6597)" style="fill: none; stroke: #b0b0b0; stroke-width: 0.8; stroke-linecap: square"/>
     </g>
     <g id="line2d_6">
      <g>
       <use xlink:href="#ma6a05aee8e" x="480.109054" y="512.64" style="stroke: #000000; stroke-width: 0.8"/>
      </g>
     </g>
     <g id="text_3">
      <!-- −0.4 -->
      <g transform="translate(467.967647 527.238438) scale(0.1 -0.1)">
       <defs>
        <path id="DejaVuSans-34" d="M 2419 4116 
L 825 1625 
L 2419 1625 
L 2419 4116 
z
M 2253 4666 
L 3047 4666 
L 3047 1625 
L 3713 1625 
L 3713 1100 
L 3047 1100 
L 3047 0 
L 2419 0 
L 2419 1100 
L 313 1100 
L 313 1709 
L 2253 4666 
z
" transform="scale(0.015625)"/>
       </defs>
       <use xlink:href="#DejaVuSans-2212"/>
       <use xlink:href="#DejaVuSans-30" x="83.789062"/>
       <use xlink:href="#DejaVuSans-2e" x="147.412109"/>
       <use xlink:href="#DejaVuSans-34" x="179.199219"/>
      </g>
     </g>
    </g>
    <g id="xtick_4">
     <g id="line2d_7">
      <path d="M 611.018236 512.64 
L 611.018236 69.12 
" clip-path="url(#pdc3b8a6597)" style="fill: none; stroke: #b0b0b0; stroke-width: 0.8; stroke-linecap: square"/>
     </g>
     <g id="line2d_8">
      <g>
       <use xlink:href="#ma6a05aee8e" x="611.018236" y="512.64" style="stroke: #000000; stroke-width: 0.8"/>
      </g>
     </g>
     <g id="text_4">
      <!-- −0.2 -->
      <g transform="translate(598.87683 527.238438) scale(0.1 -0.1)">
       <defs>
        <path id="DejaVuSans-32" d="M 1228 531 
L 3431 531 
L 3431 0 
L 469 0 
L 469 531 
Q 828 903 1448 1529 
Q 2069 2156 2228 2338 
Q 2531 2678 2651 2914 
Q 2772 3150 2772 3378 
Q 2772 3750 2511 3984 
Q 2250 4219 1831 4219 
Q 1534 4219 1204 4116 
Q 875 4013 500 3803 
L 500 4441 
Q 881 4594 1212 4672 
Q 1544 4750 1819 4750 
Q 2544 4750 2975 4387 
Q 3406 4025 3406 3419 
Q 3406 3131 3298 2873 
Q 3191 2616 2906 2266 
Q 2828 2175 2409 1742 
Q 1991 1309 1228 531 
z
" transform="scale(0.015625)"/>
       </defs>
       <use xlink:href="#DejaVuSans-2212"/>
       <use xlink:href="#DejaVuSans-30" x="83.789062"/>
       <use xlink:href="#DejaVuSans-2e" x="147.412109"/>
       <use xlink:href="#DejaVuSans-32" x="179.199219"/>
      </g>
     </g>
    </g>
    <g id="xtick_5">
     <g id="line2d_9">
      <path d="M 741.927419 512.64 
L 741.927419 69.12 
" clip-path="url(#pdc3b8a6597)" style="fill: none; stroke: #b0b0b0; stroke-width: 0.8; stroke-linecap: square"/>
     </g>
     <g id="line2d_10">
      <g>
       <use xlink:href="#ma6a05aee8e" x="741.927419" y="512.64" style="stroke: #000000; stroke-width: 0.8"/>
      </g>
     </g>
     <g id="text_5">
      <!-- 0.0 -->
      <g transform="translate(733.975856 527.238438) scale(0.1 -0.1)">
       <use xlink:href="#DejaVuSans-30"/>
       <use xlink:href="#DejaVuSans-2e" x="63.623047"/>
       <use xlink:href="#DejaVuSans-30" x="95.410156"/>
      </g>
     </g>
    </g>
    <g id="text_6">
     <!-- Distance from Cloud Droplet Probe Sample Volume [m] -->
     <g transform="translate(305.148438 540.916563) scale(0.1 -0.1)">
      <defs>
       <path id="DejaVuSans-44" d="M 1259 4147 
L 1259 519 
L 2022 519 
Q 2988 519 3436 956 
Q 3884 1394 3884 2338 
Q 3884 3275 3436 3711 
Q 2988 4147 2022 4147 
L 1259 4147 
z
M 628 4666 
L 1925 4666 
Q 3281 4666 3915 4102 
Q 4550 3538 4550 2338 
Q 4550 1131 3912 565 
Q 3275 0 1925 0 
L 628 0 
L 628 4666 
z
" transform="scale(0.015625)"/>
       <path id="DejaVuSans-69" d="M 603 3500 
L 1178 3500 
L 1178 0 
L 603 0 
L 603 3500 
z
M 603 4863 
L 1178 4863 
L 1178 4134 
L 603 4134 
L 603 4863 
z
" transform="scale(0.015625)"/>
       <path id="DejaVuSans-73" d="M 2834 3397 
L 2834 2853 
Q 2591 2978 2328 3040 
Q 2066 3103 1784 3103 
Q 1356 3103 1142 2972 
Q 928 2841 928 2578 
Q 928 2378 1081 2264 
Q 1234 2150 1697 2047 
L 1894 2003 
Q 2506 1872 2764 1633 
Q 3022 1394 3022 966 
Q 3022 478 2636 193 
Q 2250 -91 1575 -91 
Q 1294 -91 989 -36 
Q 684 19 347 128 
L 347 722 
Q 666 556 975 473 
Q 1284 391 1588 391 
Q 1994 391 2212 530 
Q 2431 669 2431 922 
Q 2431 1156 2273 1281 
Q 2116 1406 1581 1522 
L 1381 1569 
Q 847 1681 609 1914 
Q 372 2147 372 2553 
Q 372 3047 722 3315 
Q 1072 3584 1716 3584 
Q 2034 3584 2315 3537 
Q 2597 3491 2834 3397 
z
" transform="scale(0.015625)"/>
       <path id="DejaVuSans-74" d="M 1172 4494 
L 1172 3500 
L 2356 3500 
L 2356 3053 
L 1172 3053 
L 1172 1153 
Q 1172 725 1289 603 
Q 1406 481 1766 481 
L 2356 481 
L 2356 0 
L 1766 0 
Q 1100 0 847 248 
Q 594 497 594 1153 
L 594 3053 
L 172 3053 
L 172 3500 
L 594 3500 
L 594 4494 
L 1172 4494 
z
" transform="scale(0.015625)"/>
       <path id="DejaVuSans-61" d="M 2194 1759 
Q 1497 1759 1228 1600 
Q 959 1441 959 1056 
Q 959 750 1161 570 
Q 1363 391 1709 391 
Q 2188 391 2477 730 
Q 2766 1069 2766 1631 
L 2766 1759 
L 2194 1759 
z
M 3341 1997 
L 3341 0 
L 2766 0 
L 2766 531 
Q 2569 213 2275 61 
Q 1981 -91 1556 -91 
Q 1019 -91 701 211 
Q 384 513 384 1019 
Q 384 1609 779 1909 
Q 1175 2209 1959 2209 
L 2766 2209 
L 2766 2266 
Q 2766 2663 2505 2880 
Q 2244 3097 1772 3097 
Q 1472 3097 1187 3025 
Q 903 2953 641 2809 
L 641 3341 
Q 956 3463 1253 3523 
Q 1550 3584 1831 3584 
Q 2591 3584 2966 3190 
Q 3341 2797 3341 1997 
z
" transform="scale(0.015625)"/>
       <path id="DejaVuSans-6e" d="M 3513 2113 
L 3513 0 
L 2938 0 
L 2938 2094 
Q 2938 2591 2744 2837 
Q 2550 3084 2163 3084 
Q 1697 3084 1428 2787 
Q 1159 2491 1159 1978 
L 1159 0 
L 581 0 
L 581 3500 
L 1159 3500 
L 1159 2956 
Q 1366 3272 1645 3428 
Q 1925 3584 2291 3584 
Q 2894 3584 3203 3211 
Q 3513 2838 3513 2113 
z
" transform="scale(0.015625)"/>
       <path id="DejaVuSans-63" d="M 3122 3366 
L 3122 2828 
Q 2878 2963 2633 3030 
Q 2388 3097 2138 3097 
Q 1578 3097 1268 2742 
Q 959 2388 959 1747 
Q 959 1106 1268 751 
Q 1578 397 2138 397 
Q 2388 397 2633 464 
Q 2878 531 3122 666 
L 3122 134 
Q 2881 22 2623 -34 
Q 2366 -91 2075 -91 
Q 1284 -91 818 406 
Q 353 903 353 1747 
Q 353 2603 823 3093 
Q 1294 3584 2113 3584 
Q 2378 3584 2631 3529 
Q 2884 3475 3122 3366 
z
" transform="scale(0.015625)"/>
       <path id="DejaVuSans-65" d="M 3597 1894 
L 3597 1613 
L 953 1613 
Q 991 1019 1311 708 
Q 1631 397 2203 397 
Q 2534 397 2845 478 
Q 3156 559 3463 722 
L 3463 178 
Q 3153 47 2828 -22 
Q 2503 -91 2169 -91 
Q 1331 -91 842 396 
Q 353 884 353 1716 
Q 353 2575 817 3079 
Q 1281 3584 2069 3584 
Q 2775 3584 3186 3129 
Q 3597 2675 3597 1894 
z
M 3022 2063 
Q 3016 2534 2758 2815 
Q 2500 3097 2075 3097 
Q 1594 3097 1305 2825 
Q 1016 2553 972 2059 
L 3022 2063 
z
" transform="scale(0.015625)"/>
       <path id="DejaVuSans-20" transform="scale(0.015625)"/>
       <path id="DejaVuSans-66" d="M 2375 4863 
L 2375 4384 
L 1825 4384 
Q 1516 4384 1395 4259 
Q 1275 4134 1275 3809 
L 1275 3500 
L 2222 3500 
L 2222 3053 
L 1275 3053 
L 1275 0 
L 697 0 
L 697 3053 
L 147 3053 
L 147 3500 
L 697 3500 
L 697 3744 
Q 697 4328 969 4595 
Q 1241 4863 1831 4863 
L 2375 4863 
z
" transform="scale(0.015625)"/>
       <path id="DejaVuSans-72" d="M 2631 2963 
Q 2534 3019 2420 3045 
Q 2306 3072 2169 3072 
Q 1681 3072 1420 2755 
Q 1159 2438 1159 1844 
L 1159 0 
L 581 0 
L 581 3500 
L 1159 3500 
L 1159 2956 
Q 1341 3275 1631 3429 
Q 1922 3584 2338 3584 
Q 2397 3584 2469 3576 
Q 2541 3569 2628 3553 
L 2631 2963 
z
" transform="scale(0.015625)"/>
       <path id="DejaVuSans-6f" d="M 1959 3097 
Q 1497 3097 1228 2736 
Q 959 2375 959 1747 
Q 959 1119 1226 758 
Q 1494 397 1959 397 
Q 2419 397 2687 759 
Q 2956 1122 2956 1747 
Q 2956 2369 2687 2733 
Q 2419 3097 1959 3097 
z
M 1959 3584 
Q 2709 3584 3137 3096 
Q 3566 2609 3566 1747 
Q 3566 888 3137 398 
Q 2709 -91 1959 -91 
Q 1206 -91 779 398 
Q 353 888 353 1747 
Q 353 2609 779 3096 
Q 1206 3584 1959 3584 
z
" transform="scale(0.015625)"/>
       <path id="DejaVuSans-6d" d="M 3328 2828 
Q 3544 3216 3844 3400 
Q 4144 3584 4550 3584 
Q 5097 3584 5394 3201 
Q 5691 2819 5691 2113 
L 5691 0 
L 5113 0 
L 5113 2094 
Q 5113 2597 4934 2840 
Q 4756 3084 4391 3084 
Q 3944 3084 3684 2787 
Q 3425 2491 3425 1978 
L 3425 0 
L 2847 0 
L 2847 2094 
Q 2847 2600 2669 2842 
Q 2491 3084 2119 3084 
Q 1678 3084 1418 2786 
Q 1159 2488 1159 1978 
L 1159 0 
L 581 0 
L 581 3500 
L 1159 3500 
L 1159 2956 
Q 1356 3278 1631 3431 
Q 1906 3584 2284 3584 
Q 2666 3584 2933 3390 
Q 3200 3197 3328 2828 
z
" transform="scale(0.015625)"/>
       <path id="DejaVuSans-43" d="M 4122 4306 
L 4122 3641 
Q 3803 3938 3442 4084 
Q 3081 4231 2675 4231 
Q 1875 4231 1450 3742 
Q 1025 3253 1025 2328 
Q 1025 1406 1450 917 
Q 1875 428 2675 428 
Q 3081 428 3442 575 
Q 3803 722 4122 1019 
L 4122 359 
Q 3791 134 3420 21 
Q 3050 -91 2638 -91 
Q 1578 -91 968 557 
Q 359 1206 359 2328 
Q 359 3453 968 4101 
Q 1578 4750 2638 4750 
Q 3056 4750 3426 4639 
Q 3797 4528 4122 4306 
z
" transform="scale(0.015625)"/>
       <path id="DejaVuSans-6c" d="M 603 4863 
L 1178 4863 
L 1178 0 
L 603 0 
L 603 4863 
z
" transform="scale(0.015625)"/>
       <path id="DejaVuSans-75" d="M 544 1381 
L 544 3500 
L 1119 3500 
L 1119 1403 
Q 1119 906 1312 657 
Q 1506 409 1894 409 
Q 2359 409 2629 706 
Q 2900 1003 2900 1516 
L 2900 3500 
L 3475 3500 
L 3475 0 
L 2900 0 
L 2900 538 
Q 2691 219 2414 64 
Q 2138 -91 1772 -91 
Q 1169 -91 856 284 
Q 544 659 544 1381 
z
M 1991 3584 
L 1991 3584 
z
" transform="scale(0.015625)"/>
       <path id="DejaVuSans-64" d="M 2906 2969 
L 2906 4863 
L 3481 4863 
L 3481 0 
L 2906 0 
L 2906 525 
Q 2725 213 2448 61 
Q 2172 -91 1784 -91 
Q 1150 -91 751 415 
Q 353 922 353 1747 
Q 353 2572 751 3078 
Q 1150 3584 1784 3584 
Q 2172 3584 2448 3432 
Q 2725 3281 2906 2969 
z
M 947 1747 
Q 947 1113 1208 752 
Q 1469 391 1925 391 
Q 2381 391 2643 752 
Q 2906 1113 2906 1747 
Q 2906 2381 2643 2742 
Q 2381 3103 1925 3103 
Q 1469 3103 1208 2742 
Q 947 2381 947 1747 
z
" transform="scale(0.015625)"/>
       <path id="DejaVuSans-70" d="M 1159 525 
L 1159 -1331 
L 581 -1331 
L 581 3500 
L 1159 3500 
L 1159 2969 
Q 1341 3281 1617 3432 
Q 1894 3584 2278 3584 
Q 2916 3584 3314 3078 
Q 3713 2572 3713 1747 
Q 3713 922 3314 415 
Q 2916 -91 2278 -91 
Q 1894 -91 1617 61 
Q 1341 213 1159 525 
z
M 3116 1747 
Q 3116 2381 2855 2742 
Q 2594 3103 2138 3103 
Q 1681 3103 1420 2742 
Q 1159 2381 1159 1747 
Q 1159 1113 1420 752 
Q 1681 391 2138 391 
Q 2594 391 2855 752 
Q 3116 1113 3116 1747 
z
" transform="scale(0.015625)"/>
       <path id="DejaVuSans-50" d="M 1259 4147 
L 1259 2394 
L 2053 2394 
Q 2494 2394 2734 2622 
Q 2975 2850 2975 3272 
Q 2975 3691 2734 3919 
Q 2494 4147 2053 4147 
L 1259 4147 
z
M 628 4666 
L 2053 4666 
Q 2838 4666 3239 4311 
Q 3641 3956 3641 3272 
Q 3641 2581 3239 2228 
Q 2838 1875 2053 1875 
L 1259 1875 
L 1259 0 
L 628 0 
L 628 4666 
z
" transform="scale(0.015625)"/>
       <path id="DejaVuSans-62" d="M 3116 1747 
Q 3116 2381 2855 2742 
Q 2594 3103 2138 3103 
Q 1681 3103 1420 2742 
Q 1159 2381 1159 1747 
Q 1159 1113 1420 752 
Q 1681 391 2138 391 
Q 2594 391 2855 752 
Q 3116 1113 3116 1747 
z
M 1159 2969 
Q 1341 3281 1617 3432 
Q 1894 3584 2278 3584 
Q 2916 3584 3314 3078 
Q 3713 2572 3713 1747 
Q 3713 922 3314 415 
Q 2916 -91 2278 -91 
Q 1894 -91 1617 61 
Q 1341 213 1159 525 
L 1159 0 
L 581 0 
L 581 4863 
L 1159 4863 
L 1159 2969 
z
" transform="scale(0.015625)"/>
       <path id="DejaVuSans-53" d="M 3425 4513 
L 3425 3897 
Q 3066 4069 2747 4153 
Q 2428 4238 2131 4238 
Q 1616 4238 1336 4038 
Q 1056 3838 1056 3469 
Q 1056 3159 1242 3001 
Q 1428 2844 1947 2747 
L 2328 2669 
Q 3034 2534 3370 2195 
Q 3706 1856 3706 1288 
Q 3706 609 3251 259 
Q 2797 -91 1919 -91 
Q 1588 -91 1214 -16 
Q 841 59 441 206 
L 441 856 
Q 825 641 1194 531 
Q 1563 422 1919 422 
Q 2459 422 2753 634 
Q 3047 847 3047 1241 
Q 3047 1584 2836 1778 
Q 2625 1972 2144 2069 
L 1759 2144 
Q 1053 2284 737 2584 
Q 422 2884 422 3419 
Q 422 4038 858 4394 
Q 1294 4750 2059 4750 
Q 2388 4750 2728 4690 
Q 3069 4631 3425 4513 
z
" transform="scale(0.015625)"/>
       <path id="DejaVuSans-56" d="M 1831 0 
L 50 4666 
L 709 4666 
L 2188 738 
L 3669 4666 
L 4325 4666 
L 2547 0 
L 1831 0 
z
" transform="scale(0.015625)"/>
       <path id="DejaVuSans-5b" d="M 550 4863 
L 1875 4863 
L 1875 4416 
L 1125 4416 
L 1125 -397 
L 1875 -397 
L 1875 -844 
L 550 -844 
L 550 4863 
z
" transform="scale(0.015625)"/>
       <path id="DejaVuSans-5d" d="M 1947 4863 
L 1947 -844 
L 622 -844 
L 622 -397 
L 1369 -397 
L 1369 4416 
L 622 4416 
L 622 4863 
L 1947 4863 
z
" transform="scale(0.015625)"/>
      </defs>
      <use xlink:href="#DejaVuSans-44"/>
      <use xlink:href="#DejaVuSans-69" x="77.001953"/>
      <use xlink:href="#DejaVuSans-73" x="104.785156"/>
      <use xlink:href="#DejaVuSans-74" x="156.884766"/>
      <use xlink:href="#DejaVuSans-61" x="196.09375"/>
      <use xlink:href="#DejaVuSans-6e" x="257.373047"/>
      <use xlink:href="#DejaVuSans-63" x="320.751953"/>
      <use xlink:href="#DejaVuSans-65" x="375.732422"/>
      <use xlink:href="#DejaVuSans-20" x="437.255859"/>
      <use xlink:href="#DejaVuSans-66" x="469.042969"/>
      <use xlink:href="#DejaVuSans-72" x="504.248047"/>
      <use xlink:href="#DejaVuSans-6f" x="543.111328"/>
      <use xlink:href="#DejaVuSans-6d" x="604.292969"/>
      <use xlink:href="#DejaVuSans-20" x="701.705078"/>
      <use xlink:href="#DejaVuSans-43" x="733.492188"/>
      <use xlink:href="#DejaVuSans-6c" x="803.316406"/>
      <use xlink:href="#DejaVuSans-6f" x="831.099609"/>
      <use xlink:href="#DejaVuSans-75" x="892.28125"/>
      <use xlink:href="#DejaVuSans-64" x="955.660156"/>
      <use xlink:href="#DejaVuSans-20" x="1019.136719"/>
      <use xlink:href="#DejaVuSans-44" x="1050.923828"/>
      <use xlink:href="#DejaVuSans-72" x="1127.925781"/>
      <use xlink:href="#DejaVuSans-6f" x="1166.789062"/>
      <use xlink:href="#DejaVuSans-70" x="1227.970703"/>
      <use xlink:href="#DejaVuSans-6c" x="1291.447266"/>
      <use xlink:href="#DejaVuSans-65" x="1319.230469"/>
      <use xlink:href="#DejaVuSans-74" x="1380.753906"/>
      <use xlink:href="#DejaVuSans-20" x="1419.962891"/>
      <use xlink:href="#DejaVuSans-50" x="1451.75"/>
      <use xlink:href="#DejaVuSans-72" x="1510.302734"/>
      <use xlink:href="#DejaVuSans-6f" x="1549.166016"/>
      <use xlink:href="#DejaVuSans-62" x="1610.347656"/>
      <use xlink:href="#DejaVuSans-65" x="1673.824219"/>
      <use xlink:href="#DejaVuSans-20" x="1735.347656"/>
      <use xlink:href="#DejaVuSans-53" x="1767.134766"/>
      <use xlink:href="#DejaVuSans-61" x="1830.611328"/>
      <use xlink:href="#DejaVuSans-6d" x="1891.890625"/>
      <use xlink:href="#DejaVuSans-70" x="1989.302734"/>
      <use xlink:href="#DejaVuSans-6c" x="2052.779297"/>
      <use xlink:href="#DejaVuSans-65" x="2080.5625"/>
      <use xlink:href="#DejaVuSans-20" x="2142.085938"/>
      <use xlink:href="#DejaVuSans-56" x="2173.873047"/>
      <use xlink:href="#DejaVuSans-6f" x="2234.53125"/>
      <use xlink:href="#DejaVuSans-6c" x="2295.712891"/>
      <use xlink:href="#DejaVuSans-75" x="2323.496094"/>
      <use xlink:href="#DejaVuSans-6d" x="2386.875"/>
      <use xlink:href="#DejaVuSans-65" x="2484.287109"/>
      <use xlink:href="#DejaVuSans-20" x="2545.810547"/>
      <use xlink:href="#DejaVuSans-5b" x="2577.597656"/>
      <use xlink:href="#DejaVuSans-6d" x="2616.611328"/>
      <use xlink:href="#DejaVuSans-5d" x="2714.023438"/>
     </g>
    </g>
   </g>
   <g id="matplotlib.axis_2">
    <g id="ytick_1">
     <g id="line2d_11">
      <path d="M 108 489.895385 
L 777.6 489.895385 
" clip-path="url(#pdc3b8a6597)" style="fill: none; stroke: #b0b0b0; stroke-width: 0.8; stroke-linecap: square"/>
     </g>
     <g id="line2d_12">
      <defs>
       <path id="m6e5e54a77c" d="M 0 0 
L -3.5 0 
" style="stroke: #000000; stroke-width: 0.8"/>
      </defs>
      <g>
       <use xlink:href="#m6e5e54a77c" x="108" y="489.895385" style="stroke: #000000; stroke-width: 0.8"/>
      </g>
     </g>
     <g id="text_7">
      <!-- −25 -->
      <g transform="translate(79.895313 493.694603) scale(0.1 -0.1)">
       <defs>
        <path id="DejaVuSans-35" d="M 691 4666 
L 3169 4666 
L 3169 4134 
L 1269 4134 
L 1269 2991 
Q 1406 3038 1543 3061 
Q 1681 3084 1819 3084 
Q 2600 3084 3056 2656 
Q 3513 2228 3513 1497 
Q 3513 744 3044 326 
Q 2575 -91 1722 -91 
Q 1428 -91 1123 -41 
Q 819 9 494 109 
L 494 744 
Q 775 591 1075 516 
Q 1375 441 1709 441 
Q 2250 441 2565 725 
Q 2881 1009 2881 1497 
Q 2881 1984 2565 2268 
Q 2250 2553 1709 2553 
Q 1456 2553 1204 2497 
Q 953 2441 691 2322 
L 691 4666 
z
" transform="scale(0.015625)"/>
       </defs>
       <use xlink:href="#DejaVuSans-2212"/>
       <use xlink:href="#DejaVuSans-32" x="83.789062"/>
       <use xlink:href="#DejaVuSans-35" x="147.412109"/>
      </g>
     </g>
    </g>
    <g id="ytick_2">
     <g id="line2d_13">
      <path d="M 108 433.033846 
L 777.6 433.033846 
" clip-path="url(#pdc3b8a6597)" style="fill: none; stroke: #b0b0b0; stroke-width: 0.8; stroke-linecap: square"/>
     </g>
     <g id="line2d_14">
      <g>
       <use xlink:href="#m6e5e54a77c" x="108" y="433.033846" style="stroke: #000000; stroke-width: 0.8"/>
      </g>
     </g>
     <g id="text_8">
      <!-- 0 -->
      <g transform="translate(94.6375 436.833065) scale(0.1 -0.1)">
       <use xlink:href="#DejaVuSans-30"/>
      </g>
     </g>
    </g>
    <g id="ytick_3">
     <g id="line2d_15">
      <path d="M 108 376.172308 
L 777.6 376.172308 
" clip-path="url(#pdc3b8a6597)" style="fill: none; stroke: #b0b0b0; stroke-width: 0.8; stroke-linecap: square"/>
     </g>
     <g id="line2d_16">
      <g>
       <use xlink:href="#m6e5e54a77c" x="108" y="376.172308" style="stroke: #000000; stroke-width: 0.8"/>
      </g>
     </g>
     <g id="text_9">
      <!-- 25 -->
      <g transform="translate(88.275 379.971526) scale(0.1 -0.1)">
       <use xlink:href="#DejaVuSans-32"/>
       <use xlink:href="#DejaVuSans-35" x="63.623047"/>
      </g>
     </g>
    </g>
    <g id="ytick_4">
     <g id="line2d_17">
      <path d="M 108 319.310769 
L 777.6 319.310769 
" clip-path="url(#pdc3b8a6597)" style="fill: none; stroke: #b0b0b0; stroke-width: 0.8; stroke-linecap: square"/>
     </g>
     <g id="line2d_18">
      <g>
       <use xlink:href="#m6e5e54a77c" x="108" y="319.310769" style="stroke: #000000; stroke-width: 0.8"/>
      </g>
     </g>
     <g id="text_10">
      <!-- 50 -->
      <g transform="translate(88.275 323.109988) scale(0.1 -0.1)">
       <use xlink:href="#DejaVuSans-35"/>
       <use xlink:href="#DejaVuSans-30" x="63.623047"/>
      </g>
     </g>
    </g>
    <g id="ytick_5">
     <g id="line2d_19">
      <path d="M 108 262.449231 
L 777.6 262.449231 
" clip-path="url(#pdc3b8a6597)" style="fill: none; stroke: #b0b0b0; stroke-width: 0.8; stroke-linecap: square"/>
     </g>
     <g id="line2d_20">
      <g>
       <use xlink:href="#m6e5e54a77c" x="108" y="262.449231" style="stroke: #000000; stroke-width: 0.8"/>
      </g>
     </g>
     <g id="text_11">
      <!-- 75 -->
      <g transform="translate(88.275 266.24845) scale(0.1 -0.1)">
       <defs>
        <path id="DejaVuSans-37" d="M 525 4666 
L 3525 4666 
L 3525 4397 
L 1831 0 
L 1172 0 
L 2766 4134 
L 525 4134 
L 525 4666 
z
" transform="scale(0.015625)"/>
       </defs>
       <use xlink:href="#DejaVuSans-37"/>
       <use xlink:href="#DejaVuSans-35" x="63.623047"/>
      </g>
     </g>
    </g>
    <g id="ytick_6">
     <g id="line2d_21">
      <path d="M 108 205.587692 
L 777.6 205.587692 
" clip-path="url(#pdc3b8a6597)" style="fill: none; stroke: #b0b0b0; stroke-width: 0.8; stroke-linecap: square"/>
     </g>
     <g id="line2d_22">
      <g>
       <use xlink:href="#m6e5e54a77c" x="108" y="205.587692" style="stroke: #000000; stroke-width: 0.8"/>
      </g>
     </g>
     <g id="text_12">
      <!-- 100 -->
      <g transform="translate(81.9125 209.386911) scale(0.1 -0.1)">
       <defs>
        <path id="DejaVuSans-31" d="M 794 531 
L 1825 531 
L 1825 4091 
L 703 3866 
L 703 4441 
L 1819 4666 
L 2450 4666 
L 2450 531 
L 3481 531 
L 3481 0 
L 794 0 
L 794 531 
z
" transform="scale(0.015625)"/>
       </defs>
       <use xlink:href="#DejaVuSans-31"/>
       <use xlink:href="#DejaVuSans-30" x="63.623047"/>
       <use xlink:href="#DejaVuSans-30" x="127.246094"/>
      </g>
     </g>
    </g>
    <g id="ytick_7">
     <g id="line2d_23">
      <path d="M 108 148.726154 
L 777.6 148.726154 
" clip-path="url(#pdc3b8a6597)" style="fill: none; stroke: #b0b0b0; stroke-width: 0.8; stroke-linecap: square"/>
     </g>
     <g id="line2d_24">
      <g>
       <use xlink:href="#m6e5e54a77c" x="108" y="148.726154" style="stroke: #000000; stroke-width: 0.8"/>
      </g>
     </g>
     <g id="text_13">
      <!-- 125 -->
      <g transform="translate(81.9125 152.525373) scale(0.1 -0.1)">
       <use xlink:href="#DejaVuSans-31"/>
       <use xlink:href="#DejaVuSans-32" x="63.623047"/>
       <use xlink:href="#DejaVuSans-35" x="127.246094"/>
      </g>
     </g>
    </g>
    <g id="ytick_8">
     <g id="line2d_25">
      <path d="M 108 91.864615 
L 777.6 91.864615 
" clip-path="url(#pdc3b8a6597)" style="fill: none; stroke: #b0b0b0; stroke-width: 0.8; stroke-linecap: square"/>
     </g>
     <g id="line2d_26">
      <g>
       <use xlink:href="#m6e5e54a77c" x="108" y="91.864615" style="stroke: #000000; stroke-width: 0.8"/>
      </g>
     </g>
     <g id="text_14">
      <!-- 150 -->
      <g transform="translate(81.9125 95.663834) scale(0.1 -0.1)">
       <use xlink:href="#DejaVuSans-31"/>
       <use xlink:href="#DejaVuSans-35" x="63.623047"/>
       <use xlink:href="#DejaVuSans-30" x="127.246094"/>
      </g>
     </g>
    </g>
    <g id="text_15">
     <!-- Velocity [m/s] -->
     <g transform="translate(73.815625 325.145625) rotate(-90) scale(0.1 -0.1)">
      <defs>
       <path id="DejaVuSans-79" d="M 2059 -325 
Q 1816 -950 1584 -1140 
Q 1353 -1331 966 -1331 
L 506 -1331 
L 506 -850 
L 844 -850 
Q 1081 -850 1212 -737 
Q 1344 -625 1503 -206 
L 1606 56 
L 191 3500 
L 800 3500 
L 1894 763 
L 2988 3500 
L 3597 3500 
L 2059 -325 
z
" transform="scale(0.015625)"/>
       <path id="DejaVuSans-2f" d="M 1625 4666 
L 2156 4666 
L 531 -594 
L 0 -594 
L 1625 4666 
z
" transform="scale(0.015625)"/>
      </defs>
      <use xlink:href="#DejaVuSans-56"/>
      <use xlink:href="#DejaVuSans-65" x="60.658203"/>
      <use xlink:href="#DejaVuSans-6c" x="122.181641"/>
      <use xlink:href="#DejaVuSans-6f" x="149.964844"/>
      <use xlink:href="#DejaVuSans-63" x="211.146484"/>
      <use xlink:href="#DejaVuSans-69" x="266.126953"/>
      <use xlink:href="#DejaVuSans-74" x="293.910156"/>
      <use xlink:href="#DejaVuSans-79" x="333.119141"/>
      <use xlink:href="#DejaVuSans-20" x="392.298828"/>
      <use xlink:href="#DejaVuSans-5b" x="424.085938"/>
      <use xlink:href="#DejaVuSans-6d" x="463.099609"/>
      <use xlink:href="#DejaVuSans-2f" x="560.511719"/>
      <use xlink:href="#DejaVuSans-73" x="594.203125"/>
      <use xlink:href="#DejaVuSans-5d" x="646.302734"/>
     </g>
    </g>
   </g>
   <g id="line2d_27">
    <path d="M 138.436364 169.357168 
L 144.523166 169.531841 
L 150.610595 169.70221 
L 156.698024 169.862099 
L 162.785453 170.006803 
L 168.872257 170.13301 
L 174.959686 170.238706 
L 181.047115 170.322832 
L 187.134544 170.385163 
L 193.221348 170.426029 
L 199.308777 170.44621 
L 205.396206 170.446748 
L 211.483635 170.428996 
L 217.570439 170.394499 
L 223.657868 170.345165 
L 229.745297 170.283493 
L 235.832726 170.213058 
L 241.91953 170.13917 
L 248.006959 170.069481 
L 254.094388 170.013727 
L 260.181817 169.981937 
L 266.268621 170.047305 
L 272.35605 170.103736 
L 278.443479 170.160167 
L 284.530908 170.216598 
L 290.617712 170.273029 
L 296.705141 170.329461 
L 302.79257 170.385892 
L 308.879999 170.442323 
L 314.967428 170.498737 
L 321.054232 170.555168 
L 327.141661 170.611599 
L 333.22909 170.66803 
L 339.316519 170.724444 
L 345.403323 170.777578 
L 351.490752 170.740825 
L 357.578181 170.704089 
L 363.665609 170.667336 
L 369.752414 170.630583 
L 375.839843 170.593847 
L 381.927272 170.557094 
L 388.0147 170.520358 
L 394.101505 170.483623 
L 400.188934 170.446887 
L 406.276363 170.410151 
L 412.363791 170.373415 
L 418.450596 170.336697 
L 424.538025 170.299961 
L 430.625454 170.247833 
L 436.712882 170.18571 
L 442.799687 170.123605 
L 448.887116 170.061482 
L 454.974545 169.999359 
L 461.061973 169.937236 
L 467.148778 169.87513 
L 473.236207 169.81299 
L 479.323636 169.750867 
L 485.411064 169.688727 
L 491.497869 169.626604 
L 497.585298 169.564464 
L 503.672727 169.502324 
L 509.760155 169.084209 
L 515.84696 169.082179 
L 521.934389 169.085424 
L 528.021818 169.084087 
L 534.109246 169.069858 
L 540.196675 169.039196 
L 546.28348 168.993922 
L 552.370909 168.940233 
L 558.458337 168.887116 
L 564.545766 168.845209 
L 570.632571 168.825479 
L 576.72 168.835301 
L 582.807428 168.867993 
L 588.894857 168.893155 
L 594.981662 168.61053 
L 601.06909 168.608882 
L 607.156519 168.607129 
L 613.243948 168.605273 
L 619.330753 168.603329 
L 625.418181 168.601281 
L 631.50561 168.6144 
L 637.593039 168.788622 
L 643.679844 168.962705 
L 649.767272 169.136649 
L 655.854701 169.58881 
L 661.94213 169.619906 
L 668.028935 169.704154 
L 674.116363 170.116473 
L 680.203792 170.70933 
L 686.291221 171.300955 
L 692.378026 173.153571 
L 698.465454 174.266109 
L 704.552883 176.253694 
L 710.640312 178.360788 
L 716.727117 181.386139 
L 722.814545 185.555383 
L 728.901974 192.788016 
L 734.989403 235.321359 
L 741.076208 321.144184 
L 747.163636 393.846163 
" clip-path="url(#pdc3b8a6597)" style="fill: none; stroke: #1f77b4; stroke-width: 1.5; stroke-linecap: square"/>
   </g>
   <g id="line2d_28">
    <path d="M 138.436364 434.892389 
L 144.523166 435.021583 
L 150.610595 435.161922 
L 156.698024 435.310698 
L 162.785453 435.465322 
L 168.872257 435.623393 
L 174.959686 435.782777 
L 181.047115 435.941476 
L 187.134544 436.097635 
L 193.221348 436.249452 
L 199.308777 436.395202 
L 205.396206 436.533125 
L 211.483635 436.661503 
L 217.570439 436.778687 
L 223.657868 436.883216 
L 229.745297 436.973857 
L 235.832726 437.049779 
L 241.91953 437.110693 
L 248.006959 437.157006 
L 254.094388 437.189837 
L 260.181817 437.210895 
L 266.268621 437.592544 
L 272.35605 437.783803 
L 278.443479 437.975062 
L 284.530908 438.166322 
L 290.617712 438.357562 
L 296.705141 438.548823 
L 302.79257 438.740084 
L 308.879999 438.931345 
L 314.967428 439.122607 
L 321.054232 439.31385 
L 327.141661 439.505113 
L 333.22909 439.696376 
L 339.316519 439.88764 
L 345.403323 440.07846 
L 351.490752 440.257702 
L 357.578181 440.436948 
L 363.665609 440.616197 
L 369.752414 440.795432 
L 375.839843 440.97469 
L 381.927272 441.153951 
L 388.0147 441.333215 
L 394.101505 441.512465 
L 400.188934 441.691737 
L 406.276363 441.871014 
L 412.363791 442.050294 
L 418.450596 442.229559 
L 424.538025 442.408846 
L 430.625454 442.612786 
L 436.712882 442.832689 
L 442.799687 443.052571 
L 448.887116 443.272478 
L 454.974545 443.492387 
L 461.061973 443.712297 
L 467.148778 443.932187 
L 473.236207 444.1521 
L 479.323636 444.372016 
L 485.411064 444.591933 
L 491.497869 444.811828 
L 497.585298 445.031748 
L 503.672727 445.251671 
L 509.760155 445.890504 
L 515.84696 445.990004 
L 521.934389 446.141005 
L 528.021818 446.33716 
L 534.109246 446.566522 
L 540.196675 446.813899 
L 546.28348 447.063425 
L 552.370909 447.301632 
L 558.458337 447.520165 
L 564.545766 447.717533 
L 570.632571 447.897877 
L 576.72 448.064311 
L 582.807428 448.20385 
L 588.894857 448.2779 
L 594.981662 448.298255 
L 601.06909 448.53465 
L 607.156519 448.771164 
L 613.243948 449.007797 
L 619.330753 449.244524 
L 625.418181 449.481395 
L 631.50561 449.717558 
L 637.593039 449.945112 
L 643.679844 450.17273 
L 649.767272 450.40046 
L 655.854701 450.970439 
L 661.94213 451.180802 
L 668.028935 451.380557 
L 674.116363 451.790757 
L 680.203792 452.234168 
L 686.291221 452.678657 
L 692.378026 453.590085 
L 698.465454 454.079522 
L 704.552883 454.858583 
L 710.640312 455.628577 
L 716.727117 456.243316 
L 722.814545 457.309856 
L 728.901974 459.728339 
L 734.989403 456.663418 
L 741.076208 446.362153 
L 747.163636 437.799448 
" clip-path="url(#pdc3b8a6597)" style="fill: none; stroke-dasharray: 5.55,2.4; stroke-dashoffset: 0; stroke: #ff7f0e; stroke-width: 1.5"/>
   </g>
   <g id="line2d_29">
    <path d="M 138.436364 425.994314 
L 144.523166 425.923735 
L 150.610595 425.850852 
L 156.698024 425.777618 
L 162.785453 425.705659 
L 168.872257 425.636268 
L 174.959686 425.570413 
L 181.047115 425.508836 
L 187.134544 425.452081 
L 193.221348 425.40057 
L 199.308777 425.354619 
L 205.396206 425.314503 
L 211.483635 425.280436 
L 217.570439 425.252574 
L 223.657868 425.230963 
L 229.745297 425.215486 
L 235.832726 425.205738 
L 241.91953 425.20087 
L 248.006959 425.199457 
L 254.094388 425.199519 
L 260.181817 425.198882 
L 266.268621 425.076904 
L 272.35605 425.003268 
L 278.443479 424.929633 
L 284.530908 424.855997 
L 290.617712 424.78237 
L 296.705141 424.708734 
L 302.79257 424.635098 
L 308.879999 424.561462 
L 314.967428 424.487826 
L 321.054232 424.414198 
L 327.141661 424.340562 
L 333.22909 424.266925 
L 339.316519 424.193289 
L 345.403323 424.119683 
L 351.490752 424.046711 
L 357.578181 423.973736 
L 363.665609 423.90076 
L 369.752414 423.827789 
L 375.839843 423.754809 
L 381.927272 423.681826 
L 388.0147 423.608842 
L 394.101505 423.535864 
L 400.188934 423.462875 
L 406.276363 423.389885 
L 412.363791 423.316892 
L 418.450596 423.243906 
L 424.538025 423.170909 
L 430.625454 423.072988 
L 436.712882 422.958924 
L 442.799687 422.84487 
L 448.887116 422.730802 
L 454.974545 422.61673 
L 461.061973 422.502655 
L 467.148778 422.38859 
L 473.236207 422.27451 
L 479.323636 422.160427 
L 485.411064 422.046343 
L 491.497869 421.932267 
L 497.585298 421.818175 
L 503.672727 421.704082 
L 509.760155 421.280763 
L 515.84696 421.206736 
L 521.934389 421.09415 
L 528.021818 420.948307 
L 534.109246 420.77864 
L 540.196675 420.596764 
L 546.28348 420.414435 
L 552.370909 420.241162 
L 558.458337 420.082074 
L 564.545766 419.936539 
L 570.632571 419.799227 
L 576.72 419.666181 
L 582.807428 419.549134 
L 588.894857 419.485244 
L 594.981662 419.518722 
L 601.06909 419.308892 
L 607.156519 419.099082 
L 613.243948 418.889292 
L 619.330753 418.679543 
L 625.418181 418.469792 
L 631.50561 418.256743 
L 637.593039 418.008679 
L 643.679844 417.760701 
L 649.767272 417.512761 
L 655.854701 416.976184 
L 661.94213 416.869233 
L 668.028935 416.728988 
L 674.116363 416.390039 
L 680.203792 416.013928 
L 686.291221 415.638529 
L 692.378026 415.248895 
L 698.465454 415.277017 
L 704.552883 415.364774 
L 710.640312 415.659399 
L 716.727117 416.30166 
L 722.814545 417.808527 
L 728.901974 425.952072 
L 734.989403 431.253094 
L 741.076208 432.554104 
L 747.163636 433.390356 
" clip-path="url(#pdc3b8a6597)" style="fill: none; stroke-dasharray: 9.6,2.4,1.5,2.4; stroke-dashoffset: 0; stroke: #2ca02c; stroke-width: 1.5"/>
   </g>
   <g id="line2d_30">
    <path d="M 138.436364 176.155183 
L 144.523166 176.444662 
L 150.610595 176.737264 
L 156.698024 177.02407 
L 162.785453 177.297914 
L 168.872257 177.553382 
L 174.959686 177.786672 
L 181.047115 177.995235 
L 187.134544 178.177509 
L 193.221348 178.332625 
L 199.308777 178.460289 
L 205.396206 178.560536 
L 211.483635 178.633678 
L 217.570439 178.680392 
L 223.657868 178.701805 
L 229.745297 178.699914 
L 235.832726 178.678049 
L 241.91953 178.641834 
L 248.006959 178.599805 
L 254.094388 178.563243 
L 260.181817 178.544086 
L 266.268621 178.875211 
L 272.35605 179.072443 
L 278.443479 179.269674 
L 284.530908 179.466888 
L 290.617712 179.664103 
L 296.705141 179.861317 
L 302.79257 180.058548 
L 308.879999 180.255762 
L 314.967428 180.452994 
L 321.054232 180.650191 
L 327.141661 180.847422 
L 333.22909 181.044636 
L 339.316519 181.241868 
L 345.403323 181.4349 
L 351.490752 181.513855 
L 357.578181 181.592828 
L 363.665609 181.671783 
L 369.752414 181.750755 
L 375.839843 181.829745 
L 381.927272 181.908717 
L 388.0147 181.987707 
L 394.101505 182.066697 
L 400.188934 182.145704 
L 406.276363 182.224711 
L 412.363791 182.303718 
L 418.450596 182.382725 
L 424.538025 182.46175 
L 430.625454 182.528593 
L 436.712882 182.58754 
L 442.799687 182.646487 
L 448.887116 182.705452 
L 454.974545 182.764399 
L 461.061973 182.823364 
L 467.148778 182.882312 
L 473.236207 182.941259 
L 479.323636 183.000206 
L 485.411064 183.059171 
L 491.497869 183.118101 
L 497.585298 183.177066 
L 503.672727 183.236013 
L 509.760155 183.013498 
L 515.84696 183.053427 
L 521.934389 183.122057 
L 528.021818 183.203806 
L 534.109246 183.28264 
L 540.196675 183.347105 
L 546.28348 183.392275 
L 552.370909 183.419848 
L 558.458337 183.437236 
L 564.545766 183.456931 
L 570.632571 183.494465 
L 576.72 183.561273 
L 582.807428 183.646388 
L 588.894857 183.701084 
L 594.981662 183.290171 
L 601.06909 183.310265 
L 607.156519 183.330273 
L 613.243948 183.350194 
L 619.330753 183.370046 
L 625.418181 183.38981 
L 631.50561 183.421098 
L 637.593039 183.574808 
L 643.679844 183.72838 
L 649.767272 183.881865 
L 655.854701 184.358129 
L 661.94213 184.330001 
L 668.028935 184.37432 
L 674.116363 184.73963 
L 680.203792 185.281765 
L 686.291221 185.822946 
L 692.378026 187.548383 
L 698.465454 188.577957 
L 704.552883 190.43715 
L 710.640312 192.437282 
L 716.727117 195.358793 
L 722.814545 199.36572 
L 728.901974 206.13722 
L 734.989403 246.302449 
L 741.076208 327.419412 
L 747.163636 396.103255 
" clip-path="url(#pdc3b8a6597)" style="fill: none; stroke: #d62728; stroke-width: 1.5; stroke-linecap: square"/>
   </g>
   <g id="line2d_31">
    <path d="M 138.436364 407.600446 
L 144.523166 407.66076 
L 150.610595 407.737726 
L 156.698024 407.831559 
L 162.785453 407.941744 
L 168.872257 408.067168 
L 174.959686 408.206292 
L 181.047115 408.357172 
L 187.134544 408.517576 
L 193.221348 408.684998 
L 199.308777 408.856769 
L 205.396206 409.030004 
L 211.483635 409.201735 
L 217.570439 409.368929 
L 223.657868 409.528618 
L 229.745297 409.677784 
L 235.832726 409.813327 
L 241.91953 409.931855 
L 248.006959 410.029575 
L 254.094388 410.1024 
L 260.181817 410.146888 
L 266.268621 410.596153 
L 272.35605 410.808733 
L 278.443479 411.021316 
L 284.530908 411.233898 
L 290.617712 411.446458 
L 296.705141 411.659043 
L 302.79257 411.871627 
L 308.879999 412.084212 
L 314.967428 412.296798 
L 321.054232 412.509363 
L 327.141661 412.72195 
L 333.22909 412.934536 
L 339.316519 413.147125 
L 345.403323 413.361299 
L 351.490752 413.619476 
L 357.578181 413.877659 
L 363.665609 414.135844 
L 369.752414 414.394006 
L 375.839843 414.652197 
L 381.927272 414.910393 
L 388.0147 415.168592 
L 394.101505 415.426768 
L 400.188934 415.684974 
L 406.276363 415.943183 
L 412.363791 416.201397 
L 418.450596 416.459586 
L 424.538025 416.717806 
L 430.625454 417.018934 
L 436.712882 417.347852 
L 442.799687 417.67674 
L 448.887116 418.005666 
L 454.974545 418.334596 
L 461.061973 418.663532 
L 467.148778 418.992438 
L 473.236207 419.321383 
L 479.323636 419.650332 
L 485.411064 419.979287 
L 491.497869 420.308212 
L 497.585298 420.637175 
L 503.672727 420.966143 
L 509.760155 422.141204 
L 515.84696 422.286406 
L 521.934389 422.502616 
L 528.021818 422.787245 
L 534.109246 423.12862 
L 540.196675 423.507376 
L 546.28348 423.899775 
L 552.370909 424.282969 
L 558.458337 424.640061 
L 564.545766 424.96352 
L 570.632571 425.253971 
L 576.72 425.511651 
L 582.807428 425.717667 
L 588.894857 425.823588 
L 594.981662 426.000979 
L 601.06909 426.372699 
L 607.156519 426.744563 
L 613.243948 427.116571 
L 619.330753 427.488686 
L 625.418181 427.860983 
L 631.50561 428.229548 
L 637.593039 428.557292 
L 643.679844 428.885079 
L 649.767272 429.212979 
L 655.854701 429.945369 
L 661.94213 430.237941 
L 668.028935 430.513986 
L 674.116363 431.032622 
L 680.203792 431.564765 
L 686.291221 432.097742 
L 692.378026 433.089956 
L 698.465454 433.575636 
L 704.552883 434.341867 
L 710.640312 435.075221 
L 716.727117 435.627671 
L 722.814545 436.563204 
L 728.901974 438.395097 
L 734.989403 438.560507 
L 741.076208 436.245442 
L 747.163636 434.359825 
" clip-path="url(#pdc3b8a6597)" style="fill: none; stroke-dasharray: 5.55,2.4; stroke-dashoffset: 0; stroke: #9467bd; stroke-width: 1.5"/>
   </g>
   <g id="line2d_32">
    <path d="M 138.436364 424.100104 
L 144.523166 424.016713 
L 150.610595 423.927666 
L 156.698024 423.834893 
L 162.785453 423.740129 
L 168.872257 423.644889 
L 174.959686 423.550441 
L 181.047115 423.457892 
L 187.134544 423.36821 
L 193.221348 423.282277 
L 199.308777 423.200902 
L 205.396206 423.124884 
L 211.483635 423.054981 
L 217.570439 422.991903 
L 223.657868 422.936253 
L 229.745297 422.888509 
L 235.832726 422.848931 
L 241.91953 422.817492 
L 248.006959 422.793793 
L 254.094388 422.777063 
L 260.181817 422.766237 
L 266.268621 422.565589 
L 272.35605 422.453449 
L 278.443479 422.34131 
L 284.530908 422.22917 
L 290.617712 422.117042 
L 296.705141 422.004902 
L 302.79257 421.892761 
L 308.879999 421.780621 
L 314.967428 421.668481 
L 321.054232 421.556351 
L 327.141661 421.44421 
L 333.22909 421.332069 
L 339.316519 421.219928 
L 345.403323 421.107442 
L 351.490752 420.985193 
L 357.578181 420.862943 
L 363.665609 420.740689 
L 369.752414 420.618446 
L 375.839843 420.496189 
L 381.927272 420.37393 
L 388.0147 420.251668 
L 394.101505 420.129415 
L 400.188934 420.007149 
L 406.276363 419.884879 
L 412.363791 419.762608 
L 418.450596 419.640347 
L 424.538025 419.518071 
L 430.625454 419.363375 
L 436.712882 419.187682 
L 442.799687 419.012002 
L 448.887116 418.836302 
L 454.974545 418.660599 
L 461.061973 418.484892 
L 467.148778 418.3092 
L 473.236207 418.133486 
L 479.323636 417.95777 
L 485.411064 417.782049 
L 491.497869 417.606345 
L 497.585298 417.430618 
L 503.672727 417.254887 
L 509.760155 416.594349 
L 515.84696 416.495766 
L 521.934389 416.34721 
L 528.021818 416.15351 
L 534.109246 415.925305 
L 540.196675 415.677157 
L 546.28348 415.424998 
L 552.370909 415.182766 
L 558.458337 414.95926 
L 564.545766 414.756071 
L 570.632571 414.568711 
L 576.72 414.393791 
L 582.807428 414.245501 
L 588.894857 414.166285 
L 594.981662 414.141551 
L 601.06909 413.863004 
L 607.156519 413.58446 
L 613.243948 413.30592 
L 619.330753 413.027408 
L 625.418181 412.748872 
L 631.50561 412.467838 
L 637.593039 412.160434 
L 643.679844 411.853129 
L 649.767272 411.545855 
L 655.854701 410.901892 
L 661.94213 410.747572 
L 668.028935 410.562209 
L 674.116363 410.143669 
L 680.203792 409.68425 
L 686.291221 409.225621 
L 692.378026 408.674493 
L 698.465454 408.627697 
L 704.552883 408.593549 
L 710.640312 408.782432 
L 716.727117 409.355522 
L 722.814545 410.695869 
L 728.901974 417.805058 
L 734.989403 423.966994 
L 741.076208 428.549981 
L 747.163636 432.089356 
" clip-path="url(#pdc3b8a6597)" style="fill: none; stroke-dasharray: 9.6,2.4,1.5,2.4; stroke-dashoffset: 0; stroke: #8c564b; stroke-width: 1.5"/>
   </g>
   <g id="line2d_33">
    <path d="M 138.436364 161.385221 
L 144.523166 161.442537 
L 150.610595 161.487568 
L 156.698024 161.516877 
L 162.785453 161.528208 
L 168.872257 161.520434 
L 174.959686 161.493364 
L 181.047115 161.447552 
L 187.134544 161.384163 
L 193.221348 161.304843 
L 199.308777 161.211572 
L 205.396206 161.106605 
L 211.483635 160.992407 
L 217.570439 160.871597 
L 223.657868 160.746986 
L 229.745297 160.621752 
L 235.832726 160.499727 
L 241.91953 160.385979 
L 248.006959 160.287155 
L 254.094388 160.211324 
L 260.181817 160.166293 
L 266.268621 159.937463 
L 272.35605 159.843896 
L 278.443479 159.750348 
L 284.530908 159.656782 
L 290.617712 159.563233 
L 296.705141 159.469684 
L 302.79257 159.376118 
L 308.879999 159.282552 
L 314.967428 159.188986 
L 321.054232 159.095437 
L 327.141661 159.001871 
L 333.22909 158.908322 
L 339.316519 158.814756 
L 345.403323 158.718778 
L 351.490752 158.556408 
L 357.578181 158.394038 
L 363.665609 158.231686 
L 369.752414 158.069333 
L 375.839843 157.906964 
L 381.927272 157.744594 
L 388.0147 157.582241 
L 394.101505 157.419871 
L 400.188934 157.257502 
L 406.276363 157.095132 
L 412.363791 156.932762 
L 418.450596 156.77041 
L 424.538025 156.608022 
L 430.625454 156.425732 
L 436.712882 156.23053 
L 442.799687 156.035346 
L 448.887116 155.840145 
L 454.974545 155.644927 
L 461.061973 155.449708 
L 467.148778 155.254507 
L 473.236207 155.059288 
L 479.323636 154.864052 
L 485.411064 154.668816 
L 491.497869 154.473598 
L 497.585298 154.278362 
L 503.672727 154.083108 
L 509.760155 153.44739 
L 515.84696 153.398195 
L 521.934389 153.327933 
L 528.021818 153.233135 
L 534.109246 153.114147 
L 540.196675 152.976245 
L 546.28348 152.828746 
L 552.370909 152.682844 
L 558.458337 152.549124 
L 564.545766 152.435932 
L 570.632571 152.348925 
L 576.72 152.291002 
L 582.807428 152.260895 
L 588.894857 152.250587 
L 594.981662 152.120233 
L 601.06909 152.097015 
L 607.156519 152.073693 
L 613.243948 152.050232 
L 619.330753 152.02665 
L 625.418181 152.002946 
L 631.50561 151.998347 
L 637.593039 152.196724 
L 643.679844 152.39491 
L 649.767272 152.592957 
L 655.854701 153.008122 
L 661.94213 153.101723 
L 668.028935 153.227305 
L 674.116363 153.685817 
L 680.203792 154.338298 
L 686.291221 154.989252 
L 692.378026 156.991692 
L 698.465454 158.198837 
L 704.552883 160.332915 
L 710.640312 162.558146 
L 716.727117 165.715187 
L 722.814545 170.08083 
L 728.901974 177.796234 
L 734.989403 222.993608 
L 741.076208 314.163323 
L 747.163636 391.391888 
" clip-path="url(#pdc3b8a6597)" style="fill: none; stroke: #e377c2; stroke-width: 1.5; stroke-linecap: square"/>
   </g>
   <g id="line2d_34">
    <path d="M 138.436364 462.804316 
L 144.523166 463.009849 
L 150.610595 463.221405 
L 156.698024 463.433152 
L 162.785453 463.640246 
L 168.872257 463.838849 
L 174.959686 464.026096 
L 181.047115 464.19983 
L 187.134544 464.358488 
L 193.221348 464.5009 
L 199.308777 464.626222 
L 205.396206 464.733761 
L 211.483635 464.82302 
L 217.570439 464.893691 
L 223.657868 464.945808 
L 229.745297 464.97993 
L 235.832726 464.997541 
L 241.91953 465.001551 
L 248.006959 464.99674 
L 254.094388 464.989658 
L 260.181817 464.987426 
L 266.268621 465.314558 
L 272.35605 465.491192 
L 278.443479 465.667826 
L 284.530908 465.84446 
L 290.617712 466.021076 
L 296.705141 466.19771 
L 302.79257 466.374346 
L 308.879999 466.55098 
L 314.967428 466.727616 
L 321.054232 466.904232 
L 327.141661 467.080868 
L 333.22909 467.257502 
L 339.316519 467.434138 
L 345.403323 467.608123 
L 351.490752 467.710114 
L 357.578181 467.812109 
L 363.665609 467.914109 
L 369.752414 468.016102 
L 375.839843 468.11811 
L 381.927272 468.220122 
L 388.0147 468.322139 
L 394.101505 468.42415 
L 400.188934 468.526173 
L 406.276363 468.628203 
L 412.363791 468.730235 
L 418.450596 468.832263 
L 424.538025 468.934304 
L 430.625454 469.040808 
L 436.712882 469.1502 
L 442.799687 469.259579 
L 448.887116 469.368969 
L 454.974545 469.478356 
L 461.061973 469.587744 
L 467.148778 469.697114 
L 473.236207 469.806497 
L 479.323636 469.915876 
L 485.411064 470.025255 
L 491.497869 470.13462 
L 497.585298 470.243995 
L 503.672727 470.353369 
L 509.760155 470.437804 
L 515.84696 470.489623 
L 521.934389 470.572552 
L 528.021818 470.676417 
L 534.109246 470.789093 
L 540.196675 470.899817 
L 546.28348 471.000962 
L 552.370909 471.088832 
L 558.458337 471.163952 
L 564.545766 471.231059 
L 570.632571 471.297854 
L 576.72 471.370311 
L 582.807428 471.441409 
L 588.894857 471.48264 
L 594.981662 471.340989 
L 601.06909 471.434139 
L 607.156519 471.527392 
L 613.243948 471.620737 
L 619.330753 471.714178 
L 625.418181 471.807726 
L 631.50561 471.903639 
L 637.593039 472.023599 
L 643.679844 472.143658 
L 649.767272 472.263831 
L 655.854701 472.661977 
L 661.94213 472.790687 
L 668.028935 472.912772 
L 674.116363 473.209695 
L 680.203792 473.556273 
L 686.291221 473.904209 
L 692.378026 474.722674 
L 698.465454 475.215358 
L 704.552883 476.005082 
L 710.640312 476.812823 
L 716.727117 477.481894 
L 722.814545 478.671478 
L 728.901974 481.652791 
L 734.989403 475.256666 
L 741.076208 456.76289 
L 747.163636 441.346914 
" clip-path="url(#pdc3b8a6597)" style="fill: none; stroke-dasharray: 5.55,2.4; stroke-dashoffset: 0; stroke: #7f7f7f; stroke-width: 1.5"/>
   </g>
   <g id="line2d_35">
    <path d="M 138.436364 427.407692 
L 144.523166 427.344401 
L 150.610595 427.281927 
L 156.698024 427.222392 
L 162.785453 427.167428 
L 168.872257 427.118204 
L 174.959686 427.075462 
L 181.047115 427.039629 
L 187.134544 427.010879 
L 193.221348 426.989203 
L 199.308777 426.97446 
L 205.396206 426.966427 
L 211.483635 426.964802 
L 217.570439 426.969212 
L 223.657868 426.979163 
L 229.745297 426.993955 
L 235.832726 427.012506 
L 241.91953 427.033113 
L 248.006959 427.053254 
L 254.094388 427.069639 
L 260.181817 427.078863 
L 266.268621 427.02474 
L 272.35605 426.984202 
L 278.443479 426.943664 
L 284.530908 426.903126 
L 290.617712 426.862591 
L 296.705141 426.822053 
L 302.79257 426.781515 
L 308.879999 426.740977 
L 314.967428 426.700439 
L 321.054232 426.659904 
L 327.141661 426.619366 
L 333.22909 426.578828 
L 339.316519 426.538289 
L 345.403323 426.498165 
L 351.490752 426.469247 
L 357.578181 426.440326 
L 363.665609 426.411404 
L 369.752414 426.382484 
L 375.839843 426.353559 
L 381.927272 426.324632 
L 388.0147 426.295703 
L 394.101505 426.266776 
L 400.188934 426.237844 
L 406.276363 426.20891 
L 412.363791 426.179974 
L 418.450596 426.15104 
L 424.538025 426.122101 
L 430.625454 426.0737 
L 436.712882 426.012692 
L 442.799687 425.951688 
L 448.887116 425.890676 
L 454.974545 425.829662 
L 461.061973 425.768646 
L 467.148778 425.707634 
L 473.236207 425.646614 
L 479.323636 425.585591 
L 485.411064 425.524567 
L 491.497869 425.463546 
L 497.585298 425.402518 
L 503.672727 425.341487 
L 509.760155 425.12435 
L 515.84696 425.070709 
L 521.934389 424.987856 
L 528.021818 424.881761 
L 534.109246 424.761123 
L 540.196675 424.6353 
L 546.28348 424.512651 
L 552.370909 424.399013 
L 558.458337 424.296426 
L 564.545766 424.202363 
L 570.632571 424.110692 
L 576.72 424.016743 
L 582.807428 423.929484 
L 588.894857 423.880369 
L 594.981662 423.961384 
L 601.06909 423.804836 
L 607.156519 423.648324 
L 613.243948 423.491847 
L 619.330753 423.335422 
L 625.418181 423.179017 
L 631.50561 423.018432 
L 637.593039 422.813367 
L 643.679844 422.608387 
L 649.767272 422.403447 
L 655.854701 421.949105 
L 661.94213 421.879527 
L 668.028935 421.774296 
L 674.116363 421.495173 
L 680.203792 421.17631 
L 686.291221 420.858115 
L 692.378026 420.57963 
L 698.465454 420.661082 
L 704.552883 420.834878 
L 710.640312 421.205366 
L 716.727117 421.90549 
L 722.814545 423.557125 
L 728.901974 432.600987 
L 734.989403 437.229368 
L 741.076208 435.845173 
L 747.163636 434.466618 
" clip-path="url(#pdc3b8a6597)" style="fill: none; stroke-dasharray: 9.6,2.4,1.5,2.4; stroke-dashoffset: 0; stroke: #bcbd22; stroke-width: 1.5"/>
   </g>
   <g id="patch_3">
    <path d="M 108 512.64 
L 108 69.12 
" style="fill: none; stroke: #000000; stroke-width: 0.8; stroke-linejoin: miter; stroke-linecap: square"/>
   </g>
   <g id="patch_4">
    <path d="M 777.6 512.64 
L 777.6 69.12 
" style="fill: none; stroke: #000000; stroke-width: 0.8; stroke-linejoin: miter; stroke-linecap: square"/>
   </g>
   <g id="patch_5">
    <path d="M 108 512.64 
L 777.6 512.64 
" style="fill: none; stroke: #000000; stroke-width: 0.8; stroke-linejoin: miter; stroke-linecap: square"/>
   </g>
   <g id="patch_6">
    <path d="M 108 69.12 
L 777.6 69.12 
" style="fill: none; stroke: #000000; stroke-width: 0.8; stroke-linejoin: miter; stroke-linecap: square"/>
   </g>
   <g id="legend_1">
    <g id="patch_7">
     <path d="M 115 359.683125 
L 249.139063 359.683125 
Q 251.139063 359.683125 251.139063 357.683125 
L 251.139063 224.076875 
Q 251.139063 222.076875 249.139063 222.076875 
L 115 222.076875 
Q 113 222.076875 113 224.076875 
L 113 357.683125 
Q 113 359.683125 115 359.683125 
z
" style="fill: #ffffff; opacity: 0.8; stroke: #cccccc; stroke-linejoin: miter"/>
    </g>
    <g id="line2d_36">
     <path d="M 117 230.175313 
L 127 230.175313 
L 137 230.175313 
" style="fill: none; stroke: #1f77b4; stroke-width: 1.5; stroke-linecap: square"/>
    </g>
    <g id="text_16">
     <!-- Navy120_AoA0_Ux -->
     <g transform="translate(145 233.675313) scale(0.1 -0.1)">
      <defs>
       <path id="DejaVuSans-4e" d="M 628 4666 
L 1478 4666 
L 3547 763 
L 3547 4666 
L 4159 4666 
L 4159 0 
L 3309 0 
L 1241 3903 
L 1241 0 
L 628 0 
L 628 4666 
z
" transform="scale(0.015625)"/>
       <path id="DejaVuSans-76" d="M 191 3500 
L 800 3500 
L 1894 563 
L 2988 3500 
L 3597 3500 
L 2284 0 
L 1503 0 
L 191 3500 
z
" transform="scale(0.015625)"/>
       <path id="DejaVuSans-5f" d="M 3263 -1063 
L 3263 -1509 
L -63 -1509 
L -63 -1063 
L 3263 -1063 
z
" transform="scale(0.015625)"/>
       <path id="DejaVuSans-41" d="M 2188 4044 
L 1331 1722 
L 3047 1722 
L 2188 4044 
z
M 1831 4666 
L 2547 4666 
L 4325 0 
L 3669 0 
L 3244 1197 
L 1141 1197 
L 716 0 
L 50 0 
L 1831 4666 
z
" transform="scale(0.015625)"/>
       <path id="DejaVuSans-55" d="M 556 4666 
L 1191 4666 
L 1191 1831 
Q 1191 1081 1462 751 
Q 1734 422 2344 422 
Q 2950 422 3222 751 
Q 3494 1081 3494 1831 
L 3494 4666 
L 4128 4666 
L 4128 1753 
Q 4128 841 3676 375 
Q 3225 -91 2344 -91 
Q 1459 -91 1007 375 
Q 556 841 556 1753 
L 556 4666 
z
" transform="scale(0.015625)"/>
       <path id="DejaVuSans-78" d="M 3513 3500 
L 2247 1797 
L 3578 0 
L 2900 0 
L 1881 1375 
L 863 0 
L 184 0 
L 1544 1831 
L 300 3500 
L 978 3500 
L 1906 2253 
L 2834 3500 
L 3513 3500 
z
" transform="scale(0.015625)"/>
      </defs>
      <use xlink:href="#DejaVuSans-4e"/>
      <use xlink:href="#DejaVuSans-61" x="74.804688"/>
      <use xlink:href="#DejaVuSans-76" x="136.083984"/>
      <use xlink:href="#DejaVuSans-79" x="195.263672"/>
      <use xlink:href="#DejaVuSans-31" x="254.443359"/>
      <use xlink:href="#DejaVuSans-32" x="318.066406"/>
      <use xlink:href="#DejaVuSans-30" x="381.689453"/>
      <use xlink:href="#DejaVuSans-5f" x="445.3125"/>
      <use xlink:href="#DejaVuSans-41" x="495.3125"/>
      <use xlink:href="#DejaVuSans-6f" x="561.970703"/>
      <use xlink:href="#DejaVuSans-41" x="623.152344"/>
      <use xlink:href="#DejaVuSans-30" x="691.560547"/>
      <use xlink:href="#DejaVuSans-5f" x="755.183594"/>
      <use xlink:href="#DejaVuSans-55" x="805.183594"/>
      <use xlink:href="#DejaVuSans-78" x="878.376953"/>
     </g>
    </g>
    <g id="line2d_37">
     <path d="M 117 245.131563 
L 127 245.131563 
L 137 245.131563 
" style="fill: none; stroke-dasharray: 5.55,2.4; stroke-dashoffset: 0; stroke: #ff7f0e; stroke-width: 1.5"/>
    </g>
    <g id="text_17">
     <!-- Navy120_AoA0_Uy -->
     <g transform="translate(145 248.631563) scale(0.1 -0.1)">
      <use xlink:href="#DejaVuSans-4e"/>
      <use xlink:href="#DejaVuSans-61" x="74.804688"/>
      <use xlink:href="#DejaVuSans-76" x="136.083984"/>
      <use xlink:href="#DejaVuSans-79" x="195.263672"/>
      <use xlink:href="#DejaVuSans-31" x="254.443359"/>
      <use xlink:href="#DejaVuSans-32" x="318.066406"/>
      <use xlink:href="#DejaVuSans-30" x="381.689453"/>
      <use xlink:href="#DejaVuSans-5f" x="445.3125"/>
      <use xlink:href="#DejaVuSans-41" x="495.3125"/>
      <use xlink:href="#DejaVuSans-6f" x="561.970703"/>
      <use xlink:href="#DejaVuSans-41" x="623.152344"/>
      <use xlink:href="#DejaVuSans-30" x="691.560547"/>
      <use xlink:href="#DejaVuSans-5f" x="755.183594"/>
      <use xlink:href="#DejaVuSans-55" x="805.183594"/>
      <use xlink:href="#DejaVuSans-79" x="878.376953"/>
     </g>
    </g>
    <g id="line2d_38">
     <path d="M 117 260.087813 
L 127 260.087813 
L 137 260.087813 
" style="fill: none; stroke-dasharray: 9.6,2.4,1.5,2.4; stroke-dashoffset: 0; stroke: #2ca02c; stroke-width: 1.5"/>
    </g>
    <g id="text_18">
     <!-- Navy120_AoA0_Uz -->
     <g transform="translate(145 263.587813) scale(0.1 -0.1)">
      <defs>
       <path id="DejaVuSans-7a" d="M 353 3500 
L 3084 3500 
L 3084 2975 
L 922 459 
L 3084 459 
L 3084 0 
L 275 0 
L 275 525 
L 2438 3041 
L 353 3041 
L 353 3500 
z
" transform="scale(0.015625)"/>
      </defs>
      <use xlink:href="#DejaVuSans-4e"/>
      <use xlink:href="#DejaVuSans-61" x="74.804688"/>
      <use xlink:href="#DejaVuSans-76" x="136.083984"/>
      <use xlink:href="#DejaVuSans-79" x="195.263672"/>
      <use xlink:href="#DejaVuSans-31" x="254.443359"/>
      <use xlink:href="#DejaVuSans-32" x="318.066406"/>
      <use xlink:href="#DejaVuSans-30" x="381.689453"/>
      <use xlink:href="#DejaVuSans-5f" x="445.3125"/>
      <use xlink:href="#DejaVuSans-41" x="495.3125"/>
      <use xlink:href="#DejaVuSans-6f" x="561.970703"/>
      <use xlink:href="#DejaVuSans-41" x="623.152344"/>
      <use xlink:href="#DejaVuSans-30" x="691.560547"/>
      <use xlink:href="#DejaVuSans-5f" x="755.183594"/>
      <use xlink:href="#DejaVuSans-55" x="805.183594"/>
      <use xlink:href="#DejaVuSans-7a" x="878.376953"/>
     </g>
    </g>
    <g id="line2d_39">
     <path d="M 117 275.044062 
L 127 275.044062 
L 137 275.044062 
" style="fill: none; stroke: #d62728; stroke-width: 1.5; stroke-linecap: square"/>
    </g>
    <g id="text_19">
     <!-- Navy120_AoA+4_Ux -->
     <g transform="translate(145 278.544062) scale(0.1 -0.1)">
      <defs>
       <path id="DejaVuSans-2b" d="M 2944 4013 
L 2944 2272 
L 4684 2272 
L 4684 1741 
L 2944 1741 
L 2944 0 
L 2419 0 
L 2419 1741 
L 678 1741 
L 678 2272 
L 2419 2272 
L 2419 4013 
L 2944 4013 
z
" transform="scale(0.015625)"/>
      </defs>
      <use xlink:href="#DejaVuSans-4e"/>
      <use xlink:href="#DejaVuSans-61" x="74.804688"/>
      <use xlink:href="#DejaVuSans-76" x="136.083984"/>
      <use xlink:href="#DejaVuSans-79" x="195.263672"/>
      <use xlink:href="#DejaVuSans-31" x="254.443359"/>
      <use xlink:href="#DejaVuSans-32" x="318.066406"/>
      <use xlink:href="#DejaVuSans-30" x="381.689453"/>
      <use xlink:href="#DejaVuSans-5f" x="445.3125"/>
      <use xlink:href="#DejaVuSans-41" x="495.3125"/>
      <use xlink:href="#DejaVuSans-6f" x="561.970703"/>
      <use xlink:href="#DejaVuSans-41" x="623.152344"/>
      <use xlink:href="#DejaVuSans-2b" x="691.560547"/>
      <use xlink:href="#DejaVuSans-34" x="775.349609"/>
      <use xlink:href="#DejaVuSans-5f" x="838.972656"/>
      <use xlink:href="#DejaVuSans-55" x="888.972656"/>
      <use xlink:href="#DejaVuSans-78" x="962.166016"/>
     </g>
    </g>
    <g id="line2d_40">
     <path d="M 117 290.000313 
L 127 290.000313 
L 137 290.000313 
" style="fill: none; stroke-dasharray: 5.55,2.4; stroke-dashoffset: 0; stroke: #9467bd; stroke-width: 1.5"/>
    </g>
    <g id="text_20">
     <!-- Navy120_AoA+4_Uy -->
     <g transform="translate(145 293.500313) scale(0.1 -0.1)">
      <use xlink:href="#DejaVuSans-4e"/>
      <use xlink:href="#DejaVuSans-61" x="74.804688"/>
      <use xlink:href="#DejaVuSans-76" x="136.083984"/>
      <use xlink:href="#DejaVuSans-79" x="195.263672"/>
      <use xlink:href="#DejaVuSans-31" x="254.443359"/>
      <use xlink:href="#DejaVuSans-32" x="318.066406"/>
      <use xlink:href="#DejaVuSans-30" x="381.689453"/>
      <use xlink:href="#DejaVuSans-5f" x="445.3125"/>
      <use xlink:href="#DejaVuSans-41" x="495.3125"/>
      <use xlink:href="#DejaVuSans-6f" x="561.970703"/>
      <use xlink:href="#DejaVuSans-41" x="623.152344"/>
      <use xlink:href="#DejaVuSans-2b" x="691.560547"/>
      <use xlink:href="#DejaVuSans-34" x="775.349609"/>
      <use xlink:href="#DejaVuSans-5f" x="838.972656"/>
      <use xlink:href="#DejaVuSans-55" x="888.972656"/>
      <use xlink:href="#DejaVuSans-79" x="962.166016"/>
     </g>
    </g>
    <g id="line2d_41">
     <path d="M 117 304.956563 
L 127 304.956563 
L 137 304.956563 
" style="fill: none; stroke-dasharray: 9.6,2.4,1.5,2.4; stroke-dashoffset: 0; stroke: #8c564b; stroke-width: 1.5"/>
    </g>
    <g id="text_21">
     <!-- Navy120_AoA+4_Uz -->
     <g transform="translate(145 308.456563) scale(0.1 -0.1)">
      <use xlink:href="#DejaVuSans-4e"/>
      <use xlink:href="#DejaVuSans-61" x="74.804688"/>
      <use xlink:href="#DejaVuSans-76" x="136.083984"/>
      <use xlink:href="#DejaVuSans-79" x="195.263672"/>
      <use xlink:href="#DejaVuSans-31" x="254.443359"/>
      <use xlink:href="#DejaVuSans-32" x="318.066406"/>
      <use xlink:href="#DejaVuSans-30" x="381.689453"/>
      <use xlink:href="#DejaVuSans-5f" x="445.3125"/>
      <use xlink:href="#DejaVuSans-41" x="495.3125"/>
      <use xlink:href="#DejaVuSans-6f" x="561.970703"/>
      <use xlink:href="#DejaVuSans-41" x="623.152344"/>
      <use xlink:href="#DejaVuSans-2b" x="691.560547"/>
      <use xlink:href="#DejaVuSans-34" x="775.349609"/>
      <use xlink:href="#DejaVuSans-5f" x="838.972656"/>
      <use xlink:href="#DejaVuSans-55" x="888.972656"/>
      <use xlink:href="#DejaVuSans-7a" x="962.166016"/>
     </g>
    </g>
    <g id="line2d_42">
     <path d="M 117 319.912813 
L 127 319.912813 
L 137 319.912813 
" style="fill: none; stroke: #e377c2; stroke-width: 1.5; stroke-linecap: square"/>
    </g>
    <g id="text_22">
     <!-- Navy120_AoA-4_Ux -->
     <g transform="translate(145 323.412813) scale(0.1 -0.1)">
      <defs>
       <path id="DejaVuSans-2d" d="M 313 2009 
L 1997 2009 
L 1997 1497 
L 313 1497 
L 313 2009 
z
" transform="scale(0.015625)"/>
      </defs>
      <use xlink:href="#DejaVuSans-4e"/>
      <use xlink:href="#DejaVuSans-61" x="74.804688"/>
      <use xlink:href="#DejaVuSans-76" x="136.083984"/>
      <use xlink:href="#DejaVuSans-79" x="195.263672"/>
      <use xlink:href="#DejaVuSans-31" x="254.443359"/>
      <use xlink:href="#DejaVuSans-32" x="318.066406"/>
      <use xlink:href="#DejaVuSans-30" x="381.689453"/>
      <use xlink:href="#DejaVuSans-5f" x="445.3125"/>
      <use xlink:href="#DejaVuSans-41" x="495.3125"/>
      <use xlink:href="#DejaVuSans-6f" x="561.970703"/>
      <use xlink:href="#DejaVuSans-41" x="623.152344"/>
      <use xlink:href="#DejaVuSans-2d" x="689.310547"/>
      <use xlink:href="#DejaVuSans-34" x="725.394531"/>
      <use xlink:href="#DejaVuSans-5f" x="789.017578"/>
      <use xlink:href="#DejaVuSans-55" x="839.017578"/>
      <use xlink:href="#DejaVuSans-78" x="912.210938"/>
     </g>
    </g>
    <g id="line2d_43">
     <path d="M 117 334.869063 
L 127 334.869063 
L 137 334.869063 
" style="fill: none; stroke-dasharray: 5.55,2.4; stroke-dashoffset: 0; stroke: #7f7f7f; stroke-width: 1.5"/>
    </g>
    <g id="text_23">
     <!-- Navy120_AoA-4_Uy -->
     <g transform="translate(145 338.369063) scale(0.1 -0.1)">
      <use xlink:href="#DejaVuSans-4e"/>
      <use xlink:href="#DejaVuSans-61" x="74.804688"/>
      <use xlink:href="#DejaVuSans-76" x="136.083984"/>
      <use xlink:href="#DejaVuSans-79" x="195.263672"/>
      <use xlink:href="#DejaVuSans-31" x="254.443359"/>
      <use xlink:href="#DejaVuSans-32" x="318.066406"/>
      <use xlink:href="#DejaVuSans-30" x="381.689453"/>
      <use xlink:href="#DejaVuSans-5f" x="445.3125"/>
      <use xlink:href="#DejaVuSans-41" x="495.3125"/>
      <use xlink:href="#DejaVuSans-6f" x="561.970703"/>
      <use xlink:href="#DejaVuSans-41" x="623.152344"/>
      <use xlink:href="#DejaVuSans-2d" x="689.310547"/>
      <use xlink:href="#DejaVuSans-34" x="725.394531"/>
      <use xlink:href="#DejaVuSans-5f" x="789.017578"/>
      <use xlink:href="#DejaVuSans-55" x="839.017578"/>
      <use xlink:href="#DejaVuSans-79" x="912.210938"/>
     </g>
    </g>
    <g id="line2d_44">
     <path d="M 117 349.825312 
L 127 349.825312 
L 137 349.825312 
" style="fill: none; stroke-dasharray: 9.6,2.4,1.5,2.4; stroke-dashoffset: 0; stroke: #bcbd22; stroke-width: 1.5"/>
    </g>
    <g id="text_24">
     <!-- Navy120_AoA-4_Uz -->
     <g transform="translate(145 353.325312) scale(0.1 -0.1)">
      <use xlink:href="#DejaVuSans-4e"/>
      <use xlink:href="#DejaVuSans-61" x="74.804688"/>
      <use xlink:href="#DejaVuSans-76" x="136.083984"/>
      <use xlink:href="#DejaVuSans-79" x="195.263672"/>
      <use xlink:href="#DejaVuSans-31" x="254.443359"/>
      <use xlink:href="#DejaVuSans-32" x="318.066406"/>
      <use xlink:href="#DejaVuSans-30" x="381.689453"/>
      <use xlink:href="#DejaVuSans-5f" x="445.3125"/>
      <use xlink:href="#DejaVuSans-41" x="495.3125"/>
      <use xlink:href="#DejaVuSans-6f" x="561.970703"/>
      <use xlink:href="#DejaVuSans-41" x="623.152344"/>
      <use xlink:href="#DejaVuSans-2d" x="689.310547"/>
      <use xlink:href="#DejaVuSans-34" x="725.394531"/>
      <use xlink:href="#DejaVuSans-5f" x="789.017578"/>
      <use xlink:href="#DejaVuSans-55" x="839.017578"/>
      <use xlink:href="#DejaVuSans-7a" x="912.210938"/>
     </g>
    </g>
   </g>
  </g>
 </g>
 <defs>
  <clipPath id="pdc3b8a6597">
   <rect x="108" y="69.12" width="669.6" height="443.52"/>
  </clipPath>
 </defs>
</svg>
