<?xml version="1.0" encoding="utf-8" standalone="no"?>
<!DOCTYPE svg PUBLIC "-//W3C//DTD SVG 1.1//EN"
  "http://www.w3.org/Graphics/SVG/1.1/DTD/svg11.dtd">
<svg xmlns:xlink="http://www.w3.org/1999/xlink" width="864pt" height="576pt" viewBox="0 0 864 576" xmlns="http://www.w3.org/2000/svg" version="1.1">
 <metadata>
  <rdf:RDF xmlns:dc="http://purl.org/dc/elements/1.1/" xmlns:cc="http://creativecommons.org/ns#" xmlns:rdf="http://www.w3.org/1999/02/22-rdf-syntax-ns#">
   <cc:Work>
    <dc:type rdf:resource="http://purl.org/dc/dcmitype/StillImage"/>
    <dc:date>2023-07-26T18:38:51.180437</dc:date>
    <dc:format>image/svg+xml</dc:format>
    <dc:creator>
     <cc:Agent>
      <dc:title>Matplotlib v3.6.3, https://matplotlib.org/</dc:title>
     </cc:Agent>
    </dc:creator>
   </cc:Work>
  </rdf:RDF>
 </metadata>
 <defs>
  <style type="text/css">*{stroke-linejoin: round; stroke-linecap: butt}</style>
 </defs>
 <g id="figure_1">
  <g id="patch_1">
   <path d="M 0 576 
L 864 576 
L 864 0 
L 0 0 
z
" style="fill: #ffffff"/>
  </g>
  <g id="axes_1">
   <g id="patch_2">
    <path d="M 108 512.64 
L 777.6 512.64 
L 777.6 69.12 
L 108 69.12 
z
" style="fill: #ffffff"/>
   </g>
   <g id="matplotlib.axis_1">
    <g id="xtick_1">
     <g id="line2d_1">
      <path d="M 138.434097 512.64 
L 138.434097 69.12 
" clip-path="url(#pf05a9bf3ab)" style="fill: none; stroke: #b0b0b0; stroke-width: 0.8; stroke-linecap: square"/>
     </g>
     <g id="line2d_2">
      <defs>
       <path id="m357bcb41ff" d="M 0 0 
L 0 3.5 
" style="stroke: #000000; stroke-width: 0.8"/>
      </defs>
      <g>
       <use xlink:href="#m357bcb41ff" x="138.434097" y="512.64" style="stroke: #000000; stroke-width: 0.8"/>
      </g>
     </g>
     <g id="text_1">
      <!-- −0.10 -->
      <g transform="translate(123.111441 527.238438) scale(0.1 -0.1)">
       <defs>
        <path id="DejaVuSans-2212" d="M 678 2272 
L 4684 2272 
L 4684 1741 
L 678 1741 
L 678 2272 
z
" transform="scale(0.015625)"/>
        <path id="DejaVuSans-30" d="M 2034 4250 
Q 1547 4250 1301 3770 
Q 1056 3291 1056 2328 
Q 1056 1369 1301 889 
Q 1547 409 2034 409 
Q 2525 409 2770 889 
Q 3016 1369 3016 2328 
Q 3016 3291 2770 3770 
Q 2525 4250 2034 4250 
z
M 2034 4750 
Q 2819 4750 3233 4129 
Q 3647 3509 3647 2328 
Q 3647 1150 3233 529 
Q 2819 -91 2034 -91 
Q 1250 -91 836 529 
Q 422 1150 422 2328 
Q 422 3509 836 4129 
Q 1250 4750 2034 4750 
z
" transform="scale(0.015625)"/>
        <path id="DejaVuSans-2e" d="M 684 794 
L 1344 794 
L 1344 0 
L 684 0 
L 684 794 
z
" transform="scale(0.015625)"/>
        <path id="DejaVuSans-31" d="M 794 531 
L 1825 531 
L 1825 4091 
L 703 3866 
L 703 4441 
L 1819 4666 
L 2450 4666 
L 2450 531 
L 3481 531 
L 3481 0 
L 794 0 
L 794 531 
z
" transform="scale(0.015625)"/>
       </defs>
       <use xlink:href="#DejaVuSans-2212"/>
       <use xlink:href="#DejaVuSans-30" x="83.789062"/>
       <use xlink:href="#DejaVuSans-2e" x="147.412109"/>
       <use xlink:href="#DejaVuSans-31" x="179.199219"/>
       <use xlink:href="#DejaVuSans-30" x="242.822266"/>
      </g>
     </g>
    </g>
    <g id="xtick_2">
     <g id="line2d_3">
      <path d="M 260.179912 512.64 
L 260.179912 69.12 
" clip-path="url(#pf05a9bf3ab)" style="fill: none; stroke: #b0b0b0; stroke-width: 0.8; stroke-linecap: square"/>
     </g>
     <g id="line2d_4">
      <g>
       <use xlink:href="#m357bcb41ff" x="260.179912" y="512.64" style="stroke: #000000; stroke-width: 0.8"/>
      </g>
     </g>
     <g id="text_2">
      <!-- −0.08 -->
      <g transform="translate(244.857256 527.238438) scale(0.1 -0.1)">
       <defs>
        <path id="DejaVuSans-38" d="M 2034 2216 
Q 1584 2216 1326 1975 
Q 1069 1734 1069 1313 
Q 1069 891 1326 650 
Q 1584 409 2034 409 
Q 2484 409 2743 651 
Q 3003 894 3003 1313 
Q 3003 1734 2745 1975 
Q 2488 2216 2034 2216 
z
M 1403 2484 
Q 997 2584 770 2862 
Q 544 3141 544 3541 
Q 544 4100 942 4425 
Q 1341 4750 2034 4750 
Q 2731 4750 3128 4425 
Q 3525 4100 3525 3541 
Q 3525 3141 3298 2862 
Q 3072 2584 2669 2484 
Q 3125 2378 3379 2068 
Q 3634 1759 3634 1313 
Q 3634 634 3220 271 
Q 2806 -91 2034 -91 
Q 1263 -91 848 271 
Q 434 634 434 1313 
Q 434 1759 690 2068 
Q 947 2378 1403 2484 
z
M 1172 3481 
Q 1172 3119 1398 2916 
Q 1625 2713 2034 2713 
Q 2441 2713 2670 2916 
Q 2900 3119 2900 3481 
Q 2900 3844 2670 4047 
Q 2441 4250 2034 4250 
Q 1625 4250 1398 4047 
Q 1172 3844 1172 3481 
z
" transform="scale(0.015625)"/>
       </defs>
       <use xlink:href="#DejaVuSans-2212"/>
       <use xlink:href="#DejaVuSans-30" x="83.789062"/>
       <use xlink:href="#DejaVuSans-2e" x="147.412109"/>
       <use xlink:href="#DejaVuSans-30" x="179.199219"/>
       <use xlink:href="#DejaVuSans-38" x="242.822266"/>
      </g>
     </g>
    </g>
    <g id="xtick_3">
     <g id="line2d_5">
      <path d="M 381.925727 512.64 
L 381.925727 69.12 
" clip-path="url(#pf05a9bf3ab)" style="fill: none; stroke: #b0b0b0; stroke-width: 0.8; stroke-linecap: square"/>
     </g>
     <g id="line2d_6">
      <g>
       <use xlink:href="#m357bcb41ff" x="381.925727" y="512.64" style="stroke: #000000; stroke-width: 0.8"/>
      </g>
     </g>
     <g id="text_3">
      <!-- −0.06 -->
      <g transform="translate(366.603071 527.238438) scale(0.1 -0.1)">
       <defs>
        <path id="DejaVuSans-36" d="M 2113 2584 
Q 1688 2584 1439 2293 
Q 1191 2003 1191 1497 
Q 1191 994 1439 701 
Q 1688 409 2113 409 
Q 2538 409 2786 701 
Q 3034 994 3034 1497 
Q 3034 2003 2786 2293 
Q 2538 2584 2113 2584 
z
M 3366 4563 
L 3366 3988 
Q 3128 4100 2886 4159 
Q 2644 4219 2406 4219 
Q 1781 4219 1451 3797 
Q 1122 3375 1075 2522 
Q 1259 2794 1537 2939 
Q 1816 3084 2150 3084 
Q 2853 3084 3261 2657 
Q 3669 2231 3669 1497 
Q 3669 778 3244 343 
Q 2819 -91 2113 -91 
Q 1303 -91 875 529 
Q 447 1150 447 2328 
Q 447 3434 972 4092 
Q 1497 4750 2381 4750 
Q 2619 4750 2861 4703 
Q 3103 4656 3366 4563 
z
" transform="scale(0.015625)"/>
       </defs>
       <use xlink:href="#DejaVuSans-2212"/>
       <use xlink:href="#DejaVuSans-30" x="83.789062"/>
       <use xlink:href="#DejaVuSans-2e" x="147.412109"/>
       <use xlink:href="#DejaVuSans-30" x="179.199219"/>
       <use xlink:href="#DejaVuSans-36" x="242.822266"/>
      </g>
     </g>
    </g>
    <g id="xtick_4">
     <g id="line2d_7">
      <path d="M 503.671542 512.64 
L 503.671542 69.12 
" clip-path="url(#pf05a9bf3ab)" style="fill: none; stroke: #b0b0b0; stroke-width: 0.8; stroke-linecap: square"/>
     </g>
     <g id="line2d_8">
      <g>
       <use xlink:href="#m357bcb41ff" x="503.671542" y="512.64" style="stroke: #000000; stroke-width: 0.8"/>
      </g>
     </g>
     <g id="text_4">
      <!-- −0.04 -->
      <g transform="translate(488.348886 527.238438) scale(0.1 -0.1)">
       <defs>
        <path id="DejaVuSans-34" d="M 2419 4116 
L 825 1625 
L 2419 1625 
L 2419 4116 
z
M 2253 4666 
L 3047 4666 
L 3047 1625 
L 3713 1625 
L 3713 1100 
L 3047 1100 
L 3047 0 
L 2419 0 
L 2419 1100 
L 313 1100 
L 313 1709 
L 2253 4666 
z
" transform="scale(0.015625)"/>
       </defs>
       <use xlink:href="#DejaVuSans-2212"/>
       <use xlink:href="#DejaVuSans-30" x="83.789062"/>
       <use xlink:href="#DejaVuSans-2e" x="147.412109"/>
       <use xlink:href="#DejaVuSans-30" x="179.199219"/>
       <use xlink:href="#DejaVuSans-34" x="242.822266"/>
      </g>
     </g>
    </g>
    <g id="xtick_5">
     <g id="line2d_9">
      <path d="M 625.417357 512.64 
L 625.417357 69.12 
" clip-path="url(#pf05a9bf3ab)" style="fill: none; stroke: #b0b0b0; stroke-width: 0.8; stroke-linecap: square"/>
     </g>
     <g id="line2d_10">
      <g>
       <use xlink:href="#m357bcb41ff" x="625.417357" y="512.64" style="stroke: #000000; stroke-width: 0.8"/>
      </g>
     </g>
     <g id="text_5">
      <!-- −0.02 -->
      <g transform="translate(610.094701 527.238438) scale(0.1 -0.1)">
       <defs>
        <path id="DejaVuSans-32" d="M 1228 531 
L 3431 531 
L 3431 0 
L 469 0 
L 469 531 
Q 828 903 1448 1529 
Q 2069 2156 2228 2338 
Q 2531 2678 2651 2914 
Q 2772 3150 2772 3378 
Q 2772 3750 2511 3984 
Q 2250 4219 1831 4219 
Q 1534 4219 1204 4116 
Q 875 4013 500 3803 
L 500 4441 
Q 881 4594 1212 4672 
Q 1544 4750 1819 4750 
Q 2544 4750 2975 4387 
Q 3406 4025 3406 3419 
Q 3406 3131 3298 2873 
Q 3191 2616 2906 2266 
Q 2828 2175 2409 1742 
Q 1991 1309 1228 531 
z
" transform="scale(0.015625)"/>
       </defs>
       <use xlink:href="#DejaVuSans-2212"/>
       <use xlink:href="#DejaVuSans-30" x="83.789062"/>
       <use xlink:href="#DejaVuSans-2e" x="147.412109"/>
       <use xlink:href="#DejaVuSans-30" x="179.199219"/>
       <use xlink:href="#DejaVuSans-32" x="242.822266"/>
      </g>
     </g>
    </g>
    <g id="xtick_6">
     <g id="line2d_11">
      <path d="M 747.163172 512.64 
L 747.163172 69.12 
" clip-path="url(#pf05a9bf3ab)" style="fill: none; stroke: #b0b0b0; stroke-width: 0.8; stroke-linecap: square"/>
     </g>
     <g id="line2d_12">
      <g>
       <use xlink:href="#m357bcb41ff" x="747.163172" y="512.64" style="stroke: #000000; stroke-width: 0.8"/>
      </g>
     </g>
     <g id="text_6">
      <!-- 0.00 -->
      <g transform="translate(736.030359 527.238438) scale(0.1 -0.1)">
       <use xlink:href="#DejaVuSans-30"/>
       <use xlink:href="#DejaVuSans-2e" x="63.623047"/>
       <use xlink:href="#DejaVuSans-30" x="95.410156"/>
       <use xlink:href="#DejaVuSans-30" x="159.033203"/>
      </g>
     </g>
    </g>
    <g id="text_7">
     <!-- Distance from Cloud Droplet Probe Strut [m] -->
     <g transform="translate(331.764063 540.916563) scale(0.1 -0.1)">
      <defs>
       <path id="DejaVuSans-44" d="M 1259 4147 
L 1259 519 
L 2022 519 
Q 2988 519 3436 956 
Q 3884 1394 3884 2338 
Q 3884 3275 3436 3711 
Q 2988 4147 2022 4147 
L 1259 4147 
z
M 628 4666 
L 1925 4666 
Q 3281 4666 3915 4102 
Q 4550 3538 4550 2338 
Q 4550 1131 3912 565 
Q 3275 0 1925 0 
L 628 0 
L 628 4666 
z
" transform="scale(0.015625)"/>
       <path id="DejaVuSans-69" d="M 603 3500 
L 1178 3500 
L 1178 0 
L 603 0 
L 603 3500 
z
M 603 4863 
L 1178 4863 
L 1178 4134 
L 603 4134 
L 603 4863 
z
" transform="scale(0.015625)"/>
       <path id="DejaVuSans-73" d="M 2834 3397 
L 2834 2853 
Q 2591 2978 2328 3040 
Q 2066 3103 1784 3103 
Q 1356 3103 1142 2972 
Q 928 2841 928 2578 
Q 928 2378 1081 2264 
Q 1234 2150 1697 2047 
L 1894 2003 
Q 2506 1872 2764 1633 
Q 3022 1394 3022 966 
Q 3022 478 2636 193 
Q 2250 -91 1575 -91 
Q 1294 -91 989 -36 
Q 684 19 347 128 
L 347 722 
Q 666 556 975 473 
Q 1284 391 1588 391 
Q 1994 391 2212 530 
Q 2431 669 2431 922 
Q 2431 1156 2273 1281 
Q 2116 1406 1581 1522 
L 1381 1569 
Q 847 1681 609 1914 
Q 372 2147 372 2553 
Q 372 3047 722 3315 
Q 1072 3584 1716 3584 
Q 2034 3584 2315 3537 
Q 2597 3491 2834 3397 
z
" transform="scale(0.015625)"/>
       <path id="DejaVuSans-74" d="M 1172 4494 
L 1172 3500 
L 2356 3500 
L 2356 3053 
L 1172 3053 
L 1172 1153 
Q 1172 725 1289 603 
Q 1406 481 1766 481 
L 2356 481 
L 2356 0 
L 1766 0 
Q 1100 0 847 248 
Q 594 497 594 1153 
L 594 3053 
L 172 3053 
L 172 3500 
L 594 3500 
L 594 4494 
L 1172 4494 
z
" transform="scale(0.015625)"/>
       <path id="DejaVuSans-61" d="M 2194 1759 
Q 1497 1759 1228 1600 
Q 959 1441 959 1056 
Q 959 750 1161 570 
Q 1363 391 1709 391 
Q 2188 391 2477 730 
Q 2766 1069 2766 1631 
L 2766 1759 
L 2194 1759 
z
M 3341 1997 
L 3341 0 
L 2766 0 
L 2766 531 
Q 2569 213 2275 61 
Q 1981 -91 1556 -91 
Q 1019 -91 701 211 
Q 384 513 384 1019 
Q 384 1609 779 1909 
Q 1175 2209 1959 2209 
L 2766 2209 
L 2766 2266 
Q 2766 2663 2505 2880 
Q 2244 3097 1772 3097 
Q 1472 3097 1187 3025 
Q 903 2953 641 2809 
L 641 3341 
Q 956 3463 1253 3523 
Q 1550 3584 1831 3584 
Q 2591 3584 2966 3190 
Q 3341 2797 3341 1997 
z
" transform="scale(0.015625)"/>
       <path id="DejaVuSans-6e" d="M 3513 2113 
L 3513 0 
L 2938 0 
L 2938 2094 
Q 2938 2591 2744 2837 
Q 2550 3084 2163 3084 
Q 1697 3084 1428 2787 
Q 1159 2491 1159 1978 
L 1159 0 
L 581 0 
L 581 3500 
L 1159 3500 
L 1159 2956 
Q 1366 3272 1645 3428 
Q 1925 3584 2291 3584 
Q 2894 3584 3203 3211 
Q 3513 2838 3513 2113 
z
" transform="scale(0.015625)"/>
       <path id="DejaVuSans-63" d="M 3122 3366 
L 3122 2828 
Q 2878 2963 2633 3030 
Q 2388 3097 2138 3097 
Q 1578 3097 1268 2742 
Q 959 2388 959 1747 
Q 959 1106 1268 751 
Q 1578 397 2138 397 
Q 2388 397 2633 464 
Q 2878 531 3122 666 
L 3122 134 
Q 2881 22 2623 -34 
Q 2366 -91 2075 -91 
Q 1284 -91 818 406 
Q 353 903 353 1747 
Q 353 2603 823 3093 
Q 1294 3584 2113 3584 
Q 2378 3584 2631 3529 
Q 2884 3475 3122 3366 
z
" transform="scale(0.015625)"/>
       <path id="DejaVuSans-65" d="M 3597 1894 
L 3597 1613 
L 953 1613 
Q 991 1019 1311 708 
Q 1631 397 2203 397 
Q 2534 397 2845 478 
Q 3156 559 3463 722 
L 3463 178 
Q 3153 47 2828 -22 
Q 2503 -91 2169 -91 
Q 1331 -91 842 396 
Q 353 884 353 1716 
Q 353 2575 817 3079 
Q 1281 3584 2069 3584 
Q 2775 3584 3186 3129 
Q 3597 2675 3597 1894 
z
M 3022 2063 
Q 3016 2534 2758 2815 
Q 2500 3097 2075 3097 
Q 1594 3097 1305 2825 
Q 1016 2553 972 2059 
L 3022 2063 
z
" transform="scale(0.015625)"/>
       <path id="DejaVuSans-20" transform="scale(0.015625)"/>
       <path id="DejaVuSans-66" d="M 2375 4863 
L 2375 4384 
L 1825 4384 
Q 1516 4384 1395 4259 
Q 1275 4134 1275 3809 
L 1275 3500 
L 2222 3500 
L 2222 3053 
L 1275 3053 
L 1275 0 
L 697 0 
L 697 3053 
L 147 3053 
L 147 3500 
L 697 3500 
L 697 3744 
Q 697 4328 969 4595 
Q 1241 4863 1831 4863 
L 2375 4863 
z
" transform="scale(0.015625)"/>
       <path id="DejaVuSans-72" d="M 2631 2963 
Q 2534 3019 2420 3045 
Q 2306 3072 2169 3072 
Q 1681 3072 1420 2755 
Q 1159 2438 1159 1844 
L 1159 0 
L 581 0 
L 581 3500 
L 1159 3500 
L 1159 2956 
Q 1341 3275 1631 3429 
Q 1922 3584 2338 3584 
Q 2397 3584 2469 3576 
Q 2541 3569 2628 3553 
L 2631 2963 
z
" transform="scale(0.015625)"/>
       <path id="DejaVuSans-6f" d="M 1959 3097 
Q 1497 3097 1228 2736 
Q 959 2375 959 1747 
Q 959 1119 1226 758 
Q 1494 397 1959 397 
Q 2419 397 2687 759 
Q 2956 1122 2956 1747 
Q 2956 2369 2687 2733 
Q 2419 3097 1959 3097 
z
M 1959 3584 
Q 2709 3584 3137 3096 
Q 3566 2609 3566 1747 
Q 3566 888 3137 398 
Q 2709 -91 1959 -91 
Q 1206 -91 779 398 
Q 353 888 353 1747 
Q 353 2609 779 3096 
Q 1206 3584 1959 3584 
z
" transform="scale(0.015625)"/>
       <path id="DejaVuSans-6d" d="M 3328 2828 
Q 3544 3216 3844 3400 
Q 4144 3584 4550 3584 
Q 5097 3584 5394 3201 
Q 5691 2819 5691 2113 
L 5691 0 
L 5113 0 
L 5113 2094 
Q 5113 2597 4934 2840 
Q 4756 3084 4391 3084 
Q 3944 3084 3684 2787 
Q 3425 2491 3425 1978 
L 3425 0 
L 2847 0 
L 2847 2094 
Q 2847 2600 2669 2842 
Q 2491 3084 2119 3084 
Q 1678 3084 1418 2786 
Q 1159 2488 1159 1978 
L 1159 0 
L 581 0 
L 581 3500 
L 1159 3500 
L 1159 2956 
Q 1356 3278 1631 3431 
Q 1906 3584 2284 3584 
Q 2666 3584 2933 3390 
Q 3200 3197 3328 2828 
z
" transform="scale(0.015625)"/>
       <path id="DejaVuSans-43" d="M 4122 4306 
L 4122 3641 
Q 3803 3938 3442 4084 
Q 3081 4231 2675 4231 
Q 1875 4231 1450 3742 
Q 1025 3253 1025 2328 
Q 1025 1406 1450 917 
Q 1875 428 2675 428 
Q 3081 428 3442 575 
Q 3803 722 4122 1019 
L 4122 359 
Q 3791 134 3420 21 
Q 3050 -91 2638 -91 
Q 1578 -91 968 557 
Q 359 1206 359 2328 
Q 359 3453 968 4101 
Q 1578 4750 2638 4750 
Q 3056 4750 3426 4639 
Q 3797 4528 4122 4306 
z
" transform="scale(0.015625)"/>
       <path id="DejaVuSans-6c" d="M 603 4863 
L 1178 4863 
L 1178 0 
L 603 0 
L 603 4863 
z
" transform="scale(0.015625)"/>
       <path id="DejaVuSans-75" d="M 544 1381 
L 544 3500 
L 1119 3500 
L 1119 1403 
Q 1119 906 1312 657 
Q 1506 409 1894 409 
Q 2359 409 2629 706 
Q 2900 1003 2900 1516 
L 2900 3500 
L 3475 3500 
L 3475 0 
L 2900 0 
L 2900 538 
Q 2691 219 2414 64 
Q 2138 -91 1772 -91 
Q 1169 -91 856 284 
Q 544 659 544 1381 
z
M 1991 3584 
L 1991 3584 
z
" transform="scale(0.015625)"/>
       <path id="DejaVuSans-64" d="M 2906 2969 
L 2906 4863 
L 3481 4863 
L 3481 0 
L 2906 0 
L 2906 525 
Q 2725 213 2448 61 
Q 2172 -91 1784 -91 
Q 1150 -91 751 415 
Q 353 922 353 1747 
Q 353 2572 751 3078 
Q 1150 3584 1784 3584 
Q 2172 3584 2448 3432 
Q 2725 3281 2906 2969 
z
M 947 1747 
Q 947 1113 1208 752 
Q 1469 391 1925 391 
Q 2381 391 2643 752 
Q 2906 1113 2906 1747 
Q 2906 2381 2643 2742 
Q 2381 3103 1925 3103 
Q 1469 3103 1208 2742 
Q 947 2381 947 1747 
z
" transform="scale(0.015625)"/>
       <path id="DejaVuSans-70" d="M 1159 525 
L 1159 -1331 
L 581 -1331 
L 581 3500 
L 1159 3500 
L 1159 2969 
Q 1341 3281 1617 3432 
Q 1894 3584 2278 3584 
Q 2916 3584 3314 3078 
Q 3713 2572 3713 1747 
Q 3713 922 3314 415 
Q 2916 -91 2278 -91 
Q 1894 -91 1617 61 
Q 1341 213 1159 525 
z
M 3116 1747 
Q 3116 2381 2855 2742 
Q 2594 3103 2138 3103 
Q 1681 3103 1420 2742 
Q 1159 2381 1159 1747 
Q 1159 1113 1420 752 
Q 1681 391 2138 391 
Q 2594 391 2855 752 
Q 3116 1113 3116 1747 
z
" transform="scale(0.015625)"/>
       <path id="DejaVuSans-50" d="M 1259 4147 
L 1259 2394 
L 2053 2394 
Q 2494 2394 2734 2622 
Q 2975 2850 2975 3272 
Q 2975 3691 2734 3919 
Q 2494 4147 2053 4147 
L 1259 4147 
z
M 628 4666 
L 2053 4666 
Q 2838 4666 3239 4311 
Q 3641 3956 3641 3272 
Q 3641 2581 3239 2228 
Q 2838 1875 2053 1875 
L 1259 1875 
L 1259 0 
L 628 0 
L 628 4666 
z
" transform="scale(0.015625)"/>
       <path id="DejaVuSans-62" d="M 3116 1747 
Q 3116 2381 2855 2742 
Q 2594 3103 2138 3103 
Q 1681 3103 1420 2742 
Q 1159 2381 1159 1747 
Q 1159 1113 1420 752 
Q 1681 391 2138 391 
Q 2594 391 2855 752 
Q 3116 1113 3116 1747 
z
M 1159 2969 
Q 1341 3281 1617 3432 
Q 1894 3584 2278 3584 
Q 2916 3584 3314 3078 
Q 3713 2572 3713 1747 
Q 3713 922 3314 415 
Q 2916 -91 2278 -91 
Q 1894 -91 1617 61 
Q 1341 213 1159 525 
L 1159 0 
L 581 0 
L 581 4863 
L 1159 4863 
L 1159 2969 
z
" transform="scale(0.015625)"/>
       <path id="DejaVuSans-53" d="M 3425 4513 
L 3425 3897 
Q 3066 4069 2747 4153 
Q 2428 4238 2131 4238 
Q 1616 4238 1336 4038 
Q 1056 3838 1056 3469 
Q 1056 3159 1242 3001 
Q 1428 2844 1947 2747 
L 2328 2669 
Q 3034 2534 3370 2195 
Q 3706 1856 3706 1288 
Q 3706 609 3251 259 
Q 2797 -91 1919 -91 
Q 1588 -91 1214 -16 
Q 841 59 441 206 
L 441 856 
Q 825 641 1194 531 
Q 1563 422 1919 422 
Q 2459 422 2753 634 
Q 3047 847 3047 1241 
Q 3047 1584 2836 1778 
Q 2625 1972 2144 2069 
L 1759 2144 
Q 1053 2284 737 2584 
Q 422 2884 422 3419 
Q 422 4038 858 4394 
Q 1294 4750 2059 4750 
Q 2388 4750 2728 4690 
Q 3069 4631 3425 4513 
z
" transform="scale(0.015625)"/>
       <path id="DejaVuSans-5b" d="M 550 4863 
L 1875 4863 
L 1875 4416 
L 1125 4416 
L 1125 -397 
L 1875 -397 
L 1875 -844 
L 550 -844 
L 550 4863 
z
" transform="scale(0.015625)"/>
       <path id="DejaVuSans-5d" d="M 1947 4863 
L 1947 -844 
L 622 -844 
L 622 -397 
L 1369 -397 
L 1369 4416 
L 622 4416 
L 622 4863 
L 1947 4863 
z
" transform="scale(0.015625)"/>
      </defs>
      <use xlink:href="#DejaVuSans-44"/>
      <use xlink:href="#DejaVuSans-69" x="77.001953"/>
      <use xlink:href="#DejaVuSans-73" x="104.785156"/>
      <use xlink:href="#DejaVuSans-74" x="156.884766"/>
      <use xlink:href="#DejaVuSans-61" x="196.09375"/>
      <use xlink:href="#DejaVuSans-6e" x="257.373047"/>
      <use xlink:href="#DejaVuSans-63" x="320.751953"/>
      <use xlink:href="#DejaVuSans-65" x="375.732422"/>
      <use xlink:href="#DejaVuSans-20" x="437.255859"/>
      <use xlink:href="#DejaVuSans-66" x="469.042969"/>
      <use xlink:href="#DejaVuSans-72" x="504.248047"/>
      <use xlink:href="#DejaVuSans-6f" x="543.111328"/>
      <use xlink:href="#DejaVuSans-6d" x="604.292969"/>
      <use xlink:href="#DejaVuSans-20" x="701.705078"/>
      <use xlink:href="#DejaVuSans-43" x="733.492188"/>
      <use xlink:href="#DejaVuSans-6c" x="803.316406"/>
      <use xlink:href="#DejaVuSans-6f" x="831.099609"/>
      <use xlink:href="#DejaVuSans-75" x="892.28125"/>
      <use xlink:href="#DejaVuSans-64" x="955.660156"/>
      <use xlink:href="#DejaVuSans-20" x="1019.136719"/>
      <use xlink:href="#DejaVuSans-44" x="1050.923828"/>
      <use xlink:href="#DejaVuSans-72" x="1127.925781"/>
      <use xlink:href="#DejaVuSans-6f" x="1166.789062"/>
      <use xlink:href="#DejaVuSans-70" x="1227.970703"/>
      <use xlink:href="#DejaVuSans-6c" x="1291.447266"/>
      <use xlink:href="#DejaVuSans-65" x="1319.230469"/>
      <use xlink:href="#DejaVuSans-74" x="1380.753906"/>
      <use xlink:href="#DejaVuSans-20" x="1419.962891"/>
      <use xlink:href="#DejaVuSans-50" x="1451.75"/>
      <use xlink:href="#DejaVuSans-72" x="1510.302734"/>
      <use xlink:href="#DejaVuSans-6f" x="1549.166016"/>
      <use xlink:href="#DejaVuSans-62" x="1610.347656"/>
      <use xlink:href="#DejaVuSans-65" x="1673.824219"/>
      <use xlink:href="#DejaVuSans-20" x="1735.347656"/>
      <use xlink:href="#DejaVuSans-53" x="1767.134766"/>
      <use xlink:href="#DejaVuSans-74" x="1830.611328"/>
      <use xlink:href="#DejaVuSans-72" x="1869.820312"/>
      <use xlink:href="#DejaVuSans-75" x="1910.933594"/>
      <use xlink:href="#DejaVuSans-74" x="1974.3125"/>
      <use xlink:href="#DejaVuSans-20" x="2013.521484"/>
      <use xlink:href="#DejaVuSans-5b" x="2045.308594"/>
      <use xlink:href="#DejaVuSans-6d" x="2084.322266"/>
      <use xlink:href="#DejaVuSans-5d" x="2181.734375"/>
     </g>
    </g>
   </g>
   <g id="matplotlib.axis_2">
    <g id="ytick_1">
     <g id="line2d_13">
      <path d="M 108 489.895385 
L 777.6 489.895385 
" clip-path="url(#pf05a9bf3ab)" style="fill: none; stroke: #b0b0b0; stroke-width: 0.8; stroke-linecap: square"/>
     </g>
     <g id="line2d_14">
      <defs>
       <path id="mc955637b3b" d="M 0 0 
L -3.5 0 
" style="stroke: #000000; stroke-width: 0.8"/>
      </defs>
      <g>
       <use xlink:href="#mc955637b3b" x="108" y="489.895385" style="stroke: #000000; stroke-width: 0.8"/>
      </g>
     </g>
     <g id="text_8">
      <!-- −25 -->
      <g transform="translate(79.895313 493.694603) scale(0.1 -0.1)">
       <defs>
        <path id="DejaVuSans-35" d="M 691 4666 
L 3169 4666 
L 3169 4134 
L 1269 4134 
L 1269 2991 
Q 1406 3038 1543 3061 
Q 1681 3084 1819 3084 
Q 2600 3084 3056 2656 
Q 3513 2228 3513 1497 
Q 3513 744 3044 326 
Q 2575 -91 1722 -91 
Q 1428 -91 1123 -41 
Q 819 9 494 109 
L 494 744 
Q 775 591 1075 516 
Q 1375 441 1709 441 
Q 2250 441 2565 725 
Q 2881 1009 2881 1497 
Q 2881 1984 2565 2268 
Q 2250 2553 1709 2553 
Q 1456 2553 1204 2497 
Q 953 2441 691 2322 
L 691 4666 
z
" transform="scale(0.015625)"/>
       </defs>
       <use xlink:href="#DejaVuSans-2212"/>
       <use xlink:href="#DejaVuSans-32" x="83.789062"/>
       <use xlink:href="#DejaVuSans-35" x="147.412109"/>
      </g>
     </g>
    </g>
    <g id="ytick_2">
     <g id="line2d_15">
      <path d="M 108 433.033846 
L 777.6 433.033846 
" clip-path="url(#pf05a9bf3ab)" style="fill: none; stroke: #b0b0b0; stroke-width: 0.8; stroke-linecap: square"/>
     </g>
     <g id="line2d_16">
      <g>
       <use xlink:href="#mc955637b3b" x="108" y="433.033846" style="stroke: #000000; stroke-width: 0.8"/>
      </g>
     </g>
     <g id="text_9">
      <!-- 0 -->
      <g transform="translate(94.6375 436.833065) scale(0.1 -0.1)">
       <use xlink:href="#DejaVuSans-30"/>
      </g>
     </g>
    </g>
    <g id="ytick_3">
     <g id="line2d_17">
      <path d="M 108 376.172308 
L 777.6 376.172308 
" clip-path="url(#pf05a9bf3ab)" style="fill: none; stroke: #b0b0b0; stroke-width: 0.8; stroke-linecap: square"/>
     </g>
     <g id="line2d_18">
      <g>
       <use xlink:href="#mc955637b3b" x="108" y="376.172308" style="stroke: #000000; stroke-width: 0.8"/>
      </g>
     </g>
     <g id="text_10">
      <!-- 25 -->
      <g transform="translate(88.275 379.971526) scale(0.1 -0.1)">
       <use xlink:href="#DejaVuSans-32"/>
       <use xlink:href="#DejaVuSans-35" x="63.623047"/>
      </g>
     </g>
    </g>
    <g id="ytick_4">
     <g id="line2d_19">
      <path d="M 108 319.310769 
L 777.6 319.310769 
" clip-path="url(#pf05a9bf3ab)" style="fill: none; stroke: #b0b0b0; stroke-width: 0.8; stroke-linecap: square"/>
     </g>
     <g id="line2d_20">
      <g>
       <use xlink:href="#mc955637b3b" x="108" y="319.310769" style="stroke: #000000; stroke-width: 0.8"/>
      </g>
     </g>
     <g id="text_11">
      <!-- 50 -->
      <g transform="translate(88.275 323.109988) scale(0.1 -0.1)">
       <use xlink:href="#DejaVuSans-35"/>
       <use xlink:href="#DejaVuSans-30" x="63.623047"/>
      </g>
     </g>
    </g>
    <g id="ytick_5">
     <g id="line2d_21">
      <path d="M 108 262.449231 
L 777.6 262.449231 
" clip-path="url(#pf05a9bf3ab)" style="fill: none; stroke: #b0b0b0; stroke-width: 0.8; stroke-linecap: square"/>
     </g>
     <g id="line2d_22">
      <g>
       <use xlink:href="#mc955637b3b" x="108" y="262.449231" style="stroke: #000000; stroke-width: 0.8"/>
      </g>
     </g>
     <g id="text_12">
      <!-- 75 -->
      <g transform="translate(88.275 266.24845) scale(0.1 -0.1)">
       <defs>
        <path id="DejaVuSans-37" d="M 525 4666 
L 3525 4666 
L 3525 4397 
L 1831 0 
L 1172 0 
L 2766 4134 
L 525 4134 
L 525 4666 
z
" transform="scale(0.015625)"/>
       </defs>
       <use xlink:href="#DejaVuSans-37"/>
       <use xlink:href="#DejaVuSans-35" x="63.623047"/>
      </g>
     </g>
    </g>
    <g id="ytick_6">
     <g id="line2d_23">
      <path d="M 108 205.587692 
L 777.6 205.587692 
" clip-path="url(#pf05a9bf3ab)" style="fill: none; stroke: #b0b0b0; stroke-width: 0.8; stroke-linecap: square"/>
     </g>
     <g id="line2d_24">
      <g>
       <use xlink:href="#mc955637b3b" x="108" y="205.587692" style="stroke: #000000; stroke-width: 0.8"/>
      </g>
     </g>
     <g id="text_13">
      <!-- 100 -->
      <g transform="translate(81.9125 209.386911) scale(0.1 -0.1)">
       <use xlink:href="#DejaVuSans-31"/>
       <use xlink:href="#DejaVuSans-30" x="63.623047"/>
       <use xlink:href="#DejaVuSans-30" x="127.246094"/>
      </g>
     </g>
    </g>
    <g id="ytick_7">
     <g id="line2d_25">
      <path d="M 108 148.726154 
L 777.6 148.726154 
" clip-path="url(#pf05a9bf3ab)" style="fill: none; stroke: #b0b0b0; stroke-width: 0.8; stroke-linecap: square"/>
     </g>
     <g id="line2d_26">
      <g>
       <use xlink:href="#mc955637b3b" x="108" y="148.726154" style="stroke: #000000; stroke-width: 0.8"/>
      </g>
     </g>
     <g id="text_14">
      <!-- 125 -->
      <g transform="translate(81.9125 152.525373) scale(0.1 -0.1)">
       <use xlink:href="#DejaVuSans-31"/>
       <use xlink:href="#DejaVuSans-32" x="63.623047"/>
       <use xlink:href="#DejaVuSans-35" x="127.246094"/>
      </g>
     </g>
    </g>
    <g id="ytick_8">
     <g id="line2d_27">
      <path d="M 108 91.864615 
L 777.6 91.864615 
" clip-path="url(#pf05a9bf3ab)" style="fill: none; stroke: #b0b0b0; stroke-width: 0.8; stroke-linecap: square"/>
     </g>
     <g id="line2d_28">
      <g>
       <use xlink:href="#mc955637b3b" x="108" y="91.864615" style="stroke: #000000; stroke-width: 0.8"/>
      </g>
     </g>
     <g id="text_15">
      <!-- 150 -->
      <g transform="translate(81.9125 95.663834) scale(0.1 -0.1)">
       <use xlink:href="#DejaVuSans-31"/>
       <use xlink:href="#DejaVuSans-35" x="63.623047"/>
       <use xlink:href="#DejaVuSans-30" x="127.246094"/>
      </g>
     </g>
    </g>
    <g id="text_16">
     <!-- Velocity [m/s] -->
     <g transform="translate(73.815625 325.145625) rotate(-90) scale(0.1 -0.1)">
      <defs>
       <path id="DejaVuSans-56" d="M 1831 0 
L 50 4666 
L 709 4666 
L 2188 738 
L 3669 4666 
L 4325 4666 
L 2547 0 
L 1831 0 
z
" transform="scale(0.015625)"/>
       <path id="DejaVuSans-79" d="M 2059 -325 
Q 1816 -950 1584 -1140 
Q 1353 -1331 966 -1331 
L 506 -1331 
L 506 -850 
L 844 -850 
Q 1081 -850 1212 -737 
Q 1344 -625 1503 -206 
L 1606 56 
L 191 3500 
L 800 3500 
L 1894 763 
L 2988 3500 
L 3597 3500 
L 2059 -325 
z
" transform="scale(0.015625)"/>
       <path id="DejaVuSans-2f" d="M 1625 4666 
L 2156 4666 
L 531 -594 
L 0 -594 
L 1625 4666 
z
" transform="scale(0.015625)"/>
      </defs>
      <use xlink:href="#DejaVuSans-56"/>
      <use xlink:href="#DejaVuSans-65" x="60.658203"/>
      <use xlink:href="#DejaVuSans-6c" x="122.181641"/>
      <use xlink:href="#DejaVuSans-6f" x="149.964844"/>
      <use xlink:href="#DejaVuSans-63" x="211.146484"/>
      <use xlink:href="#DejaVuSans-69" x="266.126953"/>
      <use xlink:href="#DejaVuSans-74" x="293.910156"/>
      <use xlink:href="#DejaVuSans-79" x="333.119141"/>
      <use xlink:href="#DejaVuSans-20" x="392.298828"/>
      <use xlink:href="#DejaVuSans-5b" x="424.085938"/>
      <use xlink:href="#DejaVuSans-6d" x="463.099609"/>
      <use xlink:href="#DejaVuSans-2f" x="560.511719"/>
      <use xlink:href="#DejaVuSans-73" x="594.203125"/>
      <use xlink:href="#DejaVuSans-5d" x="646.302734"/>
     </g>
    </g>
   </g>
   <g id="line2d_29">
    <path d="M 138.436364 205.961245 
L 144.521992 207.699055 
L 150.605939 209.434713 
L 156.695691 211.171552 
L 162.785443 212.907939 
L 168.86939 214.642209 
L 174.959142 216.377693 
L 181.043089 217.90812 
L 187.132841 218.073197 
L 193.222593 218.239315 
L 199.30654 218.406353 
L 205.396293 218.574605 
L 211.480239 218.743777 
L 217.569992 218.914199 
L 223.653939 219.085557 
L 229.743691 219.258165 
L 235.833443 219.431867 
L 241.91739 219.606522 
L 248.007142 219.782462 
L 254.091089 219.959339 
L 260.180841 220.137517 
L 266.264788 220.316667 
L 272.35454 220.497118 
L 278.444292 220.678715 
L 284.528239 221.019002 
L 290.617991 221.453741 
L 296.701938 221.888567 
L 302.791691 222.324329 
L 308.875637 222.760179 
L 314.96539 223.196965 
L 321.055142 223.634255 
L 327.139089 224.071649 
L 333.228841 224.50998 
L 339.312788 224.948397 
L 345.40254 225.387769 
L 351.486487 225.827228 
L 357.576239 226.267624 
L 363.665991 226.70854 
L 369.749938 227.149543 
L 375.83969 227.591501 
L 381.923637 228.221649 
L 388.013389 228.999678 
L 394.103142 229.777706 
L 400.187089 230.555023 
L 406.276841 231.333087 
L 412.360788 232.110438 
L 418.45054 232.888536 
L 424.534487 233.665905 
L 430.624239 234.444021 
L 436.713991 235.222171 
L 442.797938 235.999592 
L 448.88769 236.777759 
L 454.971637 237.555198 
L 461.061389 238.3334 
L 467.145336 239.110873 
L 473.235088 239.889093 
L 479.324841 240.664726 
L 485.408787 241.43545 
L 491.49854 242.206919 
L 497.582487 242.977676 
L 503.672239 243.749198 
L 509.756186 244.51999 
L 515.845938 245.291546 
L 521.93569 246.063119 
L 528.019637 246.833981 
L 534.109389 247.605589 
L 540.193336 248.376486 
L 546.283088 249.148129 
L 552.367035 249.91906 
L 558.456787 250.690755 
L 564.546539 251.462449 
L 570.630486 252.23345 
L 576.720239 253.005197 
L 582.804185 253.542039 
L 588.893938 254.047682 
L 594.98369 254.555597 
L 601.067637 255.065282 
L 607.157389 255.577727 
L 613.241336 256.092011 
L 619.331088 256.609106 
L 625.415035 257.128058 
L 631.504787 257.649873 
L 637.594539 258.174082 
L 643.678486 258.700201 
L 649.768238 259.229269 
L 655.852185 259.760298 
L 661.941937 260.294312 
L 668.025884 260.830322 
L 674.115637 261.369368 
L 680.205389 269.809423 
L 686.289336 282.963721 
L 692.379088 295.840583 
L 698.463035 308.41778 
L 704.552787 320.722009 
L 710.636734 332.732785 
L 716.726486 344.476321 
L 722.816238 355.944581 
L 728.900185 367.130828 
L 734.989937 378.060458 
L 741.073884 388.716881 
L 747.163636 399.124892 
" clip-path="url(#pf05a9bf3ab)" style="fill: none; stroke: #1f77b4; stroke-width: 1.5; stroke-linecap: square"/>
   </g>
   <g id="line2d_30">
    <path d="M 138.436364 456.008112 
L 144.521992 456.089686 
L 150.605939 456.171575 
L 156.695691 456.253923 
L 162.785443 456.336644 
L 168.86939 456.419648 
L 174.959142 456.503083 
L 181.043089 456.617272 
L 187.132841 456.936715 
L 193.222593 457.255503 
L 199.30654 457.573325 
L 205.396293 457.890788 
L 211.480239 458.20728 
L 217.569992 458.523404 
L 223.653939 458.838552 
L 229.743691 459.15332 
L 235.833443 459.467405 
L 241.91739 459.780508 
L 248.007142 460.093218 
L 254.091089 460.404934 
L 260.180841 460.716251 
L 266.264788 461.026571 
L 272.35454 461.336478 
L 278.444292 461.645676 
L 284.528239 461.985728 
L 290.617991 462.344767 
L 296.701938 462.703351 
L 302.791691 463.062165 
L 308.875637 463.420524 
L 314.96539 463.779112 
L 321.055142 464.137585 
L 327.139089 464.495605 
L 333.228841 464.853853 
L 339.312788 465.211648 
L 345.40254 465.569668 
L 351.486487 465.927232 
L 357.576239 466.285025 
L 363.665991 466.642704 
L 369.749938 466.999928 
L 375.83969 467.357376 
L 381.923637 467.683512 
L 388.013389 467.986186 
L 394.103142 468.289369 
L 400.187089 468.592767 
L 406.276841 468.896961 
L 412.360788 469.201365 
L 418.45054 469.506563 
L 424.534487 469.811967 
L 430.624239 470.118166 
L 436.713991 470.424858 
L 442.797938 470.731755 
L 448.88769 471.039441 
L 454.971637 471.347327 
L 461.061389 471.655994 
L 467.145336 471.96486 
L 473.235088 472.274511 
L 479.324841 472.713944 
L 485.408787 473.359736 
L 491.49854 474.006534 
L 497.582487 474.653107 
L 503.672239 475.300686 
L 509.756186 475.948035 
L 515.845938 476.596391 
L 521.93569 477.245141 
L 528.019637 477.893662 
L 534.109389 478.543193 
L 540.193336 479.192495 
L 546.283088 479.842807 
L 552.367035 480.492889 
L 558.456787 481.143982 
L 564.546539 481.79547 
L 570.630486 482.446732 
L 576.720239 483.099005 
L 582.804185 483.754805 
L 588.893938 484.402033 
L 594.98369 485.038741 
L 601.067637 485.664243 
L 607.157389 486.279632 
L 613.241336 486.883643 
L 619.331088 487.477325 
L 625.415035 488.059445 
L 631.504787 488.631019 
L 637.594539 489.191379 
L 643.678486 489.7399 
L 649.768238 490.277532 
L 655.852185 490.803134 
L 661.941937 491.317604 
L 668.025884 491.819854 
L 674.115637 492.310729 
L 680.205389 489.244717 
L 686.289336 484.111821 
L 692.379088 479.167945 
L 698.463035 474.420935 
L 704.552787 469.859948 
L 710.636734 465.491676 
L 716.726486 461.305595 
L 722.816238 457.303581 
L 728.900185 453.486639 
L 734.989937 449.844782 
L 741.073884 446.38211 
L 747.163636 443.089036 
" clip-path="url(#pf05a9bf3ab)" style="fill: none; stroke-dasharray: 5.55,2.4; stroke-dashoffset: 0; stroke: #ff7f0e; stroke-width: 1.5"/>
   </g>
   <g id="line2d_31">
    <path d="M 138.436364 401.987768 
L 144.521992 402.1748 
L 150.605939 402.361512 
L 156.695691 402.548265 
L 162.785443 402.73488 
L 168.86939 402.921186 
L 174.959142 403.107542 
L 181.043089 403.33605 
L 187.132841 403.850913 
L 193.222593 404.366199 
L 199.30654 404.881413 
L 205.396293 405.397545 
L 211.480239 405.91361 
L 217.569992 406.430596 
L 223.653939 406.947522 
L 229.743691 407.465376 
L 235.833443 407.983664 
L 241.91739 408.5019 
L 248.007142 409.021069 
L 254.091089 409.540188 
L 260.180841 410.060248 
L 266.264788 410.58026 
L 272.35454 411.101221 
L 278.444292 411.622635 
L 284.528239 412.090678 
L 290.617991 412.527596 
L 296.701938 412.964053 
L 302.791691 413.400879 
L 308.875637 413.837242 
L 314.96539 414.273972 
L 321.055142 414.710657 
L 327.139089 415.146879 
L 333.228841 415.583469 
L 339.312788 416.019596 
L 345.40254 416.456092 
L 351.486487 416.892125 
L 357.576239 417.328525 
L 363.665991 417.764879 
L 369.749938 418.200768 
L 375.83969 418.637026 
L 381.923637 418.965969 
L 388.013389 419.211685 
L 394.103142 419.457479 
L 400.187089 419.70312 
L 406.276841 419.949073 
L 412.360788 420.194871 
L 418.45054 420.440983 
L 424.534487 420.686938 
L 430.624239 420.933206 
L 436.713991 421.179552 
L 442.797938 421.425743 
L 448.88769 421.672244 
L 454.971637 421.918589 
L 461.061389 422.165246 
L 467.145336 422.411745 
L 473.235088 422.658556 
L 479.324841 422.921998 
L 485.408787 423.211703 
L 491.49854 423.50178 
L 497.582487 423.791676 
L 503.672239 424.081945 
L 509.756186 424.372034 
L 515.845938 424.662495 
L 521.93569 424.953053 
L 528.019637 425.24343 
L 534.109389 425.53418 
L 540.193336 425.82475 
L 546.283088 426.115693 
L 552.367035 426.406456 
L 558.456787 426.697592 
L 564.546539 426.988826 
L 570.630486 427.279878 
L 576.720239 427.571305 
L 582.804185 428.310857 
L 588.893938 429.116059 
L 594.98369 429.921549 
L 601.067637 430.726563 
L 607.157389 431.532639 
L 613.241336 432.338244 
L 619.331088 433.144916 
L 625.415035 433.951122 
L 631.504787 434.758402 
L 637.594539 435.56599 
L 643.678486 436.373119 
L 649.768238 437.181332 
L 655.852185 437.98909 
L 661.941937 438.797939 
L 668.025884 439.60634 
L 674.115637 440.415837 
L 680.205389 440.352746 
L 686.289336 439.753658 
L 692.379088 439.168445 
L 698.463035 438.598108 
L 704.552787 438.041422 
L 710.636734 437.499303 
L 716.726486 436.97055 
L 722.816238 436.455512 
L 728.900185 435.954469 
L 734.989937 435.466264 
L 741.073884 434.991616 
L 747.163636 434.529398 
" clip-path="url(#pf05a9bf3ab)" style="fill: none; stroke-dasharray: 9.6,2.4,1.5,2.4; stroke-dashoffset: 0; stroke: #2ca02c; stroke-width: 1.5"/>
   </g>
   <g id="line2d_32">
    <path d="M 138.436364 213.41844 
L 144.521992 215.133448 
L 150.605939 216.846253 
L 156.695691 218.56015 
L 162.785443 220.273493 
L 168.86939 221.984701 
L 174.959142 223.69702 
L 181.043089 225.21294 
L 187.132841 225.421919 
L 193.222593 225.63187 
L 199.30654 225.842602 
L 205.396293 226.054514 
L 211.480239 226.267225 
L 217.569992 226.481115 
L 223.653939 226.695803 
L 229.743691 226.911689 
L 235.833443 227.128598 
L 241.91739 227.346306 
L 248.007142 227.565246 
L 254.091089 227.785002 
L 260.180841 228.006006 
L 266.264788 228.227827 
L 272.35454 228.450914 
L 278.444292 228.675042 
L 284.528239 229.054859 
L 290.617991 229.52741 
L 296.701938 229.999943 
L 302.791691 230.473361 
L 308.875637 230.946762 
L 314.96539 231.421065 
L 321.055142 231.895802 
L 327.139089 232.370522 
L 333.228841 232.846143 
L 339.312788 233.321765 
L 345.40254 233.798272 
L 351.486487 234.274779 
L 357.576239 234.752171 
L 363.665991 235.230014 
L 369.749938 235.70784 
L 375.83969 236.186585 
L 381.923637 236.834659 
L 388.013389 237.615933 
L 394.103142 238.397206 
L 400.187089 239.177733 
L 406.276841 239.959007 
L 412.360788 240.739534 
L 418.45054 241.520808 
L 424.534487 242.301318 
L 430.624239 243.082574 
L 436.713991 243.863847 
L 442.797938 244.644357 
L 448.88769 245.425614 
L 454.971637 246.206106 
L 461.061389 246.987362 
L 467.145336 247.767872 
L 473.235088 248.549111 
L 479.324841 249.308052 
L 485.408787 250.03069 
L 491.49854 250.754075 
L 497.582487 251.4768 
L 503.672239 252.200254 
L 509.756186 252.923066 
L 515.845938 253.646625 
L 521.93569 254.3702 
L 528.019637 255.093134 
L 534.109389 255.816813 
L 540.193336 256.539834 
L 546.283088 257.263583 
L 552.367035 257.98669 
L 558.456787 258.710526 
L 564.546539 259.434414 
L 570.630486 260.157642 
L 576.720239 260.881599 
L 582.804185 261.395154 
L 588.893938 261.880702 
L 594.98369 262.368124 
L 601.067637 262.856969 
L 607.157389 263.348191 
L 613.241336 263.84087 
L 619.331088 264.335962 
L 625.415035 264.832546 
L 631.504787 265.331594 
L 637.594539 265.832638 
L 643.678486 266.335226 
L 649.768238 266.84033 
L 655.852185 267.347014 
L 661.941937 267.856248 
L 668.025884 268.367096 
L 674.115637 268.880547 
L 680.205389 276.919285 
L 686.289336 289.453299 
L 692.379088 301.729269 
L 698.463035 313.725999 
L 704.552787 325.468866 
L 710.636734 336.938263 
L 716.726486 348.159133 
L 722.816238 359.123711 
L 728.900185 369.825478 
L 734.989937 380.288605 
L 741.073884 390.497106 
L 747.163636 400.474609 
" clip-path="url(#pf05a9bf3ab)" style="fill: none; stroke: #d62728; stroke-width: 1.5; stroke-linecap: square"/>
   </g>
   <g id="line2d_33">
    <path d="M 138.436364 428.325153 
L 144.521992 428.603539 
L 150.605939 428.882001 
L 156.695691 429.161061 
L 162.785443 429.440446 
L 168.86939 429.71988 
L 174.959142 429.999888 
L 181.043089 430.277678 
L 187.132841 430.540308 
L 193.222593 430.80225 
L 199.30654 431.06325 
L 205.396293 431.323802 
L 211.480239 431.583406 
L 217.569992 431.842554 
L 223.653939 432.100747 
L 229.743691 432.358474 
L 235.833443 432.615485 
L 241.91739 432.871531 
L 248.007142 433.127097 
L 254.091089 433.381692 
L 260.180841 433.635798 
L 266.264788 433.888926 
L 272.35454 434.141554 
L 278.444292 434.393438 
L 284.528239 434.664943 
L 290.617991 434.948614 
L 296.701938 435.231803 
L 302.791691 435.515051 
L 308.875637 435.797816 
L 314.96539 436.080639 
L 321.055142 436.363248 
L 327.139089 436.645376 
L 333.228841 436.927559 
L 339.312788 437.20926 
L 345.40254 437.491015 
L 351.486487 437.772289 
L 357.576239 438.053615 
L 363.665991 438.334727 
L 369.749938 438.615356 
L 375.83969 438.896037 
L 381.923637 439.195975 
L 388.013389 439.511932 
L 394.103142 439.828319 
L 400.187089 440.144831 
L 406.276841 440.462073 
L 412.360788 440.779437 
L 418.45054 441.097529 
L 424.534487 441.415741 
L 430.624239 441.734679 
L 436.713991 442.054038 
L 442.797938 442.373512 
L 448.88769 442.69371 
L 454.971637 443.01402 
L 461.061389 443.335052 
L 467.145336 443.656193 
L 473.235088 443.978055 
L 479.324841 444.41983 
L 485.408787 445.052283 
L 491.49854 445.685685 
L 497.582487 446.318829 
L 503.672239 446.952923 
L 509.756186 447.586758 
L 515.845938 448.221545 
L 521.93569 448.856679 
L 528.019637 449.491555 
L 534.109389 450.127383 
L 540.193336 450.762953 
L 546.283088 451.399476 
L 552.367035 452.035741 
L 558.456787 452.672961 
L 564.546539 453.31053 
L 570.630486 453.947838 
L 576.720239 454.586103 
L 582.804185 455.148012 
L 588.893938 455.691086 
L 594.98369 456.225096 
L 601.067637 456.749464 
L 607.157389 457.265105 
L 613.241336 457.770956 
L 619.331088 458.267893 
L 625.415035 458.754886 
L 631.504787 459.232774 
L 637.594539 459.701002 
L 643.678486 460.159043 
L 649.768238 460.607686 
L 655.852185 461.04598 
L 661.941937 461.474669 
L 668.025884 461.892843 
L 674.115637 462.301203 
L 680.205389 460.709024 
L 686.289336 457.971389 
L 692.379088 455.359447 
L 698.463035 452.877138 
L 704.552787 450.51854 
L 710.636734 448.286832 
L 716.726486 446.176301 
L 722.816238 444.187561 
L 728.900185 442.32065 
L 734.989937 440.570215 
L 741.073884 438.937713 
L 747.163636 437.418058 
" clip-path="url(#pf05a9bf3ab)" style="fill: none; stroke-dasharray: 5.55,2.4; stroke-dashoffset: 0; stroke: #9467bd; stroke-width: 1.5"/>
   </g>
   <g id="line2d_34">
    <path d="M 138.436364 399.274516 
L 144.521992 399.492169 
L 150.605939 399.709795 
L 156.695691 399.927804 
L 162.785443 400.145983 
L 168.86939 400.36412 
L 174.959142 400.582628 
L 181.043089 400.842455 
L 187.132841 401.381267 
L 193.222593 401.920081 
L 199.30654 402.458384 
L 205.396293 402.9972 
L 211.480239 403.535507 
L 217.569992 404.074325 
L 223.653939 404.612634 
L 229.743691 405.151457 
L 235.833443 405.69028 
L 241.91739 406.228593 
L 248.007142 406.76742 
L 254.091089 407.305735 
L 260.180841 407.844565 
L 266.264788 408.382882 
L 272.35454 408.921716 
L 278.444292 409.460552 
L 284.528239 409.918305 
L 290.617991 410.328559 
L 296.701938 410.738208 
L 302.791691 411.148032 
L 308.875637 411.557254 
L 314.96539 411.966653 
L 321.055142 412.375836 
L 327.139089 412.784413 
L 333.228841 413.193166 
L 339.312788 413.601314 
L 345.40254 414.009635 
L 351.486487 414.417351 
L 357.576239 414.825241 
L 363.665991 415.232914 
L 369.749938 415.639981 
L 375.83969 416.047219 
L 381.923637 416.335702 
L 388.013389 416.532006 
L 394.103142 416.728345 
L 400.187089 416.92453 
L 406.276841 417.120936 
L 412.360788 417.317188 
L 418.45054 417.513661 
L 424.534487 417.709979 
L 430.624239 417.906518 
L 436.713991 418.103091 
L 442.797938 418.299509 
L 448.88769 418.496147 
L 454.971637 418.692631 
L 461.061389 418.889335 
L 467.145336 419.085884 
L 473.235088 419.282653 
L 479.324841 419.500425 
L 485.408787 419.75151 
L 491.49854 420.002887 
L 497.582487 420.25408 
L 503.672239 420.505566 
L 509.756186 420.756866 
L 515.845938 421.008462 
L 521.93569 421.260112 
L 528.019637 421.511576 
L 534.109389 421.763334 
L 540.193336 422.014907 
L 546.283088 422.266775 
L 552.367035 422.518457 
L 558.456787 422.770434 
L 564.546539 423.022466 
L 570.630486 423.274312 
L 576.720239 423.526453 
L 582.804185 424.234389 
L 588.893938 425.009471 
L 594.98369 425.785297 
L 601.067637 426.561132 
L 607.157389 427.338465 
L 613.241336 428.11582 
L 619.331088 428.894687 
L 625.415035 429.673589 
L 631.504787 430.45402 
L 637.594539 431.235243 
L 643.678486 432.01652 
L 649.768238 432.79935 
L 655.852185 433.582248 
L 661.941937 434.366715 
L 668.025884 435.151264 
L 674.115637 435.937399 
L 680.205389 436.161607 
L 686.289336 436.022749 
L 692.379088 435.871657 
L 698.463035 435.708714 
L 704.552787 435.533723 
L 710.636734 435.34714 
L 716.726486 435.148749 
L 722.816238 434.938868 
L 728.900185 434.717874 
L 734.989937 434.485514 
L 741.073884 434.242408 
L 747.163636 433.988279 
" clip-path="url(#pf05a9bf3ab)" style="fill: none; stroke-dasharray: 9.6,2.4,1.5,2.4; stroke-dashoffset: 0; stroke: #8c564b; stroke-width: 1.5"/>
   </g>
   <g id="line2d_35">
    <path d="M 138.436364 202.487274 
L 144.521992 204.272717 
L 150.605939 206.056009 
L 156.695691 207.840584 
L 162.785443 209.624726 
L 168.86939 211.406751 
L 174.959142 213.190095 
L 181.043089 214.763314 
L 187.132841 214.937292 
L 193.222593 215.112451 
L 199.30654 215.288651 
L 205.396293 215.466239 
L 211.480239 215.644851 
L 217.569992 215.824852 
L 223.653939 216.00591 
L 229.743691 216.188375 
L 235.833443 216.372071 
L 241.91739 216.556843 
L 248.007142 216.743056 
L 254.091089 216.930327 
L 260.180841 217.119055 
L 266.264788 217.308877 
L 272.35454 217.500157 
L 278.444292 217.692738 
L 284.528239 218.070872 
L 290.617991 218.559543 
L 296.701938 219.048457 
L 302.791691 219.538586 
L 308.875637 220.028958 
L 314.96539 220.520527 
L 321.055142 221.012825 
L 327.139089 221.5054 
L 333.228841 221.999156 
L 339.312788 222.493172 
L 345.40254 222.988402 
L 351.486487 223.483893 
L 357.576239 223.980581 
L 363.665991 224.477998 
L 369.749938 224.975693 
L 375.83969 225.474602 
L 381.923637 226.18466 
L 388.013389 227.060767 
L 394.103142 227.937203 
L 400.187089 228.813083 
L 406.276841 229.690109 
L 412.360788 230.56658 
L 418.45054 231.444196 
L 424.534487 232.321274 
L 430.624239 233.19948 
L 436.713991 234.077999 
L 442.797938 234.955962 
L 448.88769 235.835053 
L 454.971637 236.713589 
L 461.061389 237.59327 
L 467.145336 238.472396 
L 473.235088 239.352649 
L 479.324841 240.259591 
L 485.408787 241.207989 
L 491.49854 242.157446 
L 497.582487 243.106139 
L 503.672239 244.05589 
L 509.756186 245.004896 
L 515.845938 245.954942 
L 521.93569 246.905128 
L 528.019637 247.854567 
L 534.109389 248.805064 
L 540.193336 249.754799 
L 546.283088 250.705591 
L 552.367035 251.65562 
L 558.456787 252.606708 
L 564.546539 253.557952 
L 570.630486 254.508432 
L 576.720239 255.459971 
L 582.804185 256.220525 
L 588.893938 256.954495 
L 594.98369 257.688604 
L 601.067637 258.42214 
L 607.157389 259.156509 
L 613.241336 259.890323 
L 619.331088 260.624987 
L 625.415035 261.359078 
L 631.504787 262.094002 
L 637.594539 262.829083 
L 643.678486 263.563608 
L 649.768238 264.298966 
L 655.852185 265.033769 
L 661.941937 265.769439 
L 668.025884 266.504537 
L 674.115637 267.240503 
L 680.205389 275.385265 
L 686.289336 287.961083 
L 692.379088 300.288955 
L 698.463035 312.347469 
L 704.552787 324.162038 
L 710.636734 335.712828 
L 716.726486 347.024809 
L 722.816238 358.090042 
L 728.900185 368.901729 
L 734.989937 379.484144 
L 741.073884 389.820912 
L 747.163636 399.935754 
" clip-path="url(#pf05a9bf3ab)" style="fill: none; stroke: #e377c2; stroke-width: 1.5; stroke-linecap: square"/>
   </g>
   <g id="line2d_36">
    <path d="M 138.436364 484.800804 
L 144.521992 484.696561 
L 150.605939 484.592805 
L 156.695691 484.489326 
L 162.785443 484.386216 
L 168.86939 484.283561 
L 174.959142 484.181158 
L 181.043089 484.1349 
L 187.132841 484.463666 
L 193.222593 484.791885 
L 199.30654 485.11924 
L 205.396293 485.446344 
L 211.480239 485.77258 
L 217.569992 486.098565 
L 223.653939 486.423673 
L 229.743691 486.748526 
L 235.833443 487.072801 
L 241.91739 487.396192 
L 248.007142 487.719313 
L 254.091089 488.041545 
L 260.180841 488.3635 
L 266.264788 488.684556 
L 272.35454 489.005331 
L 278.444292 489.325507 
L 284.528239 489.64203 
L 290.617991 489.957091 
L 296.701938 490.271822 
L 302.791691 490.586827 
L 308.875637 490.901502 
L 314.96539 491.216451 
L 321.055142 491.531369 
L 327.139089 491.845961 
L 333.228841 492.160827 
L 339.312788 492.475363 
L 345.40254 492.790173 
L 351.486487 493.104653 
L 357.576239 493.419406 
L 363.665991 493.734133 
L 369.749938 494.048526 
L 375.83969 494.363197 
L 381.923637 494.614308 
L 388.013389 494.816629 
L 394.103142 495.019504 
L 400.187089 495.22274 
L 406.276841 495.426721 
L 412.360788 495.631059 
L 418.45054 495.836143 
L 424.534487 496.041573 
L 430.624239 496.24775 
L 436.713991 496.454474 
L 442.797938 496.66154 
L 448.88769 496.869348 
L 454.971637 497.077499 
L 461.061389 497.286387 
L 467.145336 497.495609 
L 473.235088 497.705569 
L 479.324841 498.025701 
L 485.408787 498.520945 
L 491.49854 499.017052 
L 497.582487 499.513076 
L 503.672239 500.00996 
L 509.756186 500.506765 
L 515.845938 501.004429 
L 521.93569 501.502488 
L 528.019637 502.000465 
L 534.109389 502.499305 
L 540.193336 502.998062 
L 546.283088 503.497683 
L 552.367035 503.997221 
L 558.456787 504.497632 
L 564.546539 504.998433 
L 570.630486 505.499147 
L 576.720239 506.000737 
L 582.804185 506.269106 
L 588.893938 506.493512 
L 594.98369 506.7065 
L 601.067637 506.907757 
L 607.157389 507.097588 
L 613.241336 507.275506 
L 619.331088 507.441745 
L 625.415035 507.59589 
L 631.504787 507.738113 
L 637.594539 507.868155 
L 643.678486 507.985798 
L 649.768238 508.091146 
L 655.852185 508.183888 
L 661.941937 508.264084 
L 668.025884 508.331456 
L 674.115637 508.386013 
L 680.205389 504.345622 
L 686.289336 497.931879 
L 692.379088 491.742721 
L 698.463035 485.788076 
L 704.552787 480.054458 
L 710.636734 474.550417 
L 716.726486 469.262839 
L 722.816238 464.194253 
L 728.900185 459.346147 
L 734.989937 454.706054 
L 741.073884 450.279434 
L 747.163636 446.054302 
" clip-path="url(#pf05a9bf3ab)" style="fill: none; stroke-dasharray: 5.55,2.4; stroke-dashoffset: 0; stroke: #7f7f7f; stroke-width: 1.5"/>
   </g>
   <g id="line2d_37">
    <path d="M 138.436364 404.65628 
L 144.521992 404.792062 
L 150.605939 404.927272 
L 156.695691 405.062181 
L 162.785443 405.196674 
L 168.86939 405.330628 
L 174.959142 405.464314 
L 181.043089 405.63913 
L 187.132841 406.094855 
L 193.222593 406.551304 
L 199.30654 407.008046 
L 205.396293 407.465958 
L 211.480239 407.924168 
L 217.569992 408.383559 
L 223.653939 408.843255 
L 229.743691 409.304138 
L 235.833443 409.765776 
L 241.91739 410.227733 
L 248.007142 410.690889 
L 254.091089 411.154372 
L 260.180841 411.619066 
L 266.264788 412.084092 
L 272.35454 412.550342 
L 278.444292 413.017376 
L 284.528239 413.446751 
L 290.617991 413.85423 
L 296.701938 414.261415 
L 302.791691 414.669079 
L 308.875637 415.07645 
L 314.96539 415.4843 
L 321.055142 415.892244 
L 327.139089 416.299892 
L 333.228841 416.708023 
L 339.312788 417.115857 
L 345.40254 417.524174 
L 351.486487 417.932196 
L 357.576239 418.340701 
L 363.665991 418.749299 
L 369.749938 419.157603 
L 375.83969 419.56639 
L 381.923637 419.888084 
L 388.013389 420.142232 
L 394.103142 420.396416 
L 400.187089 420.650394 
L 406.276841 420.90465 
L 412.360788 421.1587 
L 418.45054 421.413027 
L 424.534487 421.66715 
L 430.624239 421.921549 
L 436.713991 422.175985 
L 442.797938 422.430213 
L 448.88769 422.684719 
L 454.971637 422.939019 
L 461.061389 423.193596 
L 467.145336 423.447964 
L 473.235088 423.702612 
L 479.324841 423.98383 
L 485.408787 424.307198 
L 491.49854 424.630953 
L 497.582487 424.954476 
L 503.672239 425.278385 
L 509.756186 425.602063 
L 515.845938 425.926128 
L 521.93569 426.25027 
L 528.019637 426.574181 
L 534.109389 426.898478 
L 540.193336 427.222544 
L 546.283088 427.546997 
L 552.367035 427.871219 
L 558.456787 428.195828 
L 564.546539 428.520515 
L 570.630486 428.844971 
L 576.720239 429.169814 
L 582.804185 429.953361 
L 588.893938 430.804104 
L 594.98369 431.655106 
L 601.067637 432.505556 
L 607.157389 433.357082 
L 613.241336 434.208061 
L 619.331088 435.06012 
L 625.415035 435.911636 
L 631.504787 436.764239 
L 637.594539 437.617117 
L 643.678486 438.46946 
L 649.768238 439.322897 
L 655.852185 440.175803 
L 661.941937 441.029809 
L 668.025884 441.88329 
L 674.115637 442.737875 
L 680.205389 442.529906 
L 686.289336 441.679594 
L 692.379088 440.858605 
L 698.463035 440.068261 
L 704.552787 439.306775 
L 710.636734 438.575289 
L 716.726486 437.872066 
L 722.816238 437.197448 
L 728.900185 436.551641 
L 734.989937 435.932993 
L 741.073884 435.342242 
L 747.163636 434.777797 
" clip-path="url(#pf05a9bf3ab)" style="fill: none; stroke-dasharray: 9.6,2.4,1.5,2.4; stroke-dashoffset: 0; stroke: #bcbd22; stroke-width: 1.5"/>
   </g>
   <g id="line2d_38">
    <path d="M 515.846124 577 
L 515.846124 -1 
" clip-path="url(#pf05a9bf3ab)" style="fill: none; stroke: #1f77b4; stroke-width: 1.5; stroke-linecap: square"/>
   </g>
   <g id="patch_3">
    <path d="M 108 512.64 
L 108 69.12 
" style="fill: none; stroke: #000000; stroke-width: 0.8; stroke-linejoin: miter; stroke-linecap: square"/>
   </g>
   <g id="patch_4">
    <path d="M 777.6 512.64 
L 777.6 69.12 
" style="fill: none; stroke: #000000; stroke-width: 0.8; stroke-linejoin: miter; stroke-linecap: square"/>
   </g>
   <g id="patch_5">
    <path d="M 108 512.64 
L 777.6 512.64 
" style="fill: none; stroke: #000000; stroke-width: 0.8; stroke-linejoin: miter; stroke-linecap: square"/>
   </g>
   <g id="patch_6">
    <path d="M 108 69.12 
L 777.6 69.12 
" style="fill: none; stroke: #000000; stroke-width: 0.8; stroke-linejoin: miter; stroke-linecap: square"/>
   </g>
   <g id="legend_1">
    <g id="patch_7">
     <path d="M 115 359.683125 
L 258.689062 359.683125 
Q 260.689062 359.683125 260.689062 357.683125 
L 260.689062 224.076875 
Q 260.689062 222.076875 258.689062 222.076875 
L 115 222.076875 
Q 113 222.076875 113 224.076875 
L 113 357.683125 
Q 113 359.683125 115 359.683125 
z
" style="fill: #ffffff; opacity: 0.8; stroke: #cccccc; stroke-linejoin: miter"/>
    </g>
    <g id="line2d_39">
     <path d="M 117 230.175313 
L 127 230.175313 
L 137 230.175313 
" style="fill: none; stroke: #1f77b4; stroke-width: 1.5; stroke-linecap: square"/>
    </g>
    <g id="text_17">
     <!-- Extend140_AoA0_Ux -->
     <g transform="translate(145 233.675313) scale(0.1 -0.1)">
      <defs>
       <path id="DejaVuSans-45" d="M 628 4666 
L 3578 4666 
L 3578 4134 
L 1259 4134 
L 1259 2753 
L 3481 2753 
L 3481 2222 
L 1259 2222 
L 1259 531 
L 3634 531 
L 3634 0 
L 628 0 
L 628 4666 
z
" transform="scale(0.015625)"/>
       <path id="DejaVuSans-78" d="M 3513 3500 
L 2247 1797 
L 3578 0 
L 2900 0 
L 1881 1375 
L 863 0 
L 184 0 
L 1544 1831 
L 300 3500 
L 978 3500 
L 1906 2253 
L 2834 3500 
L 3513 3500 
z
" transform="scale(0.015625)"/>
       <path id="DejaVuSans-5f" d="M 3263 -1063 
L 3263 -1509 
L -63 -1509 
L -63 -1063 
L 3263 -1063 
z
" transform="scale(0.015625)"/>
       <path id="DejaVuSans-41" d="M 2188 4044 
L 1331 1722 
L 3047 1722 
L 2188 4044 
z
M 1831 4666 
L 2547 4666 
L 4325 0 
L 3669 0 
L 3244 1197 
L 1141 1197 
L 716 0 
L 50 0 
L 1831 4666 
z
" transform="scale(0.015625)"/>
       <path id="DejaVuSans-55" d="M 556 4666 
L 1191 4666 
L 1191 1831 
Q 1191 1081 1462 751 
Q 1734 422 2344 422 
Q 2950 422 3222 751 
Q 3494 1081 3494 1831 
L 3494 4666 
L 4128 4666 
L 4128 1753 
Q 4128 841 3676 375 
Q 3225 -91 2344 -91 
Q 1459 -91 1007 375 
Q 556 841 556 1753 
L 556 4666 
z
" transform="scale(0.015625)"/>
      </defs>
      <use xlink:href="#DejaVuSans-45"/>
      <use xlink:href="#DejaVuSans-78" x="63.183594"/>
      <use xlink:href="#DejaVuSans-74" x="122.363281"/>
      <use xlink:href="#DejaVuSans-65" x="161.572266"/>
      <use xlink:href="#DejaVuSans-6e" x="223.095703"/>
      <use xlink:href="#DejaVuSans-64" x="286.474609"/>
      <use xlink:href="#DejaVuSans-31" x="349.951172"/>
      <use xlink:href="#DejaVuSans-34" x="413.574219"/>
      <use xlink:href="#DejaVuSans-30" x="477.197266"/>
      <use xlink:href="#DejaVuSans-5f" x="540.820312"/>
      <use xlink:href="#DejaVuSans-41" x="590.820312"/>
      <use xlink:href="#DejaVuSans-6f" x="657.478516"/>
      <use xlink:href="#DejaVuSans-41" x="718.660156"/>
      <use xlink:href="#DejaVuSans-30" x="787.068359"/>
      <use xlink:href="#DejaVuSans-5f" x="850.691406"/>
      <use xlink:href="#DejaVuSans-55" x="900.691406"/>
      <use xlink:href="#DejaVuSans-78" x="973.884766"/>
     </g>
    </g>
    <g id="line2d_40">
     <path d="M 117 245.131563 
L 127 245.131563 
L 137 245.131563 
" style="fill: none; stroke-dasharray: 5.55,2.4; stroke-dashoffset: 0; stroke: #ff7f0e; stroke-width: 1.5"/>
    </g>
    <g id="text_18">
     <!-- Extend140_AoA0_Uy -->
     <g transform="translate(145 248.631563) scale(0.1 -0.1)">
      <use xlink:href="#DejaVuSans-45"/>
      <use xlink:href="#DejaVuSans-78" x="63.183594"/>
      <use xlink:href="#DejaVuSans-74" x="122.363281"/>
      <use xlink:href="#DejaVuSans-65" x="161.572266"/>
      <use xlink:href="#DejaVuSans-6e" x="223.095703"/>
      <use xlink:href="#DejaVuSans-64" x="286.474609"/>
      <use xlink:href="#DejaVuSans-31" x="349.951172"/>
      <use xlink:href="#DejaVuSans-34" x="413.574219"/>
      <use xlink:href="#DejaVuSans-30" x="477.197266"/>
      <use xlink:href="#DejaVuSans-5f" x="540.820312"/>
      <use xlink:href="#DejaVuSans-41" x="590.820312"/>
      <use xlink:href="#DejaVuSans-6f" x="657.478516"/>
      <use xlink:href="#DejaVuSans-41" x="718.660156"/>
      <use xlink:href="#DejaVuSans-30" x="787.068359"/>
      <use xlink:href="#DejaVuSans-5f" x="850.691406"/>
      <use xlink:href="#DejaVuSans-55" x="900.691406"/>
      <use xlink:href="#DejaVuSans-79" x="973.884766"/>
     </g>
    </g>
    <g id="line2d_41">
     <path d="M 117 260.087813 
L 127 260.087813 
L 137 260.087813 
" style="fill: none; stroke-dasharray: 9.6,2.4,1.5,2.4; stroke-dashoffset: 0; stroke: #2ca02c; stroke-width: 1.5"/>
    </g>
    <g id="text_19">
     <!-- Extend140_AoA0_Uz -->
     <g transform="translate(145 263.587813) scale(0.1 -0.1)">
      <defs>
       <path id="DejaVuSans-7a" d="M 353 3500 
L 3084 3500 
L 3084 2975 
L 922 459 
L 3084 459 
L 3084 0 
L 275 0 
L 275 525 
L 2438 3041 
L 353 3041 
L 353 3500 
z
" transform="scale(0.015625)"/>
      </defs>
      <use xlink:href="#DejaVuSans-45"/>
      <use xlink:href="#DejaVuSans-78" x="63.183594"/>
      <use xlink:href="#DejaVuSans-74" x="122.363281"/>
      <use xlink:href="#DejaVuSans-65" x="161.572266"/>
      <use xlink:href="#DejaVuSans-6e" x="223.095703"/>
      <use xlink:href="#DejaVuSans-64" x="286.474609"/>
      <use xlink:href="#DejaVuSans-31" x="349.951172"/>
      <use xlink:href="#DejaVuSans-34" x="413.574219"/>
      <use xlink:href="#DejaVuSans-30" x="477.197266"/>
      <use xlink:href="#DejaVuSans-5f" x="540.820312"/>
      <use xlink:href="#DejaVuSans-41" x="590.820312"/>
      <use xlink:href="#DejaVuSans-6f" x="657.478516"/>
      <use xlink:href="#DejaVuSans-41" x="718.660156"/>
      <use xlink:href="#DejaVuSans-30" x="787.068359"/>
      <use xlink:href="#DejaVuSans-5f" x="850.691406"/>
      <use xlink:href="#DejaVuSans-55" x="900.691406"/>
      <use xlink:href="#DejaVuSans-7a" x="973.884766"/>
     </g>
    </g>
    <g id="line2d_42">
     <path d="M 117 275.044062 
L 127 275.044062 
L 137 275.044062 
" style="fill: none; stroke: #d62728; stroke-width: 1.5; stroke-linecap: square"/>
    </g>
    <g id="text_20">
     <!-- Extend140_AoA+4_Ux -->
     <g transform="translate(145 278.544062) scale(0.1 -0.1)">
      <defs>
       <path id="DejaVuSans-2b" d="M 2944 4013 
L 2944 2272 
L 4684 2272 
L 4684 1741 
L 2944 1741 
L 2944 0 
L 2419 0 
L 2419 1741 
L 678 1741 
L 678 2272 
L 2419 2272 
L 2419 4013 
L 2944 4013 
z
" transform="scale(0.015625)"/>
      </defs>
      <use xlink:href="#DejaVuSans-45"/>
      <use xlink:href="#DejaVuSans-78" x="63.183594"/>
      <use xlink:href="#DejaVuSans-74" x="122.363281"/>
      <use xlink:href="#DejaVuSans-65" x="161.572266"/>
      <use xlink:href="#DejaVuSans-6e" x="223.095703"/>
      <use xlink:href="#DejaVuSans-64" x="286.474609"/>
      <use xlink:href="#DejaVuSans-31" x="349.951172"/>
      <use xlink:href="#DejaVuSans-34" x="413.574219"/>
      <use xlink:href="#DejaVuSans-30" x="477.197266"/>
      <use xlink:href="#DejaVuSans-5f" x="540.820312"/>
      <use xlink:href="#DejaVuSans-41" x="590.820312"/>
      <use xlink:href="#DejaVuSans-6f" x="657.478516"/>
      <use xlink:href="#DejaVuSans-41" x="718.660156"/>
      <use xlink:href="#DejaVuSans-2b" x="787.068359"/>
      <use xlink:href="#DejaVuSans-34" x="870.857422"/>
      <use xlink:href="#DejaVuSans-5f" x="934.480469"/>
      <use xlink:href="#DejaVuSans-55" x="984.480469"/>
      <use xlink:href="#DejaVuSans-78" x="1057.673828"/>
     </g>
    </g>
    <g id="line2d_43">
     <path d="M 117 290.000313 
L 127 290.000313 
L 137 290.000313 
" style="fill: none; stroke-dasharray: 5.55,2.4; stroke-dashoffset: 0; stroke: #9467bd; stroke-width: 1.5"/>
    </g>
    <g id="text_21">
     <!-- Extend140_AoA+4_Uy -->
     <g transform="translate(145 293.500313) scale(0.1 -0.1)">
      <use xlink:href="#DejaVuSans-45"/>
      <use xlink:href="#DejaVuSans-78" x="63.183594"/>
      <use xlink:href="#DejaVuSans-74" x="122.363281"/>
      <use xlink:href="#DejaVuSans-65" x="161.572266"/>
      <use xlink:href="#DejaVuSans-6e" x="223.095703"/>
      <use xlink:href="#DejaVuSans-64" x="286.474609"/>
      <use xlink:href="#DejaVuSans-31" x="349.951172"/>
      <use xlink:href="#DejaVuSans-34" x="413.574219"/>
      <use xlink:href="#DejaVuSans-30" x="477.197266"/>
      <use xlink:href="#DejaVuSans-5f" x="540.820312"/>
      <use xlink:href="#DejaVuSans-41" x="590.820312"/>
      <use xlink:href="#DejaVuSans-6f" x="657.478516"/>
      <use xlink:href="#DejaVuSans-41" x="718.660156"/>
      <use xlink:href="#DejaVuSans-2b" x="787.068359"/>
      <use xlink:href="#DejaVuSans-34" x="870.857422"/>
      <use xlink:href="#DejaVuSans-5f" x="934.480469"/>
      <use xlink:href="#DejaVuSans-55" x="984.480469"/>
      <use xlink:href="#DejaVuSans-79" x="1057.673828"/>
     </g>
    </g>
    <g id="line2d_44">
     <path d="M 117 304.956563 
L 127 304.956563 
L 137 304.956563 
" style="fill: none; stroke-dasharray: 9.6,2.4,1.5,2.4; stroke-dashoffset: 0; stroke: #8c564b; stroke-width: 1.5"/>
    </g>
    <g id="text_22">
     <!-- Extend140_AoA+4_Uz -->
     <g transform="translate(145 308.456563) scale(0.1 -0.1)">
      <use xlink:href="#DejaVuSans-45"/>
      <use xlink:href="#DejaVuSans-78" x="63.183594"/>
      <use xlink:href="#DejaVuSans-74" x="122.363281"/>
      <use xlink:href="#DejaVuSans-65" x="161.572266"/>
      <use xlink:href="#DejaVuSans-6e" x="223.095703"/>
      <use xlink:href="#DejaVuSans-64" x="286.474609"/>
      <use xlink:href="#DejaVuSans-31" x="349.951172"/>
      <use xlink:href="#DejaVuSans-34" x="413.574219"/>
      <use xlink:href="#DejaVuSans-30" x="477.197266"/>
      <use xlink:href="#DejaVuSans-5f" x="540.820312"/>
      <use xlink:href="#DejaVuSans-41" x="590.820312"/>
      <use xlink:href="#DejaVuSans-6f" x="657.478516"/>
      <use xlink:href="#DejaVuSans-41" x="718.660156"/>
      <use xlink:href="#DejaVuSans-2b" x="787.068359"/>
      <use xlink:href="#DejaVuSans-34" x="870.857422"/>
      <use xlink:href="#DejaVuSans-5f" x="934.480469"/>
      <use xlink:href="#DejaVuSans-55" x="984.480469"/>
      <use xlink:href="#DejaVuSans-7a" x="1057.673828"/>
     </g>
    </g>
    <g id="line2d_45">
     <path d="M 117 319.912813 
L 127 319.912813 
L 137 319.912813 
" style="fill: none; stroke: #e377c2; stroke-width: 1.5; stroke-linecap: square"/>
    </g>
    <g id="text_23">
     <!-- Extend140_AoA-4_Ux -->
     <g transform="translate(145 323.412813) scale(0.1 -0.1)">
      <defs>
       <path id="DejaVuSans-2d" d="M 313 2009 
L 1997 2009 
L 1997 1497 
L 313 1497 
L 313 2009 
z
" transform="scale(0.015625)"/>
      </defs>
      <use xlink:href="#DejaVuSans-45"/>
      <use xlink:href="#DejaVuSans-78" x="63.183594"/>
      <use xlink:href="#DejaVuSans-74" x="122.363281"/>
      <use xlink:href="#DejaVuSans-65" x="161.572266"/>
      <use xlink:href="#DejaVuSans-6e" x="223.095703"/>
      <use xlink:href="#DejaVuSans-64" x="286.474609"/>
      <use xlink:href="#DejaVuSans-31" x="349.951172"/>
      <use xlink:href="#DejaVuSans-34" x="413.574219"/>
      <use xlink:href="#DejaVuSans-30" x="477.197266"/>
      <use xlink:href="#DejaVuSans-5f" x="540.820312"/>
      <use xlink:href="#DejaVuSans-41" x="590.820312"/>
      <use xlink:href="#DejaVuSans-6f" x="657.478516"/>
      <use xlink:href="#DejaVuSans-41" x="718.660156"/>
      <use xlink:href="#DejaVuSans-2d" x="784.818359"/>
      <use xlink:href="#DejaVuSans-34" x="820.902344"/>
      <use xlink:href="#DejaVuSans-5f" x="884.525391"/>
      <use xlink:href="#DejaVuSans-55" x="934.525391"/>
      <use xlink:href="#DejaVuSans-78" x="1007.71875"/>
     </g>
    </g>
    <g id="line2d_46">
     <path d="M 117 334.869063 
L 127 334.869063 
L 137 334.869063 
" style="fill: none; stroke-dasharray: 5.55,2.4; stroke-dashoffset: 0; stroke: #7f7f7f; stroke-width: 1.5"/>
    </g>
    <g id="text_24">
     <!-- Extend140_AoA-4_Uy -->
     <g transform="translate(145 338.369063) scale(0.1 -0.1)">
      <use xlink:href="#DejaVuSans-45"/>
      <use xlink:href="#DejaVuSans-78" x="63.183594"/>
      <use xlink:href="#DejaVuSans-74" x="122.363281"/>
      <use xlink:href="#DejaVuSans-65" x="161.572266"/>
      <use xlink:href="#DejaVuSans-6e" x="223.095703"/>
      <use xlink:href="#DejaVuSans-64" x="286.474609"/>
      <use xlink:href="#DejaVuSans-31" x="349.951172"/>
      <use xlink:href="#DejaVuSans-34" x="413.574219"/>
      <use xlink:href="#DejaVuSans-30" x="477.197266"/>
      <use xlink:href="#DejaVuSans-5f" x="540.820312"/>
      <use xlink:href="#DejaVuSans-41" x="590.820312"/>
      <use xlink:href="#DejaVuSans-6f" x="657.478516"/>
      <use xlink:href="#DejaVuSans-41" x="718.660156"/>
      <use xlink:href="#DejaVuSans-2d" x="784.818359"/>
      <use xlink:href="#DejaVuSans-34" x="820.902344"/>
      <use xlink:href="#DejaVuSans-5f" x="884.525391"/>
      <use xlink:href="#DejaVuSans-55" x="934.525391"/>
      <use xlink:href="#DejaVuSans-79" x="1007.71875"/>
     </g>
    </g>
    <g id="line2d_47">
     <path d="M 117 349.825312 
L 127 349.825312 
L 137 349.825312 
" style="fill: none; stroke-dasharray: 9.6,2.4,1.5,2.4; stroke-dashoffset: 0; stroke: #bcbd22; stroke-width: 1.5"/>
    </g>
    <g id="text_25">
     <!-- Extend140_AoA-4_Uz -->
     <g transform="translate(145 353.325312) scale(0.1 -0.1)">
      <use xlink:href="#DejaVuSans-45"/>
      <use xlink:href="#DejaVuSans-78" x="63.183594"/>
      <use xlink:href="#DejaVuSans-74" x="122.363281"/>
      <use xlink:href="#DejaVuSans-65" x="161.572266"/>
      <use xlink:href="#DejaVuSans-6e" x="223.095703"/>
      <use xlink:href="#DejaVuSans-64" x="286.474609"/>
      <use xlink:href="#DejaVuSans-31" x="349.951172"/>
      <use xlink:href="#DejaVuSans-34" x="413.574219"/>
      <use xlink:href="#DejaVuSans-30" x="477.197266"/>
      <use xlink:href="#DejaVuSans-5f" x="540.820312"/>
      <use xlink:href="#DejaVuSans-41" x="590.820312"/>
      <use xlink:href="#DejaVuSans-6f" x="657.478516"/>
      <use xlink:href="#DejaVuSans-41" x="718.660156"/>
      <use xlink:href="#DejaVuSans-2d" x="784.818359"/>
      <use xlink:href="#DejaVuSans-34" x="820.902344"/>
      <use xlink:href="#DejaVuSans-5f" x="884.525391"/>
      <use xlink:href="#DejaVuSans-55" x="934.525391"/>
      <use xlink:href="#DejaVuSans-7a" x="1007.71875"/>
     </g>
    </g>
   </g>
  </g>
 </g>
 <defs>
  <clipPath id="pf05a9bf3ab">
   <rect x="108" y="69.12" width="669.6" height="443.52"/>
  </clipPath>
 </defs>
</svg>
