<?xml version="1.0" encoding="utf-8" standalone="no"?>
<!DOCTYPE svg PUBLIC "-//W3C//DTD SVG 1.1//EN"
  "http://www.w3.org/Graphics/SVG/1.1/DTD/svg11.dtd">
<svg xmlns:xlink="http://www.w3.org/1999/xlink" width="864pt" height="576pt" viewBox="0 0 864 576" xmlns="http://www.w3.org/2000/svg" version="1.1">
 <metadata>
  <rdf:RDF xmlns:dc="http://purl.org/dc/elements/1.1/" xmlns:cc="http://creativecommons.org/ns#" xmlns:rdf="http://www.w3.org/1999/02/22-rdf-syntax-ns#">
   <cc:Work>
    <dc:type rdf:resource="http://purl.org/dc/dcmitype/StillImage"/>
    <dc:date>2023-06-04T17:57:55.570273</dc:date>
    <dc:format>image/svg+xml</dc:format>
    <dc:creator>
     <cc:Agent>
      <dc:title>Matplotlib v3.6.3, https://matplotlib.org/</dc:title>
     </cc:Agent>
    </dc:creator>
   </cc:Work>
  </rdf:RDF>
 </metadata>
 <defs>
  <style type="text/css">*{stroke-linejoin: round; stroke-linecap: butt}</style>
 </defs>
 <g id="figure_1">
  <g id="patch_1">
   <path d="M 0 576 
L 864 576 
L 864 0 
L 0 0 
z
" style="fill: #ffffff"/>
  </g>
  <g id="axes_1">
   <g id="patch_2">
    <path d="M 108 512.64 
L 777.6 512.64 
L 777.6 69.12 
L 108 69.12 
z
" style="fill: #ffffff"/>
   </g>
   <g id="matplotlib.axis_1">
    <g id="xtick_1">
     <g id="line2d_1">
      <path d="M 218.290689 512.64 
L 218.290689 69.12 
" clip-path="url(#p8f55171996)" style="fill: none; stroke: #b0b0b0; stroke-width: 0.8; stroke-linecap: square"/>
     </g>
     <g id="line2d_2">
      <defs>
       <path id="m8bba8fcae7" d="M 0 0 
L 0 3.5 
" style="stroke: #000000; stroke-width: 0.8"/>
      </defs>
      <g>
       <use xlink:href="#m8bba8fcae7" x="218.290689" y="512.64" style="stroke: #000000; stroke-width: 0.8"/>
      </g>
     </g>
     <g id="text_1">
      <!-- −0.8 -->
      <g transform="translate(206.149282 527.238438) scale(0.1 -0.1)">
       <defs>
        <path id="DejaVuSans-2212" d="M 678 2272 
L 4684 2272 
L 4684 1741 
L 678 1741 
L 678 2272 
z
" transform="scale(0.015625)"/>
        <path id="DejaVuSans-30" d="M 2034 4250 
Q 1547 4250 1301 3770 
Q 1056 3291 1056 2328 
Q 1056 1369 1301 889 
Q 1547 409 2034 409 
Q 2525 409 2770 889 
Q 3016 1369 3016 2328 
Q 3016 3291 2770 3770 
Q 2525 4250 2034 4250 
z
M 2034 4750 
Q 2819 4750 3233 4129 
Q 3647 3509 3647 2328 
Q 3647 1150 3233 529 
Q 2819 -91 2034 -91 
Q 1250 -91 836 529 
Q 422 1150 422 2328 
Q 422 3509 836 4129 
Q 1250 4750 2034 4750 
z
" transform="scale(0.015625)"/>
        <path id="DejaVuSans-2e" d="M 684 794 
L 1344 794 
L 1344 0 
L 684 0 
L 684 794 
z
" transform="scale(0.015625)"/>
        <path id="DejaVuSans-38" d="M 2034 2216 
Q 1584 2216 1326 1975 
Q 1069 1734 1069 1313 
Q 1069 891 1326 650 
Q 1584 409 2034 409 
Q 2484 409 2743 651 
Q 3003 894 3003 1313 
Q 3003 1734 2745 1975 
Q 2488 2216 2034 2216 
z
M 1403 2484 
Q 997 2584 770 2862 
Q 544 3141 544 3541 
Q 544 4100 942 4425 
Q 1341 4750 2034 4750 
Q 2731 4750 3128 4425 
Q 3525 4100 3525 3541 
Q 3525 3141 3298 2862 
Q 3072 2584 2669 2484 
Q 3125 2378 3379 2068 
Q 3634 1759 3634 1313 
Q 3634 634 3220 271 
Q 2806 -91 2034 -91 
Q 1263 -91 848 271 
Q 434 634 434 1313 
Q 434 1759 690 2068 
Q 947 2378 1403 2484 
z
M 1172 3481 
Q 1172 3119 1398 2916 
Q 1625 2713 2034 2713 
Q 2441 2713 2670 2916 
Q 2900 3119 2900 3481 
Q 2900 3844 2670 4047 
Q 2441 4250 2034 4250 
Q 1625 4250 1398 4047 
Q 1172 3844 1172 3481 
z
" transform="scale(0.015625)"/>
       </defs>
       <use xlink:href="#DejaVuSans-2212"/>
       <use xlink:href="#DejaVuSans-30" x="83.789062"/>
       <use xlink:href="#DejaVuSans-2e" x="147.412109"/>
       <use xlink:href="#DejaVuSans-38" x="179.199219"/>
      </g>
     </g>
    </g>
    <g id="xtick_2">
     <g id="line2d_3">
      <path d="M 349.199871 512.64 
L 349.199871 69.12 
" clip-path="url(#p8f55171996)" style="fill: none; stroke: #b0b0b0; stroke-width: 0.8; stroke-linecap: square"/>
     </g>
     <g id="line2d_4">
      <g>
       <use xlink:href="#m8bba8fcae7" x="349.199871" y="512.64" style="stroke: #000000; stroke-width: 0.8"/>
      </g>
     </g>
     <g id="text_2">
      <!-- −0.6 -->
      <g transform="translate(337.058465 527.238438) scale(0.1 -0.1)">
       <defs>
        <path id="DejaVuSans-36" d="M 2113 2584 
Q 1688 2584 1439 2293 
Q 1191 2003 1191 1497 
Q 1191 994 1439 701 
Q 1688 409 2113 409 
Q 2538 409 2786 701 
Q 3034 994 3034 1497 
Q 3034 2003 2786 2293 
Q 2538 2584 2113 2584 
z
M 3366 4563 
L 3366 3988 
Q 3128 4100 2886 4159 
Q 2644 4219 2406 4219 
Q 1781 4219 1451 3797 
Q 1122 3375 1075 2522 
Q 1259 2794 1537 2939 
Q 1816 3084 2150 3084 
Q 2853 3084 3261 2657 
Q 3669 2231 3669 1497 
Q 3669 778 3244 343 
Q 2819 -91 2113 -91 
Q 1303 -91 875 529 
Q 447 1150 447 2328 
Q 447 3434 972 4092 
Q 1497 4750 2381 4750 
Q 2619 4750 2861 4703 
Q 3103 4656 3366 4563 
z
" transform="scale(0.015625)"/>
       </defs>
       <use xlink:href="#DejaVuSans-2212"/>
       <use xlink:href="#DejaVuSans-30" x="83.789062"/>
       <use xlink:href="#DejaVuSans-2e" x="147.412109"/>
       <use xlink:href="#DejaVuSans-36" x="179.199219"/>
      </g>
     </g>
    </g>
    <g id="xtick_3">
     <g id="line2d_5">
      <path d="M 480.109054 512.64 
L 480.109054 69.12 
" clip-path="url(#p8f55171996)" style="fill: none; stroke: #b0b0b0; stroke-width: 0.8; stroke-linecap: square"/>
     </g>
     <g id="line2d_6">
      <g>
       <use xlink:href="#m8bba8fcae7" x="480.109054" y="512.64" style="stroke: #000000; stroke-width: 0.8"/>
      </g>
     </g>
     <g id="text_3">
      <!-- −0.4 -->
      <g transform="translate(467.967647 527.238438) scale(0.1 -0.1)">
       <defs>
        <path id="DejaVuSans-34" d="M 2419 4116 
L 825 1625 
L 2419 1625 
L 2419 4116 
z
M 2253 4666 
L 3047 4666 
L 3047 1625 
L 3713 1625 
L 3713 1100 
L 3047 1100 
L 3047 0 
L 2419 0 
L 2419 1100 
L 313 1100 
L 313 1709 
L 2253 4666 
z
" transform="scale(0.015625)"/>
       </defs>
       <use xlink:href="#DejaVuSans-2212"/>
       <use xlink:href="#DejaVuSans-30" x="83.789062"/>
       <use xlink:href="#DejaVuSans-2e" x="147.412109"/>
       <use xlink:href="#DejaVuSans-34" x="179.199219"/>
      </g>
     </g>
    </g>
    <g id="xtick_4">
     <g id="line2d_7">
      <path d="M 611.018236 512.64 
L 611.018236 69.12 
" clip-path="url(#p8f55171996)" style="fill: none; stroke: #b0b0b0; stroke-width: 0.8; stroke-linecap: square"/>
     </g>
     <g id="line2d_8">
      <g>
       <use xlink:href="#m8bba8fcae7" x="611.018236" y="512.64" style="stroke: #000000; stroke-width: 0.8"/>
      </g>
     </g>
     <g id="text_4">
      <!-- −0.2 -->
      <g transform="translate(598.87683 527.238438) scale(0.1 -0.1)">
       <defs>
        <path id="DejaVuSans-32" d="M 1228 531 
L 3431 531 
L 3431 0 
L 469 0 
L 469 531 
Q 828 903 1448 1529 
Q 2069 2156 2228 2338 
Q 2531 2678 2651 2914 
Q 2772 3150 2772 3378 
Q 2772 3750 2511 3984 
Q 2250 4219 1831 4219 
Q 1534 4219 1204 4116 
Q 875 4013 500 3803 
L 500 4441 
Q 881 4594 1212 4672 
Q 1544 4750 1819 4750 
Q 2544 4750 2975 4387 
Q 3406 4025 3406 3419 
Q 3406 3131 3298 2873 
Q 3191 2616 2906 2266 
Q 2828 2175 2409 1742 
Q 1991 1309 1228 531 
z
" transform="scale(0.015625)"/>
       </defs>
       <use xlink:href="#DejaVuSans-2212"/>
       <use xlink:href="#DejaVuSans-30" x="83.789062"/>
       <use xlink:href="#DejaVuSans-2e" x="147.412109"/>
       <use xlink:href="#DejaVuSans-32" x="179.199219"/>
      </g>
     </g>
    </g>
    <g id="xtick_5">
     <g id="line2d_9">
      <path d="M 741.927419 512.64 
L 741.927419 69.12 
" clip-path="url(#p8f55171996)" style="fill: none; stroke: #b0b0b0; stroke-width: 0.8; stroke-linecap: square"/>
     </g>
     <g id="line2d_10">
      <g>
       <use xlink:href="#m8bba8fcae7" x="741.927419" y="512.64" style="stroke: #000000; stroke-width: 0.8"/>
      </g>
     </g>
     <g id="text_5">
      <!-- 0.0 -->
      <g transform="translate(733.975856 527.238438) scale(0.1 -0.1)">
       <use xlink:href="#DejaVuSans-30"/>
       <use xlink:href="#DejaVuSans-2e" x="63.623047"/>
       <use xlink:href="#DejaVuSans-30" x="95.410156"/>
      </g>
     </g>
    </g>
    <g id="text_6">
     <!-- Distance from Cloud Droplet Probe Sample Volume [m] -->
     <g transform="translate(305.148438 540.916563) scale(0.1 -0.1)">
      <defs>
       <path id="DejaVuSans-44" d="M 1259 4147 
L 1259 519 
L 2022 519 
Q 2988 519 3436 956 
Q 3884 1394 3884 2338 
Q 3884 3275 3436 3711 
Q 2988 4147 2022 4147 
L 1259 4147 
z
M 628 4666 
L 1925 4666 
Q 3281 4666 3915 4102 
Q 4550 3538 4550 2338 
Q 4550 1131 3912 565 
Q 3275 0 1925 0 
L 628 0 
L 628 4666 
z
" transform="scale(0.015625)"/>
       <path id="DejaVuSans-69" d="M 603 3500 
L 1178 3500 
L 1178 0 
L 603 0 
L 603 3500 
z
M 603 4863 
L 1178 4863 
L 1178 4134 
L 603 4134 
L 603 4863 
z
" transform="scale(0.015625)"/>
       <path id="DejaVuSans-73" d="M 2834 3397 
L 2834 2853 
Q 2591 2978 2328 3040 
Q 2066 3103 1784 3103 
Q 1356 3103 1142 2972 
Q 928 2841 928 2578 
Q 928 2378 1081 2264 
Q 1234 2150 1697 2047 
L 1894 2003 
Q 2506 1872 2764 1633 
Q 3022 1394 3022 966 
Q 3022 478 2636 193 
Q 2250 -91 1575 -91 
Q 1294 -91 989 -36 
Q 684 19 347 128 
L 347 722 
Q 666 556 975 473 
Q 1284 391 1588 391 
Q 1994 391 2212 530 
Q 2431 669 2431 922 
Q 2431 1156 2273 1281 
Q 2116 1406 1581 1522 
L 1381 1569 
Q 847 1681 609 1914 
Q 372 2147 372 2553 
Q 372 3047 722 3315 
Q 1072 3584 1716 3584 
Q 2034 3584 2315 3537 
Q 2597 3491 2834 3397 
z
" transform="scale(0.015625)"/>
       <path id="DejaVuSans-74" d="M 1172 4494 
L 1172 3500 
L 2356 3500 
L 2356 3053 
L 1172 3053 
L 1172 1153 
Q 1172 725 1289 603 
Q 1406 481 1766 481 
L 2356 481 
L 2356 0 
L 1766 0 
Q 1100 0 847 248 
Q 594 497 594 1153 
L 594 3053 
L 172 3053 
L 172 3500 
L 594 3500 
L 594 4494 
L 1172 4494 
z
" transform="scale(0.015625)"/>
       <path id="DejaVuSans-61" d="M 2194 1759 
Q 1497 1759 1228 1600 
Q 959 1441 959 1056 
Q 959 750 1161 570 
Q 1363 391 1709 391 
Q 2188 391 2477 730 
Q 2766 1069 2766 1631 
L 2766 1759 
L 2194 1759 
z
M 3341 1997 
L 3341 0 
L 2766 0 
L 2766 531 
Q 2569 213 2275 61 
Q 1981 -91 1556 -91 
Q 1019 -91 701 211 
Q 384 513 384 1019 
Q 384 1609 779 1909 
Q 1175 2209 1959 2209 
L 2766 2209 
L 2766 2266 
Q 2766 2663 2505 2880 
Q 2244 3097 1772 3097 
Q 1472 3097 1187 3025 
Q 903 2953 641 2809 
L 641 3341 
Q 956 3463 1253 3523 
Q 1550 3584 1831 3584 
Q 2591 3584 2966 3190 
Q 3341 2797 3341 1997 
z
" transform="scale(0.015625)"/>
       <path id="DejaVuSans-6e" d="M 3513 2113 
L 3513 0 
L 2938 0 
L 2938 2094 
Q 2938 2591 2744 2837 
Q 2550 3084 2163 3084 
Q 1697 3084 1428 2787 
Q 1159 2491 1159 1978 
L 1159 0 
L 581 0 
L 581 3500 
L 1159 3500 
L 1159 2956 
Q 1366 3272 1645 3428 
Q 1925 3584 2291 3584 
Q 2894 3584 3203 3211 
Q 3513 2838 3513 2113 
z
" transform="scale(0.015625)"/>
       <path id="DejaVuSans-63" d="M 3122 3366 
L 3122 2828 
Q 2878 2963 2633 3030 
Q 2388 3097 2138 3097 
Q 1578 3097 1268 2742 
Q 959 2388 959 1747 
Q 959 1106 1268 751 
Q 1578 397 2138 397 
Q 2388 397 2633 464 
Q 2878 531 3122 666 
L 3122 134 
Q 2881 22 2623 -34 
Q 2366 -91 2075 -91 
Q 1284 -91 818 406 
Q 353 903 353 1747 
Q 353 2603 823 3093 
Q 1294 3584 2113 3584 
Q 2378 3584 2631 3529 
Q 2884 3475 3122 3366 
z
" transform="scale(0.015625)"/>
       <path id="DejaVuSans-65" d="M 3597 1894 
L 3597 1613 
L 953 1613 
Q 991 1019 1311 708 
Q 1631 397 2203 397 
Q 2534 397 2845 478 
Q 3156 559 3463 722 
L 3463 178 
Q 3153 47 2828 -22 
Q 2503 -91 2169 -91 
Q 1331 -91 842 396 
Q 353 884 353 1716 
Q 353 2575 817 3079 
Q 1281 3584 2069 3584 
Q 2775 3584 3186 3129 
Q 3597 2675 3597 1894 
z
M 3022 2063 
Q 3016 2534 2758 2815 
Q 2500 3097 2075 3097 
Q 1594 3097 1305 2825 
Q 1016 2553 972 2059 
L 3022 2063 
z
" transform="scale(0.015625)"/>
       <path id="DejaVuSans-20" transform="scale(0.015625)"/>
       <path id="DejaVuSans-66" d="M 2375 4863 
L 2375 4384 
L 1825 4384 
Q 1516 4384 1395 4259 
Q 1275 4134 1275 3809 
L 1275 3500 
L 2222 3500 
L 2222 3053 
L 1275 3053 
L 1275 0 
L 697 0 
L 697 3053 
L 147 3053 
L 147 3500 
L 697 3500 
L 697 3744 
Q 697 4328 969 4595 
Q 1241 4863 1831 4863 
L 2375 4863 
z
" transform="scale(0.015625)"/>
       <path id="DejaVuSans-72" d="M 2631 2963 
Q 2534 3019 2420 3045 
Q 2306 3072 2169 3072 
Q 1681 3072 1420 2755 
Q 1159 2438 1159 1844 
L 1159 0 
L 581 0 
L 581 3500 
L 1159 3500 
L 1159 2956 
Q 1341 3275 1631 3429 
Q 1922 3584 2338 3584 
Q 2397 3584 2469 3576 
Q 2541 3569 2628 3553 
L 2631 2963 
z
" transform="scale(0.015625)"/>
       <path id="DejaVuSans-6f" d="M 1959 3097 
Q 1497 3097 1228 2736 
Q 959 2375 959 1747 
Q 959 1119 1226 758 
Q 1494 397 1959 397 
Q 2419 397 2687 759 
Q 2956 1122 2956 1747 
Q 2956 2369 2687 2733 
Q 2419 3097 1959 3097 
z
M 1959 3584 
Q 2709 3584 3137 3096 
Q 3566 2609 3566 1747 
Q 3566 888 3137 398 
Q 2709 -91 1959 -91 
Q 1206 -91 779 398 
Q 353 888 353 1747 
Q 353 2609 779 3096 
Q 1206 3584 1959 3584 
z
" transform="scale(0.015625)"/>
       <path id="DejaVuSans-6d" d="M 3328 2828 
Q 3544 3216 3844 3400 
Q 4144 3584 4550 3584 
Q 5097 3584 5394 3201 
Q 5691 2819 5691 2113 
L 5691 0 
L 5113 0 
L 5113 2094 
Q 5113 2597 4934 2840 
Q 4756 3084 4391 3084 
Q 3944 3084 3684 2787 
Q 3425 2491 3425 1978 
L 3425 0 
L 2847 0 
L 2847 2094 
Q 2847 2600 2669 2842 
Q 2491 3084 2119 3084 
Q 1678 3084 1418 2786 
Q 1159 2488 1159 1978 
L 1159 0 
L 581 0 
L 581 3500 
L 1159 3500 
L 1159 2956 
Q 1356 3278 1631 3431 
Q 1906 3584 2284 3584 
Q 2666 3584 2933 3390 
Q 3200 3197 3328 2828 
z
" transform="scale(0.015625)"/>
       <path id="DejaVuSans-43" d="M 4122 4306 
L 4122 3641 
Q 3803 3938 3442 4084 
Q 3081 4231 2675 4231 
Q 1875 4231 1450 3742 
Q 1025 3253 1025 2328 
Q 1025 1406 1450 917 
Q 1875 428 2675 428 
Q 3081 428 3442 575 
Q 3803 722 4122 1019 
L 4122 359 
Q 3791 134 3420 21 
Q 3050 -91 2638 -91 
Q 1578 -91 968 557 
Q 359 1206 359 2328 
Q 359 3453 968 4101 
Q 1578 4750 2638 4750 
Q 3056 4750 3426 4639 
Q 3797 4528 4122 4306 
z
" transform="scale(0.015625)"/>
       <path id="DejaVuSans-6c" d="M 603 4863 
L 1178 4863 
L 1178 0 
L 603 0 
L 603 4863 
z
" transform="scale(0.015625)"/>
       <path id="DejaVuSans-75" d="M 544 1381 
L 544 3500 
L 1119 3500 
L 1119 1403 
Q 1119 906 1312 657 
Q 1506 409 1894 409 
Q 2359 409 2629 706 
Q 2900 1003 2900 1516 
L 2900 3500 
L 3475 3500 
L 3475 0 
L 2900 0 
L 2900 538 
Q 2691 219 2414 64 
Q 2138 -91 1772 -91 
Q 1169 -91 856 284 
Q 544 659 544 1381 
z
M 1991 3584 
L 1991 3584 
z
" transform="scale(0.015625)"/>
       <path id="DejaVuSans-64" d="M 2906 2969 
L 2906 4863 
L 3481 4863 
L 3481 0 
L 2906 0 
L 2906 525 
Q 2725 213 2448 61 
Q 2172 -91 1784 -91 
Q 1150 -91 751 415 
Q 353 922 353 1747 
Q 353 2572 751 3078 
Q 1150 3584 1784 3584 
Q 2172 3584 2448 3432 
Q 2725 3281 2906 2969 
z
M 947 1747 
Q 947 1113 1208 752 
Q 1469 391 1925 391 
Q 2381 391 2643 752 
Q 2906 1113 2906 1747 
Q 2906 2381 2643 2742 
Q 2381 3103 1925 3103 
Q 1469 3103 1208 2742 
Q 947 2381 947 1747 
z
" transform="scale(0.015625)"/>
       <path id="DejaVuSans-70" d="M 1159 525 
L 1159 -1331 
L 581 -1331 
L 581 3500 
L 1159 3500 
L 1159 2969 
Q 1341 3281 1617 3432 
Q 1894 3584 2278 3584 
Q 2916 3584 3314 3078 
Q 3713 2572 3713 1747 
Q 3713 922 3314 415 
Q 2916 -91 2278 -91 
Q 1894 -91 1617 61 
Q 1341 213 1159 525 
z
M 3116 1747 
Q 3116 2381 2855 2742 
Q 2594 3103 2138 3103 
Q 1681 3103 1420 2742 
Q 1159 2381 1159 1747 
Q 1159 1113 1420 752 
Q 1681 391 2138 391 
Q 2594 391 2855 752 
Q 3116 1113 3116 1747 
z
" transform="scale(0.015625)"/>
       <path id="DejaVuSans-50" d="M 1259 4147 
L 1259 2394 
L 2053 2394 
Q 2494 2394 2734 2622 
Q 2975 2850 2975 3272 
Q 2975 3691 2734 3919 
Q 2494 4147 2053 4147 
L 1259 4147 
z
M 628 4666 
L 2053 4666 
Q 2838 4666 3239 4311 
Q 3641 3956 3641 3272 
Q 3641 2581 3239 2228 
Q 2838 1875 2053 1875 
L 1259 1875 
L 1259 0 
L 628 0 
L 628 4666 
z
" transform="scale(0.015625)"/>
       <path id="DejaVuSans-62" d="M 3116 1747 
Q 3116 2381 2855 2742 
Q 2594 3103 2138 3103 
Q 1681 3103 1420 2742 
Q 1159 2381 1159 1747 
Q 1159 1113 1420 752 
Q 1681 391 2138 391 
Q 2594 391 2855 752 
Q 3116 1113 3116 1747 
z
M 1159 2969 
Q 1341 3281 1617 3432 
Q 1894 3584 2278 3584 
Q 2916 3584 3314 3078 
Q 3713 2572 3713 1747 
Q 3713 922 3314 415 
Q 2916 -91 2278 -91 
Q 1894 -91 1617 61 
Q 1341 213 1159 525 
L 1159 0 
L 581 0 
L 581 4863 
L 1159 4863 
L 1159 2969 
z
" transform="scale(0.015625)"/>
       <path id="DejaVuSans-53" d="M 3425 4513 
L 3425 3897 
Q 3066 4069 2747 4153 
Q 2428 4238 2131 4238 
Q 1616 4238 1336 4038 
Q 1056 3838 1056 3469 
Q 1056 3159 1242 3001 
Q 1428 2844 1947 2747 
L 2328 2669 
Q 3034 2534 3370 2195 
Q 3706 1856 3706 1288 
Q 3706 609 3251 259 
Q 2797 -91 1919 -91 
Q 1588 -91 1214 -16 
Q 841 59 441 206 
L 441 856 
Q 825 641 1194 531 
Q 1563 422 1919 422 
Q 2459 422 2753 634 
Q 3047 847 3047 1241 
Q 3047 1584 2836 1778 
Q 2625 1972 2144 2069 
L 1759 2144 
Q 1053 2284 737 2584 
Q 422 2884 422 3419 
Q 422 4038 858 4394 
Q 1294 4750 2059 4750 
Q 2388 4750 2728 4690 
Q 3069 4631 3425 4513 
z
" transform="scale(0.015625)"/>
       <path id="DejaVuSans-56" d="M 1831 0 
L 50 4666 
L 709 4666 
L 2188 738 
L 3669 4666 
L 4325 4666 
L 2547 0 
L 1831 0 
z
" transform="scale(0.015625)"/>
       <path id="DejaVuSans-5b" d="M 550 4863 
L 1875 4863 
L 1875 4416 
L 1125 4416 
L 1125 -397 
L 1875 -397 
L 1875 -844 
L 550 -844 
L 550 4863 
z
" transform="scale(0.015625)"/>
       <path id="DejaVuSans-5d" d="M 1947 4863 
L 1947 -844 
L 622 -844 
L 622 -397 
L 1369 -397 
L 1369 4416 
L 622 4416 
L 622 4863 
L 1947 4863 
z
" transform="scale(0.015625)"/>
      </defs>
      <use xlink:href="#DejaVuSans-44"/>
      <use xlink:href="#DejaVuSans-69" x="77.001953"/>
      <use xlink:href="#DejaVuSans-73" x="104.785156"/>
      <use xlink:href="#DejaVuSans-74" x="156.884766"/>
      <use xlink:href="#DejaVuSans-61" x="196.09375"/>
      <use xlink:href="#DejaVuSans-6e" x="257.373047"/>
      <use xlink:href="#DejaVuSans-63" x="320.751953"/>
      <use xlink:href="#DejaVuSans-65" x="375.732422"/>
      <use xlink:href="#DejaVuSans-20" x="437.255859"/>
      <use xlink:href="#DejaVuSans-66" x="469.042969"/>
      <use xlink:href="#DejaVuSans-72" x="504.248047"/>
      <use xlink:href="#DejaVuSans-6f" x="543.111328"/>
      <use xlink:href="#DejaVuSans-6d" x="604.292969"/>
      <use xlink:href="#DejaVuSans-20" x="701.705078"/>
      <use xlink:href="#DejaVuSans-43" x="733.492188"/>
      <use xlink:href="#DejaVuSans-6c" x="803.316406"/>
      <use xlink:href="#DejaVuSans-6f" x="831.099609"/>
      <use xlink:href="#DejaVuSans-75" x="892.28125"/>
      <use xlink:href="#DejaVuSans-64" x="955.660156"/>
      <use xlink:href="#DejaVuSans-20" x="1019.136719"/>
      <use xlink:href="#DejaVuSans-44" x="1050.923828"/>
      <use xlink:href="#DejaVuSans-72" x="1127.925781"/>
      <use xlink:href="#DejaVuSans-6f" x="1166.789062"/>
      <use xlink:href="#DejaVuSans-70" x="1227.970703"/>
      <use xlink:href="#DejaVuSans-6c" x="1291.447266"/>
      <use xlink:href="#DejaVuSans-65" x="1319.230469"/>
      <use xlink:href="#DejaVuSans-74" x="1380.753906"/>
      <use xlink:href="#DejaVuSans-20" x="1419.962891"/>
      <use xlink:href="#DejaVuSans-50" x="1451.75"/>
      <use xlink:href="#DejaVuSans-72" x="1510.302734"/>
      <use xlink:href="#DejaVuSans-6f" x="1549.166016"/>
      <use xlink:href="#DejaVuSans-62" x="1610.347656"/>
      <use xlink:href="#DejaVuSans-65" x="1673.824219"/>
      <use xlink:href="#DejaVuSans-20" x="1735.347656"/>
      <use xlink:href="#DejaVuSans-53" x="1767.134766"/>
      <use xlink:href="#DejaVuSans-61" x="1830.611328"/>
      <use xlink:href="#DejaVuSans-6d" x="1891.890625"/>
      <use xlink:href="#DejaVuSans-70" x="1989.302734"/>
      <use xlink:href="#DejaVuSans-6c" x="2052.779297"/>
      <use xlink:href="#DejaVuSans-65" x="2080.5625"/>
      <use xlink:href="#DejaVuSans-20" x="2142.085938"/>
      <use xlink:href="#DejaVuSans-56" x="2173.873047"/>
      <use xlink:href="#DejaVuSans-6f" x="2234.53125"/>
      <use xlink:href="#DejaVuSans-6c" x="2295.712891"/>
      <use xlink:href="#DejaVuSans-75" x="2323.496094"/>
      <use xlink:href="#DejaVuSans-6d" x="2386.875"/>
      <use xlink:href="#DejaVuSans-65" x="2484.287109"/>
      <use xlink:href="#DejaVuSans-20" x="2545.810547"/>
      <use xlink:href="#DejaVuSans-5b" x="2577.597656"/>
      <use xlink:href="#DejaVuSans-6d" x="2616.611328"/>
      <use xlink:href="#DejaVuSans-5d" x="2714.023438"/>
     </g>
    </g>
   </g>
   <g id="matplotlib.axis_2">
    <g id="ytick_1">
     <g id="line2d_11">
      <path d="M 108 489.895385 
L 777.6 489.895385 
" clip-path="url(#p8f55171996)" style="fill: none; stroke: #b0b0b0; stroke-width: 0.8; stroke-linecap: square"/>
     </g>
     <g id="line2d_12">
      <defs>
       <path id="m33693320ae" d="M 0 0 
L -3.5 0 
" style="stroke: #000000; stroke-width: 0.8"/>
      </defs>
      <g>
       <use xlink:href="#m33693320ae" x="108" y="489.895385" style="stroke: #000000; stroke-width: 0.8"/>
      </g>
     </g>
     <g id="text_7">
      <!-- −25 -->
      <g transform="translate(79.895313 493.694603) scale(0.1 -0.1)">
       <defs>
        <path id="DejaVuSans-35" d="M 691 4666 
L 3169 4666 
L 3169 4134 
L 1269 4134 
L 1269 2991 
Q 1406 3038 1543 3061 
Q 1681 3084 1819 3084 
Q 2600 3084 3056 2656 
Q 3513 2228 3513 1497 
Q 3513 744 3044 326 
Q 2575 -91 1722 -91 
Q 1428 -91 1123 -41 
Q 819 9 494 109 
L 494 744 
Q 775 591 1075 516 
Q 1375 441 1709 441 
Q 2250 441 2565 725 
Q 2881 1009 2881 1497 
Q 2881 1984 2565 2268 
Q 2250 2553 1709 2553 
Q 1456 2553 1204 2497 
Q 953 2441 691 2322 
L 691 4666 
z
" transform="scale(0.015625)"/>
       </defs>
       <use xlink:href="#DejaVuSans-2212"/>
       <use xlink:href="#DejaVuSans-32" x="83.789062"/>
       <use xlink:href="#DejaVuSans-35" x="147.412109"/>
      </g>
     </g>
    </g>
    <g id="ytick_2">
     <g id="line2d_13">
      <path d="M 108 433.033846 
L 777.6 433.033846 
" clip-path="url(#p8f55171996)" style="fill: none; stroke: #b0b0b0; stroke-width: 0.8; stroke-linecap: square"/>
     </g>
     <g id="line2d_14">
      <g>
       <use xlink:href="#m33693320ae" x="108" y="433.033846" style="stroke: #000000; stroke-width: 0.8"/>
      </g>
     </g>
     <g id="text_8">
      <!-- 0 -->
      <g transform="translate(94.6375 436.833065) scale(0.1 -0.1)">
       <use xlink:href="#DejaVuSans-30"/>
      </g>
     </g>
    </g>
    <g id="ytick_3">
     <g id="line2d_15">
      <path d="M 108 376.172308 
L 777.6 376.172308 
" clip-path="url(#p8f55171996)" style="fill: none; stroke: #b0b0b0; stroke-width: 0.8; stroke-linecap: square"/>
     </g>
     <g id="line2d_16">
      <g>
       <use xlink:href="#m33693320ae" x="108" y="376.172308" style="stroke: #000000; stroke-width: 0.8"/>
      </g>
     </g>
     <g id="text_9">
      <!-- 25 -->
      <g transform="translate(88.275 379.971526) scale(0.1 -0.1)">
       <use xlink:href="#DejaVuSans-32"/>
       <use xlink:href="#DejaVuSans-35" x="63.623047"/>
      </g>
     </g>
    </g>
    <g id="ytick_4">
     <g id="line2d_17">
      <path d="M 108 319.310769 
L 777.6 319.310769 
" clip-path="url(#p8f55171996)" style="fill: none; stroke: #b0b0b0; stroke-width: 0.8; stroke-linecap: square"/>
     </g>
     <g id="line2d_18">
      <g>
       <use xlink:href="#m33693320ae" x="108" y="319.310769" style="stroke: #000000; stroke-width: 0.8"/>
      </g>
     </g>
     <g id="text_10">
      <!-- 50 -->
      <g transform="translate(88.275 323.109988) scale(0.1 -0.1)">
       <use xlink:href="#DejaVuSans-35"/>
       <use xlink:href="#DejaVuSans-30" x="63.623047"/>
      </g>
     </g>
    </g>
    <g id="ytick_5">
     <g id="line2d_19">
      <path d="M 108 262.449231 
L 777.6 262.449231 
" clip-path="url(#p8f55171996)" style="fill: none; stroke: #b0b0b0; stroke-width: 0.8; stroke-linecap: square"/>
     </g>
     <g id="line2d_20">
      <g>
       <use xlink:href="#m33693320ae" x="108" y="262.449231" style="stroke: #000000; stroke-width: 0.8"/>
      </g>
     </g>
     <g id="text_11">
      <!-- 75 -->
      <g transform="translate(88.275 266.24845) scale(0.1 -0.1)">
       <defs>
        <path id="DejaVuSans-37" d="M 525 4666 
L 3525 4666 
L 3525 4397 
L 1831 0 
L 1172 0 
L 2766 4134 
L 525 4134 
L 525 4666 
z
" transform="scale(0.015625)"/>
       </defs>
       <use xlink:href="#DejaVuSans-37"/>
       <use xlink:href="#DejaVuSans-35" x="63.623047"/>
      </g>
     </g>
    </g>
    <g id="ytick_6">
     <g id="line2d_21">
      <path d="M 108 205.587692 
L 777.6 205.587692 
" clip-path="url(#p8f55171996)" style="fill: none; stroke: #b0b0b0; stroke-width: 0.8; stroke-linecap: square"/>
     </g>
     <g id="line2d_22">
      <g>
       <use xlink:href="#m33693320ae" x="108" y="205.587692" style="stroke: #000000; stroke-width: 0.8"/>
      </g>
     </g>
     <g id="text_12">
      <!-- 100 -->
      <g transform="translate(81.9125 209.386911) scale(0.1 -0.1)">
       <defs>
        <path id="DejaVuSans-31" d="M 794 531 
L 1825 531 
L 1825 4091 
L 703 3866 
L 703 4441 
L 1819 4666 
L 2450 4666 
L 2450 531 
L 3481 531 
L 3481 0 
L 794 0 
L 794 531 
z
" transform="scale(0.015625)"/>
       </defs>
       <use xlink:href="#DejaVuSans-31"/>
       <use xlink:href="#DejaVuSans-30" x="63.623047"/>
       <use xlink:href="#DejaVuSans-30" x="127.246094"/>
      </g>
     </g>
    </g>
    <g id="ytick_7">
     <g id="line2d_23">
      <path d="M 108 148.726154 
L 777.6 148.726154 
" clip-path="url(#p8f55171996)" style="fill: none; stroke: #b0b0b0; stroke-width: 0.8; stroke-linecap: square"/>
     </g>
     <g id="line2d_24">
      <g>
       <use xlink:href="#m33693320ae" x="108" y="148.726154" style="stroke: #000000; stroke-width: 0.8"/>
      </g>
     </g>
     <g id="text_13">
      <!-- 125 -->
      <g transform="translate(81.9125 152.525373) scale(0.1 -0.1)">
       <use xlink:href="#DejaVuSans-31"/>
       <use xlink:href="#DejaVuSans-32" x="63.623047"/>
       <use xlink:href="#DejaVuSans-35" x="127.246094"/>
      </g>
     </g>
    </g>
    <g id="ytick_8">
     <g id="line2d_25">
      <path d="M 108 91.864615 
L 777.6 91.864615 
" clip-path="url(#p8f55171996)" style="fill: none; stroke: #b0b0b0; stroke-width: 0.8; stroke-linecap: square"/>
     </g>
     <g id="line2d_26">
      <g>
       <use xlink:href="#m33693320ae" x="108" y="91.864615" style="stroke: #000000; stroke-width: 0.8"/>
      </g>
     </g>
     <g id="text_14">
      <!-- 150 -->
      <g transform="translate(81.9125 95.663834) scale(0.1 -0.1)">
       <use xlink:href="#DejaVuSans-31"/>
       <use xlink:href="#DejaVuSans-35" x="63.623047"/>
       <use xlink:href="#DejaVuSans-30" x="127.246094"/>
      </g>
     </g>
    </g>
    <g id="text_15">
     <!-- Velocity [m/s] -->
     <g transform="translate(73.815625 325.145625) rotate(-90) scale(0.1 -0.1)">
      <defs>
       <path id="DejaVuSans-79" d="M 2059 -325 
Q 1816 -950 1584 -1140 
Q 1353 -1331 966 -1331 
L 506 -1331 
L 506 -850 
L 844 -850 
Q 1081 -850 1212 -737 
Q 1344 -625 1503 -206 
L 1606 56 
L 191 3500 
L 800 3500 
L 1894 763 
L 2988 3500 
L 3597 3500 
L 2059 -325 
z
" transform="scale(0.015625)"/>
       <path id="DejaVuSans-2f" d="M 1625 4666 
L 2156 4666 
L 531 -594 
L 0 -594 
L 1625 4666 
z
" transform="scale(0.015625)"/>
      </defs>
      <use xlink:href="#DejaVuSans-56"/>
      <use xlink:href="#DejaVuSans-65" x="60.658203"/>
      <use xlink:href="#DejaVuSans-6c" x="122.181641"/>
      <use xlink:href="#DejaVuSans-6f" x="149.964844"/>
      <use xlink:href="#DejaVuSans-63" x="211.146484"/>
      <use xlink:href="#DejaVuSans-69" x="266.126953"/>
      <use xlink:href="#DejaVuSans-74" x="293.910156"/>
      <use xlink:href="#DejaVuSans-79" x="333.119141"/>
      <use xlink:href="#DejaVuSans-20" x="392.298828"/>
      <use xlink:href="#DejaVuSans-5b" x="424.085938"/>
      <use xlink:href="#DejaVuSans-6d" x="463.099609"/>
      <use xlink:href="#DejaVuSans-2f" x="560.511719"/>
      <use xlink:href="#DejaVuSans-73" x="594.203125"/>
      <use xlink:href="#DejaVuSans-5d" x="646.302734"/>
     </g>
    </g>
   </g>
   <g id="line2d_27">
    <path d="M 138.436364 125.794267 
L 144.523166 126.007255 
L 150.610595 126.21535 
L 156.698024 126.411089 
L 162.785453 126.588677 
L 168.872257 126.744158 
L 174.959686 126.874998 
L 181.047115 126.979912 
L 187.134544 127.058555 
L 193.221348 127.111308 
L 199.308777 127.139003 
L 205.396206 127.142959 
L 211.483635 127.124669 
L 217.570439 127.085973 
L 223.657868 127.029194 
L 229.745297 126.957215 
L 235.832726 126.874338 
L 241.91953 126.786984 
L 248.006959 126.704351 
L 254.094388 126.638132 
L 260.181817 126.600407 
L 266.268621 126.686824 
L 272.35605 126.757485 
L 278.443479 126.82811 
L 284.530908 126.898736 
L 290.617712 126.969362 
L 296.705141 127.039988 
L 302.79257 127.110613 
L 308.879999 127.181239 
L 314.967428 127.251865 
L 321.054232 127.322491 
L 327.141661 127.393116 
L 333.22909 127.463742 
L 339.316519 127.534368 
L 345.403323 127.600898 
L 351.490752 127.555851 
L 357.578181 127.510803 
L 363.665609 127.46579 
L 369.752414 127.420742 
L 375.839843 127.375694 
L 381.927272 127.330681 
L 388.0147 127.285633 
L 394.101505 127.24062 
L 400.188934 127.195607 
L 406.276363 127.150559 
L 412.363791 127.105546 
L 418.450596 127.060533 
L 424.538025 127.01552 
L 430.625454 126.949059 
L 436.712882 126.868681 
L 442.799687 126.788338 
L 448.887116 126.70796 
L 454.974545 126.627617 
L 461.061973 126.547239 
L 467.148778 126.466861 
L 473.236207 126.386483 
L 479.323636 126.306105 
L 485.411064 126.225727 
L 491.497869 126.145349 
L 497.585298 126.064971 
L 503.672727 125.984558 
L 509.760155 125.45037 
L 515.84696 125.443672 
L 521.934389 125.441312 
L 528.021818 125.431386 
L 534.109246 125.404351 
L 540.196675 125.356457 
L 546.28348 125.290586 
L 552.370909 125.214859 
L 558.458337 125.140485 
L 564.545766 125.080375 
L 570.632571 125.047647 
L 576.72 125.051083 
L 582.807428 125.083359 
L 588.894857 125.10984 
L 594.981662 124.770593 
L 601.06909 124.760147 
L 607.156519 124.749596 
L 613.243948 124.738942 
L 619.330753 124.728148 
L 625.418181 124.717251 
L 631.50561 124.724955 
L 637.593039 124.930308 
L 643.679844 125.135522 
L 649.767272 125.340527 
L 655.854701 125.873118 
L 661.94213 125.912093 
L 668.028935 126.012669 
L 674.116363 126.505974 
L 680.203792 127.221498 
L 686.291221 127.935529 
L 692.378026 130.160396 
L 698.465454 131.494061 
L 704.552883 133.867676 
L 710.640312 136.363177 
L 716.727117 139.985601 
L 722.814545 144.98115 
L 728.901974 153.652395 
L 734.989403 203.234814 
L 741.076208 302.971805 
L 747.163636 387.46855 
" clip-path="url(#p8f55171996)" style="fill: none; stroke: #1f77b4; stroke-width: 1.5; stroke-linecap: square"/>
   </g>
   <g id="line2d_28">
    <path d="M 138.436364 435.301671 
L 144.523166 435.455867 
L 150.610595 435.623398 
L 156.698024 435.801038 
L 162.785453 435.985707 
L 168.872257 436.174545 
L 174.959686 436.365009 
L 181.047115 436.554717 
L 187.134544 436.741454 
L 193.221348 436.923071 
L 199.308777 437.097504 
L 205.396206 437.262648 
L 211.483635 437.416448 
L 217.570439 437.556929 
L 223.657868 437.682337 
L 229.745297 437.791187 
L 235.832726 437.882471 
L 241.91953 437.955814 
L 248.006959 438.011658 
L 254.094388 438.051286 
L 260.181817 438.076682 
L 266.268621 438.533193 
L 272.35605 438.76289 
L 278.443479 438.992587 
L 284.530908 439.222284 
L 290.617712 439.451959 
L 296.705141 439.681658 
L 302.79257 439.911357 
L 308.879999 440.141057 
L 314.967428 440.370757 
L 321.054232 440.600434 
L 327.141661 440.830136 
L 333.22909 441.059838 
L 339.316519 441.28954 
L 345.403323 441.518765 
L 351.490752 441.735595 
L 357.578181 441.95243 
L 363.665609 442.169269 
L 369.752414 442.38609 
L 375.839843 442.602939 
L 381.927272 442.819792 
L 388.0147 443.03665 
L 394.101505 443.253489 
L 400.188934 443.470355 
L 406.276363 443.687227 
L 412.363791 443.904103 
L 418.450596 444.12096 
L 424.538025 444.337845 
L 430.625454 444.583903 
L 436.712882 444.848852 
L 442.799687 445.113776 
L 448.887116 445.37873 
L 454.974545 445.643686 
L 461.061973 445.908644 
L 467.148778 446.173576 
L 473.236207 446.438538 
L 479.323636 446.703503 
L 485.411064 446.968468 
L 491.497869 447.233409 
L 497.585298 447.49838 
L 503.672727 447.763352 
L 509.760155 448.526433 
L 515.84696 448.644894 
L 521.934389 448.82467 
L 528.021818 449.058177 
L 534.109246 449.331159 
L 540.196675 449.62549 
L 546.28348 449.922241 
L 552.370909 450.205328 
L 558.458337 450.464757 
L 564.545766 450.698689 
L 570.632571 450.91201 
L 576.72 451.108467 
L 582.807428 451.272914 
L 588.894857 451.360122 
L 594.981662 451.382707 
L 601.06909 451.660442 
L 607.156519 451.938319 
L 613.243948 452.216338 
L 619.330753 452.49447 
L 625.418181 452.772772 
L 631.50561 453.050008 
L 637.593039 453.314597 
L 643.679844 453.579263 
L 649.767272 453.844062 
L 655.854701 454.50643 
L 661.94213 454.750037 
L 668.028935 454.981388 
L 674.116363 455.456223 
L 680.203792 455.97116 
L 686.291221 456.48735 
L 692.378026 457.544904 
L 698.465454 458.111708 
L 704.552883 459.011963 
L 710.640312 459.895672 
L 716.727117 460.601845 
L 722.814545 461.831377 
L 728.901974 464.653205 
L 734.989403 461.002808 
L 741.076208 448.816464 
L 747.163636 438.679813 
" clip-path="url(#p8f55171996)" style="fill: none; stroke-dasharray: 5.55,2.4; stroke-dashoffset: 0; stroke: #ff7f0e; stroke-width: 1.5"/>
   </g>
   <g id="line2d_29">
    <path d="M 138.436364 424.644909 
L 144.523166 424.561134 
L 150.610595 424.474582 
L 156.698024 424.387566 
L 162.785453 424.30201 
L 168.872257 424.219448 
L 174.959686 424.141029 
L 181.047115 424.067634 
L 187.134544 423.999911 
L 193.221348 423.938366 
L 199.308777 423.883379 
L 205.396206 423.83528 
L 211.483635 423.794331 
L 217.570439 423.760723 
L 223.657868 423.734519 
L 229.745297 423.715593 
L 235.832726 423.703474 
L 241.91953 423.69718 
L 248.006959 423.69505 
L 254.094388 423.694774 
L 260.181817 423.69381 
L 266.268621 423.548489 
L 272.35605 423.460959 
L 278.443479 423.37343 
L 284.530908 423.2859 
L 290.617712 423.198381 
L 296.705141 423.11085 
L 302.79257 423.023321 
L 308.879999 422.935791 
L 314.967428 422.84826 
L 321.054232 422.76074 
L 327.141661 422.673209 
L 333.22909 422.585678 
L 339.316519 422.498149 
L 345.403323 422.410649 
L 351.490752 422.323742 
L 357.578181 422.236831 
L 363.665609 422.14992 
L 369.752414 422.063014 
L 375.839843 421.976097 
L 381.927272 421.889179 
L 388.0147 421.802257 
L 394.101505 421.715343 
L 400.188934 421.628417 
L 406.276363 421.541489 
L 412.363791 421.454558 
L 418.450596 421.367635 
L 424.538025 421.2807 
L 430.625454 421.164313 
L 436.712882 421.028853 
L 442.799687 420.893404 
L 448.887116 420.757939 
L 454.974545 420.62247 
L 461.061973 420.486997 
L 467.148778 420.351536 
L 473.236207 420.216058 
L 479.323636 420.080576 
L 485.411064 419.945092 
L 491.497869 419.809618 
L 497.585298 419.674126 
L 503.672727 419.538633 
L 509.760155 419.035147 
L 515.84696 418.947729 
L 521.934389 418.814833 
L 528.021818 418.642626 
L 534.109246 418.442168 
L 540.196675 418.227138 
L 546.28348 418.011425 
L 552.370909 417.806306 
L 558.458337 417.617926 
L 564.545766 417.445646 
L 570.632571 417.283293 
L 576.72 417.126288 
L 582.807428 416.988427 
L 588.894857 416.913256 
L 594.981662 416.948433 
L 601.06909 416.699559 
L 607.156519 416.450705 
L 613.243948 416.201874 
L 619.330753 415.953088 
L 625.418181 415.7043 
L 631.50561 415.4516 
L 637.593039 415.157423 
L 643.679844 414.863347 
L 649.767272 414.569314 
L 655.854701 413.934838 
L 661.94213 413.805656 
L 668.028935 413.638104 
L 674.116363 413.234934 
L 680.203792 412.786148 
L 686.291221 412.338195 
L 692.378026 411.858777 
L 698.465454 411.877247 
L 704.552883 411.955801 
L 710.640312 412.276918 
L 716.727117 412.993271 
L 722.814545 414.710897 
L 728.901974 424.203915 
L 734.989403 430.484563 
L 741.076208 432.231399 
L 747.163636 433.386675 
" clip-path="url(#p8f55171996)" style="fill: none; stroke-dasharray: 9.6,2.4,1.5,2.4; stroke-dashoffset: 0; stroke: #2ca02c; stroke-width: 1.5"/>
   </g>
   <g id="line2d_30">
    <path d="M 138.436364 135.212827 
L 144.523166 135.559293 
L 150.610595 135.909714 
L 156.698024 136.253473 
L 162.785453 136.582065 
L 168.872257 136.888931 
L 174.959686 137.169595 
L 181.047115 137.420932 
L 187.134544 137.641069 
L 193.221348 137.82893 
L 199.308777 137.984133 
L 205.396206 138.106644 
L 211.483635 138.196843 
L 217.570439 138.255461 
L 223.657868 138.28385 
L 229.745297 138.284232 
L 235.832726 138.260632 
L 241.91953 138.219645 
L 248.006959 138.17137 
L 254.094388 138.129133 
L 260.181817 138.10713 
L 266.268621 138.508534 
L 272.35605 138.74703 
L 278.443479 138.985492 
L 284.530908 139.223954 
L 290.617712 139.462415 
L 296.705141 139.700877 
L 302.79257 139.939339 
L 308.879999 140.177835 
L 314.967428 140.416297 
L 321.054232 140.654724 
L 327.141661 140.89322 
L 333.22909 141.131682 
L 339.316519 141.370143 
L 345.403323 141.603608 
L 351.490752 141.700332 
L 357.578181 141.797056 
L 363.665609 141.893815 
L 369.752414 141.990557 
L 375.839843 142.087299 
L 381.927272 142.184075 
L 388.0147 142.280834 
L 394.101505 142.377593 
L 400.188934 142.474387 
L 406.276363 142.571163 
L 412.363791 142.667957 
L 418.450596 142.76475 
L 424.538025 142.861544 
L 430.625454 142.941749 
L 436.712882 143.011177 
L 442.799687 143.080605 
L 448.887116 143.150034 
L 454.974545 143.219462 
L 461.061973 143.288891 
L 467.148778 143.358319 
L 473.236207 143.427748 
L 479.323636 143.497176 
L 485.411064 143.566604 
L 491.497869 143.636015 
L 497.585298 143.705444 
L 503.672727 143.774872 
L 509.760155 143.495354 
L 515.84696 143.540193 
L 521.934389 143.61783 
L 528.021818 143.709869 
L 534.109246 143.797483 
L 540.196675 143.867449 
L 546.28348 143.914336 
L 552.370909 143.940522 
L 558.458337 143.955063 
L 564.545766 143.972815 
L 570.632571 144.012102 
L 576.72 144.086441 
L 582.807428 144.183217 
L 588.894857 144.245878 
L 594.981662 143.75686 
L 601.06909 143.772339 
L 607.156519 143.787731 
L 613.243948 143.803018 
L 619.330753 143.818219 
L 625.418181 143.833334 
L 631.50561 143.862243 
L 637.593039 144.038027 
L 643.679844 144.213637 
L 649.767272 144.389125 
L 655.854701 144.939087 
L 661.94213 144.903062 
L 668.028935 144.951754 
L 674.116363 145.37773 
L 680.203792 146.017734 
L 686.291221 146.656646 
L 692.378026 148.693635 
L 698.465454 149.908484 
L 704.552883 152.095887 
L 710.640312 154.432489 
L 716.727117 157.885741 
L 722.814545 162.62525 
L 728.901974 170.65741 
L 734.989403 217.197716 
L 741.076208 310.950016 
L 747.163636 390.336653 
" clip-path="url(#p8f55171996)" style="fill: none; stroke: #d62728; stroke-width: 1.5; stroke-linecap: square"/>
   </g>
   <g id="line2d_31">
    <path d="M 138.436364 403.650751 
L 144.523166 403.724806 
L 150.610595 403.81817 
L 156.698024 403.930961 
L 162.785453 404.062488 
L 168.872257 404.211388 
L 174.959686 404.375834 
L 181.047115 404.553543 
L 187.134544 404.741916 
L 193.221348 404.938046 
L 199.308777 405.138848 
L 205.396206 405.34099 
L 211.483635 405.541039 
L 217.570439 405.735507 
L 223.657868 405.920972 
L 229.745297 406.093966 
L 235.832726 406.250943 
L 241.91953 406.388034 
L 248.006959 406.500936 
L 254.094388 406.585025 
L 260.181817 406.636433 
L 266.268621 407.161128 
L 272.35605 407.412164 
L 278.443479 407.6632 
L 284.530908 407.914236 
L 290.617712 408.165248 
L 296.705141 408.416286 
L 302.79257 408.667324 
L 308.879999 408.918362 
L 314.967428 409.169403 
L 321.054232 409.420417 
L 327.141661 409.671459 
L 333.22909 409.922502 
L 339.316519 410.173544 
L 345.403323 410.426489 
L 351.490752 410.732197 
L 357.578181 411.037909 
L 363.665609 411.343624 
L 369.752414 411.649312 
L 375.839843 411.955038 
L 381.927272 412.260765 
L 388.0147 412.566497 
L 394.101505 412.872203 
L 400.188934 413.177943 
L 406.276363 413.483686 
L 412.363791 413.789435 
L 418.450596 414.095156 
L 424.538025 414.400914 
L 430.625454 414.757663 
L 436.712882 415.147441 
L 442.799687 415.537184 
L 448.887116 415.926971 
L 454.974545 416.316764 
L 461.061973 416.706563 
L 467.148778 417.096328 
L 473.236207 417.486137 
L 479.323636 417.875952 
L 485.411064 418.265773 
L 491.497869 418.655558 
L 497.585298 419.045389 
L 503.672727 419.435225 
L 509.760155 420.820728 
L 515.84696 420.992403 
L 521.934389 421.24811 
L 528.021818 421.584646 
L 534.109246 421.988076 
L 540.196675 422.435426 
L 546.28348 422.898618 
L 552.370909 423.350676 
L 558.458337 423.771687 
L 564.545766 424.152827 
L 570.632571 424.494929 
L 576.72 424.798391 
L 582.807428 425.041043 
L 588.894857 425.165828 
L 594.981662 425.370377 
L 601.06909 425.806169 
L 607.156519 426.24213 
L 613.243948 426.678262 
L 619.330753 427.114519 
L 625.418181 427.550991 
L 631.50561 427.982896 
L 637.593039 428.364896 
L 643.679844 428.746949 
L 649.767272 429.129133 
L 655.854701 429.9827 
L 661.94213 430.321578 
L 668.028935 430.641877 
L 674.116363 431.243926 
L 680.203792 431.86205 
L 686.291221 432.481127 
L 692.378026 433.633234 
L 698.465454 434.195663 
L 704.552883 435.082803 
L 710.640312 435.928785 
L 716.727117 436.574972 
L 722.814545 437.667639 
L 728.901974 439.829175 
L 734.989403 439.943627 
L 741.076208 437.037171 
L 747.163636 434.664765 
" clip-path="url(#p8f55171996)" style="fill: none; stroke-dasharray: 5.55,2.4; stroke-dashoffset: 0; stroke: #9467bd; stroke-width: 1.5"/>
   </g>
   <g id="line2d_32">
    <path d="M 138.436364 422.376607 
L 144.523166 422.277534 
L 150.610595 422.171891 
L 156.698024 422.061984 
L 162.785453 421.949881 
L 168.872257 421.837382 
L 174.959686 421.72598 
L 181.047115 421.616978 
L 187.134544 421.511501 
L 193.221348 421.410578 
L 199.308777 421.315144 
L 205.396206 421.226121 
L 211.483635 421.144382 
L 217.570439 421.070743 
L 223.657868 421.005891 
L 229.745297 420.950369 
L 235.832726 420.904455 
L 241.91953 420.868083 
L 248.006959 420.840746 
L 254.094388 420.821481 
L 260.181817 420.808992 
L 266.268621 420.573957 
L 272.35605 420.442112 
L 278.443479 420.310267 
L 284.530908 420.17842 
L 290.617712 420.046588 
L 296.705141 419.914742 
L 302.79257 419.782897 
L 308.879999 419.651049 
L 314.967428 419.519203 
L 321.054232 419.38737 
L 327.141661 419.255523 
L 333.22909 419.123676 
L 339.316519 418.991829 
L 345.403323 418.859575 
L 351.490752 418.715803 
L 357.578181 418.57203 
L 363.665609 418.428252 
L 369.752414 418.284488 
L 375.839843 418.140706 
L 381.927272 417.996921 
L 388.0147 417.853134 
L 394.101505 417.709359 
L 400.188934 417.565565 
L 406.276363 417.42177 
L 412.363791 417.277971 
L 418.450596 417.134185 
L 424.538025 416.990381 
L 430.625454 416.808325 
L 436.712882 416.601492 
L 442.799687 416.394677 
L 448.887116 416.187838 
L 454.974545 415.980994 
L 461.061973 415.774146 
L 467.148778 415.567316 
L 473.236207 415.360461 
L 479.323636 415.153602 
L 485.411064 414.946739 
L 491.497869 414.739894 
L 497.585298 414.533023 
L 503.672727 414.32615 
L 509.760155 413.549253 
L 515.84696 413.433445 
L 521.934389 413.258946 
L 528.021818 413.031404 
L 534.109246 412.763297 
L 540.196675 412.47172 
L 546.28348 412.175394 
L 552.370909 411.890704 
L 558.458337 411.62802 
L 564.545766 411.389255 
L 570.632571 411.169198 
L 576.72 410.963902 
L 582.807428 410.789999 
L 588.894857 410.697144 
L 594.981662 410.666152 
L 601.06909 410.338816 
L 607.156519 410.011482 
L 613.243948 409.684149 
L 619.330753 409.356847 
L 625.418181 409.029516 
L 631.50561 408.699273 
L 637.593039 408.33832 
L 643.679844 407.97748 
L 649.767272 407.616677 
L 655.854701 406.861183 
L 661.94213 406.678617 
L 668.028935 406.460239 
L 674.116363 405.968002 
L 680.203792 405.426819 
L 686.291221 404.886558 
L 692.378026 404.227596 
L 698.465454 404.162475 
L 704.552883 404.104961 
L 710.640312 404.307507 
L 716.727117 404.945896 
L 722.814545 406.467707 
L 728.901974 414.702496 
L 734.989403 421.959283 
L 741.076208 427.539066 
L 747.163636 431.854884 
" clip-path="url(#p8f55171996)" style="fill: none; stroke-dasharray: 9.6,2.4,1.5,2.4; stroke-dashoffset: 0; stroke: #8c564b; stroke-width: 1.5"/>
   </g>
   <g id="line2d_33">
    <path d="M 138.436364 117.940962 
L 144.523166 118.013427 
L 150.610595 118.071211 
L 156.698024 118.110047 
L 162.785453 118.127122 
L 168.872257 118.121014 
L 174.959686 118.09141 
L 181.047115 118.038935 
L 187.134544 117.965012 
L 193.221348 117.87155 
L 199.308777 117.760944 
L 205.396206 117.635865 
L 211.483635 117.499299 
L 217.570439 117.354403 
L 223.657868 117.204545 
L 229.745297 117.053611 
L 235.832726 116.906216 
L 241.91953 116.768609 
L 248.006959 116.648875 
L 254.094388 116.55694 
L 260.181817 116.502383 
L 266.268621 116.230465 
L 272.35605 116.116908 
L 278.443479 116.003352 
L 284.530908 115.889795 
L 290.617712 115.776239 
L 296.705141 115.662682 
L 302.79257 115.549126 
L 308.879999 115.435569 
L 314.967428 115.322013 
L 321.054232 115.208456 
L 327.141661 115.094865 
L 333.22909 114.981309 
L 339.316519 114.867752 
L 345.403323 114.751072 
L 351.490752 114.548427 
L 357.578181 114.345781 
L 363.665609 114.143101 
L 369.752414 113.94049 
L 375.839843 113.737844 
L 381.927272 113.535199 
L 388.0147 113.332518 
L 394.101505 113.129908 
L 400.188934 112.927262 
L 406.276363 112.724582 
L 412.363791 112.521936 
L 418.450596 112.319291 
L 424.538025 112.11661 
L 430.625454 111.887103 
L 436.712882 111.640207 
L 442.799687 111.393312 
L 448.887116 111.146383 
L 454.974545 110.899453 
L 461.061973 110.652523 
L 467.148778 110.405593 
L 473.236207 110.158663 
L 479.323636 109.911699 
L 485.411064 109.664769 
L 491.497869 109.417804 
L 497.585298 109.17084 
L 503.672727 108.923875 
L 509.760155 108.117041 
L 515.84696 108.05287 
L 521.934389 107.961005 
L 528.021818 107.837245 
L 534.109246 107.682493 
L 540.196675 107.503655 
L 546.28348 107.312845 
L 552.370909 107.124289 
L 558.458337 106.951248 
L 564.545766 106.804027 
L 570.632571 106.68929 
L 576.72 106.610439 
L 582.807428 106.566745 
L 588.894857 106.550399 
L 594.981662 106.398493 
L 601.06909 106.367917 
L 607.156519 106.337168 
L 613.243948 106.30628 
L 619.330753 106.275253 
L 625.418181 106.244088 
L 631.50561 106.236522 
L 637.593039 106.479981 
L 643.679844 106.723198 
L 649.767272 106.96624 
L 655.854701 107.471969 
L 661.94213 107.594133 
L 668.028935 107.751974 
L 674.116363 108.314307 
L 680.203792 109.115033 
L 686.291221 109.91392 
L 692.378026 112.339767 
L 698.465454 113.7949 
L 704.552883 116.355509 
L 710.640312 118.998821 
L 716.727117 122.785159 
L 722.814545 128.021252 
L 728.901974 137.23196 
L 734.989403 189.73969 
L 741.076208 295.33927 
L 747.163636 384.793309 
" clip-path="url(#p8f55171996)" style="fill: none; stroke: #e377c2; stroke-width: 1.5; stroke-linecap: square"/>
   </g>
   <g id="line2d_34">
    <path d="M 138.436364 467.857899 
L 144.523166 468.102098 
L 150.610595 468.354034 
L 156.698024 468.606848 
L 162.785453 468.854828 
L 168.872257 469.093411 
L 174.959686 469.319175 
L 181.047115 469.529504 
L 187.134544 469.722475 
L 193.221348 469.896619 
L 199.308777 470.050837 
L 205.396206 470.184206 
L 211.483635 470.296019 
L 217.570439 470.385797 
L 223.657868 470.453464 
L 229.745297 470.499558 
L 235.832726 470.525704 
L 241.91953 470.535174 
L 248.006959 470.533443 
L 254.094388 470.528047 
L 260.181817 470.527209 
L 266.268621 470.92936 
L 272.35605 471.144725 
L 278.443479 471.360094 
L 284.530908 471.575464 
L 290.617712 471.790812 
L 296.705141 472.006181 
L 302.79257 472.221551 
L 308.879999 472.43692 
L 314.967428 472.65229 
L 321.054232 472.867637 
L 327.141661 473.083007 
L 333.22909 473.298376 
L 339.316519 473.51375 
L 345.403323 473.725975 
L 351.490752 473.852711 
L 357.578181 473.979455 
L 363.665609 474.106204 
L 369.752414 474.232944 
L 375.839843 474.359702 
L 381.927272 474.486464 
L 388.0147 474.613234 
L 394.101505 474.739992 
L 400.188934 474.866771 
L 406.276363 474.993555 
L 412.363791 475.120343 
L 418.450596 475.247127 
L 424.538025 475.373923 
L 430.625454 475.504538 
L 436.712882 475.637616 
L 442.799687 475.770677 
L 448.887116 475.903751 
L 454.974545 476.036821 
L 461.061973 476.16989 
L 467.148778 476.302943 
L 473.236207 476.436008 
L 479.323636 476.569073 
L 485.411064 476.702134 
L 491.497869 476.835182 
L 497.585298 476.968239 
L 503.672727 477.101296 
L 509.760155 477.199352 
L 515.84696 477.259974 
L 521.934389 477.357071 
L 528.021818 477.478584 
L 534.109246 477.610165 
L 540.196675 477.739127 
L 546.28348 477.856505 
L 552.370909 477.957984 
L 558.458337 478.044201 
L 564.545766 478.12071 
L 570.632571 478.19655 
L 576.72 478.278819 
L 582.807428 478.359722 
L 588.894857 478.406727 
L 594.981662 478.238006 
L 601.06909 478.343281 
L 607.156519 478.448673 
L 613.243948 478.554186 
L 619.330753 478.659804 
L 625.418181 478.765551 
L 631.50561 478.873924 
L 637.593039 479.008868 
L 643.679844 479.14392 
L 649.767272 479.279115 
L 655.854701 479.731589 
L 661.94213 479.87743 
L 668.028935 480.015245 
L 674.116363 480.351755 
L 680.203792 480.748556 
L 686.291221 481.146945 
L 692.378026 482.081673 
L 698.465454 482.643643 
L 704.552883 483.539857 
L 710.640312 484.446352 
L 716.727117 485.200638 
L 722.814545 486.549203 
L 728.901974 489.954132 
L 734.989403 482.430447 
L 741.076208 460.814843 
L 747.163636 442.781987 
" clip-path="url(#p8f55171996)" style="fill: none; stroke-dasharray: 5.55,2.4; stroke-dashoffset: 0; stroke: #7f7f7f; stroke-width: 1.5"/>
   </g>
   <g id="line2d_35">
    <path d="M 138.436364 426.337246 
L 144.523166 426.262924 
L 150.610595 426.189491 
L 156.698024 426.119427 
L 162.785453 426.054648 
L 168.872257 425.996524 
L 174.959686 425.945932 
L 181.047115 425.90338 
L 187.134544 425.869078 
L 193.221348 425.843029 
L 199.308777 425.825076 
L 205.396206 425.814969 
L 211.483635 425.812369 
L 217.570439 425.816847 
L 223.657868 425.827841 
L 229.745297 425.844541 
L 235.832726 425.865694 
L 241.91953 425.889322 
L 248.006959 425.912487 
L 254.094388 425.93136 
L 260.181817 425.941972 
L 266.268621 425.877198 
L 272.35605 425.829654 
L 278.443479 425.782111 
L 284.530908 425.734567 
L 290.617712 425.687028 
L 296.705141 425.639485 
L 302.79257 425.591941 
L 308.879999 425.544398 
L 314.967428 425.496855 
L 321.054232 425.449316 
L 327.141661 425.401772 
L 333.22909 425.354228 
L 339.316519 425.306685 
L 345.403323 425.259652 
L 351.490752 425.226449 
L 357.578181 425.193244 
L 363.665609 425.160037 
L 369.752414 425.126832 
L 375.839843 425.093621 
L 381.927272 425.060409 
L 388.0147 425.027194 
L 394.101505 424.993981 
L 400.188934 424.960763 
L 406.276363 424.927542 
L 412.363791 424.89432 
L 418.450596 424.861099 
L 424.538025 424.827872 
L 430.625454 424.772261 
L 436.712882 424.702151 
L 442.799687 424.632047 
L 448.887116 424.561933 
L 454.974545 424.491816 
L 461.061973 424.421697 
L 467.148778 424.351584 
L 473.236207 424.28146 
L 479.323636 424.211334 
L 485.411064 424.141206 
L 491.497869 424.071083 
L 497.585298 424.00095 
L 503.672727 423.930815 
L 509.760155 423.679414 
L 515.84696 423.617288 
L 521.934389 423.521334 
L 528.021818 423.398455 
L 534.109246 423.258712 
L 540.196675 423.112932 
L 546.28348 422.970801 
L 552.370909 422.839076 
L 558.458337 422.720135 
L 564.545766 422.611062 
L 570.632571 422.504775 
L 576.72 422.395883 
L 582.807428 422.294783 
L 588.894857 422.237891 
L 594.981662 422.32906 
L 601.06909 422.14509 
L 607.156519 421.961161 
L 613.243948 421.777273 
L 619.330753 421.593445 
L 625.418181 421.409639 
L 631.50561 421.220781 
L 637.593039 420.978196 
L 643.679844 420.735707 
L 649.767272 420.493266 
L 655.854701 419.957984 
L 661.94213 419.872937 
L 668.028935 419.746969 
L 674.116363 419.414659 
L 680.203792 419.033033 
L 686.291221 418.652188 
L 692.378026 418.299954 
L 698.465454 418.377813 
L 704.552883 418.551854 
L 710.640312 418.9561 
L 716.727117 419.729374 
L 722.814545 421.600191 
L 728.901974 432.108243 
L 734.989403 437.562675 
L 741.076208 436.12896 
L 747.163636 434.660783 
" clip-path="url(#p8f55171996)" style="fill: none; stroke-dasharray: 9.6,2.4,1.5,2.4; stroke-dashoffset: 0; stroke: #bcbd22; stroke-width: 1.5"/>
   </g>
   <g id="patch_3">
    <path d="M 108 512.64 
L 108 69.12 
" style="fill: none; stroke: #000000; stroke-width: 0.8; stroke-linejoin: miter; stroke-linecap: square"/>
   </g>
   <g id="patch_4">
    <path d="M 777.6 512.64 
L 777.6 69.12 
" style="fill: none; stroke: #000000; stroke-width: 0.8; stroke-linejoin: miter; stroke-linecap: square"/>
   </g>
   <g id="patch_5">
    <path d="M 108 512.64 
L 777.6 512.64 
" style="fill: none; stroke: #000000; stroke-width: 0.8; stroke-linejoin: miter; stroke-linecap: square"/>
   </g>
   <g id="patch_6">
    <path d="M 108 69.12 
L 777.6 69.12 
" style="fill: none; stroke: #000000; stroke-width: 0.8; stroke-linejoin: miter; stroke-linecap: square"/>
   </g>
   <g id="legend_1">
    <g id="patch_7">
     <path d="M 115 359.683125 
L 249.139063 359.683125 
Q 251.139063 359.683125 251.139063 357.683125 
L 251.139063 224.076875 
Q 251.139063 222.076875 249.139063 222.076875 
L 115 222.076875 
Q 113 222.076875 113 224.076875 
L 113 357.683125 
Q 113 359.683125 115 359.683125 
z
" style="fill: #ffffff; opacity: 0.8; stroke: #cccccc; stroke-linejoin: miter"/>
    </g>
    <g id="line2d_36">
     <path d="M 117 230.175313 
L 127 230.175313 
L 137 230.175313 
" style="fill: none; stroke: #1f77b4; stroke-width: 1.5; stroke-linecap: square"/>
    </g>
    <g id="text_16">
     <!-- Navy140_AoA0_Ux -->
     <g transform="translate(145 233.675313) scale(0.1 -0.1)">
      <defs>
       <path id="DejaVuSans-4e" d="M 628 4666 
L 1478 4666 
L 3547 763 
L 3547 4666 
L 4159 4666 
L 4159 0 
L 3309 0 
L 1241 3903 
L 1241 0 
L 628 0 
L 628 4666 
z
" transform="scale(0.015625)"/>
       <path id="DejaVuSans-76" d="M 191 3500 
L 800 3500 
L 1894 563 
L 2988 3500 
L 3597 3500 
L 2284 0 
L 1503 0 
L 191 3500 
z
" transform="scale(0.015625)"/>
       <path id="DejaVuSans-5f" d="M 3263 -1063 
L 3263 -1509 
L -63 -1509 
L -63 -1063 
L 3263 -1063 
z
" transform="scale(0.015625)"/>
       <path id="DejaVuSans-41" d="M 2188 4044 
L 1331 1722 
L 3047 1722 
L 2188 4044 
z
M 1831 4666 
L 2547 4666 
L 4325 0 
L 3669 0 
L 3244 1197 
L 1141 1197 
L 716 0 
L 50 0 
L 1831 4666 
z
" transform="scale(0.015625)"/>
       <path id="DejaVuSans-55" d="M 556 4666 
L 1191 4666 
L 1191 1831 
Q 1191 1081 1462 751 
Q 1734 422 2344 422 
Q 2950 422 3222 751 
Q 3494 1081 3494 1831 
L 3494 4666 
L 4128 4666 
L 4128 1753 
Q 4128 841 3676 375 
Q 3225 -91 2344 -91 
Q 1459 -91 1007 375 
Q 556 841 556 1753 
L 556 4666 
z
" transform="scale(0.015625)"/>
       <path id="DejaVuSans-78" d="M 3513 3500 
L 2247 1797 
L 3578 0 
L 2900 0 
L 1881 1375 
L 863 0 
L 184 0 
L 1544 1831 
L 300 3500 
L 978 3500 
L 1906 2253 
L 2834 3500 
L 3513 3500 
z
" transform="scale(0.015625)"/>
      </defs>
      <use xlink:href="#DejaVuSans-4e"/>
      <use xlink:href="#DejaVuSans-61" x="74.804688"/>
      <use xlink:href="#DejaVuSans-76" x="136.083984"/>
      <use xlink:href="#DejaVuSans-79" x="195.263672"/>
      <use xlink:href="#DejaVuSans-31" x="254.443359"/>
      <use xlink:href="#DejaVuSans-34" x="318.066406"/>
      <use xlink:href="#DejaVuSans-30" x="381.689453"/>
      <use xlink:href="#DejaVuSans-5f" x="445.3125"/>
      <use xlink:href="#DejaVuSans-41" x="495.3125"/>
      <use xlink:href="#DejaVuSans-6f" x="561.970703"/>
      <use xlink:href="#DejaVuSans-41" x="623.152344"/>
      <use xlink:href="#DejaVuSans-30" x="691.560547"/>
      <use xlink:href="#DejaVuSans-5f" x="755.183594"/>
      <use xlink:href="#DejaVuSans-55" x="805.183594"/>
      <use xlink:href="#DejaVuSans-78" x="878.376953"/>
     </g>
    </g>
    <g id="line2d_37">
     <path d="M 117 245.131563 
L 127 245.131563 
L 137 245.131563 
" style="fill: none; stroke-dasharray: 5.55,2.4; stroke-dashoffset: 0; stroke: #ff7f0e; stroke-width: 1.5"/>
    </g>
    <g id="text_17">
     <!-- Navy140_AoA0_Uy -->
     <g transform="translate(145 248.631563) scale(0.1 -0.1)">
      <use xlink:href="#DejaVuSans-4e"/>
      <use xlink:href="#DejaVuSans-61" x="74.804688"/>
      <use xlink:href="#DejaVuSans-76" x="136.083984"/>
      <use xlink:href="#DejaVuSans-79" x="195.263672"/>
      <use xlink:href="#DejaVuSans-31" x="254.443359"/>
      <use xlink:href="#DejaVuSans-34" x="318.066406"/>
      <use xlink:href="#DejaVuSans-30" x="381.689453"/>
      <use xlink:href="#DejaVuSans-5f" x="445.3125"/>
      <use xlink:href="#DejaVuSans-41" x="495.3125"/>
      <use xlink:href="#DejaVuSans-6f" x="561.970703"/>
      <use xlink:href="#DejaVuSans-41" x="623.152344"/>
      <use xlink:href="#DejaVuSans-30" x="691.560547"/>
      <use xlink:href="#DejaVuSans-5f" x="755.183594"/>
      <use xlink:href="#DejaVuSans-55" x="805.183594"/>
      <use xlink:href="#DejaVuSans-79" x="878.376953"/>
     </g>
    </g>
    <g id="line2d_38">
     <path d="M 117 260.087813 
L 127 260.087813 
L 137 260.087813 
" style="fill: none; stroke-dasharray: 9.6,2.4,1.5,2.4; stroke-dashoffset: 0; stroke: #2ca02c; stroke-width: 1.5"/>
    </g>
    <g id="text_18">
     <!-- Navy140_AoA0_Uz -->
     <g transform="translate(145 263.587813) scale(0.1 -0.1)">
      <defs>
       <path id="DejaVuSans-7a" d="M 353 3500 
L 3084 3500 
L 3084 2975 
L 922 459 
L 3084 459 
L 3084 0 
L 275 0 
L 275 525 
L 2438 3041 
L 353 3041 
L 353 3500 
z
" transform="scale(0.015625)"/>
      </defs>
      <use xlink:href="#DejaVuSans-4e"/>
      <use xlink:href="#DejaVuSans-61" x="74.804688"/>
      <use xlink:href="#DejaVuSans-76" x="136.083984"/>
      <use xlink:href="#DejaVuSans-79" x="195.263672"/>
      <use xlink:href="#DejaVuSans-31" x="254.443359"/>
      <use xlink:href="#DejaVuSans-34" x="318.066406"/>
      <use xlink:href="#DejaVuSans-30" x="381.689453"/>
      <use xlink:href="#DejaVuSans-5f" x="445.3125"/>
      <use xlink:href="#DejaVuSans-41" x="495.3125"/>
      <use xlink:href="#DejaVuSans-6f" x="561.970703"/>
      <use xlink:href="#DejaVuSans-41" x="623.152344"/>
      <use xlink:href="#DejaVuSans-30" x="691.560547"/>
      <use xlink:href="#DejaVuSans-5f" x="755.183594"/>
      <use xlink:href="#DejaVuSans-55" x="805.183594"/>
      <use xlink:href="#DejaVuSans-7a" x="878.376953"/>
     </g>
    </g>
    <g id="line2d_39">
     <path d="M 117 275.044062 
L 127 275.044062 
L 137 275.044062 
" style="fill: none; stroke: #d62728; stroke-width: 1.5; stroke-linecap: square"/>
    </g>
    <g id="text_19">
     <!-- Navy140_AoA+4_Ux -->
     <g transform="translate(145 278.544062) scale(0.1 -0.1)">
      <defs>
       <path id="DejaVuSans-2b" d="M 2944 4013 
L 2944 2272 
L 4684 2272 
L 4684 1741 
L 2944 1741 
L 2944 0 
L 2419 0 
L 2419 1741 
L 678 1741 
L 678 2272 
L 2419 2272 
L 2419 4013 
L 2944 4013 
z
" transform="scale(0.015625)"/>
      </defs>
      <use xlink:href="#DejaVuSans-4e"/>
      <use xlink:href="#DejaVuSans-61" x="74.804688"/>
      <use xlink:href="#DejaVuSans-76" x="136.083984"/>
      <use xlink:href="#DejaVuSans-79" x="195.263672"/>
      <use xlink:href="#DejaVuSans-31" x="254.443359"/>
      <use xlink:href="#DejaVuSans-34" x="318.066406"/>
      <use xlink:href="#DejaVuSans-30" x="381.689453"/>
      <use xlink:href="#DejaVuSans-5f" x="445.3125"/>
      <use xlink:href="#DejaVuSans-41" x="495.3125"/>
      <use xlink:href="#DejaVuSans-6f" x="561.970703"/>
      <use xlink:href="#DejaVuSans-41" x="623.152344"/>
      <use xlink:href="#DejaVuSans-2b" x="691.560547"/>
      <use xlink:href="#DejaVuSans-34" x="775.349609"/>
      <use xlink:href="#DejaVuSans-5f" x="838.972656"/>
      <use xlink:href="#DejaVuSans-55" x="888.972656"/>
      <use xlink:href="#DejaVuSans-78" x="962.166016"/>
     </g>
    </g>
    <g id="line2d_40">
     <path d="M 117 290.000313 
L 127 290.000313 
L 137 290.000313 
" style="fill: none; stroke-dasharray: 5.55,2.4; stroke-dashoffset: 0; stroke: #9467bd; stroke-width: 1.5"/>
    </g>
    <g id="text_20">
     <!-- Navy140_AoA+4_Uy -->
     <g transform="translate(145 293.500313) scale(0.1 -0.1)">
      <use xlink:href="#DejaVuSans-4e"/>
      <use xlink:href="#DejaVuSans-61" x="74.804688"/>
      <use xlink:href="#DejaVuSans-76" x="136.083984"/>
      <use xlink:href="#DejaVuSans-79" x="195.263672"/>
      <use xlink:href="#DejaVuSans-31" x="254.443359"/>
      <use xlink:href="#DejaVuSans-34" x="318.066406"/>
      <use xlink:href="#DejaVuSans-30" x="381.689453"/>
      <use xlink:href="#DejaVuSans-5f" x="445.3125"/>
      <use xlink:href="#DejaVuSans-41" x="495.3125"/>
      <use xlink:href="#DejaVuSans-6f" x="561.970703"/>
      <use xlink:href="#DejaVuSans-41" x="623.152344"/>
      <use xlink:href="#DejaVuSans-2b" x="691.560547"/>
      <use xlink:href="#DejaVuSans-34" x="775.349609"/>
      <use xlink:href="#DejaVuSans-5f" x="838.972656"/>
      <use xlink:href="#DejaVuSans-55" x="888.972656"/>
      <use xlink:href="#DejaVuSans-79" x="962.166016"/>
     </g>
    </g>
    <g id="line2d_41">
     <path d="M 117 304.956563 
L 127 304.956563 
L 137 304.956563 
" style="fill: none; stroke-dasharray: 9.6,2.4,1.5,2.4; stroke-dashoffset: 0; stroke: #8c564b; stroke-width: 1.5"/>
    </g>
    <g id="text_21">
     <!-- Navy140_AoA+4_Uz -->
     <g transform="translate(145 308.456563) scale(0.1 -0.1)">
      <use xlink:href="#DejaVuSans-4e"/>
      <use xlink:href="#DejaVuSans-61" x="74.804688"/>
      <use xlink:href="#DejaVuSans-76" x="136.083984"/>
      <use xlink:href="#DejaVuSans-79" x="195.263672"/>
      <use xlink:href="#DejaVuSans-31" x="254.443359"/>
      <use xlink:href="#DejaVuSans-34" x="318.066406"/>
      <use xlink:href="#DejaVuSans-30" x="381.689453"/>
      <use xlink:href="#DejaVuSans-5f" x="445.3125"/>
      <use xlink:href="#DejaVuSans-41" x="495.3125"/>
      <use xlink:href="#DejaVuSans-6f" x="561.970703"/>
      <use xlink:href="#DejaVuSans-41" x="623.152344"/>
      <use xlink:href="#DejaVuSans-2b" x="691.560547"/>
      <use xlink:href="#DejaVuSans-34" x="775.349609"/>
      <use xlink:href="#DejaVuSans-5f" x="838.972656"/>
      <use xlink:href="#DejaVuSans-55" x="888.972656"/>
      <use xlink:href="#DejaVuSans-7a" x="962.166016"/>
     </g>
    </g>
    <g id="line2d_42">
     <path d="M 117 319.912813 
L 127 319.912813 
L 137 319.912813 
" style="fill: none; stroke: #e377c2; stroke-width: 1.5; stroke-linecap: square"/>
    </g>
    <g id="text_22">
     <!-- Navy140_AoA-4_Ux -->
     <g transform="translate(145 323.412813) scale(0.1 -0.1)">
      <defs>
       <path id="DejaVuSans-2d" d="M 313 2009 
L 1997 2009 
L 1997 1497 
L 313 1497 
L 313 2009 
z
" transform="scale(0.015625)"/>
      </defs>
      <use xlink:href="#DejaVuSans-4e"/>
      <use xlink:href="#DejaVuSans-61" x="74.804688"/>
      <use xlink:href="#DejaVuSans-76" x="136.083984"/>
      <use xlink:href="#DejaVuSans-79" x="195.263672"/>
      <use xlink:href="#DejaVuSans-31" x="254.443359"/>
      <use xlink:href="#DejaVuSans-34" x="318.066406"/>
      <use xlink:href="#DejaVuSans-30" x="381.689453"/>
      <use xlink:href="#DejaVuSans-5f" x="445.3125"/>
      <use xlink:href="#DejaVuSans-41" x="495.3125"/>
      <use xlink:href="#DejaVuSans-6f" x="561.970703"/>
      <use xlink:href="#DejaVuSans-41" x="623.152344"/>
      <use xlink:href="#DejaVuSans-2d" x="689.310547"/>
      <use xlink:href="#DejaVuSans-34" x="725.394531"/>
      <use xlink:href="#DejaVuSans-5f" x="789.017578"/>
      <use xlink:href="#DejaVuSans-55" x="839.017578"/>
      <use xlink:href="#DejaVuSans-78" x="912.210938"/>
     </g>
    </g>
    <g id="line2d_43">
     <path d="M 117 334.869063 
L 127 334.869063 
L 137 334.869063 
" style="fill: none; stroke-dasharray: 5.55,2.4; stroke-dashoffset: 0; stroke: #7f7f7f; stroke-width: 1.5"/>
    </g>
    <g id="text_23">
     <!-- Navy140_AoA-4_Uy -->
     <g transform="translate(145 338.369063) scale(0.1 -0.1)">
      <use xlink:href="#DejaVuSans-4e"/>
      <use xlink:href="#DejaVuSans-61" x="74.804688"/>
      <use xlink:href="#DejaVuSans-76" x="136.083984"/>
      <use xlink:href="#DejaVuSans-79" x="195.263672"/>
      <use xlink:href="#DejaVuSans-31" x="254.443359"/>
      <use xlink:href="#DejaVuSans-34" x="318.066406"/>
      <use xlink:href="#DejaVuSans-30" x="381.689453"/>
      <use xlink:href="#DejaVuSans-5f" x="445.3125"/>
      <use xlink:href="#DejaVuSans-41" x="495.3125"/>
      <use xlink:href="#DejaVuSans-6f" x="561.970703"/>
      <use xlink:href="#DejaVuSans-41" x="623.152344"/>
      <use xlink:href="#DejaVuSans-2d" x="689.310547"/>
      <use xlink:href="#DejaVuSans-34" x="725.394531"/>
      <use xlink:href="#DejaVuSans-5f" x="789.017578"/>
      <use xlink:href="#DejaVuSans-55" x="839.017578"/>
      <use xlink:href="#DejaVuSans-79" x="912.210938"/>
     </g>
    </g>
    <g id="line2d_44">
     <path d="M 117 349.825312 
L 127 349.825312 
L 137 349.825312 
" style="fill: none; stroke-dasharray: 9.6,2.4,1.5,2.4; stroke-dashoffset: 0; stroke: #bcbd22; stroke-width: 1.5"/>
    </g>
    <g id="text_24">
     <!-- Navy140_AoA-4_Uz -->
     <g transform="translate(145 353.325312) scale(0.1 -0.1)">
      <use xlink:href="#DejaVuSans-4e"/>
      <use xlink:href="#DejaVuSans-61" x="74.804688"/>
      <use xlink:href="#DejaVuSans-76" x="136.083984"/>
      <use xlink:href="#DejaVuSans-79" x="195.263672"/>
      <use xlink:href="#DejaVuSans-31" x="254.443359"/>
      <use xlink:href="#DejaVuSans-34" x="318.066406"/>
      <use xlink:href="#DejaVuSans-30" x="381.689453"/>
      <use xlink:href="#DejaVuSans-5f" x="445.3125"/>
      <use xlink:href="#DejaVuSans-41" x="495.3125"/>
      <use xlink:href="#DejaVuSans-6f" x="561.970703"/>
      <use xlink:href="#DejaVuSans-41" x="623.152344"/>
      <use xlink:href="#DejaVuSans-2d" x="689.310547"/>
      <use xlink:href="#DejaVuSans-34" x="725.394531"/>
      <use xlink:href="#DejaVuSans-5f" x="789.017578"/>
      <use xlink:href="#DejaVuSans-55" x="839.017578"/>
      <use xlink:href="#DejaVuSans-7a" x="912.210938"/>
     </g>
    </g>
   </g>
  </g>
 </g>
 <defs>
  <clipPath id="p8f55171996">
   <rect x="108" y="69.12" width="669.6" height="443.52"/>
  </clipPath>
 </defs>
</svg>
