<?xml version="1.0" encoding="utf-8" standalone="no"?>
<!DOCTYPE svg PUBLIC "-//W3C//DTD SVG 1.1//EN"
  "http://www.w3.org/Graphics/SVG/1.1/DTD/svg11.dtd">
<svg xmlns:xlink="http://www.w3.org/1999/xlink" width="864pt" height="576pt" viewBox="0 0 864 576" xmlns="http://www.w3.org/2000/svg" version="1.1">
 <metadata>
  <rdf:RDF xmlns:dc="http://purl.org/dc/elements/1.1/" xmlns:cc="http://creativecommons.org/ns#" xmlns:rdf="http://www.w3.org/1999/02/22-rdf-syntax-ns#">
   <cc:Work>
    <dc:type rdf:resource="http://purl.org/dc/dcmitype/StillImage"/>
    <dc:date>2023-06-04T17:56:11.393235</dc:date>
    <dc:format>image/svg+xml</dc:format>
    <dc:creator>
     <cc:Agent>
      <dc:title>Matplotlib v3.6.3, https://matplotlib.org/</dc:title>
     </cc:Agent>
    </dc:creator>
   </cc:Work>
  </rdf:RDF>
 </metadata>
 <defs>
  <style type="text/css">*{stroke-linejoin: round; stroke-linecap: butt}</style>
 </defs>
 <g id="figure_1">
  <g id="patch_1">
   <path d="M 0 576 
L 864 576 
L 864 0 
L 0 0 
z
" style="fill: #ffffff"/>
  </g>
  <g id="axes_1">
   <g id="patch_2">
    <path d="M 108 512.64 
L 777.6 512.64 
L 777.6 69.12 
L 108 69.12 
z
" style="fill: #ffffff"/>
   </g>
   <g id="matplotlib.axis_1">
    <g id="xtick_1">
     <g id="line2d_1">
      <path d="M 219.158764 512.64 
L 219.158764 69.12 
" clip-path="url(#p40cbc9aa6d)" style="fill: none; stroke: #b0b0b0; stroke-width: 0.8; stroke-linecap: square"/>
     </g>
     <g id="line2d_2">
      <defs>
       <path id="m7622309b55" d="M 0 0 
L 0 3.5 
" style="stroke: #000000; stroke-width: 0.8"/>
      </defs>
      <g>
       <use xlink:href="#m7622309b55" x="219.158764" y="512.64" style="stroke: #000000; stroke-width: 0.8"/>
      </g>
     </g>
     <g id="text_1">
      <!-- −0.8 -->
      <g transform="translate(207.017358 527.238438) scale(0.1 -0.1)">
       <defs>
        <path id="DejaVuSans-2212" d="M 678 2272 
L 4684 2272 
L 4684 1741 
L 678 1741 
L 678 2272 
z
" transform="scale(0.015625)"/>
        <path id="DejaVuSans-30" d="M 2034 4250 
Q 1547 4250 1301 3770 
Q 1056 3291 1056 2328 
Q 1056 1369 1301 889 
Q 1547 409 2034 409 
Q 2525 409 2770 889 
Q 3016 1369 3016 2328 
Q 3016 3291 2770 3770 
Q 2525 4250 2034 4250 
z
M 2034 4750 
Q 2819 4750 3233 4129 
Q 3647 3509 3647 2328 
Q 3647 1150 3233 529 
Q 2819 -91 2034 -91 
Q 1250 -91 836 529 
Q 422 1150 422 2328 
Q 422 3509 836 4129 
Q 1250 4750 2034 4750 
z
" transform="scale(0.015625)"/>
        <path id="DejaVuSans-2e" d="M 684 794 
L 1344 794 
L 1344 0 
L 684 0 
L 684 794 
z
" transform="scale(0.015625)"/>
        <path id="DejaVuSans-38" d="M 2034 2216 
Q 1584 2216 1326 1975 
Q 1069 1734 1069 1313 
Q 1069 891 1326 650 
Q 1584 409 2034 409 
Q 2484 409 2743 651 
Q 3003 894 3003 1313 
Q 3003 1734 2745 1975 
Q 2488 2216 2034 2216 
z
M 1403 2484 
Q 997 2584 770 2862 
Q 544 3141 544 3541 
Q 544 4100 942 4425 
Q 1341 4750 2034 4750 
Q 2731 4750 3128 4425 
Q 3525 4100 3525 3541 
Q 3525 3141 3298 2862 
Q 3072 2584 2669 2484 
Q 3125 2378 3379 2068 
Q 3634 1759 3634 1313 
Q 3634 634 3220 271 
Q 2806 -91 2034 -91 
Q 1263 -91 848 271 
Q 434 634 434 1313 
Q 434 1759 690 2068 
Q 947 2378 1403 2484 
z
M 1172 3481 
Q 1172 3119 1398 2916 
Q 1625 2713 2034 2713 
Q 2441 2713 2670 2916 
Q 2900 3119 2900 3481 
Q 2900 3844 2670 4047 
Q 2441 4250 2034 4250 
Q 1625 4250 1398 4047 
Q 1172 3844 1172 3481 
z
" transform="scale(0.015625)"/>
       </defs>
       <use xlink:href="#DejaVuSans-2212"/>
       <use xlink:href="#DejaVuSans-30" x="83.789062"/>
       <use xlink:href="#DejaVuSans-2e" x="147.412109"/>
       <use xlink:href="#DejaVuSans-38" x="179.199219"/>
      </g>
     </g>
    </g>
    <g id="xtick_2">
     <g id="line2d_3">
      <path d="M 351.4908 512.64 
L 351.4908 69.12 
" clip-path="url(#p40cbc9aa6d)" style="fill: none; stroke: #b0b0b0; stroke-width: 0.8; stroke-linecap: square"/>
     </g>
     <g id="line2d_4">
      <g>
       <use xlink:href="#m7622309b55" x="351.4908" y="512.64" style="stroke: #000000; stroke-width: 0.8"/>
      </g>
     </g>
     <g id="text_2">
      <!-- −0.6 -->
      <g transform="translate(339.349393 527.238438) scale(0.1 -0.1)">
       <defs>
        <path id="DejaVuSans-36" d="M 2113 2584 
Q 1688 2584 1439 2293 
Q 1191 2003 1191 1497 
Q 1191 994 1439 701 
Q 1688 409 2113 409 
Q 2538 409 2786 701 
Q 3034 994 3034 1497 
Q 3034 2003 2786 2293 
Q 2538 2584 2113 2584 
z
M 3366 4563 
L 3366 3988 
Q 3128 4100 2886 4159 
Q 2644 4219 2406 4219 
Q 1781 4219 1451 3797 
Q 1122 3375 1075 2522 
Q 1259 2794 1537 2939 
Q 1816 3084 2150 3084 
Q 2853 3084 3261 2657 
Q 3669 2231 3669 1497 
Q 3669 778 3244 343 
Q 2819 -91 2113 -91 
Q 1303 -91 875 529 
Q 447 1150 447 2328 
Q 447 3434 972 4092 
Q 1497 4750 2381 4750 
Q 2619 4750 2861 4703 
Q 3103 4656 3366 4563 
z
" transform="scale(0.015625)"/>
       </defs>
       <use xlink:href="#DejaVuSans-2212"/>
       <use xlink:href="#DejaVuSans-30" x="83.789062"/>
       <use xlink:href="#DejaVuSans-2e" x="147.412109"/>
       <use xlink:href="#DejaVuSans-36" x="179.199219"/>
      </g>
     </g>
    </g>
    <g id="xtick_3">
     <g id="line2d_5">
      <path d="M 483.822835 512.64 
L 483.822835 69.12 
" clip-path="url(#p40cbc9aa6d)" style="fill: none; stroke: #b0b0b0; stroke-width: 0.8; stroke-linecap: square"/>
     </g>
     <g id="line2d_6">
      <g>
       <use xlink:href="#m7622309b55" x="483.822835" y="512.64" style="stroke: #000000; stroke-width: 0.8"/>
      </g>
     </g>
     <g id="text_3">
      <!-- −0.4 -->
      <g transform="translate(471.681429 527.238438) scale(0.1 -0.1)">
       <defs>
        <path id="DejaVuSans-34" d="M 2419 4116 
L 825 1625 
L 2419 1625 
L 2419 4116 
z
M 2253 4666 
L 3047 4666 
L 3047 1625 
L 3713 1625 
L 3713 1100 
L 3047 1100 
L 3047 0 
L 2419 0 
L 2419 1100 
L 313 1100 
L 313 1709 
L 2253 4666 
z
" transform="scale(0.015625)"/>
       </defs>
       <use xlink:href="#DejaVuSans-2212"/>
       <use xlink:href="#DejaVuSans-30" x="83.789062"/>
       <use xlink:href="#DejaVuSans-2e" x="147.412109"/>
       <use xlink:href="#DejaVuSans-34" x="179.199219"/>
      </g>
     </g>
    </g>
    <g id="xtick_4">
     <g id="line2d_7">
      <path d="M 616.154871 512.64 
L 616.154871 69.12 
" clip-path="url(#p40cbc9aa6d)" style="fill: none; stroke: #b0b0b0; stroke-width: 0.8; stroke-linecap: square"/>
     </g>
     <g id="line2d_8">
      <g>
       <use xlink:href="#m7622309b55" x="616.154871" y="512.64" style="stroke: #000000; stroke-width: 0.8"/>
      </g>
     </g>
     <g id="text_4">
      <!-- −0.2 -->
      <g transform="translate(604.013464 527.238438) scale(0.1 -0.1)">
       <defs>
        <path id="DejaVuSans-32" d="M 1228 531 
L 3431 531 
L 3431 0 
L 469 0 
L 469 531 
Q 828 903 1448 1529 
Q 2069 2156 2228 2338 
Q 2531 2678 2651 2914 
Q 2772 3150 2772 3378 
Q 2772 3750 2511 3984 
Q 2250 4219 1831 4219 
Q 1534 4219 1204 4116 
Q 875 4013 500 3803 
L 500 4441 
Q 881 4594 1212 4672 
Q 1544 4750 1819 4750 
Q 2544 4750 2975 4387 
Q 3406 4025 3406 3419 
Q 3406 3131 3298 2873 
Q 3191 2616 2906 2266 
Q 2828 2175 2409 1742 
Q 1991 1309 1228 531 
z
" transform="scale(0.015625)"/>
       </defs>
       <use xlink:href="#DejaVuSans-2212"/>
       <use xlink:href="#DejaVuSans-30" x="83.789062"/>
       <use xlink:href="#DejaVuSans-2e" x="147.412109"/>
       <use xlink:href="#DejaVuSans-32" x="179.199219"/>
      </g>
     </g>
    </g>
    <g id="xtick_5">
     <g id="line2d_9">
      <path d="M 748.486906 512.64 
L 748.486906 69.12 
" clip-path="url(#p40cbc9aa6d)" style="fill: none; stroke: #b0b0b0; stroke-width: 0.8; stroke-linecap: square"/>
     </g>
     <g id="line2d_10">
      <g>
       <use xlink:href="#m7622309b55" x="748.486906" y="512.64" style="stroke: #000000; stroke-width: 0.8"/>
      </g>
     </g>
     <g id="text_5">
      <!-- 0.0 -->
      <g transform="translate(740.535344 527.238438) scale(0.1 -0.1)">
       <use xlink:href="#DejaVuSans-30"/>
       <use xlink:href="#DejaVuSans-2e" x="63.623047"/>
       <use xlink:href="#DejaVuSans-30" x="95.410156"/>
      </g>
     </g>
    </g>
    <g id="text_6">
     <!-- Distance from Cloud Droplet Probe Sample Volume [m] -->
     <g transform="translate(305.148438 540.916563) scale(0.1 -0.1)">
      <defs>
       <path id="DejaVuSans-44" d="M 1259 4147 
L 1259 519 
L 2022 519 
Q 2988 519 3436 956 
Q 3884 1394 3884 2338 
Q 3884 3275 3436 3711 
Q 2988 4147 2022 4147 
L 1259 4147 
z
M 628 4666 
L 1925 4666 
Q 3281 4666 3915 4102 
Q 4550 3538 4550 2338 
Q 4550 1131 3912 565 
Q 3275 0 1925 0 
L 628 0 
L 628 4666 
z
" transform="scale(0.015625)"/>
       <path id="DejaVuSans-69" d="M 603 3500 
L 1178 3500 
L 1178 0 
L 603 0 
L 603 3500 
z
M 603 4863 
L 1178 4863 
L 1178 4134 
L 603 4134 
L 603 4863 
z
" transform="scale(0.015625)"/>
       <path id="DejaVuSans-73" d="M 2834 3397 
L 2834 2853 
Q 2591 2978 2328 3040 
Q 2066 3103 1784 3103 
Q 1356 3103 1142 2972 
Q 928 2841 928 2578 
Q 928 2378 1081 2264 
Q 1234 2150 1697 2047 
L 1894 2003 
Q 2506 1872 2764 1633 
Q 3022 1394 3022 966 
Q 3022 478 2636 193 
Q 2250 -91 1575 -91 
Q 1294 -91 989 -36 
Q 684 19 347 128 
L 347 722 
Q 666 556 975 473 
Q 1284 391 1588 391 
Q 1994 391 2212 530 
Q 2431 669 2431 922 
Q 2431 1156 2273 1281 
Q 2116 1406 1581 1522 
L 1381 1569 
Q 847 1681 609 1914 
Q 372 2147 372 2553 
Q 372 3047 722 3315 
Q 1072 3584 1716 3584 
Q 2034 3584 2315 3537 
Q 2597 3491 2834 3397 
z
" transform="scale(0.015625)"/>
       <path id="DejaVuSans-74" d="M 1172 4494 
L 1172 3500 
L 2356 3500 
L 2356 3053 
L 1172 3053 
L 1172 1153 
Q 1172 725 1289 603 
Q 1406 481 1766 481 
L 2356 481 
L 2356 0 
L 1766 0 
Q 1100 0 847 248 
Q 594 497 594 1153 
L 594 3053 
L 172 3053 
L 172 3500 
L 594 3500 
L 594 4494 
L 1172 4494 
z
" transform="scale(0.015625)"/>
       <path id="DejaVuSans-61" d="M 2194 1759 
Q 1497 1759 1228 1600 
Q 959 1441 959 1056 
Q 959 750 1161 570 
Q 1363 391 1709 391 
Q 2188 391 2477 730 
Q 2766 1069 2766 1631 
L 2766 1759 
L 2194 1759 
z
M 3341 1997 
L 3341 0 
L 2766 0 
L 2766 531 
Q 2569 213 2275 61 
Q 1981 -91 1556 -91 
Q 1019 -91 701 211 
Q 384 513 384 1019 
Q 384 1609 779 1909 
Q 1175 2209 1959 2209 
L 2766 2209 
L 2766 2266 
Q 2766 2663 2505 2880 
Q 2244 3097 1772 3097 
Q 1472 3097 1187 3025 
Q 903 2953 641 2809 
L 641 3341 
Q 956 3463 1253 3523 
Q 1550 3584 1831 3584 
Q 2591 3584 2966 3190 
Q 3341 2797 3341 1997 
z
" transform="scale(0.015625)"/>
       <path id="DejaVuSans-6e" d="M 3513 2113 
L 3513 0 
L 2938 0 
L 2938 2094 
Q 2938 2591 2744 2837 
Q 2550 3084 2163 3084 
Q 1697 3084 1428 2787 
Q 1159 2491 1159 1978 
L 1159 0 
L 581 0 
L 581 3500 
L 1159 3500 
L 1159 2956 
Q 1366 3272 1645 3428 
Q 1925 3584 2291 3584 
Q 2894 3584 3203 3211 
Q 3513 2838 3513 2113 
z
" transform="scale(0.015625)"/>
       <path id="DejaVuSans-63" d="M 3122 3366 
L 3122 2828 
Q 2878 2963 2633 3030 
Q 2388 3097 2138 3097 
Q 1578 3097 1268 2742 
Q 959 2388 959 1747 
Q 959 1106 1268 751 
Q 1578 397 2138 397 
Q 2388 397 2633 464 
Q 2878 531 3122 666 
L 3122 134 
Q 2881 22 2623 -34 
Q 2366 -91 2075 -91 
Q 1284 -91 818 406 
Q 353 903 353 1747 
Q 353 2603 823 3093 
Q 1294 3584 2113 3584 
Q 2378 3584 2631 3529 
Q 2884 3475 3122 3366 
z
" transform="scale(0.015625)"/>
       <path id="DejaVuSans-65" d="M 3597 1894 
L 3597 1613 
L 953 1613 
Q 991 1019 1311 708 
Q 1631 397 2203 397 
Q 2534 397 2845 478 
Q 3156 559 3463 722 
L 3463 178 
Q 3153 47 2828 -22 
Q 2503 -91 2169 -91 
Q 1331 -91 842 396 
Q 353 884 353 1716 
Q 353 2575 817 3079 
Q 1281 3584 2069 3584 
Q 2775 3584 3186 3129 
Q 3597 2675 3597 1894 
z
M 3022 2063 
Q 3016 2534 2758 2815 
Q 2500 3097 2075 3097 
Q 1594 3097 1305 2825 
Q 1016 2553 972 2059 
L 3022 2063 
z
" transform="scale(0.015625)"/>
       <path id="DejaVuSans-20" transform="scale(0.015625)"/>
       <path id="DejaVuSans-66" d="M 2375 4863 
L 2375 4384 
L 1825 4384 
Q 1516 4384 1395 4259 
Q 1275 4134 1275 3809 
L 1275 3500 
L 2222 3500 
L 2222 3053 
L 1275 3053 
L 1275 0 
L 697 0 
L 697 3053 
L 147 3053 
L 147 3500 
L 697 3500 
L 697 3744 
Q 697 4328 969 4595 
Q 1241 4863 1831 4863 
L 2375 4863 
z
" transform="scale(0.015625)"/>
       <path id="DejaVuSans-72" d="M 2631 2963 
Q 2534 3019 2420 3045 
Q 2306 3072 2169 3072 
Q 1681 3072 1420 2755 
Q 1159 2438 1159 1844 
L 1159 0 
L 581 0 
L 581 3500 
L 1159 3500 
L 1159 2956 
Q 1341 3275 1631 3429 
Q 1922 3584 2338 3584 
Q 2397 3584 2469 3576 
Q 2541 3569 2628 3553 
L 2631 2963 
z
" transform="scale(0.015625)"/>
       <path id="DejaVuSans-6f" d="M 1959 3097 
Q 1497 3097 1228 2736 
Q 959 2375 959 1747 
Q 959 1119 1226 758 
Q 1494 397 1959 397 
Q 2419 397 2687 759 
Q 2956 1122 2956 1747 
Q 2956 2369 2687 2733 
Q 2419 3097 1959 3097 
z
M 1959 3584 
Q 2709 3584 3137 3096 
Q 3566 2609 3566 1747 
Q 3566 888 3137 398 
Q 2709 -91 1959 -91 
Q 1206 -91 779 398 
Q 353 888 353 1747 
Q 353 2609 779 3096 
Q 1206 3584 1959 3584 
z
" transform="scale(0.015625)"/>
       <path id="DejaVuSans-6d" d="M 3328 2828 
Q 3544 3216 3844 3400 
Q 4144 3584 4550 3584 
Q 5097 3584 5394 3201 
Q 5691 2819 5691 2113 
L 5691 0 
L 5113 0 
L 5113 2094 
Q 5113 2597 4934 2840 
Q 4756 3084 4391 3084 
Q 3944 3084 3684 2787 
Q 3425 2491 3425 1978 
L 3425 0 
L 2847 0 
L 2847 2094 
Q 2847 2600 2669 2842 
Q 2491 3084 2119 3084 
Q 1678 3084 1418 2786 
Q 1159 2488 1159 1978 
L 1159 0 
L 581 0 
L 581 3500 
L 1159 3500 
L 1159 2956 
Q 1356 3278 1631 3431 
Q 1906 3584 2284 3584 
Q 2666 3584 2933 3390 
Q 3200 3197 3328 2828 
z
" transform="scale(0.015625)"/>
       <path id="DejaVuSans-43" d="M 4122 4306 
L 4122 3641 
Q 3803 3938 3442 4084 
Q 3081 4231 2675 4231 
Q 1875 4231 1450 3742 
Q 1025 3253 1025 2328 
Q 1025 1406 1450 917 
Q 1875 428 2675 428 
Q 3081 428 3442 575 
Q 3803 722 4122 1019 
L 4122 359 
Q 3791 134 3420 21 
Q 3050 -91 2638 -91 
Q 1578 -91 968 557 
Q 359 1206 359 2328 
Q 359 3453 968 4101 
Q 1578 4750 2638 4750 
Q 3056 4750 3426 4639 
Q 3797 4528 4122 4306 
z
" transform="scale(0.015625)"/>
       <path id="DejaVuSans-6c" d="M 603 4863 
L 1178 4863 
L 1178 0 
L 603 0 
L 603 4863 
z
" transform="scale(0.015625)"/>
       <path id="DejaVuSans-75" d="M 544 1381 
L 544 3500 
L 1119 3500 
L 1119 1403 
Q 1119 906 1312 657 
Q 1506 409 1894 409 
Q 2359 409 2629 706 
Q 2900 1003 2900 1516 
L 2900 3500 
L 3475 3500 
L 3475 0 
L 2900 0 
L 2900 538 
Q 2691 219 2414 64 
Q 2138 -91 1772 -91 
Q 1169 -91 856 284 
Q 544 659 544 1381 
z
M 1991 3584 
L 1991 3584 
z
" transform="scale(0.015625)"/>
       <path id="DejaVuSans-64" d="M 2906 2969 
L 2906 4863 
L 3481 4863 
L 3481 0 
L 2906 0 
L 2906 525 
Q 2725 213 2448 61 
Q 2172 -91 1784 -91 
Q 1150 -91 751 415 
Q 353 922 353 1747 
Q 353 2572 751 3078 
Q 1150 3584 1784 3584 
Q 2172 3584 2448 3432 
Q 2725 3281 2906 2969 
z
M 947 1747 
Q 947 1113 1208 752 
Q 1469 391 1925 391 
Q 2381 391 2643 752 
Q 2906 1113 2906 1747 
Q 2906 2381 2643 2742 
Q 2381 3103 1925 3103 
Q 1469 3103 1208 2742 
Q 947 2381 947 1747 
z
" transform="scale(0.015625)"/>
       <path id="DejaVuSans-70" d="M 1159 525 
L 1159 -1331 
L 581 -1331 
L 581 3500 
L 1159 3500 
L 1159 2969 
Q 1341 3281 1617 3432 
Q 1894 3584 2278 3584 
Q 2916 3584 3314 3078 
Q 3713 2572 3713 1747 
Q 3713 922 3314 415 
Q 2916 -91 2278 -91 
Q 1894 -91 1617 61 
Q 1341 213 1159 525 
z
M 3116 1747 
Q 3116 2381 2855 2742 
Q 2594 3103 2138 3103 
Q 1681 3103 1420 2742 
Q 1159 2381 1159 1747 
Q 1159 1113 1420 752 
Q 1681 391 2138 391 
Q 2594 391 2855 752 
Q 3116 1113 3116 1747 
z
" transform="scale(0.015625)"/>
       <path id="DejaVuSans-50" d="M 1259 4147 
L 1259 2394 
L 2053 2394 
Q 2494 2394 2734 2622 
Q 2975 2850 2975 3272 
Q 2975 3691 2734 3919 
Q 2494 4147 2053 4147 
L 1259 4147 
z
M 628 4666 
L 2053 4666 
Q 2838 4666 3239 4311 
Q 3641 3956 3641 3272 
Q 3641 2581 3239 2228 
Q 2838 1875 2053 1875 
L 1259 1875 
L 1259 0 
L 628 0 
L 628 4666 
z
" transform="scale(0.015625)"/>
       <path id="DejaVuSans-62" d="M 3116 1747 
Q 3116 2381 2855 2742 
Q 2594 3103 2138 3103 
Q 1681 3103 1420 2742 
Q 1159 2381 1159 1747 
Q 1159 1113 1420 752 
Q 1681 391 2138 391 
Q 2594 391 2855 752 
Q 3116 1113 3116 1747 
z
M 1159 2969 
Q 1341 3281 1617 3432 
Q 1894 3584 2278 3584 
Q 2916 3584 3314 3078 
Q 3713 2572 3713 1747 
Q 3713 922 3314 415 
Q 2916 -91 2278 -91 
Q 1894 -91 1617 61 
Q 1341 213 1159 525 
L 1159 0 
L 581 0 
L 581 4863 
L 1159 4863 
L 1159 2969 
z
" transform="scale(0.015625)"/>
       <path id="DejaVuSans-53" d="M 3425 4513 
L 3425 3897 
Q 3066 4069 2747 4153 
Q 2428 4238 2131 4238 
Q 1616 4238 1336 4038 
Q 1056 3838 1056 3469 
Q 1056 3159 1242 3001 
Q 1428 2844 1947 2747 
L 2328 2669 
Q 3034 2534 3370 2195 
Q 3706 1856 3706 1288 
Q 3706 609 3251 259 
Q 2797 -91 1919 -91 
Q 1588 -91 1214 -16 
Q 841 59 441 206 
L 441 856 
Q 825 641 1194 531 
Q 1563 422 1919 422 
Q 2459 422 2753 634 
Q 3047 847 3047 1241 
Q 3047 1584 2836 1778 
Q 2625 1972 2144 2069 
L 1759 2144 
Q 1053 2284 737 2584 
Q 422 2884 422 3419 
Q 422 4038 858 4394 
Q 1294 4750 2059 4750 
Q 2388 4750 2728 4690 
Q 3069 4631 3425 4513 
z
" transform="scale(0.015625)"/>
       <path id="DejaVuSans-56" d="M 1831 0 
L 50 4666 
L 709 4666 
L 2188 738 
L 3669 4666 
L 4325 4666 
L 2547 0 
L 1831 0 
z
" transform="scale(0.015625)"/>
       <path id="DejaVuSans-5b" d="M 550 4863 
L 1875 4863 
L 1875 4416 
L 1125 4416 
L 1125 -397 
L 1875 -397 
L 1875 -844 
L 550 -844 
L 550 4863 
z
" transform="scale(0.015625)"/>
       <path id="DejaVuSans-5d" d="M 1947 4863 
L 1947 -844 
L 622 -844 
L 622 -397 
L 1369 -397 
L 1369 4416 
L 622 4416 
L 622 4863 
L 1947 4863 
z
" transform="scale(0.015625)"/>
      </defs>
      <use xlink:href="#DejaVuSans-44"/>
      <use xlink:href="#DejaVuSans-69" x="77.001953"/>
      <use xlink:href="#DejaVuSans-73" x="104.785156"/>
      <use xlink:href="#DejaVuSans-74" x="156.884766"/>
      <use xlink:href="#DejaVuSans-61" x="196.09375"/>
      <use xlink:href="#DejaVuSans-6e" x="257.373047"/>
      <use xlink:href="#DejaVuSans-63" x="320.751953"/>
      <use xlink:href="#DejaVuSans-65" x="375.732422"/>
      <use xlink:href="#DejaVuSans-20" x="437.255859"/>
      <use xlink:href="#DejaVuSans-66" x="469.042969"/>
      <use xlink:href="#DejaVuSans-72" x="504.248047"/>
      <use xlink:href="#DejaVuSans-6f" x="543.111328"/>
      <use xlink:href="#DejaVuSans-6d" x="604.292969"/>
      <use xlink:href="#DejaVuSans-20" x="701.705078"/>
      <use xlink:href="#DejaVuSans-43" x="733.492188"/>
      <use xlink:href="#DejaVuSans-6c" x="803.316406"/>
      <use xlink:href="#DejaVuSans-6f" x="831.099609"/>
      <use xlink:href="#DejaVuSans-75" x="892.28125"/>
      <use xlink:href="#DejaVuSans-64" x="955.660156"/>
      <use xlink:href="#DejaVuSans-20" x="1019.136719"/>
      <use xlink:href="#DejaVuSans-44" x="1050.923828"/>
      <use xlink:href="#DejaVuSans-72" x="1127.925781"/>
      <use xlink:href="#DejaVuSans-6f" x="1166.789062"/>
      <use xlink:href="#DejaVuSans-70" x="1227.970703"/>
      <use xlink:href="#DejaVuSans-6c" x="1291.447266"/>
      <use xlink:href="#DejaVuSans-65" x="1319.230469"/>
      <use xlink:href="#DejaVuSans-74" x="1380.753906"/>
      <use xlink:href="#DejaVuSans-20" x="1419.962891"/>
      <use xlink:href="#DejaVuSans-50" x="1451.75"/>
      <use xlink:href="#DejaVuSans-72" x="1510.302734"/>
      <use xlink:href="#DejaVuSans-6f" x="1549.166016"/>
      <use xlink:href="#DejaVuSans-62" x="1610.347656"/>
      <use xlink:href="#DejaVuSans-65" x="1673.824219"/>
      <use xlink:href="#DejaVuSans-20" x="1735.347656"/>
      <use xlink:href="#DejaVuSans-53" x="1767.134766"/>
      <use xlink:href="#DejaVuSans-61" x="1830.611328"/>
      <use xlink:href="#DejaVuSans-6d" x="1891.890625"/>
      <use xlink:href="#DejaVuSans-70" x="1989.302734"/>
      <use xlink:href="#DejaVuSans-6c" x="2052.779297"/>
      <use xlink:href="#DejaVuSans-65" x="2080.5625"/>
      <use xlink:href="#DejaVuSans-20" x="2142.085938"/>
      <use xlink:href="#DejaVuSans-56" x="2173.873047"/>
      <use xlink:href="#DejaVuSans-6f" x="2234.53125"/>
      <use xlink:href="#DejaVuSans-6c" x="2295.712891"/>
      <use xlink:href="#DejaVuSans-75" x="2323.496094"/>
      <use xlink:href="#DejaVuSans-6d" x="2386.875"/>
      <use xlink:href="#DejaVuSans-65" x="2484.287109"/>
      <use xlink:href="#DejaVuSans-20" x="2545.810547"/>
      <use xlink:href="#DejaVuSans-5b" x="2577.597656"/>
      <use xlink:href="#DejaVuSans-6d" x="2616.611328"/>
      <use xlink:href="#DejaVuSans-5d" x="2714.023438"/>
     </g>
    </g>
   </g>
   <g id="matplotlib.axis_2">
    <g id="ytick_1">
     <g id="line2d_11">
      <path d="M 108 489.895385 
L 777.6 489.895385 
" clip-path="url(#p40cbc9aa6d)" style="fill: none; stroke: #b0b0b0; stroke-width: 0.8; stroke-linecap: square"/>
     </g>
     <g id="line2d_12">
      <defs>
       <path id="maa94d35235" d="M 0 0 
L -3.5 0 
" style="stroke: #000000; stroke-width: 0.8"/>
      </defs>
      <g>
       <use xlink:href="#maa94d35235" x="108" y="489.895385" style="stroke: #000000; stroke-width: 0.8"/>
      </g>
     </g>
     <g id="text_7">
      <!-- −25 -->
      <g transform="translate(79.895313 493.694603) scale(0.1 -0.1)">
       <defs>
        <path id="DejaVuSans-35" d="M 691 4666 
L 3169 4666 
L 3169 4134 
L 1269 4134 
L 1269 2991 
Q 1406 3038 1543 3061 
Q 1681 3084 1819 3084 
Q 2600 3084 3056 2656 
Q 3513 2228 3513 1497 
Q 3513 744 3044 326 
Q 2575 -91 1722 -91 
Q 1428 -91 1123 -41 
Q 819 9 494 109 
L 494 744 
Q 775 591 1075 516 
Q 1375 441 1709 441 
Q 2250 441 2565 725 
Q 2881 1009 2881 1497 
Q 2881 1984 2565 2268 
Q 2250 2553 1709 2553 
Q 1456 2553 1204 2497 
Q 953 2441 691 2322 
L 691 4666 
z
" transform="scale(0.015625)"/>
       </defs>
       <use xlink:href="#DejaVuSans-2212"/>
       <use xlink:href="#DejaVuSans-32" x="83.789062"/>
       <use xlink:href="#DejaVuSans-35" x="147.412109"/>
      </g>
     </g>
    </g>
    <g id="ytick_2">
     <g id="line2d_13">
      <path d="M 108 433.033846 
L 777.6 433.033846 
" clip-path="url(#p40cbc9aa6d)" style="fill: none; stroke: #b0b0b0; stroke-width: 0.8; stroke-linecap: square"/>
     </g>
     <g id="line2d_14">
      <g>
       <use xlink:href="#maa94d35235" x="108" y="433.033846" style="stroke: #000000; stroke-width: 0.8"/>
      </g>
     </g>
     <g id="text_8">
      <!-- 0 -->
      <g transform="translate(94.6375 436.833065) scale(0.1 -0.1)">
       <use xlink:href="#DejaVuSans-30"/>
      </g>
     </g>
    </g>
    <g id="ytick_3">
     <g id="line2d_15">
      <path d="M 108 376.172308 
L 777.6 376.172308 
" clip-path="url(#p40cbc9aa6d)" style="fill: none; stroke: #b0b0b0; stroke-width: 0.8; stroke-linecap: square"/>
     </g>
     <g id="line2d_16">
      <g>
       <use xlink:href="#maa94d35235" x="108" y="376.172308" style="stroke: #000000; stroke-width: 0.8"/>
      </g>
     </g>
     <g id="text_9">
      <!-- 25 -->
      <g transform="translate(88.275 379.971526) scale(0.1 -0.1)">
       <use xlink:href="#DejaVuSans-32"/>
       <use xlink:href="#DejaVuSans-35" x="63.623047"/>
      </g>
     </g>
    </g>
    <g id="ytick_4">
     <g id="line2d_17">
      <path d="M 108 319.310769 
L 777.6 319.310769 
" clip-path="url(#p40cbc9aa6d)" style="fill: none; stroke: #b0b0b0; stroke-width: 0.8; stroke-linecap: square"/>
     </g>
     <g id="line2d_18">
      <g>
       <use xlink:href="#maa94d35235" x="108" y="319.310769" style="stroke: #000000; stroke-width: 0.8"/>
      </g>
     </g>
     <g id="text_10">
      <!-- 50 -->
      <g transform="translate(88.275 323.109988) scale(0.1 -0.1)">
       <use xlink:href="#DejaVuSans-35"/>
       <use xlink:href="#DejaVuSans-30" x="63.623047"/>
      </g>
     </g>
    </g>
    <g id="ytick_5">
     <g id="line2d_19">
      <path d="M 108 262.449231 
L 777.6 262.449231 
" clip-path="url(#p40cbc9aa6d)" style="fill: none; stroke: #b0b0b0; stroke-width: 0.8; stroke-linecap: square"/>
     </g>
     <g id="line2d_20">
      <g>
       <use xlink:href="#maa94d35235" x="108" y="262.449231" style="stroke: #000000; stroke-width: 0.8"/>
      </g>
     </g>
     <g id="text_11">
      <!-- 75 -->
      <g transform="translate(88.275 266.24845) scale(0.1 -0.1)">
       <defs>
        <path id="DejaVuSans-37" d="M 525 4666 
L 3525 4666 
L 3525 4397 
L 1831 0 
L 1172 0 
L 2766 4134 
L 525 4134 
L 525 4666 
z
" transform="scale(0.015625)"/>
       </defs>
       <use xlink:href="#DejaVuSans-37"/>
       <use xlink:href="#DejaVuSans-35" x="63.623047"/>
      </g>
     </g>
    </g>
    <g id="ytick_6">
     <g id="line2d_21">
      <path d="M 108 205.587692 
L 777.6 205.587692 
" clip-path="url(#p40cbc9aa6d)" style="fill: none; stroke: #b0b0b0; stroke-width: 0.8; stroke-linecap: square"/>
     </g>
     <g id="line2d_22">
      <g>
       <use xlink:href="#maa94d35235" x="108" y="205.587692" style="stroke: #000000; stroke-width: 0.8"/>
      </g>
     </g>
     <g id="text_12">
      <!-- 100 -->
      <g transform="translate(81.9125 209.386911) scale(0.1 -0.1)">
       <defs>
        <path id="DejaVuSans-31" d="M 794 531 
L 1825 531 
L 1825 4091 
L 703 3866 
L 703 4441 
L 1819 4666 
L 2450 4666 
L 2450 531 
L 3481 531 
L 3481 0 
L 794 0 
L 794 531 
z
" transform="scale(0.015625)"/>
       </defs>
       <use xlink:href="#DejaVuSans-31"/>
       <use xlink:href="#DejaVuSans-30" x="63.623047"/>
       <use xlink:href="#DejaVuSans-30" x="127.246094"/>
      </g>
     </g>
    </g>
    <g id="ytick_7">
     <g id="line2d_23">
      <path d="M 108 148.726154 
L 777.6 148.726154 
" clip-path="url(#p40cbc9aa6d)" style="fill: none; stroke: #b0b0b0; stroke-width: 0.8; stroke-linecap: square"/>
     </g>
     <g id="line2d_24">
      <g>
       <use xlink:href="#maa94d35235" x="108" y="148.726154" style="stroke: #000000; stroke-width: 0.8"/>
      </g>
     </g>
     <g id="text_13">
      <!-- 125 -->
      <g transform="translate(81.9125 152.525373) scale(0.1 -0.1)">
       <use xlink:href="#DejaVuSans-31"/>
       <use xlink:href="#DejaVuSans-32" x="63.623047"/>
       <use xlink:href="#DejaVuSans-35" x="127.246094"/>
      </g>
     </g>
    </g>
    <g id="ytick_8">
     <g id="line2d_25">
      <path d="M 108 91.864615 
L 777.6 91.864615 
" clip-path="url(#p40cbc9aa6d)" style="fill: none; stroke: #b0b0b0; stroke-width: 0.8; stroke-linecap: square"/>
     </g>
     <g id="line2d_26">
      <g>
       <use xlink:href="#maa94d35235" x="108" y="91.864615" style="stroke: #000000; stroke-width: 0.8"/>
      </g>
     </g>
     <g id="text_14">
      <!-- 150 -->
      <g transform="translate(81.9125 95.663834) scale(0.1 -0.1)">
       <use xlink:href="#DejaVuSans-31"/>
       <use xlink:href="#DejaVuSans-35" x="63.623047"/>
       <use xlink:href="#DejaVuSans-30" x="127.246094"/>
      </g>
     </g>
    </g>
    <g id="text_15">
     <!-- Velocity [m/s] -->
     <g transform="translate(73.815625 325.145625) rotate(-90) scale(0.1 -0.1)">
      <defs>
       <path id="DejaVuSans-79" d="M 2059 -325 
Q 1816 -950 1584 -1140 
Q 1353 -1331 966 -1331 
L 506 -1331 
L 506 -850 
L 844 -850 
Q 1081 -850 1212 -737 
Q 1344 -625 1503 -206 
L 1606 56 
L 191 3500 
L 800 3500 
L 1894 763 
L 2988 3500 
L 3597 3500 
L 2059 -325 
z
" transform="scale(0.015625)"/>
       <path id="DejaVuSans-2f" d="M 1625 4666 
L 2156 4666 
L 531 -594 
L 0 -594 
L 1625 4666 
z
" transform="scale(0.015625)"/>
      </defs>
      <use xlink:href="#DejaVuSans-56"/>
      <use xlink:href="#DejaVuSans-65" x="60.658203"/>
      <use xlink:href="#DejaVuSans-6c" x="122.181641"/>
      <use xlink:href="#DejaVuSans-6f" x="149.964844"/>
      <use xlink:href="#DejaVuSans-63" x="211.146484"/>
      <use xlink:href="#DejaVuSans-69" x="266.126953"/>
      <use xlink:href="#DejaVuSans-74" x="293.910156"/>
      <use xlink:href="#DejaVuSans-79" x="333.119141"/>
      <use xlink:href="#DejaVuSans-20" x="392.298828"/>
      <use xlink:href="#DejaVuSans-5b" x="424.085938"/>
      <use xlink:href="#DejaVuSans-6d" x="463.099609"/>
      <use xlink:href="#DejaVuSans-2f" x="560.511719"/>
      <use xlink:href="#DejaVuSans-73" x="594.203125"/>
      <use xlink:href="#DejaVuSans-5d" x="646.302734"/>
     </g>
    </g>
   </g>
   <g id="line2d_27">
    <path d="M 138.436364 165.937563 
L 144.52356 166.088983 
L 150.610897 166.097607 
L 156.698234 166.112774 
L 162.785571 166.136096 
L 168.872278 166.168858 
L 174.959615 166.21191 
L 181.046952 166.265599 
L 187.134289 166.329683 
L 193.221627 166.40345 
L 199.308964 166.485736 
L 205.396301 166.575173 
L 211.483638 166.670248 
L 217.570976 166.769472 
L 223.658313 166.871506 
L 229.745019 166.975136 
L 235.832356 167.079479 
L 241.919694 167.183838 
L 248.007031 167.287747 
L 254.094368 167.390891 
L 260.181705 167.492926 
L 266.269043 167.593242 
L 272.35638 167.690556 
L 278.443717 167.782509 
L 284.531054 167.865142 
L 290.61776 167.932974 
L 296.705098 167.979948 
L 302.792435 168.001084 
L 308.879772 168.030705 
L 314.967109 168.149207 
L 321.054447 168.267692 
L 327.141784 168.386194 
L 333.229121 168.504679 
L 339.316458 168.623181 
L 345.403796 168.741683 
L 351.490502 168.860167 
L 357.577839 168.978652 
L 363.665176 169.097154 
L 369.752514 169.215656 
L 375.839851 169.334158 
L 381.927188 169.452643 
L 388.014525 169.903485 
L 394.101863 169.927484 
L 400.1892 169.974475 
L 406.276537 170.055912 
L 412.363243 170.176774 
L 418.45058 170.33366 
L 424.537918 170.516593 
L 430.625255 170.712627 
L 436.712592 170.909407 
L 442.799929 171.097268 
L 448.887267 171.269599 
L 454.974604 171.420949 
L 461.061941 171.54143 
L 467.149278 171.610633 
L 473.235985 171.84342 
L 479.323322 172.040808 
L 485.410659 172.238195 
L 491.497996 172.435566 
L 497.585334 172.632953 
L 503.672671 172.830341 
L 509.760008 173.027729 
L 515.847345 173.298258 
L 521.934683 173.578384 
L 528.02202 173.85851 
L 534.108726 174.138618 
L 540.196063 174.418761 
L 546.2834 174.698904 
L 552.370738 175.728218 
L 558.458075 175.904053 
L 564.545412 176.223119 
L 570.632749 176.677379 
L 576.720087 177.167734 
L 582.807424 177.583228 
L 588.894761 177.840292 
L 594.981467 178.36412 
L 601.068805 179.014276 
L 607.156142 179.664415 
L 613.243479 180.314571 
L 619.330816 181.510402 
L 625.418154 183.213211 
L 631.505491 183.786529 
L 637.592828 185.016181 
L 643.680165 186.729766 
L 649.767503 188.220126 
L 655.854209 189.965207 
L 661.941546 192.980666 
L 668.028883 202.839032 
L 674.116221 219.991806 
L 680.203558 235.003509 
L 686.290895 247.417815 
L 692.378232 248.877009 
L 698.465569 250.983288 
L 704.552907 254.294542 
L 710.640244 259.1078 
L 716.72695 264.977459 
L 722.814287 270.837297 
L 728.901625 276.636625 
L 734.988962 280.583026 
L 741.076299 311.241135 
L 747.163636 403.485552 
" clip-path="url(#p40cbc9aa6d)" style="fill: none; stroke: #1f77b4; stroke-width: 1.5; stroke-linecap: square"/>
   </g>
   <g id="line2d_28">
    <path d="M 138.436364 432.558186 
L 144.52356 432.548421 
L 150.610897 432.573444 
L 156.698234 432.615033 
L 162.785571 432.673208 
L 168.872278 432.746971 
L 174.959615 432.834405 
L 181.046952 432.932807 
L 187.134289 433.03899 
L 193.221627 433.149563 
L 199.308964 433.261208 
L 205.396301 433.370883 
L 211.483638 433.47596 
L 217.570976 433.574285 
L 223.658313 433.664182 
L 229.745019 433.74441 
L 235.832356 433.814132 
L 241.919694 433.8728 
L 248.007031 433.920126 
L 254.094368 433.956042 
L 260.181705 433.980703 
L 266.269043 433.994561 
L 272.35638 433.998522 
L 278.443717 433.994177 
L 284.531054 433.984063 
L 290.61776 433.971727 
L 296.705098 433.961372 
L 302.792435 433.95691 
L 308.879772 434.16283 
L 314.967109 434.264904 
L 321.054447 434.366979 
L 327.141784 434.469053 
L 333.229121 434.571128 
L 339.316458 434.673202 
L 345.403796 434.775277 
L 351.490502 434.877341 
L 357.577839 434.979416 
L 363.665176 435.081491 
L 369.752514 435.183566 
L 375.839851 435.285641 
L 381.927188 435.387716 
L 388.014525 435.59055 
L 394.101863 435.662139 
L 400.1892 435.802735 
L 406.276537 436.004359 
L 412.363243 436.247021 
L 418.45058 436.50549 
L 424.537918 436.755818 
L 430.625255 436.979521 
L 436.712592 437.164818 
L 442.799929 437.306014 
L 448.887267 437.402155 
L 454.974604 437.456397 
L 461.061941 437.477862 
L 467.149278 437.484573 
L 473.235985 437.754043 
L 479.323322 437.951635 
L 485.410659 438.149226 
L 491.497996 438.346819 
L 497.585334 438.544412 
L 503.672671 438.742005 
L 509.760008 438.939599 
L 515.847345 439.2043 
L 521.934683 439.477813 
L 528.02202 439.751324 
L 534.108726 440.024805 
L 540.196063 440.298313 
L 546.2834 440.57182 
L 552.370738 441.390157 
L 558.458075 441.626585 
L 564.545412 442.031033 
L 570.632749 442.526986 
L 576.720087 443.009668 
L 582.807424 443.431245 
L 588.894761 443.784162 
L 594.981467 443.9053 
L 601.068805 444.401513 
L 607.156142 444.897724 
L 613.243479 445.393934 
L 619.330816 446.064385 
L 625.418154 446.910287 
L 631.505491 447.629142 
L 637.592828 448.200977 
L 643.680165 448.820405 
L 649.767503 449.960802 
L 655.854209 451.110538 
L 661.941546 451.974065 
L 668.028883 452.360242 
L 674.116221 452.234001 
L 680.203558 452.615736 
L 686.290895 453.484038 
L 692.378232 455.922034 
L 698.465569 458.450924 
L 704.552907 461.244537 
L 710.640244 463.813648 
L 716.72695 466.254529 
L 722.814287 470.946747 
L 728.901625 476.139892 
L 734.988962 480.949479 
L 741.076299 473.388815 
L 747.163636 441.643121 
" clip-path="url(#p40cbc9aa6d)" style="fill: none; stroke-dasharray: 5.55,2.4; stroke-dashoffset: 0; stroke: #ff7f0e; stroke-width: 1.5"/>
   </g>
   <g id="line2d_29">
    <path d="M 138.436364 427.528386 
L 144.52356 427.493743 
L 150.610897 427.486157 
L 156.698234 427.473342 
L 162.785571 427.454907 
L 168.872278 427.430755 
L 174.959615 427.401093 
L 181.046952 427.366433 
L 187.134289 427.327528 
L 193.221627 427.285294 
L 199.308964 427.24073 
L 205.396301 427.194835 
L 211.483638 427.148543 
L 217.570976 427.102679 
L 223.658313 427.057933 
L 229.745019 427.01485 
L 235.832356 426.97382 
L 241.919694 426.935116 
L 248.007031 426.898894 
L 254.094368 426.865232 
L 260.181705 426.834166 
L 266.269043 426.805742 
L 272.35638 426.780087 
L 278.443717 426.757477 
L 284.531054 426.738403 
L 290.61776 426.723546 
L 296.705098 426.713624 
L 302.792435 426.709111 
L 308.879772 426.658148 
L 314.967109 426.603128 
L 321.054447 426.548107 
L 327.141784 426.493087 
L 333.229121 426.438066 
L 339.316458 426.383045 
L 345.403796 426.328024 
L 351.490502 426.273008 
L 357.577839 426.217987 
L 363.665176 426.162966 
L 369.752514 426.107944 
L 375.839851 426.052923 
L 381.927188 425.997901 
L 388.014525 425.830483 
L 394.101863 425.80929 
L 400.1892 425.767703 
L 406.276537 425.704151 
L 412.363243 425.621295 
L 418.45058 425.525165 
L 424.537918 425.423362 
L 430.625255 425.323161 
L 436.712592 425.230291 
L 442.799929 425.148465 
L 448.887267 425.079566 
L 454.974604 425.024389 
L 461.061941 424.984144 
L 467.149278 424.961915 
L 473.235985 424.842565 
L 479.323322 424.739065 
L 485.410659 424.635565 
L 491.497996 424.532065 
L 497.585334 424.428563 
L 503.672671 424.325061 
L 509.760008 424.221558 
L 515.847345 424.096483 
L 521.934683 423.968573 
L 528.02202 423.840663 
L 534.108726 423.712764 
L 540.196063 423.584852 
L 546.2834 423.456938 
L 552.370738 423.092164 
L 558.458075 423.0315 
L 564.545412 422.923538 
L 570.632749 422.776497 
L 576.720087 422.627192 
L 582.807424 422.514542 
L 588.894761 422.461418 
L 594.981467 422.319837 
L 601.068805 422.162363 
L 607.156142 422.004886 
L 613.243479 421.847406 
L 619.330816 421.478525 
L 625.418154 420.937457 
L 631.505491 420.732035 
L 637.592828 420.31554 
L 643.680165 419.700003 
L 649.767503 418.503939 
L 655.854209 416.765188 
L 661.941546 412.971539 
L 668.028883 409.545454 
L 674.116221 406.501884 
L 680.203558 406.51836 
L 686.290895 408.312862 
L 692.378232 412.359743 
L 698.465569 416.208009 
L 704.552907 419.597875 
L 710.640244 422.142529 
L 716.72695 424.088406 
L 722.814287 426.348421 
L 728.901625 428.800107 
L 734.988962 435.156863 
L 741.076299 438.593971 
L 747.163636 434.377029 
" clip-path="url(#p40cbc9aa6d)" style="fill: none; stroke-dasharray: 9.6,2.4,1.5,2.4; stroke-dashoffset: 0; stroke: #2ca02c; stroke-width: 1.5"/>
   </g>
   <g id="line2d_30">
    <path d="M 138.436364 169.27476 
L 144.52356 169.435533 
L 150.610897 169.458109 
L 156.698234 169.496563 
L 162.785571 169.552647 
L 168.872278 169.627229 
L 174.959615 169.720274 
L 181.046952 169.830725 
L 187.134289 169.956654 
L 193.221627 170.095459 
L 199.308964 170.244206 
L 205.396301 170.399791 
L 211.483638 170.559176 
L 217.570976 170.719637 
L 223.658313 170.878849 
L 229.745019 171.034868 
L 235.832356 171.186305 
L 241.919694 171.33219 
L 248.007031 171.471862 
L 254.094368 171.60501 
L 260.181705 171.731356 
L 266.269043 171.850482 
L 272.35638 171.961453 
L 278.443717 172.062377 
L 284.531054 172.150095 
L 290.61776 172.220183 
L 296.705098 172.267834 
L 302.792435 172.289386 
L 308.879772 172.410074 
L 314.967109 172.581901 
L 321.054447 172.753711 
L 327.141784 172.925521 
L 333.229121 173.097331 
L 339.316458 173.26914 
L 345.403796 173.44095 
L 351.490502 173.612742 
L 357.577839 173.784552 
L 363.665176 173.956379 
L 369.752514 174.128189 
L 375.839851 174.299999 
L 381.927188 174.471826 
L 388.014525 175.02137 
L 394.101863 175.068171 
L 400.1892 175.159967 
L 406.276537 175.30639 
L 412.363243 175.506658 
L 418.45058 175.749597 
L 424.537918 176.017436 
L 430.625255 176.291055 
L 436.712592 176.553915 
L 442.799929 176.794285 
L 448.887267 177.005017 
L 454.974604 177.181512 
L 461.061941 177.315979 
L 467.149278 177.391706 
L 473.235985 177.704073 
L 479.323322 177.958864 
L 485.410659 178.213654 
L 491.497996 178.468445 
L 497.585334 178.723218 
L 503.672671 178.978026 
L 509.760008 179.232817 
L 515.847345 179.565782 
L 521.934683 179.909019 
L 528.02202 180.252274 
L 534.108726 180.595495 
L 540.196063 180.93875 
L 546.2834 181.282005 
L 552.370738 182.458626 
L 558.458075 182.671094 
L 564.545412 183.052525 
L 570.632749 183.582391 
L 576.720087 184.144152 
L 582.807424 184.617883 
L 588.894761 184.919335 
L 594.981467 185.456559 
L 601.068805 186.16693 
L 607.156142 186.877282 
L 613.243479 187.58767 
L 619.330816 188.82107 
L 625.418154 190.570037 
L 631.505491 191.220193 
L 637.592828 192.445732 
L 643.680165 194.122669 
L 649.767503 195.629895 
L 655.854209 197.361996 
L 661.941546 200.197958 
L 668.028883 209.723481 
L 674.116221 226.381996 
L 680.203558 241.140643 
L 686.290895 253.471657 
L 692.378232 255.27355 
L 698.465569 257.719804 
L 704.552907 261.373359 
L 710.640244 266.395596 
L 716.72695 272.38027 
L 722.814287 278.032482 
L 728.901625 283.563242 
L 734.988962 287.422462 
L 741.076299 316.653913 
L 747.163636 404.702539 
" clip-path="url(#p40cbc9aa6d)" style="fill: none; stroke: #d62728; stroke-width: 1.5; stroke-linecap: square"/>
   </g>
   <g id="line2d_31">
    <path d="M 138.436364 407.682008 
L 144.52356 407.602539 
L 150.610897 407.631783 
L 156.698234 407.680032 
L 162.785571 407.746656 
L 168.872278 407.829815 
L 174.959615 407.926641 
L 181.046952 408.033484 
L 187.134289 408.146281 
L 193.221627 408.260931 
L 199.308964 408.373594 
L 205.396301 408.480904 
L 211.483638 408.580083 
L 217.570976 408.668977 
L 223.658313 408.746006 
L 229.745019 408.810081 
L 235.832356 408.860536 
L 241.919694 408.896988 
L 248.007031 408.919302 
L 254.094368 408.927562 
L 260.181705 408.922132 
L 266.269043 408.903838 
L 272.35638 408.874286 
L 278.443717 408.836329 
L 284.531054 408.794518 
L 290.61776 408.755197 
L 296.705098 408.725732 
L 302.792435 408.712717 
L 308.879772 408.960473 
L 314.967109 409.050907 
L 321.054447 409.141341 
L 327.141784 409.231777 
L 333.229121 409.322211 
L 339.316458 409.412645 
L 345.403796 409.503079 
L 351.490502 409.593504 
L 357.577839 409.683938 
L 363.665176 409.774372 
L 369.752514 409.864806 
L 375.839851 409.955242 
L 381.927188 410.045676 
L 388.014525 410.164369 
L 394.101863 410.244144 
L 400.1892 410.400887 
L 406.276537 410.621953 
L 412.363243 410.882034 
L 418.45058 411.151819 
L 424.537918 411.405352 
L 430.625255 411.624027 
L 436.712592 411.797136 
L 442.799929 411.920542 
L 448.887267 411.99494 
L 454.974604 412.025444 
L 461.061941 412.02482 
L 467.149278 412.018067 
L 473.235985 412.276511 
L 479.323322 412.463189 
L 485.410659 412.64987 
L 491.497996 412.836552 
L 497.585334 413.023233 
L 503.672671 413.209914 
L 509.760008 413.396595 
L 515.847345 413.647277 
L 521.934683 413.90636 
L 528.02202 414.165444 
L 534.108726 414.424499 
L 540.196063 414.683578 
L 546.2834 414.942655 
L 552.370738 415.685856 
L 558.458075 415.916668 
L 564.545412 416.309085 
L 570.632749 416.781765 
L 576.720087 417.234748 
L 582.807424 417.629628 
L 588.894761 417.967897 
L 594.981467 418.039389 
L 601.068805 418.487922 
L 607.156142 418.936453 
L 613.243479 419.384984 
L 619.330816 419.940517 
L 625.418154 420.615233 
L 631.505491 421.263622 
L 637.592828 421.717093 
L 643.680165 422.181285 
L 649.767503 423.164551 
L 655.854209 424.072502 
L 661.941546 424.320618 
L 668.028883 425.16997 
L 674.116221 426.657306 
L 680.203558 428.62995 
L 686.290895 430.831515 
L 692.378232 432.86036 
L 698.465569 434.923441 
L 704.552907 437.134678 
L 710.640244 439.503059 
L 716.72695 442.015856 
L 722.814287 446.588744 
L 728.901625 451.598209 
L 734.988962 455.578449 
L 741.076299 452.450193 
L 747.163636 436.746205 
" clip-path="url(#p40cbc9aa6d)" style="fill: none; stroke-dasharray: 5.55,2.4; stroke-dashoffset: 0; stroke: #9467bd; stroke-width: 1.5"/>
   </g>
   <g id="line2d_32">
    <path d="M 138.436364 426.162562 
L 144.52356 426.138106 
L 150.610897 426.124313 
L 156.698234 426.101222 
L 162.785571 426.068508 
L 168.872278 426.026395 
L 174.959615 425.975635 
L 181.046952 425.917461 
L 187.134289 425.853448 
L 193.221627 425.785363 
L 199.308964 425.715017 
L 205.396301 425.64413 
L 211.483638 425.574247 
L 217.570976 425.506674 
L 223.658313 425.442459 
L 229.745019 425.3824 
L 235.832356 425.327043 
L 241.919694 425.276746 
L 248.007031 425.231697 
L 254.094368 425.191953 
L 260.181705 425.157476 
L 266.269043 425.128168 
L 272.35638 425.10389 
L 278.443717 425.084475 
L 284.531054 425.069717 
L 290.61776 425.059339 
L 296.705098 425.052935 
L 302.792435 425.049956 
L 308.879772 424.95642 
L 314.967109 424.884234 
L 321.054447 424.812048 
L 327.141784 424.739861 
L 333.229121 424.667675 
L 339.316458 424.595489 
L 345.403796 424.523302 
L 351.490502 424.451122 
L 357.577839 424.378935 
L 363.665176 424.306748 
L 369.752514 424.23456 
L 375.839851 424.162373 
L 381.927188 424.090185 
L 388.014525 423.902272 
L 394.101863 423.870578 
L 400.1892 423.808354 
L 406.276537 423.715647 
L 412.363243 423.598397 
L 418.45058 423.466461 
L 424.537918 423.330848 
L 430.625255 423.201281 
L 436.712592 423.0849 
L 442.799929 422.985963 
L 448.887267 422.90625 
L 454.974604 422.845902 
L 461.061941 422.804599 
L 467.149278 422.782531 
L 473.235985 422.632885 
L 479.323322 422.508787 
L 485.410659 422.384688 
L 491.497996 422.260588 
L 497.585334 422.136488 
L 503.672671 422.012386 
L 509.760008 421.888285 
L 515.847345 421.74009 
L 521.934683 421.58873 
L 528.02202 421.437369 
L 534.108726 421.286022 
L 540.196063 421.13466 
L 546.2834 420.983296 
L 552.370738 420.559971 
L 558.458075 420.481205 
L 564.545412 420.342529 
L 570.632749 420.158744 
L 576.720087 419.974347 
L 582.807424 419.831064 
L 588.894761 419.751635 
L 594.981467 419.605241 
L 601.068805 419.416493 
L 607.156142 419.227742 
L 613.243479 419.038988 
L 619.330816 418.634794 
L 625.418154 418.051839 
L 631.505491 417.808244 
L 637.592828 417.360385 
L 643.680165 416.70914 
L 649.767503 415.438856 
L 655.854209 413.659185 
L 661.941546 409.997158 
L 668.028883 406.705254 
L 674.116221 403.794974 
L 680.203558 404.00881 
L 686.290895 406.043847 
L 692.378232 410.258662 
L 698.465569 414.135382 
L 704.552907 417.314207 
L 710.640244 419.537288 
L 716.72695 421.085997 
L 722.814287 422.999742 
L 728.901625 425.11575 
L 734.988962 431.217079 
L 741.076299 435.478035 
L 747.163636 433.855737 
" clip-path="url(#p40cbc9aa6d)" style="fill: none; stroke-dasharray: 9.6,2.4,1.5,2.4; stroke-dashoffset: 0; stroke: #8c564b; stroke-width: 1.5"/>
   </g>
   <g id="line2d_33">
    <path d="M 138.436364 161.806303 
L 144.52356 161.963849 
L 150.610897 161.959146 
L 156.698234 161.952205 
L 162.785571 161.94457 
L 168.872278 161.938115 
L 174.959615 161.934679 
L 181.046952 161.936033 
L 187.134289 161.94365 
L 193.221627 161.958591 
L 199.308964 161.981445 
L 205.396301 162.012437 
L 211.483638 162.051446 
L 217.570976 162.09809 
L 223.658313 162.151884 
L 229.745019 162.212254 
L 235.832356 162.278715 
L 241.919694 162.350833 
L 248.007031 162.428244 
L 254.094368 162.510652 
L 260.181705 162.597607 
L 266.269043 162.688223 
L 272.35638 162.780817 
L 278.443717 162.872266 
L 284.531054 162.957468 
L 290.61776 163.029396 
L 296.705098 163.080048 
L 302.792435 163.102763 
L 308.879772 163.043677 
L 314.967109 163.121504 
L 321.054447 163.199314 
L 327.141784 163.277141 
L 333.229121 163.354968 
L 339.316458 163.432778 
L 345.403796 163.510605 
L 351.490502 163.588415 
L 357.577839 163.666242 
L 363.665176 163.744069 
L 369.752514 163.821896 
L 375.839851 163.899723 
L 381.927188 163.977551 
L 388.014525 164.379076 
L 394.101863 164.384855 
L 400.1892 164.396047 
L 406.276537 164.426744 
L 412.363243 164.487531 
L 418.45058 164.581635 
L 424.537918 164.704978 
L 430.625255 164.849006 
L 436.712592 165.003845 
L 442.799929 165.160697 
L 448.887267 165.312672 
L 454.974604 165.453091 
L 461.061941 165.569632 
L 467.149278 165.63769 
L 473.235985 165.824128 
L 479.323322 165.987035 
L 485.410659 166.149943 
L 491.497996 166.312851 
L 497.585334 166.475776 
L 503.672671 166.638684 
L 509.760008 166.801609 
L 515.847345 167.042118 
L 521.934683 167.292831 
L 528.02202 167.543561 
L 534.108726 167.794256 
L 540.196063 168.044986 
L 546.2834 168.295717 
L 552.370738 169.29036 
L 558.458075 169.456009 
L 564.545412 169.758676 
L 570.632749 170.196469 
L 576.720087 170.674538 
L 582.807424 171.081408 
L 588.894761 171.330056 
L 594.981467 171.87292 
L 601.068805 172.529774 
L 607.156142 173.186645 
L 613.243479 173.843534 
L 619.330816 175.106885 
L 625.418154 176.904406 
L 631.505491 177.479389 
L 637.592828 178.793618 
L 643.680165 180.644291 
L 649.767503 182.307623 
L 655.854209 184.264667 
L 661.941546 187.644899 
L 668.028883 198.021523 
L 674.116221 215.854785 
L 680.203558 231.3916 
L 686.290895 244.220881 
L 692.378232 245.822176 
L 698.465569 248.185137 
L 704.552907 251.979319 
L 710.640244 257.46333 
L 716.72695 264.146244 
L 722.814287 271.349134 
L 728.901625 278.621955 
L 734.988962 284.332108 
L 741.076299 315.016082 
L 747.163636 404.143207 
" clip-path="url(#p40cbc9aa6d)" style="fill: none; stroke: #e377c2; stroke-width: 1.5; stroke-linecap: square"/>
   </g>
   <g id="line2d_34">
    <path d="M 138.436364 457.965938 
L 144.52356 458.023454 
L 150.610897 458.047027 
L 156.698234 458.086553 
L 162.785571 458.142691 
L 168.872278 458.215158 
L 174.959615 458.30276 
L 181.046952 458.403434 
L 187.134289 458.514496 
L 193.221627 458.632892 
L 199.308964 458.755452 
L 205.396301 458.879123 
L 211.483638 459.00113 
L 217.570976 459.119086 
L 223.658313 459.231033 
L 229.745019 459.335436 
L 235.832356 459.431197 
L 241.919694 459.517527 
L 248.007031 459.593955 
L 254.094368 459.660238 
L 260.181705 459.716335 
L 266.269043 459.762385 
L 272.35638 459.798713 
L 278.443717 459.825885 
L 284.531054 459.8448 
L 290.61776 459.856752 
L 296.705098 459.863404 
L 302.792435 459.866573 
L 308.879772 460.05487 
L 314.967109 460.176845 
L 321.054447 460.298818 
L 327.141784 460.42079 
L 333.229121 460.542765 
L 339.316458 460.664738 
L 345.403796 460.786712 
L 351.490502 460.908674 
L 357.577839 461.030649 
L 363.665176 461.152621 
L 369.752514 461.274596 
L 375.839851 461.396571 
L 381.927188 461.518546 
L 388.014525 461.814686 
L 394.101863 461.883405 
L 400.1892 462.018294 
L 406.276537 462.215166 
L 412.363243 462.457634 
L 418.45058 462.722578 
L 424.537918 462.986344 
L 430.625255 463.229365 
L 436.712592 463.438141 
L 442.799929 463.605231 
L 448.887267 463.728177 
L 454.974604 463.808596 
L 461.061941 463.85274 
L 467.149278 463.872945 
L 473.235985 464.166044 
L 479.323322 464.384864 
L 485.410659 464.603687 
L 491.497996 464.822512 
L 497.585334 465.041335 
L 503.672671 465.26016 
L 509.760008 465.478984 
L 515.847345 465.768372 
L 521.934683 466.067022 
L 528.02202 466.365672 
L 534.108726 466.664289 
L 540.196063 466.962936 
L 546.2834 467.261582 
L 552.370738 468.175433 
L 558.458075 468.424538 
L 564.545412 468.852496 
L 570.632749 469.383775 
L 576.720087 469.905174 
L 582.807424 470.358324 
L 588.894761 470.728254 
L 594.981467 470.894416 
L 601.068805 471.44639 
L 607.156142 471.998364 
L 613.243479 472.550333 
L 619.330816 473.320054 
L 625.418154 474.313652 
L 631.505491 475.109129 
L 637.592828 475.787331 
L 643.680165 476.545955 
L 649.767503 477.82878 
L 655.854209 479.198217 
L 661.941546 480.621777 
L 668.028883 480.450279 
L 674.116221 478.574246 
L 680.203558 477.376801 
L 686.290895 476.937208 
L 692.378232 479.422878 
L 698.465569 481.873839 
L 704.552907 484.325169 
L 710.640244 486.300963 
L 716.72695 487.968759 
L 722.814287 491.545259 
L 728.901625 495.484693 
L 734.988962 496.896908 
L 741.076299 484.180659 
L 747.163636 444.134406 
" clip-path="url(#p40cbc9aa6d)" style="fill: none; stroke-dasharray: 5.55,2.4; stroke-dashoffset: 0; stroke: #7f7f7f; stroke-width: 1.5"/>
   </g>
   <g id="line2d_35">
    <path d="M 138.436364 428.671533 
L 144.52356 428.619259 
L 150.610897 428.618244 
L 156.698234 428.616272 
L 162.785571 428.612813 
L 168.872278 428.607363 
L 174.959615 428.59949 
L 181.046952 428.588889 
L 187.134289 428.575409 
L 193.221627 428.559051 
L 199.308964 428.539957 
L 205.396301 428.518377 
L 211.483638 428.49463 
L 217.570976 428.469065 
L 223.658313 428.442028 
L 229.745019 428.41383 
L 235.832356 428.384728 
L 241.919694 428.354922 
L 248.007031 428.324556 
L 254.094368 428.293741 
L 260.181705 428.262607 
L 266.269043 428.231383 
L 272.35638 428.200536 
L 278.443717 428.170928 
L 284.531054 428.143961 
L 290.61776 428.121589 
L 296.705098 428.106 
L 302.792435 428.098992 
L 308.879772 428.093878 
L 314.967109 428.052981 
L 321.054447 428.012084 
L 327.141784 427.971187 
L 333.229121 427.93029 
L 339.316458 427.889393 
L 345.403796 427.848496 
L 351.490502 427.807602 
L 357.577839 427.766705 
L 363.665176 427.725807 
L 369.752514 427.684909 
L 375.839851 427.644011 
L 381.927188 427.603113 
L 388.014525 427.440428 
L 394.101863 427.42947 
L 400.1892 427.408003 
L 406.276537 427.372311 
L 412.363243 427.321387 
L 418.45058 427.257346 
L 424.537918 427.184579 
L 430.625255 427.108284 
L 436.712592 427.033205 
L 442.799929 426.962912 
L 448.887267 426.899709 
L 454.974604 426.845323 
L 461.061941 426.802807 
L 467.149278 426.778576 
L 473.235985 426.679867 
L 479.323322 426.5906 
L 485.410659 426.501333 
L 491.497996 426.412065 
L 497.585334 426.322797 
L 503.672671 426.233528 
L 509.760008 426.144258 
L 515.847345 426.034727 
L 521.934683 425.922534 
L 528.02202 425.810339 
L 534.108726 425.698155 
L 540.196063 425.585959 
L 546.2834 425.473761 
L 552.370738 425.138599 
L 558.458075 425.089434 
L 564.545412 425.000344 
L 570.632749 424.873645 
L 576.720087 424.740861 
L 582.807424 424.63944 
L 588.894761 424.594072 
L 594.981467 424.451386 
L 601.068805 424.315186 
L 607.156142 424.178984 
L 613.243479 424.04278 
L 619.330816 423.694825 
L 625.418154 423.179288 
L 631.505491 422.999593 
L 637.592828 422.606674 
L 643.680165 422.024267 
L 649.767503 420.914761 
L 655.854209 419.24872 
L 661.941546 415.431946 
L 668.028883 411.991622 
L 674.116221 408.947725 
L 680.203558 408.708747 
L 686.290895 410.102179 
L 692.378232 413.73113 
L 698.465569 417.243126 
L 704.552907 420.43022 
L 710.640244 422.929122 
L 716.72695 424.934136 
L 722.814287 427.417513 
L 728.901625 430.130267 
L 734.988962 436.855518 
L 741.076299 440.048183 
L 747.163636 434.577894 
" clip-path="url(#p40cbc9aa6d)" style="fill: none; stroke-dasharray: 9.6,2.4,1.5,2.4; stroke-dashoffset: 0; stroke: #bcbd22; stroke-width: 1.5"/>
   </g>
   <g id="patch_3">
    <path d="M 108 512.64 
L 108 69.12 
" style="fill: none; stroke: #000000; stroke-width: 0.8; stroke-linejoin: miter; stroke-linecap: square"/>
   </g>
   <g id="patch_4">
    <path d="M 777.6 512.64 
L 777.6 69.12 
" style="fill: none; stroke: #000000; stroke-width: 0.8; stroke-linejoin: miter; stroke-linecap: square"/>
   </g>
   <g id="patch_5">
    <path d="M 108 512.64 
L 777.6 512.64 
" style="fill: none; stroke: #000000; stroke-width: 0.8; stroke-linejoin: miter; stroke-linecap: square"/>
   </g>
   <g id="patch_6">
    <path d="M 108 69.12 
L 777.6 69.12 
" style="fill: none; stroke: #000000; stroke-width: 0.8; stroke-linejoin: miter; stroke-linecap: square"/>
   </g>
   <g id="legend_1">
    <g id="patch_7">
     <path d="M 115 359.683125 
L 258.689062 359.683125 
Q 260.689062 359.683125 260.689062 357.683125 
L 260.689062 224.076875 
Q 260.689062 222.076875 258.689062 222.076875 
L 115 222.076875 
Q 113 222.076875 113 224.076875 
L 113 357.683125 
Q 113 359.683125 115 359.683125 
z
" style="fill: #ffffff; opacity: 0.8; stroke: #cccccc; stroke-linejoin: miter"/>
    </g>
    <g id="line2d_36">
     <path d="M 117 230.175313 
L 127 230.175313 
L 137 230.175313 
" style="fill: none; stroke: #1f77b4; stroke-width: 1.5; stroke-linecap: square"/>
    </g>
    <g id="text_16">
     <!-- Extend120_AoA0_Ux -->
     <g transform="translate(145 233.675313) scale(0.1 -0.1)">
      <defs>
       <path id="DejaVuSans-45" d="M 628 4666 
L 3578 4666 
L 3578 4134 
L 1259 4134 
L 1259 2753 
L 3481 2753 
L 3481 2222 
L 1259 2222 
L 1259 531 
L 3634 531 
L 3634 0 
L 628 0 
L 628 4666 
z
" transform="scale(0.015625)"/>
       <path id="DejaVuSans-78" d="M 3513 3500 
L 2247 1797 
L 3578 0 
L 2900 0 
L 1881 1375 
L 863 0 
L 184 0 
L 1544 1831 
L 300 3500 
L 978 3500 
L 1906 2253 
L 2834 3500 
L 3513 3500 
z
" transform="scale(0.015625)"/>
       <path id="DejaVuSans-5f" d="M 3263 -1063 
L 3263 -1509 
L -63 -1509 
L -63 -1063 
L 3263 -1063 
z
" transform="scale(0.015625)"/>
       <path id="DejaVuSans-41" d="M 2188 4044 
L 1331 1722 
L 3047 1722 
L 2188 4044 
z
M 1831 4666 
L 2547 4666 
L 4325 0 
L 3669 0 
L 3244 1197 
L 1141 1197 
L 716 0 
L 50 0 
L 1831 4666 
z
" transform="scale(0.015625)"/>
       <path id="DejaVuSans-55" d="M 556 4666 
L 1191 4666 
L 1191 1831 
Q 1191 1081 1462 751 
Q 1734 422 2344 422 
Q 2950 422 3222 751 
Q 3494 1081 3494 1831 
L 3494 4666 
L 4128 4666 
L 4128 1753 
Q 4128 841 3676 375 
Q 3225 -91 2344 -91 
Q 1459 -91 1007 375 
Q 556 841 556 1753 
L 556 4666 
z
" transform="scale(0.015625)"/>
      </defs>
      <use xlink:href="#DejaVuSans-45"/>
      <use xlink:href="#DejaVuSans-78" x="63.183594"/>
      <use xlink:href="#DejaVuSans-74" x="122.363281"/>
      <use xlink:href="#DejaVuSans-65" x="161.572266"/>
      <use xlink:href="#DejaVuSans-6e" x="223.095703"/>
      <use xlink:href="#DejaVuSans-64" x="286.474609"/>
      <use xlink:href="#DejaVuSans-31" x="349.951172"/>
      <use xlink:href="#DejaVuSans-32" x="413.574219"/>
      <use xlink:href="#DejaVuSans-30" x="477.197266"/>
      <use xlink:href="#DejaVuSans-5f" x="540.820312"/>
      <use xlink:href="#DejaVuSans-41" x="590.820312"/>
      <use xlink:href="#DejaVuSans-6f" x="657.478516"/>
      <use xlink:href="#DejaVuSans-41" x="718.660156"/>
      <use xlink:href="#DejaVuSans-30" x="787.068359"/>
      <use xlink:href="#DejaVuSans-5f" x="850.691406"/>
      <use xlink:href="#DejaVuSans-55" x="900.691406"/>
      <use xlink:href="#DejaVuSans-78" x="973.884766"/>
     </g>
    </g>
    <g id="line2d_37">
     <path d="M 117 245.131563 
L 127 245.131563 
L 137 245.131563 
" style="fill: none; stroke-dasharray: 5.55,2.4; stroke-dashoffset: 0; stroke: #ff7f0e; stroke-width: 1.5"/>
    </g>
    <g id="text_17">
     <!-- Extend120_AoA0_Uy -->
     <g transform="translate(145 248.631563) scale(0.1 -0.1)">
      <use xlink:href="#DejaVuSans-45"/>
      <use xlink:href="#DejaVuSans-78" x="63.183594"/>
      <use xlink:href="#DejaVuSans-74" x="122.363281"/>
      <use xlink:href="#DejaVuSans-65" x="161.572266"/>
      <use xlink:href="#DejaVuSans-6e" x="223.095703"/>
      <use xlink:href="#DejaVuSans-64" x="286.474609"/>
      <use xlink:href="#DejaVuSans-31" x="349.951172"/>
      <use xlink:href="#DejaVuSans-32" x="413.574219"/>
      <use xlink:href="#DejaVuSans-30" x="477.197266"/>
      <use xlink:href="#DejaVuSans-5f" x="540.820312"/>
      <use xlink:href="#DejaVuSans-41" x="590.820312"/>
      <use xlink:href="#DejaVuSans-6f" x="657.478516"/>
      <use xlink:href="#DejaVuSans-41" x="718.660156"/>
      <use xlink:href="#DejaVuSans-30" x="787.068359"/>
      <use xlink:href="#DejaVuSans-5f" x="850.691406"/>
      <use xlink:href="#DejaVuSans-55" x="900.691406"/>
      <use xlink:href="#DejaVuSans-79" x="973.884766"/>
     </g>
    </g>
    <g id="line2d_38">
     <path d="M 117 260.087813 
L 127 260.087813 
L 137 260.087813 
" style="fill: none; stroke-dasharray: 9.6,2.4,1.5,2.4; stroke-dashoffset: 0; stroke: #2ca02c; stroke-width: 1.5"/>
    </g>
    <g id="text_18">
     <!-- Extend120_AoA0_Uz -->
     <g transform="translate(145 263.587813) scale(0.1 -0.1)">
      <defs>
       <path id="DejaVuSans-7a" d="M 353 3500 
L 3084 3500 
L 3084 2975 
L 922 459 
L 3084 459 
L 3084 0 
L 275 0 
L 275 525 
L 2438 3041 
L 353 3041 
L 353 3500 
z
" transform="scale(0.015625)"/>
      </defs>
      <use xlink:href="#DejaVuSans-45"/>
      <use xlink:href="#DejaVuSans-78" x="63.183594"/>
      <use xlink:href="#DejaVuSans-74" x="122.363281"/>
      <use xlink:href="#DejaVuSans-65" x="161.572266"/>
      <use xlink:href="#DejaVuSans-6e" x="223.095703"/>
      <use xlink:href="#DejaVuSans-64" x="286.474609"/>
      <use xlink:href="#DejaVuSans-31" x="349.951172"/>
      <use xlink:href="#DejaVuSans-32" x="413.574219"/>
      <use xlink:href="#DejaVuSans-30" x="477.197266"/>
      <use xlink:href="#DejaVuSans-5f" x="540.820312"/>
      <use xlink:href="#DejaVuSans-41" x="590.820312"/>
      <use xlink:href="#DejaVuSans-6f" x="657.478516"/>
      <use xlink:href="#DejaVuSans-41" x="718.660156"/>
      <use xlink:href="#DejaVuSans-30" x="787.068359"/>
      <use xlink:href="#DejaVuSans-5f" x="850.691406"/>
      <use xlink:href="#DejaVuSans-55" x="900.691406"/>
      <use xlink:href="#DejaVuSans-7a" x="973.884766"/>
     </g>
    </g>
    <g id="line2d_39">
     <path d="M 117 275.044062 
L 127 275.044062 
L 137 275.044062 
" style="fill: none; stroke: #d62728; stroke-width: 1.5; stroke-linecap: square"/>
    </g>
    <g id="text_19">
     <!-- Extend120_AoA+4_Ux -->
     <g transform="translate(145 278.544062) scale(0.1 -0.1)">
      <defs>
       <path id="DejaVuSans-2b" d="M 2944 4013 
L 2944 2272 
L 4684 2272 
L 4684 1741 
L 2944 1741 
L 2944 0 
L 2419 0 
L 2419 1741 
L 678 1741 
L 678 2272 
L 2419 2272 
L 2419 4013 
L 2944 4013 
z
" transform="scale(0.015625)"/>
      </defs>
      <use xlink:href="#DejaVuSans-45"/>
      <use xlink:href="#DejaVuSans-78" x="63.183594"/>
      <use xlink:href="#DejaVuSans-74" x="122.363281"/>
      <use xlink:href="#DejaVuSans-65" x="161.572266"/>
      <use xlink:href="#DejaVuSans-6e" x="223.095703"/>
      <use xlink:href="#DejaVuSans-64" x="286.474609"/>
      <use xlink:href="#DejaVuSans-31" x="349.951172"/>
      <use xlink:href="#DejaVuSans-32" x="413.574219"/>
      <use xlink:href="#DejaVuSans-30" x="477.197266"/>
      <use xlink:href="#DejaVuSans-5f" x="540.820312"/>
      <use xlink:href="#DejaVuSans-41" x="590.820312"/>
      <use xlink:href="#DejaVuSans-6f" x="657.478516"/>
      <use xlink:href="#DejaVuSans-41" x="718.660156"/>
      <use xlink:href="#DejaVuSans-2b" x="787.068359"/>
      <use xlink:href="#DejaVuSans-34" x="870.857422"/>
      <use xlink:href="#DejaVuSans-5f" x="934.480469"/>
      <use xlink:href="#DejaVuSans-55" x="984.480469"/>
      <use xlink:href="#DejaVuSans-78" x="1057.673828"/>
     </g>
    </g>
    <g id="line2d_40">
     <path d="M 117 290.000313 
L 127 290.000313 
L 137 290.000313 
" style="fill: none; stroke-dasharray: 5.55,2.4; stroke-dashoffset: 0; stroke: #9467bd; stroke-width: 1.5"/>
    </g>
    <g id="text_20">
     <!-- Extend120_AoA+4_Uy -->
     <g transform="translate(145 293.500313) scale(0.1 -0.1)">
      <use xlink:href="#DejaVuSans-45"/>
      <use xlink:href="#DejaVuSans-78" x="63.183594"/>
      <use xlink:href="#DejaVuSans-74" x="122.363281"/>
      <use xlink:href="#DejaVuSans-65" x="161.572266"/>
      <use xlink:href="#DejaVuSans-6e" x="223.095703"/>
      <use xlink:href="#DejaVuSans-64" x="286.474609"/>
      <use xlink:href="#DejaVuSans-31" x="349.951172"/>
      <use xlink:href="#DejaVuSans-32" x="413.574219"/>
      <use xlink:href="#DejaVuSans-30" x="477.197266"/>
      <use xlink:href="#DejaVuSans-5f" x="540.820312"/>
      <use xlink:href="#DejaVuSans-41" x="590.820312"/>
      <use xlink:href="#DejaVuSans-6f" x="657.478516"/>
      <use xlink:href="#DejaVuSans-41" x="718.660156"/>
      <use xlink:href="#DejaVuSans-2b" x="787.068359"/>
      <use xlink:href="#DejaVuSans-34" x="870.857422"/>
      <use xlink:href="#DejaVuSans-5f" x="934.480469"/>
      <use xlink:href="#DejaVuSans-55" x="984.480469"/>
      <use xlink:href="#DejaVuSans-79" x="1057.673828"/>
     </g>
    </g>
    <g id="line2d_41">
     <path d="M 117 304.956563 
L 127 304.956563 
L 137 304.956563 
" style="fill: none; stroke-dasharray: 9.6,2.4,1.5,2.4; stroke-dashoffset: 0; stroke: #8c564b; stroke-width: 1.5"/>
    </g>
    <g id="text_21">
     <!-- Extend120_AoA+4_Uz -->
     <g transform="translate(145 308.456563) scale(0.1 -0.1)">
      <use xlink:href="#DejaVuSans-45"/>
      <use xlink:href="#DejaVuSans-78" x="63.183594"/>
      <use xlink:href="#DejaVuSans-74" x="122.363281"/>
      <use xlink:href="#DejaVuSans-65" x="161.572266"/>
      <use xlink:href="#DejaVuSans-6e" x="223.095703"/>
      <use xlink:href="#DejaVuSans-64" x="286.474609"/>
      <use xlink:href="#DejaVuSans-31" x="349.951172"/>
      <use xlink:href="#DejaVuSans-32" x="413.574219"/>
      <use xlink:href="#DejaVuSans-30" x="477.197266"/>
      <use xlink:href="#DejaVuSans-5f" x="540.820312"/>
      <use xlink:href="#DejaVuSans-41" x="590.820312"/>
      <use xlink:href="#DejaVuSans-6f" x="657.478516"/>
      <use xlink:href="#DejaVuSans-41" x="718.660156"/>
      <use xlink:href="#DejaVuSans-2b" x="787.068359"/>
      <use xlink:href="#DejaVuSans-34" x="870.857422"/>
      <use xlink:href="#DejaVuSans-5f" x="934.480469"/>
      <use xlink:href="#DejaVuSans-55" x="984.480469"/>
      <use xlink:href="#DejaVuSans-7a" x="1057.673828"/>
     </g>
    </g>
    <g id="line2d_42">
     <path d="M 117 319.912813 
L 127 319.912813 
L 137 319.912813 
" style="fill: none; stroke: #e377c2; stroke-width: 1.5; stroke-linecap: square"/>
    </g>
    <g id="text_22">
     <!-- Extend120_AoA-4_Ux -->
     <g transform="translate(145 323.412813) scale(0.1 -0.1)">
      <defs>
       <path id="DejaVuSans-2d" d="M 313 2009 
L 1997 2009 
L 1997 1497 
L 313 1497 
L 313 2009 
z
" transform="scale(0.015625)"/>
      </defs>
      <use xlink:href="#DejaVuSans-45"/>
      <use xlink:href="#DejaVuSans-78" x="63.183594"/>
      <use xlink:href="#DejaVuSans-74" x="122.363281"/>
      <use xlink:href="#DejaVuSans-65" x="161.572266"/>
      <use xlink:href="#DejaVuSans-6e" x="223.095703"/>
      <use xlink:href="#DejaVuSans-64" x="286.474609"/>
      <use xlink:href="#DejaVuSans-31" x="349.951172"/>
      <use xlink:href="#DejaVuSans-32" x="413.574219"/>
      <use xlink:href="#DejaVuSans-30" x="477.197266"/>
      <use xlink:href="#DejaVuSans-5f" x="540.820312"/>
      <use xlink:href="#DejaVuSans-41" x="590.820312"/>
      <use xlink:href="#DejaVuSans-6f" x="657.478516"/>
      <use xlink:href="#DejaVuSans-41" x="718.660156"/>
      <use xlink:href="#DejaVuSans-2d" x="784.818359"/>
      <use xlink:href="#DejaVuSans-34" x="820.902344"/>
      <use xlink:href="#DejaVuSans-5f" x="884.525391"/>
      <use xlink:href="#DejaVuSans-55" x="934.525391"/>
      <use xlink:href="#DejaVuSans-78" x="1007.71875"/>
     </g>
    </g>
    <g id="line2d_43">
     <path d="M 117 334.869063 
L 127 334.869063 
L 137 334.869063 
" style="fill: none; stroke-dasharray: 5.55,2.4; stroke-dashoffset: 0; stroke: #7f7f7f; stroke-width: 1.5"/>
    </g>
    <g id="text_23">
     <!-- Extend120_AoA-4_Uy -->
     <g transform="translate(145 338.369063) scale(0.1 -0.1)">
      <use xlink:href="#DejaVuSans-45"/>
      <use xlink:href="#DejaVuSans-78" x="63.183594"/>
      <use xlink:href="#DejaVuSans-74" x="122.363281"/>
      <use xlink:href="#DejaVuSans-65" x="161.572266"/>
      <use xlink:href="#DejaVuSans-6e" x="223.095703"/>
      <use xlink:href="#DejaVuSans-64" x="286.474609"/>
      <use xlink:href="#DejaVuSans-31" x="349.951172"/>
      <use xlink:href="#DejaVuSans-32" x="413.574219"/>
      <use xlink:href="#DejaVuSans-30" x="477.197266"/>
      <use xlink:href="#DejaVuSans-5f" x="540.820312"/>
      <use xlink:href="#DejaVuSans-41" x="590.820312"/>
      <use xlink:href="#DejaVuSans-6f" x="657.478516"/>
      <use xlink:href="#DejaVuSans-41" x="718.660156"/>
      <use xlink:href="#DejaVuSans-2d" x="784.818359"/>
      <use xlink:href="#DejaVuSans-34" x="820.902344"/>
      <use xlink:href="#DejaVuSans-5f" x="884.525391"/>
      <use xlink:href="#DejaVuSans-55" x="934.525391"/>
      <use xlink:href="#DejaVuSans-79" x="1007.71875"/>
     </g>
    </g>
    <g id="line2d_44">
     <path d="M 117 349.825312 
L 127 349.825312 
L 137 349.825312 
" style="fill: none; stroke-dasharray: 9.6,2.4,1.5,2.4; stroke-dashoffset: 0; stroke: #bcbd22; stroke-width: 1.5"/>
    </g>
    <g id="text_24">
     <!-- Extend120_AoA-4_Uz -->
     <g transform="translate(145 353.325312) scale(0.1 -0.1)">
      <use xlink:href="#DejaVuSans-45"/>
      <use xlink:href="#DejaVuSans-78" x="63.183594"/>
      <use xlink:href="#DejaVuSans-74" x="122.363281"/>
      <use xlink:href="#DejaVuSans-65" x="161.572266"/>
      <use xlink:href="#DejaVuSans-6e" x="223.095703"/>
      <use xlink:href="#DejaVuSans-64" x="286.474609"/>
      <use xlink:href="#DejaVuSans-31" x="349.951172"/>
      <use xlink:href="#DejaVuSans-32" x="413.574219"/>
      <use xlink:href="#DejaVuSans-30" x="477.197266"/>
      <use xlink:href="#DejaVuSans-5f" x="540.820312"/>
      <use xlink:href="#DejaVuSans-41" x="590.820312"/>
      <use xlink:href="#DejaVuSans-6f" x="657.478516"/>
      <use xlink:href="#DejaVuSans-41" x="718.660156"/>
      <use xlink:href="#DejaVuSans-2d" x="784.818359"/>
      <use xlink:href="#DejaVuSans-34" x="820.902344"/>
      <use xlink:href="#DejaVuSans-5f" x="884.525391"/>
      <use xlink:href="#DejaVuSans-55" x="934.525391"/>
      <use xlink:href="#DejaVuSans-7a" x="1007.71875"/>
     </g>
    </g>
   </g>
  </g>
 </g>
 <defs>
  <clipPath id="p40cbc9aa6d">
   <rect x="108" y="69.12" width="669.6" height="443.52"/>
  </clipPath>
 </defs>
</svg>
