<?xml version="1.0" encoding="utf-8" standalone="no"?>
<!DOCTYPE svg PUBLIC "-//W3C//DTD SVG 1.1//EN"
  "http://www.w3.org/Graphics/SVG/1.1/DTD/svg11.dtd">
<svg xmlns:xlink="http://www.w3.org/1999/xlink" width="864pt" height="576pt" viewBox="0 0 864 576" xmlns="http://www.w3.org/2000/svg" version="1.1">
 <metadata>
  <rdf:RDF xmlns:dc="http://purl.org/dc/elements/1.1/" xmlns:cc="http://creativecommons.org/ns#" xmlns:rdf="http://www.w3.org/1999/02/22-rdf-syntax-ns#">
   <cc:Work>
    <dc:type rdf:resource="http://purl.org/dc/dcmitype/StillImage"/>
    <dc:date>2023-07-26T18:40:00.379733</dc:date>
    <dc:format>image/svg+xml</dc:format>
    <dc:creator>
     <cc:Agent>
      <dc:title>Matplotlib v3.6.3, https://matplotlib.org/</dc:title>
     </cc:Agent>
    </dc:creator>
   </cc:Work>
  </rdf:RDF>
 </metadata>
 <defs>
  <style type="text/css">*{stroke-linejoin: round; stroke-linecap: butt}</style>
 </defs>
 <g id="figure_1">
  <g id="patch_1">
   <path d="M 0 576 
L 864 576 
L 864 0 
L 0 0 
z
" style="fill: #ffffff"/>
  </g>
  <g id="axes_1">
   <g id="patch_2">
    <path d="M 108 512.64 
L 777.6 512.64 
L 777.6 69.12 
L 108 69.12 
z
" style="fill: #ffffff"/>
   </g>
   <g id="matplotlib.axis_1">
    <g id="xtick_1">
     <g id="line2d_1">
      <path d="M 138.434254 512.64 
L 138.434254 69.12 
" clip-path="url(#p56ee1d2ca2)" style="fill: none; stroke: #b0b0b0; stroke-width: 0.8; stroke-linecap: square"/>
     </g>
     <g id="line2d_2">
      <defs>
       <path id="m40bd1855e0" d="M 0 0 
L 0 3.5 
" style="stroke: #000000; stroke-width: 0.8"/>
      </defs>
      <g>
       <use xlink:href="#m40bd1855e0" x="138.434254" y="512.64" style="stroke: #000000; stroke-width: 0.8"/>
      </g>
     </g>
     <g id="text_1">
      <!-- −0.10 -->
      <g transform="translate(123.111597 527.238438) scale(0.1 -0.1)">
       <defs>
        <path id="DejaVuSans-2212" d="M 678 2272 
L 4684 2272 
L 4684 1741 
L 678 1741 
L 678 2272 
z
" transform="scale(0.015625)"/>
        <path id="DejaVuSans-30" d="M 2034 4250 
Q 1547 4250 1301 3770 
Q 1056 3291 1056 2328 
Q 1056 1369 1301 889 
Q 1547 409 2034 409 
Q 2525 409 2770 889 
Q 3016 1369 3016 2328 
Q 3016 3291 2770 3770 
Q 2525 4250 2034 4250 
z
M 2034 4750 
Q 2819 4750 3233 4129 
Q 3647 3509 3647 2328 
Q 3647 1150 3233 529 
Q 2819 -91 2034 -91 
Q 1250 -91 836 529 
Q 422 1150 422 2328 
Q 422 3509 836 4129 
Q 1250 4750 2034 4750 
z
" transform="scale(0.015625)"/>
        <path id="DejaVuSans-2e" d="M 684 794 
L 1344 794 
L 1344 0 
L 684 0 
L 684 794 
z
" transform="scale(0.015625)"/>
        <path id="DejaVuSans-31" d="M 794 531 
L 1825 531 
L 1825 4091 
L 703 3866 
L 703 4441 
L 1819 4666 
L 2450 4666 
L 2450 531 
L 3481 531 
L 3481 0 
L 794 0 
L 794 531 
z
" transform="scale(0.015625)"/>
       </defs>
       <use xlink:href="#DejaVuSans-2212"/>
       <use xlink:href="#DejaVuSans-30" x="83.789062"/>
       <use xlink:href="#DejaVuSans-2e" x="147.412109"/>
       <use xlink:href="#DejaVuSans-31" x="179.199219"/>
       <use xlink:href="#DejaVuSans-30" x="242.822266"/>
      </g>
     </g>
    </g>
    <g id="xtick_2">
     <g id="line2d_3">
      <path d="M 260.180409 512.64 
L 260.180409 69.12 
" clip-path="url(#p56ee1d2ca2)" style="fill: none; stroke: #b0b0b0; stroke-width: 0.8; stroke-linecap: square"/>
     </g>
     <g id="line2d_4">
      <g>
       <use xlink:href="#m40bd1855e0" x="260.180409" y="512.64" style="stroke: #000000; stroke-width: 0.8"/>
      </g>
     </g>
     <g id="text_2">
      <!-- −0.08 -->
      <g transform="translate(244.857753 527.238438) scale(0.1 -0.1)">
       <defs>
        <path id="DejaVuSans-38" d="M 2034 2216 
Q 1584 2216 1326 1975 
Q 1069 1734 1069 1313 
Q 1069 891 1326 650 
Q 1584 409 2034 409 
Q 2484 409 2743 651 
Q 3003 894 3003 1313 
Q 3003 1734 2745 1975 
Q 2488 2216 2034 2216 
z
M 1403 2484 
Q 997 2584 770 2862 
Q 544 3141 544 3541 
Q 544 4100 942 4425 
Q 1341 4750 2034 4750 
Q 2731 4750 3128 4425 
Q 3525 4100 3525 3541 
Q 3525 3141 3298 2862 
Q 3072 2584 2669 2484 
Q 3125 2378 3379 2068 
Q 3634 1759 3634 1313 
Q 3634 634 3220 271 
Q 2806 -91 2034 -91 
Q 1263 -91 848 271 
Q 434 634 434 1313 
Q 434 1759 690 2068 
Q 947 2378 1403 2484 
z
M 1172 3481 
Q 1172 3119 1398 2916 
Q 1625 2713 2034 2713 
Q 2441 2713 2670 2916 
Q 2900 3119 2900 3481 
Q 2900 3844 2670 4047 
Q 2441 4250 2034 4250 
Q 1625 4250 1398 4047 
Q 1172 3844 1172 3481 
z
" transform="scale(0.015625)"/>
       </defs>
       <use xlink:href="#DejaVuSans-2212"/>
       <use xlink:href="#DejaVuSans-30" x="83.789062"/>
       <use xlink:href="#DejaVuSans-2e" x="147.412109"/>
       <use xlink:href="#DejaVuSans-30" x="179.199219"/>
       <use xlink:href="#DejaVuSans-38" x="242.822266"/>
      </g>
     </g>
    </g>
    <g id="xtick_3">
     <g id="line2d_5">
      <path d="M 381.926564 512.64 
L 381.926564 69.12 
" clip-path="url(#p56ee1d2ca2)" style="fill: none; stroke: #b0b0b0; stroke-width: 0.8; stroke-linecap: square"/>
     </g>
     <g id="line2d_6">
      <g>
       <use xlink:href="#m40bd1855e0" x="381.926564" y="512.64" style="stroke: #000000; stroke-width: 0.8"/>
      </g>
     </g>
     <g id="text_3">
      <!-- −0.06 -->
      <g transform="translate(366.603908 527.238438) scale(0.1 -0.1)">
       <defs>
        <path id="DejaVuSans-36" d="M 2113 2584 
Q 1688 2584 1439 2293 
Q 1191 2003 1191 1497 
Q 1191 994 1439 701 
Q 1688 409 2113 409 
Q 2538 409 2786 701 
Q 3034 994 3034 1497 
Q 3034 2003 2786 2293 
Q 2538 2584 2113 2584 
z
M 3366 4563 
L 3366 3988 
Q 3128 4100 2886 4159 
Q 2644 4219 2406 4219 
Q 1781 4219 1451 3797 
Q 1122 3375 1075 2522 
Q 1259 2794 1537 2939 
Q 1816 3084 2150 3084 
Q 2853 3084 3261 2657 
Q 3669 2231 3669 1497 
Q 3669 778 3244 343 
Q 2819 -91 2113 -91 
Q 1303 -91 875 529 
Q 447 1150 447 2328 
Q 447 3434 972 4092 
Q 1497 4750 2381 4750 
Q 2619 4750 2861 4703 
Q 3103 4656 3366 4563 
z
" transform="scale(0.015625)"/>
       </defs>
       <use xlink:href="#DejaVuSans-2212"/>
       <use xlink:href="#DejaVuSans-30" x="83.789062"/>
       <use xlink:href="#DejaVuSans-2e" x="147.412109"/>
       <use xlink:href="#DejaVuSans-30" x="179.199219"/>
       <use xlink:href="#DejaVuSans-36" x="242.822266"/>
      </g>
     </g>
    </g>
    <g id="xtick_4">
     <g id="line2d_7">
      <path d="M 503.672719 512.64 
L 503.672719 69.12 
" clip-path="url(#p56ee1d2ca2)" style="fill: none; stroke: #b0b0b0; stroke-width: 0.8; stroke-linecap: square"/>
     </g>
     <g id="line2d_8">
      <g>
       <use xlink:href="#m40bd1855e0" x="503.672719" y="512.64" style="stroke: #000000; stroke-width: 0.8"/>
      </g>
     </g>
     <g id="text_4">
      <!-- −0.04 -->
      <g transform="translate(488.350063 527.238438) scale(0.1 -0.1)">
       <defs>
        <path id="DejaVuSans-34" d="M 2419 4116 
L 825 1625 
L 2419 1625 
L 2419 4116 
z
M 2253 4666 
L 3047 4666 
L 3047 1625 
L 3713 1625 
L 3713 1100 
L 3047 1100 
L 3047 0 
L 2419 0 
L 2419 1100 
L 313 1100 
L 313 1709 
L 2253 4666 
z
" transform="scale(0.015625)"/>
       </defs>
       <use xlink:href="#DejaVuSans-2212"/>
       <use xlink:href="#DejaVuSans-30" x="83.789062"/>
       <use xlink:href="#DejaVuSans-2e" x="147.412109"/>
       <use xlink:href="#DejaVuSans-30" x="179.199219"/>
       <use xlink:href="#DejaVuSans-34" x="242.822266"/>
      </g>
     </g>
    </g>
    <g id="xtick_5">
     <g id="line2d_9">
      <path d="M 625.418874 512.64 
L 625.418874 69.12 
" clip-path="url(#p56ee1d2ca2)" style="fill: none; stroke: #b0b0b0; stroke-width: 0.8; stroke-linecap: square"/>
     </g>
     <g id="line2d_10">
      <g>
       <use xlink:href="#m40bd1855e0" x="625.418874" y="512.64" style="stroke: #000000; stroke-width: 0.8"/>
      </g>
     </g>
     <g id="text_5">
      <!-- −0.02 -->
      <g transform="translate(610.096218 527.238438) scale(0.1 -0.1)">
       <defs>
        <path id="DejaVuSans-32" d="M 1228 531 
L 3431 531 
L 3431 0 
L 469 0 
L 469 531 
Q 828 903 1448 1529 
Q 2069 2156 2228 2338 
Q 2531 2678 2651 2914 
Q 2772 3150 2772 3378 
Q 2772 3750 2511 3984 
Q 2250 4219 1831 4219 
Q 1534 4219 1204 4116 
Q 875 4013 500 3803 
L 500 4441 
Q 881 4594 1212 4672 
Q 1544 4750 1819 4750 
Q 2544 4750 2975 4387 
Q 3406 4025 3406 3419 
Q 3406 3131 3298 2873 
Q 3191 2616 2906 2266 
Q 2828 2175 2409 1742 
Q 1991 1309 1228 531 
z
" transform="scale(0.015625)"/>
       </defs>
       <use xlink:href="#DejaVuSans-2212"/>
       <use xlink:href="#DejaVuSans-30" x="83.789062"/>
       <use xlink:href="#DejaVuSans-2e" x="147.412109"/>
       <use xlink:href="#DejaVuSans-30" x="179.199219"/>
       <use xlink:href="#DejaVuSans-32" x="242.822266"/>
      </g>
     </g>
    </g>
    <g id="xtick_6">
     <g id="line2d_11">
      <path d="M 747.16503 512.64 
L 747.16503 69.12 
" clip-path="url(#p56ee1d2ca2)" style="fill: none; stroke: #b0b0b0; stroke-width: 0.8; stroke-linecap: square"/>
     </g>
     <g id="line2d_12">
      <g>
       <use xlink:href="#m40bd1855e0" x="747.16503" y="512.64" style="stroke: #000000; stroke-width: 0.8"/>
      </g>
     </g>
     <g id="text_6">
      <!-- 0.00 -->
      <g transform="translate(736.032217 527.238438) scale(0.1 -0.1)">
       <use xlink:href="#DejaVuSans-30"/>
       <use xlink:href="#DejaVuSans-2e" x="63.623047"/>
       <use xlink:href="#DejaVuSans-30" x="95.410156"/>
       <use xlink:href="#DejaVuSans-30" x="159.033203"/>
      </g>
     </g>
    </g>
    <g id="text_7">
     <!-- Distance from Cloud Droplet Probe Strut [m] -->
     <g transform="translate(331.764063 540.916563) scale(0.1 -0.1)">
      <defs>
       <path id="DejaVuSans-44" d="M 1259 4147 
L 1259 519 
L 2022 519 
Q 2988 519 3436 956 
Q 3884 1394 3884 2338 
Q 3884 3275 3436 3711 
Q 2988 4147 2022 4147 
L 1259 4147 
z
M 628 4666 
L 1925 4666 
Q 3281 4666 3915 4102 
Q 4550 3538 4550 2338 
Q 4550 1131 3912 565 
Q 3275 0 1925 0 
L 628 0 
L 628 4666 
z
" transform="scale(0.015625)"/>
       <path id="DejaVuSans-69" d="M 603 3500 
L 1178 3500 
L 1178 0 
L 603 0 
L 603 3500 
z
M 603 4863 
L 1178 4863 
L 1178 4134 
L 603 4134 
L 603 4863 
z
" transform="scale(0.015625)"/>
       <path id="DejaVuSans-73" d="M 2834 3397 
L 2834 2853 
Q 2591 2978 2328 3040 
Q 2066 3103 1784 3103 
Q 1356 3103 1142 2972 
Q 928 2841 928 2578 
Q 928 2378 1081 2264 
Q 1234 2150 1697 2047 
L 1894 2003 
Q 2506 1872 2764 1633 
Q 3022 1394 3022 966 
Q 3022 478 2636 193 
Q 2250 -91 1575 -91 
Q 1294 -91 989 -36 
Q 684 19 347 128 
L 347 722 
Q 666 556 975 473 
Q 1284 391 1588 391 
Q 1994 391 2212 530 
Q 2431 669 2431 922 
Q 2431 1156 2273 1281 
Q 2116 1406 1581 1522 
L 1381 1569 
Q 847 1681 609 1914 
Q 372 2147 372 2553 
Q 372 3047 722 3315 
Q 1072 3584 1716 3584 
Q 2034 3584 2315 3537 
Q 2597 3491 2834 3397 
z
" transform="scale(0.015625)"/>
       <path id="DejaVuSans-74" d="M 1172 4494 
L 1172 3500 
L 2356 3500 
L 2356 3053 
L 1172 3053 
L 1172 1153 
Q 1172 725 1289 603 
Q 1406 481 1766 481 
L 2356 481 
L 2356 0 
L 1766 0 
Q 1100 0 847 248 
Q 594 497 594 1153 
L 594 3053 
L 172 3053 
L 172 3500 
L 594 3500 
L 594 4494 
L 1172 4494 
z
" transform="scale(0.015625)"/>
       <path id="DejaVuSans-61" d="M 2194 1759 
Q 1497 1759 1228 1600 
Q 959 1441 959 1056 
Q 959 750 1161 570 
Q 1363 391 1709 391 
Q 2188 391 2477 730 
Q 2766 1069 2766 1631 
L 2766 1759 
L 2194 1759 
z
M 3341 1997 
L 3341 0 
L 2766 0 
L 2766 531 
Q 2569 213 2275 61 
Q 1981 -91 1556 -91 
Q 1019 -91 701 211 
Q 384 513 384 1019 
Q 384 1609 779 1909 
Q 1175 2209 1959 2209 
L 2766 2209 
L 2766 2266 
Q 2766 2663 2505 2880 
Q 2244 3097 1772 3097 
Q 1472 3097 1187 3025 
Q 903 2953 641 2809 
L 641 3341 
Q 956 3463 1253 3523 
Q 1550 3584 1831 3584 
Q 2591 3584 2966 3190 
Q 3341 2797 3341 1997 
z
" transform="scale(0.015625)"/>
       <path id="DejaVuSans-6e" d="M 3513 2113 
L 3513 0 
L 2938 0 
L 2938 2094 
Q 2938 2591 2744 2837 
Q 2550 3084 2163 3084 
Q 1697 3084 1428 2787 
Q 1159 2491 1159 1978 
L 1159 0 
L 581 0 
L 581 3500 
L 1159 3500 
L 1159 2956 
Q 1366 3272 1645 3428 
Q 1925 3584 2291 3584 
Q 2894 3584 3203 3211 
Q 3513 2838 3513 2113 
z
" transform="scale(0.015625)"/>
       <path id="DejaVuSans-63" d="M 3122 3366 
L 3122 2828 
Q 2878 2963 2633 3030 
Q 2388 3097 2138 3097 
Q 1578 3097 1268 2742 
Q 959 2388 959 1747 
Q 959 1106 1268 751 
Q 1578 397 2138 397 
Q 2388 397 2633 464 
Q 2878 531 3122 666 
L 3122 134 
Q 2881 22 2623 -34 
Q 2366 -91 2075 -91 
Q 1284 -91 818 406 
Q 353 903 353 1747 
Q 353 2603 823 3093 
Q 1294 3584 2113 3584 
Q 2378 3584 2631 3529 
Q 2884 3475 3122 3366 
z
" transform="scale(0.015625)"/>
       <path id="DejaVuSans-65" d="M 3597 1894 
L 3597 1613 
L 953 1613 
Q 991 1019 1311 708 
Q 1631 397 2203 397 
Q 2534 397 2845 478 
Q 3156 559 3463 722 
L 3463 178 
Q 3153 47 2828 -22 
Q 2503 -91 2169 -91 
Q 1331 -91 842 396 
Q 353 884 353 1716 
Q 353 2575 817 3079 
Q 1281 3584 2069 3584 
Q 2775 3584 3186 3129 
Q 3597 2675 3597 1894 
z
M 3022 2063 
Q 3016 2534 2758 2815 
Q 2500 3097 2075 3097 
Q 1594 3097 1305 2825 
Q 1016 2553 972 2059 
L 3022 2063 
z
" transform="scale(0.015625)"/>
       <path id="DejaVuSans-20" transform="scale(0.015625)"/>
       <path id="DejaVuSans-66" d="M 2375 4863 
L 2375 4384 
L 1825 4384 
Q 1516 4384 1395 4259 
Q 1275 4134 1275 3809 
L 1275 3500 
L 2222 3500 
L 2222 3053 
L 1275 3053 
L 1275 0 
L 697 0 
L 697 3053 
L 147 3053 
L 147 3500 
L 697 3500 
L 697 3744 
Q 697 4328 969 4595 
Q 1241 4863 1831 4863 
L 2375 4863 
z
" transform="scale(0.015625)"/>
       <path id="DejaVuSans-72" d="M 2631 2963 
Q 2534 3019 2420 3045 
Q 2306 3072 2169 3072 
Q 1681 3072 1420 2755 
Q 1159 2438 1159 1844 
L 1159 0 
L 581 0 
L 581 3500 
L 1159 3500 
L 1159 2956 
Q 1341 3275 1631 3429 
Q 1922 3584 2338 3584 
Q 2397 3584 2469 3576 
Q 2541 3569 2628 3553 
L 2631 2963 
z
" transform="scale(0.015625)"/>
       <path id="DejaVuSans-6f" d="M 1959 3097 
Q 1497 3097 1228 2736 
Q 959 2375 959 1747 
Q 959 1119 1226 758 
Q 1494 397 1959 397 
Q 2419 397 2687 759 
Q 2956 1122 2956 1747 
Q 2956 2369 2687 2733 
Q 2419 3097 1959 3097 
z
M 1959 3584 
Q 2709 3584 3137 3096 
Q 3566 2609 3566 1747 
Q 3566 888 3137 398 
Q 2709 -91 1959 -91 
Q 1206 -91 779 398 
Q 353 888 353 1747 
Q 353 2609 779 3096 
Q 1206 3584 1959 3584 
z
" transform="scale(0.015625)"/>
       <path id="DejaVuSans-6d" d="M 3328 2828 
Q 3544 3216 3844 3400 
Q 4144 3584 4550 3584 
Q 5097 3584 5394 3201 
Q 5691 2819 5691 2113 
L 5691 0 
L 5113 0 
L 5113 2094 
Q 5113 2597 4934 2840 
Q 4756 3084 4391 3084 
Q 3944 3084 3684 2787 
Q 3425 2491 3425 1978 
L 3425 0 
L 2847 0 
L 2847 2094 
Q 2847 2600 2669 2842 
Q 2491 3084 2119 3084 
Q 1678 3084 1418 2786 
Q 1159 2488 1159 1978 
L 1159 0 
L 581 0 
L 581 3500 
L 1159 3500 
L 1159 2956 
Q 1356 3278 1631 3431 
Q 1906 3584 2284 3584 
Q 2666 3584 2933 3390 
Q 3200 3197 3328 2828 
z
" transform="scale(0.015625)"/>
       <path id="DejaVuSans-43" d="M 4122 4306 
L 4122 3641 
Q 3803 3938 3442 4084 
Q 3081 4231 2675 4231 
Q 1875 4231 1450 3742 
Q 1025 3253 1025 2328 
Q 1025 1406 1450 917 
Q 1875 428 2675 428 
Q 3081 428 3442 575 
Q 3803 722 4122 1019 
L 4122 359 
Q 3791 134 3420 21 
Q 3050 -91 2638 -91 
Q 1578 -91 968 557 
Q 359 1206 359 2328 
Q 359 3453 968 4101 
Q 1578 4750 2638 4750 
Q 3056 4750 3426 4639 
Q 3797 4528 4122 4306 
z
" transform="scale(0.015625)"/>
       <path id="DejaVuSans-6c" d="M 603 4863 
L 1178 4863 
L 1178 0 
L 603 0 
L 603 4863 
z
" transform="scale(0.015625)"/>
       <path id="DejaVuSans-75" d="M 544 1381 
L 544 3500 
L 1119 3500 
L 1119 1403 
Q 1119 906 1312 657 
Q 1506 409 1894 409 
Q 2359 409 2629 706 
Q 2900 1003 2900 1516 
L 2900 3500 
L 3475 3500 
L 3475 0 
L 2900 0 
L 2900 538 
Q 2691 219 2414 64 
Q 2138 -91 1772 -91 
Q 1169 -91 856 284 
Q 544 659 544 1381 
z
M 1991 3584 
L 1991 3584 
z
" transform="scale(0.015625)"/>
       <path id="DejaVuSans-64" d="M 2906 2969 
L 2906 4863 
L 3481 4863 
L 3481 0 
L 2906 0 
L 2906 525 
Q 2725 213 2448 61 
Q 2172 -91 1784 -91 
Q 1150 -91 751 415 
Q 353 922 353 1747 
Q 353 2572 751 3078 
Q 1150 3584 1784 3584 
Q 2172 3584 2448 3432 
Q 2725 3281 2906 2969 
z
M 947 1747 
Q 947 1113 1208 752 
Q 1469 391 1925 391 
Q 2381 391 2643 752 
Q 2906 1113 2906 1747 
Q 2906 2381 2643 2742 
Q 2381 3103 1925 3103 
Q 1469 3103 1208 2742 
Q 947 2381 947 1747 
z
" transform="scale(0.015625)"/>
       <path id="DejaVuSans-70" d="M 1159 525 
L 1159 -1331 
L 581 -1331 
L 581 3500 
L 1159 3500 
L 1159 2969 
Q 1341 3281 1617 3432 
Q 1894 3584 2278 3584 
Q 2916 3584 3314 3078 
Q 3713 2572 3713 1747 
Q 3713 922 3314 415 
Q 2916 -91 2278 -91 
Q 1894 -91 1617 61 
Q 1341 213 1159 525 
z
M 3116 1747 
Q 3116 2381 2855 2742 
Q 2594 3103 2138 3103 
Q 1681 3103 1420 2742 
Q 1159 2381 1159 1747 
Q 1159 1113 1420 752 
Q 1681 391 2138 391 
Q 2594 391 2855 752 
Q 3116 1113 3116 1747 
z
" transform="scale(0.015625)"/>
       <path id="DejaVuSans-50" d="M 1259 4147 
L 1259 2394 
L 2053 2394 
Q 2494 2394 2734 2622 
Q 2975 2850 2975 3272 
Q 2975 3691 2734 3919 
Q 2494 4147 2053 4147 
L 1259 4147 
z
M 628 4666 
L 2053 4666 
Q 2838 4666 3239 4311 
Q 3641 3956 3641 3272 
Q 3641 2581 3239 2228 
Q 2838 1875 2053 1875 
L 1259 1875 
L 1259 0 
L 628 0 
L 628 4666 
z
" transform="scale(0.015625)"/>
       <path id="DejaVuSans-62" d="M 3116 1747 
Q 3116 2381 2855 2742 
Q 2594 3103 2138 3103 
Q 1681 3103 1420 2742 
Q 1159 2381 1159 1747 
Q 1159 1113 1420 752 
Q 1681 391 2138 391 
Q 2594 391 2855 752 
Q 3116 1113 3116 1747 
z
M 1159 2969 
Q 1341 3281 1617 3432 
Q 1894 3584 2278 3584 
Q 2916 3584 3314 3078 
Q 3713 2572 3713 1747 
Q 3713 922 3314 415 
Q 2916 -91 2278 -91 
Q 1894 -91 1617 61 
Q 1341 213 1159 525 
L 1159 0 
L 581 0 
L 581 4863 
L 1159 4863 
L 1159 2969 
z
" transform="scale(0.015625)"/>
       <path id="DejaVuSans-53" d="M 3425 4513 
L 3425 3897 
Q 3066 4069 2747 4153 
Q 2428 4238 2131 4238 
Q 1616 4238 1336 4038 
Q 1056 3838 1056 3469 
Q 1056 3159 1242 3001 
Q 1428 2844 1947 2747 
L 2328 2669 
Q 3034 2534 3370 2195 
Q 3706 1856 3706 1288 
Q 3706 609 3251 259 
Q 2797 -91 1919 -91 
Q 1588 -91 1214 -16 
Q 841 59 441 206 
L 441 856 
Q 825 641 1194 531 
Q 1563 422 1919 422 
Q 2459 422 2753 634 
Q 3047 847 3047 1241 
Q 3047 1584 2836 1778 
Q 2625 1972 2144 2069 
L 1759 2144 
Q 1053 2284 737 2584 
Q 422 2884 422 3419 
Q 422 4038 858 4394 
Q 1294 4750 2059 4750 
Q 2388 4750 2728 4690 
Q 3069 4631 3425 4513 
z
" transform="scale(0.015625)"/>
       <path id="DejaVuSans-5b" d="M 550 4863 
L 1875 4863 
L 1875 4416 
L 1125 4416 
L 1125 -397 
L 1875 -397 
L 1875 -844 
L 550 -844 
L 550 4863 
z
" transform="scale(0.015625)"/>
       <path id="DejaVuSans-5d" d="M 1947 4863 
L 1947 -844 
L 622 -844 
L 622 -397 
L 1369 -397 
L 1369 4416 
L 622 4416 
L 622 4863 
L 1947 4863 
z
" transform="scale(0.015625)"/>
      </defs>
      <use xlink:href="#DejaVuSans-44"/>
      <use xlink:href="#DejaVuSans-69" x="77.001953"/>
      <use xlink:href="#DejaVuSans-73" x="104.785156"/>
      <use xlink:href="#DejaVuSans-74" x="156.884766"/>
      <use xlink:href="#DejaVuSans-61" x="196.09375"/>
      <use xlink:href="#DejaVuSans-6e" x="257.373047"/>
      <use xlink:href="#DejaVuSans-63" x="320.751953"/>
      <use xlink:href="#DejaVuSans-65" x="375.732422"/>
      <use xlink:href="#DejaVuSans-20" x="437.255859"/>
      <use xlink:href="#DejaVuSans-66" x="469.042969"/>
      <use xlink:href="#DejaVuSans-72" x="504.248047"/>
      <use xlink:href="#DejaVuSans-6f" x="543.111328"/>
      <use xlink:href="#DejaVuSans-6d" x="604.292969"/>
      <use xlink:href="#DejaVuSans-20" x="701.705078"/>
      <use xlink:href="#DejaVuSans-43" x="733.492188"/>
      <use xlink:href="#DejaVuSans-6c" x="803.316406"/>
      <use xlink:href="#DejaVuSans-6f" x="831.099609"/>
      <use xlink:href="#DejaVuSans-75" x="892.28125"/>
      <use xlink:href="#DejaVuSans-64" x="955.660156"/>
      <use xlink:href="#DejaVuSans-20" x="1019.136719"/>
      <use xlink:href="#DejaVuSans-44" x="1050.923828"/>
      <use xlink:href="#DejaVuSans-72" x="1127.925781"/>
      <use xlink:href="#DejaVuSans-6f" x="1166.789062"/>
      <use xlink:href="#DejaVuSans-70" x="1227.970703"/>
      <use xlink:href="#DejaVuSans-6c" x="1291.447266"/>
      <use xlink:href="#DejaVuSans-65" x="1319.230469"/>
      <use xlink:href="#DejaVuSans-74" x="1380.753906"/>
      <use xlink:href="#DejaVuSans-20" x="1419.962891"/>
      <use xlink:href="#DejaVuSans-50" x="1451.75"/>
      <use xlink:href="#DejaVuSans-72" x="1510.302734"/>
      <use xlink:href="#DejaVuSans-6f" x="1549.166016"/>
      <use xlink:href="#DejaVuSans-62" x="1610.347656"/>
      <use xlink:href="#DejaVuSans-65" x="1673.824219"/>
      <use xlink:href="#DejaVuSans-20" x="1735.347656"/>
      <use xlink:href="#DejaVuSans-53" x="1767.134766"/>
      <use xlink:href="#DejaVuSans-74" x="1830.611328"/>
      <use xlink:href="#DejaVuSans-72" x="1869.820312"/>
      <use xlink:href="#DejaVuSans-75" x="1910.933594"/>
      <use xlink:href="#DejaVuSans-74" x="1974.3125"/>
      <use xlink:href="#DejaVuSans-20" x="2013.521484"/>
      <use xlink:href="#DejaVuSans-5b" x="2045.308594"/>
      <use xlink:href="#DejaVuSans-6d" x="2084.322266"/>
      <use xlink:href="#DejaVuSans-5d" x="2181.734375"/>
     </g>
    </g>
   </g>
   <g id="matplotlib.axis_2">
    <g id="ytick_1">
     <g id="line2d_13">
      <path d="M 108 489.895385 
L 777.6 489.895385 
" clip-path="url(#p56ee1d2ca2)" style="fill: none; stroke: #b0b0b0; stroke-width: 0.8; stroke-linecap: square"/>
     </g>
     <g id="line2d_14">
      <defs>
       <path id="m22d41ac5c9" d="M 0 0 
L -3.5 0 
" style="stroke: #000000; stroke-width: 0.8"/>
      </defs>
      <g>
       <use xlink:href="#m22d41ac5c9" x="108" y="489.895385" style="stroke: #000000; stroke-width: 0.8"/>
      </g>
     </g>
     <g id="text_8">
      <!-- −25 -->
      <g transform="translate(79.895313 493.694603) scale(0.1 -0.1)">
       <defs>
        <path id="DejaVuSans-35" d="M 691 4666 
L 3169 4666 
L 3169 4134 
L 1269 4134 
L 1269 2991 
Q 1406 3038 1543 3061 
Q 1681 3084 1819 3084 
Q 2600 3084 3056 2656 
Q 3513 2228 3513 1497 
Q 3513 744 3044 326 
Q 2575 -91 1722 -91 
Q 1428 -91 1123 -41 
Q 819 9 494 109 
L 494 744 
Q 775 591 1075 516 
Q 1375 441 1709 441 
Q 2250 441 2565 725 
Q 2881 1009 2881 1497 
Q 2881 1984 2565 2268 
Q 2250 2553 1709 2553 
Q 1456 2553 1204 2497 
Q 953 2441 691 2322 
L 691 4666 
z
" transform="scale(0.015625)"/>
       </defs>
       <use xlink:href="#DejaVuSans-2212"/>
       <use xlink:href="#DejaVuSans-32" x="83.789062"/>
       <use xlink:href="#DejaVuSans-35" x="147.412109"/>
      </g>
     </g>
    </g>
    <g id="ytick_2">
     <g id="line2d_15">
      <path d="M 108 433.033846 
L 777.6 433.033846 
" clip-path="url(#p56ee1d2ca2)" style="fill: none; stroke: #b0b0b0; stroke-width: 0.8; stroke-linecap: square"/>
     </g>
     <g id="line2d_16">
      <g>
       <use xlink:href="#m22d41ac5c9" x="108" y="433.033846" style="stroke: #000000; stroke-width: 0.8"/>
      </g>
     </g>
     <g id="text_9">
      <!-- 0 -->
      <g transform="translate(94.6375 436.833065) scale(0.1 -0.1)">
       <use xlink:href="#DejaVuSans-30"/>
      </g>
     </g>
    </g>
    <g id="ytick_3">
     <g id="line2d_17">
      <path d="M 108 376.172308 
L 777.6 376.172308 
" clip-path="url(#p56ee1d2ca2)" style="fill: none; stroke: #b0b0b0; stroke-width: 0.8; stroke-linecap: square"/>
     </g>
     <g id="line2d_18">
      <g>
       <use xlink:href="#m22d41ac5c9" x="108" y="376.172308" style="stroke: #000000; stroke-width: 0.8"/>
      </g>
     </g>
     <g id="text_10">
      <!-- 25 -->
      <g transform="translate(88.275 379.971526) scale(0.1 -0.1)">
       <use xlink:href="#DejaVuSans-32"/>
       <use xlink:href="#DejaVuSans-35" x="63.623047"/>
      </g>
     </g>
    </g>
    <g id="ytick_4">
     <g id="line2d_19">
      <path d="M 108 319.310769 
L 777.6 319.310769 
" clip-path="url(#p56ee1d2ca2)" style="fill: none; stroke: #b0b0b0; stroke-width: 0.8; stroke-linecap: square"/>
     </g>
     <g id="line2d_20">
      <g>
       <use xlink:href="#m22d41ac5c9" x="108" y="319.310769" style="stroke: #000000; stroke-width: 0.8"/>
      </g>
     </g>
     <g id="text_11">
      <!-- 50 -->
      <g transform="translate(88.275 323.109988) scale(0.1 -0.1)">
       <use xlink:href="#DejaVuSans-35"/>
       <use xlink:href="#DejaVuSans-30" x="63.623047"/>
      </g>
     </g>
    </g>
    <g id="ytick_5">
     <g id="line2d_21">
      <path d="M 108 262.449231 
L 777.6 262.449231 
" clip-path="url(#p56ee1d2ca2)" style="fill: none; stroke: #b0b0b0; stroke-width: 0.8; stroke-linecap: square"/>
     </g>
     <g id="line2d_22">
      <g>
       <use xlink:href="#m22d41ac5c9" x="108" y="262.449231" style="stroke: #000000; stroke-width: 0.8"/>
      </g>
     </g>
     <g id="text_12">
      <!-- 75 -->
      <g transform="translate(88.275 266.24845) scale(0.1 -0.1)">
       <defs>
        <path id="DejaVuSans-37" d="M 525 4666 
L 3525 4666 
L 3525 4397 
L 1831 0 
L 1172 0 
L 2766 4134 
L 525 4134 
L 525 4666 
z
" transform="scale(0.015625)"/>
       </defs>
       <use xlink:href="#DejaVuSans-37"/>
       <use xlink:href="#DejaVuSans-35" x="63.623047"/>
      </g>
     </g>
    </g>
    <g id="ytick_6">
     <g id="line2d_23">
      <path d="M 108 205.587692 
L 777.6 205.587692 
" clip-path="url(#p56ee1d2ca2)" style="fill: none; stroke: #b0b0b0; stroke-width: 0.8; stroke-linecap: square"/>
     </g>
     <g id="line2d_24">
      <g>
       <use xlink:href="#m22d41ac5c9" x="108" y="205.587692" style="stroke: #000000; stroke-width: 0.8"/>
      </g>
     </g>
     <g id="text_13">
      <!-- 100 -->
      <g transform="translate(81.9125 209.386911) scale(0.1 -0.1)">
       <use xlink:href="#DejaVuSans-31"/>
       <use xlink:href="#DejaVuSans-30" x="63.623047"/>
       <use xlink:href="#DejaVuSans-30" x="127.246094"/>
      </g>
     </g>
    </g>
    <g id="ytick_7">
     <g id="line2d_25">
      <path d="M 108 148.726154 
L 777.6 148.726154 
" clip-path="url(#p56ee1d2ca2)" style="fill: none; stroke: #b0b0b0; stroke-width: 0.8; stroke-linecap: square"/>
     </g>
     <g id="line2d_26">
      <g>
       <use xlink:href="#m22d41ac5c9" x="108" y="148.726154" style="stroke: #000000; stroke-width: 0.8"/>
      </g>
     </g>
     <g id="text_14">
      <!-- 125 -->
      <g transform="translate(81.9125 152.525373) scale(0.1 -0.1)">
       <use xlink:href="#DejaVuSans-31"/>
       <use xlink:href="#DejaVuSans-32" x="63.623047"/>
       <use xlink:href="#DejaVuSans-35" x="127.246094"/>
      </g>
     </g>
    </g>
    <g id="ytick_8">
     <g id="line2d_27">
      <path d="M 108 91.864615 
L 777.6 91.864615 
" clip-path="url(#p56ee1d2ca2)" style="fill: none; stroke: #b0b0b0; stroke-width: 0.8; stroke-linecap: square"/>
     </g>
     <g id="line2d_28">
      <g>
       <use xlink:href="#m22d41ac5c9" x="108" y="91.864615" style="stroke: #000000; stroke-width: 0.8"/>
      </g>
     </g>
     <g id="text_15">
      <!-- 150 -->
      <g transform="translate(81.9125 95.663834) scale(0.1 -0.1)">
       <use xlink:href="#DejaVuSans-31"/>
       <use xlink:href="#DejaVuSans-35" x="63.623047"/>
       <use xlink:href="#DejaVuSans-30" x="127.246094"/>
      </g>
     </g>
    </g>
    <g id="text_16">
     <!-- Velocity [m/s] -->
     <g transform="translate(73.815625 325.145625) rotate(-90) scale(0.1 -0.1)">
      <defs>
       <path id="DejaVuSans-56" d="M 1831 0 
L 50 4666 
L 709 4666 
L 2188 738 
L 3669 4666 
L 4325 4666 
L 2547 0 
L 1831 0 
z
" transform="scale(0.015625)"/>
       <path id="DejaVuSans-79" d="M 2059 -325 
Q 1816 -950 1584 -1140 
Q 1353 -1331 966 -1331 
L 506 -1331 
L 506 -850 
L 844 -850 
Q 1081 -850 1212 -737 
Q 1344 -625 1503 -206 
L 1606 56 
L 191 3500 
L 800 3500 
L 1894 763 
L 2988 3500 
L 3597 3500 
L 2059 -325 
z
" transform="scale(0.015625)"/>
       <path id="DejaVuSans-2f" d="M 1625 4666 
L 2156 4666 
L 531 -594 
L 0 -594 
L 1625 4666 
z
" transform="scale(0.015625)"/>
      </defs>
      <use xlink:href="#DejaVuSans-56"/>
      <use xlink:href="#DejaVuSans-65" x="60.658203"/>
      <use xlink:href="#DejaVuSans-6c" x="122.181641"/>
      <use xlink:href="#DejaVuSans-6f" x="149.964844"/>
      <use xlink:href="#DejaVuSans-63" x="211.146484"/>
      <use xlink:href="#DejaVuSans-69" x="266.126953"/>
      <use xlink:href="#DejaVuSans-74" x="293.910156"/>
      <use xlink:href="#DejaVuSans-79" x="333.119141"/>
      <use xlink:href="#DejaVuSans-20" x="392.298828"/>
      <use xlink:href="#DejaVuSans-5b" x="424.085938"/>
      <use xlink:href="#DejaVuSans-6d" x="463.099609"/>
      <use xlink:href="#DejaVuSans-2f" x="560.511719"/>
      <use xlink:href="#DejaVuSans-73" x="594.203125"/>
      <use xlink:href="#DejaVuSans-5d" x="646.302734"/>
     </g>
    </g>
   </g>
   <g id="line2d_29">
    <path d="M 138.436364 127.398218 
L 144.520307 127.474987 
L 150.610077 127.551825 
L 156.694041 127.628559 
L 162.78381 127.705327 
L 168.873579 127.782096 
L 174.957543 127.858795 
L 181.047312 127.935529 
L 187.131276 128.012194 
L 193.221045 128.088893 
L 199.305009 128.165488 
L 205.394778 128.242187 
L 211.484548 128.318817 
L 217.568511 128.395412 
L 223.658281 128.472007 
L 229.742245 128.548568 
L 235.832014 130.139261 
L 241.915978 130.214329 
L 248.005747 130.303106 
L 254.095516 130.406632 
L 260.17948 130.525637 
L 266.269249 130.661024 
L 272.353213 130.81293 
L 278.442982 130.981599 
L 284.526946 131.166406 
L 290.616715 131.366865 
L 296.706485 131.581692 
L 302.790449 131.809221 
L 308.880218 132.048134 
L 314.964182 132.296175 
L 321.053951 132.551954 
L 327.137915 132.813287 
L 333.227684 133.079305 
L 339.317453 133.348689 
L 345.401417 133.620572 
L 351.491186 133.895301 
L 357.57515 134.172564 
L 363.664919 134.453297 
L 369.754689 134.737431 
L 375.838653 135.024203 
L 381.928422 135.312155 
L 388.012386 135.596254 
L 394.102155 135.86904 
L 400.186119 136.117878 
L 406.275888 136.3275 
L 412.365657 136.480482 
L 418.449621 136.562595 
L 424.53939 136.726335 
L 430.623354 137.227518 
L 436.713123 137.729186 
L 442.797087 138.230369 
L 448.886857 138.732037 
L 454.976626 139.233741 
L 461.06059 139.734958 
L 467.150359 140.236696 
L 473.234323 140.737913 
L 479.324092 141.239651 
L 485.408056 141.740937 
L 491.497825 142.242675 
L 497.587594 142.74443 
L 503.671558 143.245734 
L 509.761327 143.747507 
L 515.845291 144.248828 
L 521.935061 145.167605 
L 528.02483 146.098859 
L 534.108794 147.029036 
L 540.198563 147.959873 
L 546.282527 148.889617 
L 552.372296 149.820037 
L 558.45626 150.749365 
L 564.546029 151.679386 
L 570.635798 152.609199 
L 576.719762 153.557163 
L 582.809531 154.508511 
L 588.893495 155.458905 
L 594.983264 156.410184 
L 601.067228 157.360508 
L 607.156998 158.311717 
L 613.246767 166.629469 
L 619.330731 177.444632 
L 625.4205 188.195034 
L 631.504464 198.932456 
L 637.594233 209.677236 
L 643.678197 220.40881 
L 649.767966 231.147499 
L 655.857735 241.882943 
L 661.941699 252.604765 
L 668.031468 263.333285 
L 674.115432 274.047888 
L 680.205202 284.768842 
L 686.289165 295.475533 
L 692.378935 306.18821 
L 698.468704 316.896453 
L 704.552668 327.589834 
L 710.642437 338.288551 
L 716.726401 348.971945 
L 722.81617 359.660146 
L 728.905939 370.342686 
L 734.989903 375.610412 
L 741.079672 379.92801 
L 747.163636 387.46855 
" clip-path="url(#p56ee1d2ca2)" style="fill: none; stroke: #1f77b4; stroke-width: 1.5; stroke-linecap: square"/>
   </g>
   <g id="line2d_30">
    <path d="M 138.436364 456.098715 
L 144.520307 456.154162 
L 150.610077 456.209673 
L 156.694041 456.265148 
L 162.78381 456.32069 
L 168.873579 456.376247 
L 174.957543 456.431765 
L 181.047312 456.48735 
L 187.131276 456.542899 
L 193.221045 456.598512 
L 199.305009 456.654089 
L 205.394778 456.70973 
L 211.484548 456.765389 
L 217.568511 456.821007 
L 223.658281 456.876694 
L 229.742245 456.932342 
L 235.832014 457.536049 
L 241.915978 457.56782 
L 248.005747 457.606146 
L 254.095516 457.65122 
L 260.17948 457.703096 
L 266.269249 457.761846 
L 272.353213 457.827198 
L 278.442982 457.898976 
L 284.526946 457.976597 
L 290.616715 458.059636 
L 296.706485 458.147329 
L 302.790449 458.238804 
L 308.880218 458.3334 
L 314.964182 458.430101 
L 321.053951 458.528293 
L 327.137915 458.627096 
L 333.227684 458.726154 
L 339.317453 458.825026 
L 345.401417 458.923481 
L 351.491186 459.021799 
L 357.57515 459.120083 
L 363.664919 459.218925 
L 369.754689 459.318621 
L 375.838653 459.41923 
L 381.928422 459.52055 
L 388.012386 459.621029 
L 394.102155 459.718123 
L 400.186119 459.807268 
L 406.275888 459.882776 
L 412.365657 459.938121 
L 418.449621 459.967868 
L 424.53939 459.843824 
L 430.623354 459.960267 
L 436.713123 460.076867 
L 442.797087 460.1934 
L 448.886857 460.31009 
L 454.976626 460.426825 
L 461.06059 460.543494 
L 467.150359 460.660317 
L 473.234323 460.777075 
L 479.324092 460.893989 
L 485.408056 461.010836 
L 491.497825 461.127839 
L 497.587594 461.244888 
L 503.671558 461.36187 
L 509.761327 461.479005 
L 515.845291 461.596076 
L 521.935061 461.891537 
L 528.02483 462.191486 
L 534.108794 462.490196 
L 540.198563 462.788245 
L 546.282527 463.085069 
L 552.372296 463.381235 
L 558.45626 463.676186 
L 564.546029 463.970489 
L 570.635798 464.263864 
L 576.719762 464.617036 
L 582.809531 464.978305 
L 588.893495 465.339065 
L 594.983264 465.700007 
L 601.067228 466.060441 
L 607.156998 466.421057 
L 613.246767 465.530279 
L 619.330731 464.188448 
L 625.4205 462.859073 
L 631.504464 461.533389 
L 637.594233 460.208972 
L 643.678197 458.888448 
L 649.767966 457.56941 
L 655.857735 456.25324 
L 661.941699 454.941312 
L 668.031468 453.631254 
L 674.115432 452.325706 
L 680.205202 451.022324 
L 686.289165 449.72375 
L 692.378935 448.427673 
L 698.468704 447.135515 
L 704.552668 445.848688 
L 710.642437 444.56494 
L 716.726401 443.286933 
L 722.81617 442.012459 
L 728.905939 440.742983 
L 734.989903 440.426666 
L 741.079672 439.767863 
L 747.163636 438.679813 
" clip-path="url(#p56ee1d2ca2)" style="fill: none; stroke-dasharray: 5.55,2.4; stroke-dashoffset: 0; stroke: #ff7f0e; stroke-width: 1.5"/>
   </g>
   <g id="line2d_31">
    <path d="M 138.436364 412.675277 
L 144.520307 412.627121 
L 150.610077 412.578926 
L 156.694041 412.530789 
L 162.78381 412.482614 
L 168.873579 412.434451 
L 174.957543 412.386341 
L 181.047312 412.338195 
L 187.131276 412.290106 
L 193.221045 412.241981 
L 199.305009 412.193909 
L 205.394778 412.145803 
L 211.484548 412.097706 
L 217.568511 412.049662 
L 223.658281 412.001584 
L 229.742245 411.953563 
L 235.832014 411.85871 
L 241.915978 411.859125 
L 248.005747 411.860046 
L 254.095516 411.861417 
L 260.17948 411.863157 
L 266.269249 411.865191 
L 272.353213 411.867454 
L 278.442982 411.869905 
L 284.526946 411.872538 
L 290.616715 411.875395 
L 296.706485 411.878555 
L 302.790449 411.882147 
L 308.880218 411.886355 
L 314.964182 411.891401 
L 321.053951 411.897563 
L 327.137915 411.905153 
L 333.227684 411.914543 
L 339.317453 411.926132 
L 345.401417 411.940348 
L 351.491186 411.957693 
L 357.57515 411.978611 
L 363.664919 412.003601 
L 369.754689 412.033001 
L 375.838653 412.06692 
L 381.928422 412.10518 
L 388.012386 412.146857 
L 394.102155 412.190309 
L 400.186119 412.232686 
L 406.275888 412.270331 
L 412.365657 412.298959 
L 418.449621 412.314765 
L 424.53939 412.285673 
L 430.623354 412.394459 
L 436.713123 412.503361 
L 442.797087 412.612167 
L 448.886857 412.721086 
L 454.976626 412.830016 
L 461.06059 412.93885 
L 467.150359 413.047798 
L 473.234323 413.156649 
L 479.324092 413.265616 
L 485.408056 413.374487 
L 491.497825 413.483471 
L 497.587594 413.592464 
L 503.671558 413.701363 
L 509.761327 413.810376 
L 515.845291 413.919292 
L 521.935061 414.915762 
L 528.02483 415.938881 
L 534.108794 416.960654 
L 540.198563 417.983032 
L 546.282527 419.004069 
L 552.372296 420.025713 
L 558.45626 421.046019 
L 564.546029 422.066934 
L 570.635798 423.087488 
L 576.719762 424.102302 
L 582.809531 425.117432 
L 588.893495 426.131534 
L 594.983264 427.146544 
L 601.067228 428.160527 
L 607.156998 429.175416 
L 613.246767 429.853046 
L 619.330731 430.044247 
L 625.4205 430.227303 
L 631.504464 430.410827 
L 637.594233 430.595195 
L 643.678197 430.780085 
L 649.767966 430.965878 
L 655.857735 431.152429 
L 661.941699 431.339594 
L 668.031468 431.527763 
L 674.115432 431.716616 
L 680.205202 431.906552 
L 686.289165 432.097251 
L 692.378935 432.289121 
L 698.468704 432.482028 
L 704.552668 432.675837 
L 710.642437 432.87097 
L 716.726401 433.067112 
L 722.81617 433.2647 
L 728.905939 433.46361 
L 734.989903 433.607977 
L 741.079672 433.516723 
L 747.163636 433.386675 
" clip-path="url(#p56ee1d2ca2)" style="fill: none; stroke-dasharray: 9.6,2.4,1.5,2.4; stroke-dashoffset: 0; stroke: #2ca02c; stroke-width: 1.5"/>
   </g>
   <g id="line2d_32">
    <path d="M 138.436364 146.17587 
L 144.520307 146.244552 
L 150.610077 146.313287 
L 156.694041 146.381934 
L 162.78381 146.450651 
L 168.873579 146.519351 
L 174.957543 146.587964 
L 181.047312 146.656646 
L 187.131276 146.725241 
L 193.221045 146.793889 
L 199.305009 146.86245 
L 205.394778 146.93108 
L 211.484548 146.999693 
L 217.568511 147.068219 
L 223.658281 147.136797 
L 229.742245 147.205306 
L 235.832014 148.674373 
L 241.915978 148.742778 
L 248.005747 148.823555 
L 254.095516 148.917624 
L 260.17948 149.025767 
L 266.269249 149.148832 
L 272.353213 149.287013 
L 278.442982 149.440654 
L 284.526946 149.609149 
L 290.616715 149.792221 
L 296.706485 149.988672 
L 302.790449 150.197026 
L 308.880218 150.41614 
L 314.964182 150.643947 
L 321.053951 150.87925 
L 327.137915 151.120072 
L 333.227684 151.365613 
L 339.317453 151.614695 
L 345.401417 151.866553 
L 351.491186 152.121535 
L 357.57515 152.379397 
L 363.664919 152.641007 
L 369.754689 152.906296 
L 375.838653 153.174552 
L 381.928422 153.44437 
L 388.012386 153.711013 
L 394.102155 153.967365 
L 400.186119 154.201472 
L 406.275888 154.398859 
L 412.365657 154.543061 
L 418.449621 154.620454 
L 424.53939 154.781627 
L 430.623354 155.258914 
L 436.713123 155.736688 
L 442.797087 156.214028 
L 448.886857 156.691836 
L 454.976626 157.169662 
L 461.06059 157.647037 
L 467.150359 158.124897 
L 473.234323 158.602306 
L 479.324092 159.080201 
L 485.408056 159.557645 
L 491.497825 160.035575 
L 497.587594 160.513505 
L 503.671558 160.991018 
L 509.761327 161.468983 
L 515.845291 161.946514 
L 521.935061 162.797944 
L 528.02483 163.660533 
L 534.108794 164.52208 
L 540.198563 165.384218 
L 546.282527 166.245314 
L 552.372296 167.107018 
L 558.45626 167.967663 
L 564.546029 168.828932 
L 570.635798 169.689976 
L 576.719762 170.569085 
L 582.809531 171.45149 
L 588.893495 172.333011 
L 594.983264 173.215329 
L 601.067228 174.096763 
L 607.156998 174.979012 
L 613.246767 182.790325 
L 619.330731 192.955956 
L 625.4205 203.060887 
L 631.504464 213.153654 
L 637.594233 223.253396 
L 643.678197 233.340784 
L 649.767966 243.434922 
L 655.857735 253.526075 
L 661.941699 263.604508 
L 668.031468 273.689276 
L 674.115432 283.761046 
L 680.205202 293.838855 
L 686.289165 303.903336 
L 692.378935 313.973527 
L 698.468704 324.03964 
L 704.552668 334.091871 
L 710.642437 344.149204 
L 716.726401 354.192229 
L 722.81617 364.239892 
L 728.905939 374.282336 
L 734.989903 379.245977 
L 741.079672 383.282429 
L 747.163636 390.336653 
" clip-path="url(#p56ee1d2ca2)" style="fill: none; stroke: #d62728; stroke-width: 1.5; stroke-linecap: square"/>
   </g>
   <g id="line2d_33">
    <path d="M 138.436364 432.01508 
L 144.520307 432.081589 
L 150.610077 432.148173 
L 156.694041 432.214704 
L 162.78381 432.281309 
L 168.873579 432.347925 
L 174.957543 432.414489 
L 181.047312 432.481127 
L 187.131276 432.547713 
L 193.221045 432.614373 
L 199.305009 432.68098 
L 205.394778 432.747662 
L 211.484548 432.814355 
L 217.568511 432.880996 
L 223.658281 432.94771 
L 229.742245 433.014372 
L 235.832014 433.624437 
L 241.915978 433.656002 
L 248.005747 433.694064 
L 254.095516 433.738817 
L 260.17948 433.790312 
L 266.269249 433.848623 
L 272.353213 433.913477 
L 278.442982 433.984694 
L 284.526946 434.061693 
L 290.616715 434.144041 
L 296.706485 434.230968 
L 302.790449 434.321593 
L 308.880218 434.415243 
L 314.964182 434.510884 
L 321.053951 434.607884 
L 327.137915 434.70534 
L 333.227684 434.802863 
L 339.317453 434.899973 
L 345.401417 434.996407 
L 351.491186 435.092392 
L 357.57515 435.187982 
L 363.664919 435.283716 
L 369.754689 435.379856 
L 375.838653 435.476447 
L 381.928422 435.573299 
L 388.012386 435.668966 
L 394.102155 435.761081 
L 400.186119 435.845397 
L 406.275888 435.916637 
L 412.365657 435.968744 
L 418.449621 435.996709 
L 424.53939 435.879428 
L 430.623354 435.986276 
L 436.713123 436.093266 
L 442.797087 436.200195 
L 448.886857 436.307267 
L 454.976626 436.41438 
L 461.06059 436.521431 
L 467.150359 436.628625 
L 473.234323 436.735757 
L 479.324092 436.843032 
L 485.408056 436.950245 
L 491.497825 437.057601 
L 497.587594 437.164997 
L 503.671558 437.27233 
L 509.761327 437.379806 
L 515.845291 437.487219 
L 521.935061 437.713615 
L 528.02483 437.942728 
L 534.108794 438.170713 
L 540.198563 438.398009 
L 546.282527 438.624188 
L 552.372296 438.849684 
L 558.45626 439.074072 
L 564.546029 439.297784 
L 570.635798 439.520609 
L 576.719762 439.800397 
L 582.809531 440.087834 
L 588.893495 440.374841 
L 594.983264 440.661967 
L 601.067228 440.948662 
L 607.156998 441.235475 
L 613.246767 441.060958 
L 619.330731 440.727019 
L 625.4205 440.399112 
L 631.504464 440.073527 
L 637.594233 439.749728 
L 643.678197 439.428418 
L 649.767966 439.109078 
L 655.857735 438.792114 
L 661.941699 438.477927 
L 668.031468 438.166028 
L 674.115432 437.857127 
L 680.205202 437.550759 
L 686.289165 437.247638 
L 692.378935 436.947325 
L 698.468704 436.650257 
L 704.552668 436.356871 
L 710.642437 436.066773 
L 716.726401 435.780696 
L 722.81617 435.498282 
L 728.905939 435.220011 
L 734.989903 435.3505 
L 741.079672 435.079438 
L 747.163636 434.664765 
" clip-path="url(#p56ee1d2ca2)" style="fill: none; stroke-dasharray: 5.55,2.4; stroke-dashoffset: 0; stroke: #9467bd; stroke-width: 1.5"/>
   </g>
   <g id="line2d_34">
    <path d="M 138.436364 405.29311 
L 144.520307 405.23503 
L 150.610077 405.176907 
L 156.694041 405.118849 
L 162.78381 405.060747 
L 168.873579 405.002655 
L 174.957543 404.944629 
L 181.047312 404.886558 
L 187.131276 404.828554 
L 193.221045 404.770505 
L 199.305009 404.712521 
L 205.394778 404.654493 
L 211.484548 404.596476 
L 217.568511 404.538525 
L 223.658281 404.480527 
L 229.742245 404.422597 
L 235.832014 404.228852 
L 241.915978 404.224542 
L 248.005747 404.219832 
L 254.095516 404.214618 
L 260.17948 404.208787 
L 266.269249 404.202235 
L 272.353213 404.194914 
L 278.442982 404.186791 
L 284.526946 404.177926 
L 290.616715 404.168414 
L 296.706485 404.158441 
L 302.790449 404.148263 
L 308.880218 404.138168 
L 314.964182 404.128544 
L 321.053951 404.119776 
L 327.137915 404.11233 
L 333.227684 404.106664 
L 339.317453 404.103283 
L 345.401417 404.10269 
L 351.491186 404.105395 
L 357.57515 404.11189 
L 363.664919 404.122637 
L 369.754689 404.137988 
L 375.838653 404.158085 
L 381.928422 404.182806 
L 388.012386 404.211423 
L 394.102155 404.242586 
L 400.186119 404.273954 
L 406.275888 404.302462 
L 412.365657 404.324504 
L 418.449621 404.33681 
L 424.53939 404.308128 
L 430.623354 404.406169 
L 436.713123 404.504318 
L 442.797087 404.602383 
L 448.886857 404.700556 
L 454.976626 404.798738 
L 461.06059 404.89684 
L 467.150359 404.995048 
L 473.234323 405.093173 
L 479.324092 405.191403 
L 485.408056 405.289552 
L 491.497825 405.387806 
L 497.587594 405.486072 
L 503.671558 405.584256 
L 509.761327 405.682545 
L 515.845291 405.78075 
L 521.935061 406.64546 
L 528.02483 407.533182 
L 534.108794 408.419733 
L 540.198563 409.306808 
L 546.282527 410.192715 
L 552.372296 411.07915 
L 558.45626 411.964421 
L 564.546029 412.850219 
L 570.635798 413.735702 
L 576.719762 414.614524 
L 582.809531 415.493397 
L 588.893495 416.371382 
L 594.983264 417.250152 
L 601.067228 418.128032 
L 607.156998 419.006698 
L 613.246767 419.919198 
L 619.330731 420.526026 
L 625.4205 421.123058 
L 631.504464 421.719948 
L 637.594233 422.317853 
L 643.678197 422.91565 
L 649.767966 423.5145 
L 655.857735 424.113855 
L 661.941699 424.713164 
L 668.031468 425.313594 
L 674.115432 425.914025 
L 680.205202 426.515629 
L 686.289165 427.117287 
L 692.378935 427.720176 
L 698.468704 428.323754 
L 704.552668 428.927478 
L 710.642437 429.532535 
L 716.726401 430.13781 
L 722.81617 430.744498 
L 728.905939 431.352066 
L 734.989903 431.680477 
L 741.079672 431.733088 
L 747.163636 431.854884 
" clip-path="url(#p56ee1d2ca2)" style="fill: none; stroke-dasharray: 9.6,2.4,1.5,2.4; stroke-dashoffset: 0; stroke: #8c564b; stroke-width: 1.5"/>
   </g>
   <g id="line2d_35">
    <path d="M 138.436364 109.312785 
L 144.520307 109.398681 
L 150.610077 109.484647 
L 156.694041 109.570474 
L 162.78381 109.656405 
L 168.873579 109.742301 
L 174.957543 109.828093 
L 181.047312 109.91392 
L 187.131276 109.999677 
L 193.221045 110.085469 
L 199.305009 110.171192 
L 205.394778 110.256949 
L 211.484548 110.342672 
L 217.568511 110.428325 
L 223.658281 110.514013 
L 229.742245 110.599632 
L 235.832014 112.316722 
L 241.915978 112.398627 
L 248.005747 112.495629 
L 254.095516 112.608839 
L 260.17948 112.738985 
L 266.269249 112.886969 
L 272.353213 113.052896 
L 278.442982 113.236939 
L 284.526946 113.43837 
L 290.616715 113.656599 
L 296.706485 113.890167 
L 302.790449 114.137166 
L 308.880218 114.396174 
L 314.964182 114.66469 
L 321.053951 114.94112 
L 327.137915 115.223137 
L 333.227684 115.509666 
L 339.317453 115.799283 
L 345.401417 116.090949 
L 351.491186 116.385043 
L 357.57515 116.681151 
L 363.664919 116.980278 
L 369.754689 117.282285 
L 375.838653 117.58641 
L 381.928422 117.891159 
L 388.012386 118.191258 
L 394.102155 118.478897 
L 400.186119 118.740889 
L 406.275888 118.961304 
L 412.365657 119.12206 
L 418.449621 119.208234 
L 424.53939 119.376382 
L 430.623354 119.900575 
L 436.713123 120.425253 
L 442.797087 120.949445 
L 448.886857 121.474158 
L 454.976626 121.998871 
L 461.06059 122.523063 
L 467.150359 123.047776 
L 473.234323 123.572003 
L 479.324092 124.096716 
L 485.408056 124.620943 
L 491.497825 125.145656 
L 497.587594 125.670403 
L 503.671558 126.19463 
L 509.761327 126.719378 
L 515.845291 127.243605 
L 521.935061 128.219316 
L 528.02483 129.208597 
L 534.108794 130.196698 
L 540.198563 131.185598 
L 546.282527 132.173317 
L 552.372296 133.161835 
L 558.45626 134.149207 
L 564.546029 135.137308 
L 570.635798 136.12527 
L 576.719762 137.130933 
L 582.809531 138.139996 
L 588.893495 139.148053 
L 594.983264 140.157046 
L 601.067228 141.165034 
L 607.156998 142.173958 
L 613.246767 150.981076 
L 619.330731 162.432478 
L 625.4205 173.815301 
L 631.504464 185.184277 
L 637.594233 196.56101 
L 643.678197 207.923669 
L 649.767966 219.293808 
L 655.857735 230.660424 
L 661.941699 242.01255 
L 668.031468 253.37167 
L 674.115432 264.715953 
L 680.205202 276.066899 
L 686.289165 287.402627 
L 692.378935 298.744611 
L 698.468704 310.08178 
L 704.552668 321.403114 
L 710.642437 332.729966 
L 716.726401 344.040489 
L 722.81617 355.355966 
L 728.905939 366.665322 
L 734.989903 372.21845 
L 741.079672 376.798686 
L 747.163636 384.793309 
" clip-path="url(#p56ee1d2ca2)" style="fill: none; stroke: #e377c2; stroke-width: 1.5; stroke-linecap: square"/>
   </g>
   <g id="line2d_36">
    <path d="M 138.436364 480.846942 
L 144.520307 480.889721 
L 150.610077 480.93256 
L 156.694041 480.975378 
L 162.78381 481.018253 
L 168.873579 481.061144 
L 174.957543 481.104019 
L 181.047312 481.146945 
L 187.131276 481.189854 
L 193.221045 481.232824 
L 199.305009 481.275768 
L 205.394778 481.318772 
L 211.484548 481.361794 
L 217.568511 481.40479 
L 223.658281 481.447851 
L 229.742245 481.490886 
L 235.832014 482.072919 
L 241.915978 482.104358 
L 248.005747 482.142334 
L 254.095516 482.187031 
L 260.17948 482.238486 
L 266.269249 482.296761 
L 272.353213 482.361582 
L 278.442982 482.432755 
L 284.526946 482.509714 
L 290.616715 482.592027 
L 296.706485 482.678951 
L 302.790449 482.769632 
L 308.880218 482.863437 
L 314.964182 482.959381 
L 321.053951 483.05689 
L 327.137915 483.155128 
L 333.227684 483.253788 
L 339.317453 483.352473 
L 345.401417 483.451015 
L 351.491186 483.549752 
L 357.57515 483.648836 
L 363.664919 483.748923 
L 369.754689 483.850354 
L 375.838653 483.953217 
L 381.928422 484.05729 
L 388.012386 484.160964 
L 394.102155 484.261536 
L 400.186119 484.354191 
L 406.275888 484.432895 
L 412.365657 484.490706 
L 418.449621 484.521832 
L 424.53939 484.38878 
L 430.623354 484.513494 
L 436.713123 484.638373 
L 442.797087 484.763183 
L 448.886857 484.888158 
L 454.976626 485.013184 
L 461.06059 485.138142 
L 467.150359 485.263264 
L 473.234323 485.388316 
L 479.324092 485.513534 
L 485.408056 485.638686 
L 491.497825 485.763999 
L 497.587594 485.889364 
L 503.671558 486.014656 
L 509.761327 486.140116 
L 515.845291 486.265503 
L 521.935061 486.621872 
L 528.02483 486.984272 
L 534.108794 487.345318 
L 540.198563 487.705709 
L 546.282527 488.064759 
L 552.372296 488.423159 
L 558.45626 488.780227 
L 564.546029 489.136652 
L 570.635798 489.492098 
L 576.719762 489.911297 
L 582.809531 490.339173 
L 588.893495 490.766472 
L 594.983264 491.194005 
L 601.067228 491.620957 
L 607.156998 492.048143 
L 613.246767 490.423703 
L 619.330731 488.05741 
L 625.4205 485.710258 
L 631.504464 483.368216 
L 637.594233 481.026938 
L 643.678197 478.691004 
L 649.767966 476.356098 
L 655.857735 474.024585 
L 661.941699 471.698833 
L 668.031468 469.374563 
L 674.115432 467.056366 
L 680.205202 464.739997 
L 686.289165 462.430062 
L 692.378935 460.122347 
L 698.468704 457.819272 
L 704.552668 455.523248 
L 710.642437 453.230134 
L 716.726401 450.944557 
L 722.81617 448.662426 
L 728.905939 446.386214 
L 734.989903 445.612934 
L 741.079672 444.558017 
L 747.163636 442.781987 
" clip-path="url(#p56ee1d2ca2)" style="fill: none; stroke-dasharray: 5.55,2.4; stroke-dashoffset: 0; stroke: #7f7f7f; stroke-width: 1.5"/>
   </g>
   <g id="line2d_37">
    <path d="M 138.436364 418.938764 
L 144.520307 418.89782 
L 150.610077 418.856846 
L 156.694041 418.81592 
L 162.78381 418.774964 
L 168.873579 418.734016 
L 174.957543 418.693118 
L 181.047312 418.652188 
L 187.131276 418.611307 
L 193.221045 418.570396 
L 199.305009 418.529534 
L 205.394778 418.48864 
L 211.484548 418.447756 
L 217.568511 418.40692 
L 223.658281 418.366053 
L 229.742245 418.325235 
L 235.832014 418.29895 
L 241.915978 418.302712 
L 248.005747 418.307644 
L 254.095516 418.313708 
L 260.17948 418.320844 
L 266.269249 418.328995 
L 272.353213 418.338077 
L 278.442982 418.348045 
L 284.526946 418.358836 
L 290.616715 418.370452 
L 296.706485 418.382897 
L 302.790449 418.396205 
L 308.880218 418.410489 
L 314.964182 418.425852 
L 321.053951 418.4425 
L 327.137915 418.46063 
L 333.227684 418.480563 
L 339.317453 418.502625 
L 345.401417 418.527192 
L 351.491186 418.55476 
L 357.57515 418.585754 
L 363.664919 418.620693 
L 369.754689 418.659911 
L 375.838653 418.703501 
L 381.928422 418.751252 
L 388.012386 418.802099 
L 394.102155 418.854192 
L 400.186119 418.904331 
L 406.275888 418.948423 
L 412.365657 418.981704 
L 418.449621 418.999986 
L 424.53939 418.969114 
L 430.623354 419.086006 
L 436.713123 419.203017 
L 442.797087 419.319924 
L 448.886857 419.436949 
L 454.976626 419.553981 
L 461.06059 419.670908 
L 467.150359 419.787954 
L 473.234323 419.904896 
L 479.324092 420.021956 
L 485.408056 420.138911 
L 491.497825 420.255986 
L 497.587594 420.373068 
L 503.671558 420.490044 
L 509.761327 420.607139 
L 515.845291 420.724129 
L 521.935061 421.826939 
L 528.02483 422.959353 
L 534.108794 424.090279 
L 540.198563 425.221876 
L 546.282527 426.351989 
L 552.372296 427.482775 
L 558.45626 428.612083 
L 564.546029 429.742067 
L 570.635798 430.871652 
L 576.719762 431.995684 
L 582.809531 433.120171 
L 588.893495 434.24352 
L 594.983264 435.367875 
L 601.067228 436.491091 
L 607.156998 437.615313 
L 613.246767 438.099758 
L 619.330731 437.946258 
L 625.4205 437.785817 
L 631.504464 437.626347 
L 637.594233 437.467579 
L 643.678197 437.309851 
L 649.767966 437.152898 
L 655.857735 436.996913 
L 661.941699 436.842085 
L 668.031468 436.688163 
L 674.115432 436.535488 
L 680.205202 436.383818 
L 686.289165 436.233496 
L 692.378935 436.084292 
L 698.468704 435.936409 
L 704.552668 435.790052 
L 710.642437 435.645007 
L 716.726401 435.501626 
L 722.81617 435.359711 
L 728.905939 435.219483 
L 734.989903 435.211223 
L 741.079672 435.000302 
L 747.163636 434.660783 
" clip-path="url(#p56ee1d2ca2)" style="fill: none; stroke-dasharray: 9.6,2.4,1.5,2.4; stroke-dashoffset: 0; stroke: #bcbd22; stroke-width: 1.5"/>
   </g>
   <g id="line2d_38">
    <path d="M 515.847335 577 
L 515.847335 -1 
" clip-path="url(#p56ee1d2ca2)" style="fill: none; stroke: #1f77b4; stroke-width: 1.5; stroke-linecap: square"/>
   </g>
   <g id="patch_3">
    <path d="M 108 512.64 
L 108 69.12 
" style="fill: none; stroke: #000000; stroke-width: 0.8; stroke-linejoin: miter; stroke-linecap: square"/>
   </g>
   <g id="patch_4">
    <path d="M 777.6 512.64 
L 777.6 69.12 
" style="fill: none; stroke: #000000; stroke-width: 0.8; stroke-linejoin: miter; stroke-linecap: square"/>
   </g>
   <g id="patch_5">
    <path d="M 108 512.64 
L 777.6 512.64 
" style="fill: none; stroke: #000000; stroke-width: 0.8; stroke-linejoin: miter; stroke-linecap: square"/>
   </g>
   <g id="patch_6">
    <path d="M 108 69.12 
L 777.6 69.12 
" style="fill: none; stroke: #000000; stroke-width: 0.8; stroke-linejoin: miter; stroke-linecap: square"/>
   </g>
   <g id="legend_1">
    <g id="patch_7">
     <path d="M 115 359.683125 
L 249.139063 359.683125 
Q 251.139063 359.683125 251.139063 357.683125 
L 251.139063 224.076875 
Q 251.139063 222.076875 249.139063 222.076875 
L 115 222.076875 
Q 113 222.076875 113 224.076875 
L 113 357.683125 
Q 113 359.683125 115 359.683125 
z
" style="fill: #ffffff; opacity: 0.8; stroke: #cccccc; stroke-linejoin: miter"/>
    </g>
    <g id="line2d_39">
     <path d="M 117 230.175313 
L 127 230.175313 
L 137 230.175313 
" style="fill: none; stroke: #1f77b4; stroke-width: 1.5; stroke-linecap: square"/>
    </g>
    <g id="text_17">
     <!-- Navy140_AoA0_Ux -->
     <g transform="translate(145 233.675313) scale(0.1 -0.1)">
      <defs>
       <path id="DejaVuSans-4e" d="M 628 4666 
L 1478 4666 
L 3547 763 
L 3547 4666 
L 4159 4666 
L 4159 0 
L 3309 0 
L 1241 3903 
L 1241 0 
L 628 0 
L 628 4666 
z
" transform="scale(0.015625)"/>
       <path id="DejaVuSans-76" d="M 191 3500 
L 800 3500 
L 1894 563 
L 2988 3500 
L 3597 3500 
L 2284 0 
L 1503 0 
L 191 3500 
z
" transform="scale(0.015625)"/>
       <path id="DejaVuSans-5f" d="M 3263 -1063 
L 3263 -1509 
L -63 -1509 
L -63 -1063 
L 3263 -1063 
z
" transform="scale(0.015625)"/>
       <path id="DejaVuSans-41" d="M 2188 4044 
L 1331 1722 
L 3047 1722 
L 2188 4044 
z
M 1831 4666 
L 2547 4666 
L 4325 0 
L 3669 0 
L 3244 1197 
L 1141 1197 
L 716 0 
L 50 0 
L 1831 4666 
z
" transform="scale(0.015625)"/>
       <path id="DejaVuSans-55" d="M 556 4666 
L 1191 4666 
L 1191 1831 
Q 1191 1081 1462 751 
Q 1734 422 2344 422 
Q 2950 422 3222 751 
Q 3494 1081 3494 1831 
L 3494 4666 
L 4128 4666 
L 4128 1753 
Q 4128 841 3676 375 
Q 3225 -91 2344 -91 
Q 1459 -91 1007 375 
Q 556 841 556 1753 
L 556 4666 
z
" transform="scale(0.015625)"/>
       <path id="DejaVuSans-78" d="M 3513 3500 
L 2247 1797 
L 3578 0 
L 2900 0 
L 1881 1375 
L 863 0 
L 184 0 
L 1544 1831 
L 300 3500 
L 978 3500 
L 1906 2253 
L 2834 3500 
L 3513 3500 
z
" transform="scale(0.015625)"/>
      </defs>
      <use xlink:href="#DejaVuSans-4e"/>
      <use xlink:href="#DejaVuSans-61" x="74.804688"/>
      <use xlink:href="#DejaVuSans-76" x="136.083984"/>
      <use xlink:href="#DejaVuSans-79" x="195.263672"/>
      <use xlink:href="#DejaVuSans-31" x="254.443359"/>
      <use xlink:href="#DejaVuSans-34" x="318.066406"/>
      <use xlink:href="#DejaVuSans-30" x="381.689453"/>
      <use xlink:href="#DejaVuSans-5f" x="445.3125"/>
      <use xlink:href="#DejaVuSans-41" x="495.3125"/>
      <use xlink:href="#DejaVuSans-6f" x="561.970703"/>
      <use xlink:href="#DejaVuSans-41" x="623.152344"/>
      <use xlink:href="#DejaVuSans-30" x="691.560547"/>
      <use xlink:href="#DejaVuSans-5f" x="755.183594"/>
      <use xlink:href="#DejaVuSans-55" x="805.183594"/>
      <use xlink:href="#DejaVuSans-78" x="878.376953"/>
     </g>
    </g>
    <g id="line2d_40">
     <path d="M 117 245.131563 
L 127 245.131563 
L 137 245.131563 
" style="fill: none; stroke-dasharray: 5.55,2.4; stroke-dashoffset: 0; stroke: #ff7f0e; stroke-width: 1.5"/>
    </g>
    <g id="text_18">
     <!-- Navy140_AoA0_Uy -->
     <g transform="translate(145 248.631563) scale(0.1 -0.1)">
      <use xlink:href="#DejaVuSans-4e"/>
      <use xlink:href="#DejaVuSans-61" x="74.804688"/>
      <use xlink:href="#DejaVuSans-76" x="136.083984"/>
      <use xlink:href="#DejaVuSans-79" x="195.263672"/>
      <use xlink:href="#DejaVuSans-31" x="254.443359"/>
      <use xlink:href="#DejaVuSans-34" x="318.066406"/>
      <use xlink:href="#DejaVuSans-30" x="381.689453"/>
      <use xlink:href="#DejaVuSans-5f" x="445.3125"/>
      <use xlink:href="#DejaVuSans-41" x="495.3125"/>
      <use xlink:href="#DejaVuSans-6f" x="561.970703"/>
      <use xlink:href="#DejaVuSans-41" x="623.152344"/>
      <use xlink:href="#DejaVuSans-30" x="691.560547"/>
      <use xlink:href="#DejaVuSans-5f" x="755.183594"/>
      <use xlink:href="#DejaVuSans-55" x="805.183594"/>
      <use xlink:href="#DejaVuSans-79" x="878.376953"/>
     </g>
    </g>
    <g id="line2d_41">
     <path d="M 117 260.087813 
L 127 260.087813 
L 137 260.087813 
" style="fill: none; stroke-dasharray: 9.6,2.4,1.5,2.4; stroke-dashoffset: 0; stroke: #2ca02c; stroke-width: 1.5"/>
    </g>
    <g id="text_19">
     <!-- Navy140_AoA0_Uz -->
     <g transform="translate(145 263.587813) scale(0.1 -0.1)">
      <defs>
       <path id="DejaVuSans-7a" d="M 353 3500 
L 3084 3500 
L 3084 2975 
L 922 459 
L 3084 459 
L 3084 0 
L 275 0 
L 275 525 
L 2438 3041 
L 353 3041 
L 353 3500 
z
" transform="scale(0.015625)"/>
      </defs>
      <use xlink:href="#DejaVuSans-4e"/>
      <use xlink:href="#DejaVuSans-61" x="74.804688"/>
      <use xlink:href="#DejaVuSans-76" x="136.083984"/>
      <use xlink:href="#DejaVuSans-79" x="195.263672"/>
      <use xlink:href="#DejaVuSans-31" x="254.443359"/>
      <use xlink:href="#DejaVuSans-34" x="318.066406"/>
      <use xlink:href="#DejaVuSans-30" x="381.689453"/>
      <use xlink:href="#DejaVuSans-5f" x="445.3125"/>
      <use xlink:href="#DejaVuSans-41" x="495.3125"/>
      <use xlink:href="#DejaVuSans-6f" x="561.970703"/>
      <use xlink:href="#DejaVuSans-41" x="623.152344"/>
      <use xlink:href="#DejaVuSans-30" x="691.560547"/>
      <use xlink:href="#DejaVuSans-5f" x="755.183594"/>
      <use xlink:href="#DejaVuSans-55" x="805.183594"/>
      <use xlink:href="#DejaVuSans-7a" x="878.376953"/>
     </g>
    </g>
    <g id="line2d_42">
     <path d="M 117 275.044062 
L 127 275.044062 
L 137 275.044062 
" style="fill: none; stroke: #d62728; stroke-width: 1.5; stroke-linecap: square"/>
    </g>
    <g id="text_20">
     <!-- Navy140_AoA+4_Ux -->
     <g transform="translate(145 278.544062) scale(0.1 -0.1)">
      <defs>
       <path id="DejaVuSans-2b" d="M 2944 4013 
L 2944 2272 
L 4684 2272 
L 4684 1741 
L 2944 1741 
L 2944 0 
L 2419 0 
L 2419 1741 
L 678 1741 
L 678 2272 
L 2419 2272 
L 2419 4013 
L 2944 4013 
z
" transform="scale(0.015625)"/>
      </defs>
      <use xlink:href="#DejaVuSans-4e"/>
      <use xlink:href="#DejaVuSans-61" x="74.804688"/>
      <use xlink:href="#DejaVuSans-76" x="136.083984"/>
      <use xlink:href="#DejaVuSans-79" x="195.263672"/>
      <use xlink:href="#DejaVuSans-31" x="254.443359"/>
      <use xlink:href="#DejaVuSans-34" x="318.066406"/>
      <use xlink:href="#DejaVuSans-30" x="381.689453"/>
      <use xlink:href="#DejaVuSans-5f" x="445.3125"/>
      <use xlink:href="#DejaVuSans-41" x="495.3125"/>
      <use xlink:href="#DejaVuSans-6f" x="561.970703"/>
      <use xlink:href="#DejaVuSans-41" x="623.152344"/>
      <use xlink:href="#DejaVuSans-2b" x="691.560547"/>
      <use xlink:href="#DejaVuSans-34" x="775.349609"/>
      <use xlink:href="#DejaVuSans-5f" x="838.972656"/>
      <use xlink:href="#DejaVuSans-55" x="888.972656"/>
      <use xlink:href="#DejaVuSans-78" x="962.166016"/>
     </g>
    </g>
    <g id="line2d_43">
     <path d="M 117 290.000313 
L 127 290.000313 
L 137 290.000313 
" style="fill: none; stroke-dasharray: 5.55,2.4; stroke-dashoffset: 0; stroke: #9467bd; stroke-width: 1.5"/>
    </g>
    <g id="text_21">
     <!-- Navy140_AoA+4_Uy -->
     <g transform="translate(145 293.500313) scale(0.1 -0.1)">
      <use xlink:href="#DejaVuSans-4e"/>
      <use xlink:href="#DejaVuSans-61" x="74.804688"/>
      <use xlink:href="#DejaVuSans-76" x="136.083984"/>
      <use xlink:href="#DejaVuSans-79" x="195.263672"/>
      <use xlink:href="#DejaVuSans-31" x="254.443359"/>
      <use xlink:href="#DejaVuSans-34" x="318.066406"/>
      <use xlink:href="#DejaVuSans-30" x="381.689453"/>
      <use xlink:href="#DejaVuSans-5f" x="445.3125"/>
      <use xlink:href="#DejaVuSans-41" x="495.3125"/>
      <use xlink:href="#DejaVuSans-6f" x="561.970703"/>
      <use xlink:href="#DejaVuSans-41" x="623.152344"/>
      <use xlink:href="#DejaVuSans-2b" x="691.560547"/>
      <use xlink:href="#DejaVuSans-34" x="775.349609"/>
      <use xlink:href="#DejaVuSans-5f" x="838.972656"/>
      <use xlink:href="#DejaVuSans-55" x="888.972656"/>
      <use xlink:href="#DejaVuSans-79" x="962.166016"/>
     </g>
    </g>
    <g id="line2d_44">
     <path d="M 117 304.956563 
L 127 304.956563 
L 137 304.956563 
" style="fill: none; stroke-dasharray: 9.6,2.4,1.5,2.4; stroke-dashoffset: 0; stroke: #8c564b; stroke-width: 1.5"/>
    </g>
    <g id="text_22">
     <!-- Navy140_AoA+4_Uz -->
     <g transform="translate(145 308.456563) scale(0.1 -0.1)">
      <use xlink:href="#DejaVuSans-4e"/>
      <use xlink:href="#DejaVuSans-61" x="74.804688"/>
      <use xlink:href="#DejaVuSans-76" x="136.083984"/>
      <use xlink:href="#DejaVuSans-79" x="195.263672"/>
      <use xlink:href="#DejaVuSans-31" x="254.443359"/>
      <use xlink:href="#DejaVuSans-34" x="318.066406"/>
      <use xlink:href="#DejaVuSans-30" x="381.689453"/>
      <use xlink:href="#DejaVuSans-5f" x="445.3125"/>
      <use xlink:href="#DejaVuSans-41" x="495.3125"/>
      <use xlink:href="#DejaVuSans-6f" x="561.970703"/>
      <use xlink:href="#DejaVuSans-41" x="623.152344"/>
      <use xlink:href="#DejaVuSans-2b" x="691.560547"/>
      <use xlink:href="#DejaVuSans-34" x="775.349609"/>
      <use xlink:href="#DejaVuSans-5f" x="838.972656"/>
      <use xlink:href="#DejaVuSans-55" x="888.972656"/>
      <use xlink:href="#DejaVuSans-7a" x="962.166016"/>
     </g>
    </g>
    <g id="line2d_45">
     <path d="M 117 319.912813 
L 127 319.912813 
L 137 319.912813 
" style="fill: none; stroke: #e377c2; stroke-width: 1.5; stroke-linecap: square"/>
    </g>
    <g id="text_23">
     <!-- Navy140_AoA-4_Ux -->
     <g transform="translate(145 323.412813) scale(0.1 -0.1)">
      <defs>
       <path id="DejaVuSans-2d" d="M 313 2009 
L 1997 2009 
L 1997 1497 
L 313 1497 
L 313 2009 
z
" transform="scale(0.015625)"/>
      </defs>
      <use xlink:href="#DejaVuSans-4e"/>
      <use xlink:href="#DejaVuSans-61" x="74.804688"/>
      <use xlink:href="#DejaVuSans-76" x="136.083984"/>
      <use xlink:href="#DejaVuSans-79" x="195.263672"/>
      <use xlink:href="#DejaVuSans-31" x="254.443359"/>
      <use xlink:href="#DejaVuSans-34" x="318.066406"/>
      <use xlink:href="#DejaVuSans-30" x="381.689453"/>
      <use xlink:href="#DejaVuSans-5f" x="445.3125"/>
      <use xlink:href="#DejaVuSans-41" x="495.3125"/>
      <use xlink:href="#DejaVuSans-6f" x="561.970703"/>
      <use xlink:href="#DejaVuSans-41" x="623.152344"/>
      <use xlink:href="#DejaVuSans-2d" x="689.310547"/>
      <use xlink:href="#DejaVuSans-34" x="725.394531"/>
      <use xlink:href="#DejaVuSans-5f" x="789.017578"/>
      <use xlink:href="#DejaVuSans-55" x="839.017578"/>
      <use xlink:href="#DejaVuSans-78" x="912.210938"/>
     </g>
    </g>
    <g id="line2d_46">
     <path d="M 117 334.869063 
L 127 334.869063 
L 137 334.869063 
" style="fill: none; stroke-dasharray: 5.55,2.4; stroke-dashoffset: 0; stroke: #7f7f7f; stroke-width: 1.5"/>
    </g>
    <g id="text_24">
     <!-- Navy140_AoA-4_Uy -->
     <g transform="translate(145 338.369063) scale(0.1 -0.1)">
      <use xlink:href="#DejaVuSans-4e"/>
      <use xlink:href="#DejaVuSans-61" x="74.804688"/>
      <use xlink:href="#DejaVuSans-76" x="136.083984"/>
      <use xlink:href="#DejaVuSans-79" x="195.263672"/>
      <use xlink:href="#DejaVuSans-31" x="254.443359"/>
      <use xlink:href="#DejaVuSans-34" x="318.066406"/>
      <use xlink:href="#DejaVuSans-30" x="381.689453"/>
      <use xlink:href="#DejaVuSans-5f" x="445.3125"/>
      <use xlink:href="#DejaVuSans-41" x="495.3125"/>
      <use xlink:href="#DejaVuSans-6f" x="561.970703"/>
      <use xlink:href="#DejaVuSans-41" x="623.152344"/>
      <use xlink:href="#DejaVuSans-2d" x="689.310547"/>
      <use xlink:href="#DejaVuSans-34" x="725.394531"/>
      <use xlink:href="#DejaVuSans-5f" x="789.017578"/>
      <use xlink:href="#DejaVuSans-55" x="839.017578"/>
      <use xlink:href="#DejaVuSans-79" x="912.210938"/>
     </g>
    </g>
    <g id="line2d_47">
     <path d="M 117 349.825312 
L 127 349.825312 
L 137 349.825312 
" style="fill: none; stroke-dasharray: 9.6,2.4,1.5,2.4; stroke-dashoffset: 0; stroke: #bcbd22; stroke-width: 1.5"/>
    </g>
    <g id="text_25">
     <!-- Navy140_AoA-4_Uz -->
     <g transform="translate(145 353.325312) scale(0.1 -0.1)">
      <use xlink:href="#DejaVuSans-4e"/>
      <use xlink:href="#DejaVuSans-61" x="74.804688"/>
      <use xlink:href="#DejaVuSans-76" x="136.083984"/>
      <use xlink:href="#DejaVuSans-79" x="195.263672"/>
      <use xlink:href="#DejaVuSans-31" x="254.443359"/>
      <use xlink:href="#DejaVuSans-34" x="318.066406"/>
      <use xlink:href="#DejaVuSans-30" x="381.689453"/>
      <use xlink:href="#DejaVuSans-5f" x="445.3125"/>
      <use xlink:href="#DejaVuSans-41" x="495.3125"/>
      <use xlink:href="#DejaVuSans-6f" x="561.970703"/>
      <use xlink:href="#DejaVuSans-41" x="623.152344"/>
      <use xlink:href="#DejaVuSans-2d" x="689.310547"/>
      <use xlink:href="#DejaVuSans-34" x="725.394531"/>
      <use xlink:href="#DejaVuSans-5f" x="789.017578"/>
      <use xlink:href="#DejaVuSans-55" x="839.017578"/>
      <use xlink:href="#DejaVuSans-7a" x="912.210938"/>
     </g>
    </g>
   </g>
  </g>
 </g>
 <defs>
  <clipPath id="p56ee1d2ca2">
   <rect x="108" y="69.12" width="669.6" height="443.52"/>
  </clipPath>
 </defs>
</svg>
