<?xml version="1.0" encoding="utf-8" standalone="no"?>
<!DOCTYPE svg PUBLIC "-//W3C//DTD SVG 1.1//EN"
  "http://www.w3.org/Graphics/SVG/1.1/DTD/svg11.dtd">
<svg xmlns:xlink="http://www.w3.org/1999/xlink" width="864pt" height="576pt" viewBox="0 0 864 576" xmlns="http://www.w3.org/2000/svg" version="1.1">
 <metadata>
  <rdf:RDF xmlns:dc="http://purl.org/dc/elements/1.1/" xmlns:cc="http://creativecommons.org/ns#" xmlns:rdf="http://www.w3.org/1999/02/22-rdf-syntax-ns#">
   <cc:Work>
    <dc:type rdf:resource="http://purl.org/dc/dcmitype/StillImage"/>
    <dc:date>2023-06-04T17:56:45.991108</dc:date>
    <dc:format>image/svg+xml</dc:format>
    <dc:creator>
     <cc:Agent>
      <dc:title>Matplotlib v3.6.3, https://matplotlib.org/</dc:title>
     </cc:Agent>
    </dc:creator>
   </cc:Work>
  </rdf:RDF>
 </metadata>
 <defs>
  <style type="text/css">*{stroke-linejoin: round; stroke-linecap: butt}</style>
 </defs>
 <g id="figure_1">
  <g id="patch_1">
   <path d="M 0 576 
L 864 576 
L 864 0 
L 0 0 
z
" style="fill: #ffffff"/>
  </g>
  <g id="axes_1">
   <g id="patch_2">
    <path d="M 108 512.64 
L 777.6 512.64 
L 777.6 69.12 
L 108 69.12 
z
" style="fill: #ffffff"/>
   </g>
   <g id="matplotlib.axis_1">
    <g id="xtick_1">
     <g id="line2d_1">
      <path d="M 219.158764 512.64 
L 219.158764 69.12 
" clip-path="url(#p72680ba1d8)" style="fill: none; stroke: #b0b0b0; stroke-width: 0.8; stroke-linecap: square"/>
     </g>
     <g id="line2d_2">
      <defs>
       <path id="mfb9ffad849" d="M 0 0 
L 0 3.5 
" style="stroke: #000000; stroke-width: 0.8"/>
      </defs>
      <g>
       <use xlink:href="#mfb9ffad849" x="219.158764" y="512.64" style="stroke: #000000; stroke-width: 0.8"/>
      </g>
     </g>
     <g id="text_1">
      <!-- −0.8 -->
      <g transform="translate(207.017358 527.238438) scale(0.1 -0.1)">
       <defs>
        <path id="DejaVuSans-2212" d="M 678 2272 
L 4684 2272 
L 4684 1741 
L 678 1741 
L 678 2272 
z
" transform="scale(0.015625)"/>
        <path id="DejaVuSans-30" d="M 2034 4250 
Q 1547 4250 1301 3770 
Q 1056 3291 1056 2328 
Q 1056 1369 1301 889 
Q 1547 409 2034 409 
Q 2525 409 2770 889 
Q 3016 1369 3016 2328 
Q 3016 3291 2770 3770 
Q 2525 4250 2034 4250 
z
M 2034 4750 
Q 2819 4750 3233 4129 
Q 3647 3509 3647 2328 
Q 3647 1150 3233 529 
Q 2819 -91 2034 -91 
Q 1250 -91 836 529 
Q 422 1150 422 2328 
Q 422 3509 836 4129 
Q 1250 4750 2034 4750 
z
" transform="scale(0.015625)"/>
        <path id="DejaVuSans-2e" d="M 684 794 
L 1344 794 
L 1344 0 
L 684 0 
L 684 794 
z
" transform="scale(0.015625)"/>
        <path id="DejaVuSans-38" d="M 2034 2216 
Q 1584 2216 1326 1975 
Q 1069 1734 1069 1313 
Q 1069 891 1326 650 
Q 1584 409 2034 409 
Q 2484 409 2743 651 
Q 3003 894 3003 1313 
Q 3003 1734 2745 1975 
Q 2488 2216 2034 2216 
z
M 1403 2484 
Q 997 2584 770 2862 
Q 544 3141 544 3541 
Q 544 4100 942 4425 
Q 1341 4750 2034 4750 
Q 2731 4750 3128 4425 
Q 3525 4100 3525 3541 
Q 3525 3141 3298 2862 
Q 3072 2584 2669 2484 
Q 3125 2378 3379 2068 
Q 3634 1759 3634 1313 
Q 3634 634 3220 271 
Q 2806 -91 2034 -91 
Q 1263 -91 848 271 
Q 434 634 434 1313 
Q 434 1759 690 2068 
Q 947 2378 1403 2484 
z
M 1172 3481 
Q 1172 3119 1398 2916 
Q 1625 2713 2034 2713 
Q 2441 2713 2670 2916 
Q 2900 3119 2900 3481 
Q 2900 3844 2670 4047 
Q 2441 4250 2034 4250 
Q 1625 4250 1398 4047 
Q 1172 3844 1172 3481 
z
" transform="scale(0.015625)"/>
       </defs>
       <use xlink:href="#DejaVuSans-2212"/>
       <use xlink:href="#DejaVuSans-30" x="83.789062"/>
       <use xlink:href="#DejaVuSans-2e" x="147.412109"/>
       <use xlink:href="#DejaVuSans-38" x="179.199219"/>
      </g>
     </g>
    </g>
    <g id="xtick_2">
     <g id="line2d_3">
      <path d="M 351.4908 512.64 
L 351.4908 69.12 
" clip-path="url(#p72680ba1d8)" style="fill: none; stroke: #b0b0b0; stroke-width: 0.8; stroke-linecap: square"/>
     </g>
     <g id="line2d_4">
      <g>
       <use xlink:href="#mfb9ffad849" x="351.4908" y="512.64" style="stroke: #000000; stroke-width: 0.8"/>
      </g>
     </g>
     <g id="text_2">
      <!-- −0.6 -->
      <g transform="translate(339.349393 527.238438) scale(0.1 -0.1)">
       <defs>
        <path id="DejaVuSans-36" d="M 2113 2584 
Q 1688 2584 1439 2293 
Q 1191 2003 1191 1497 
Q 1191 994 1439 701 
Q 1688 409 2113 409 
Q 2538 409 2786 701 
Q 3034 994 3034 1497 
Q 3034 2003 2786 2293 
Q 2538 2584 2113 2584 
z
M 3366 4563 
L 3366 3988 
Q 3128 4100 2886 4159 
Q 2644 4219 2406 4219 
Q 1781 4219 1451 3797 
Q 1122 3375 1075 2522 
Q 1259 2794 1537 2939 
Q 1816 3084 2150 3084 
Q 2853 3084 3261 2657 
Q 3669 2231 3669 1497 
Q 3669 778 3244 343 
Q 2819 -91 2113 -91 
Q 1303 -91 875 529 
Q 447 1150 447 2328 
Q 447 3434 972 4092 
Q 1497 4750 2381 4750 
Q 2619 4750 2861 4703 
Q 3103 4656 3366 4563 
z
" transform="scale(0.015625)"/>
       </defs>
       <use xlink:href="#DejaVuSans-2212"/>
       <use xlink:href="#DejaVuSans-30" x="83.789062"/>
       <use xlink:href="#DejaVuSans-2e" x="147.412109"/>
       <use xlink:href="#DejaVuSans-36" x="179.199219"/>
      </g>
     </g>
    </g>
    <g id="xtick_3">
     <g id="line2d_5">
      <path d="M 483.822835 512.64 
L 483.822835 69.12 
" clip-path="url(#p72680ba1d8)" style="fill: none; stroke: #b0b0b0; stroke-width: 0.8; stroke-linecap: square"/>
     </g>
     <g id="line2d_6">
      <g>
       <use xlink:href="#mfb9ffad849" x="483.822835" y="512.64" style="stroke: #000000; stroke-width: 0.8"/>
      </g>
     </g>
     <g id="text_3">
      <!-- −0.4 -->
      <g transform="translate(471.681429 527.238438) scale(0.1 -0.1)">
       <defs>
        <path id="DejaVuSans-34" d="M 2419 4116 
L 825 1625 
L 2419 1625 
L 2419 4116 
z
M 2253 4666 
L 3047 4666 
L 3047 1625 
L 3713 1625 
L 3713 1100 
L 3047 1100 
L 3047 0 
L 2419 0 
L 2419 1100 
L 313 1100 
L 313 1709 
L 2253 4666 
z
" transform="scale(0.015625)"/>
       </defs>
       <use xlink:href="#DejaVuSans-2212"/>
       <use xlink:href="#DejaVuSans-30" x="83.789062"/>
       <use xlink:href="#DejaVuSans-2e" x="147.412109"/>
       <use xlink:href="#DejaVuSans-34" x="179.199219"/>
      </g>
     </g>
    </g>
    <g id="xtick_4">
     <g id="line2d_7">
      <path d="M 616.154871 512.64 
L 616.154871 69.12 
" clip-path="url(#p72680ba1d8)" style="fill: none; stroke: #b0b0b0; stroke-width: 0.8; stroke-linecap: square"/>
     </g>
     <g id="line2d_8">
      <g>
       <use xlink:href="#mfb9ffad849" x="616.154871" y="512.64" style="stroke: #000000; stroke-width: 0.8"/>
      </g>
     </g>
     <g id="text_4">
      <!-- −0.2 -->
      <g transform="translate(604.013464 527.238438) scale(0.1 -0.1)">
       <defs>
        <path id="DejaVuSans-32" d="M 1228 531 
L 3431 531 
L 3431 0 
L 469 0 
L 469 531 
Q 828 903 1448 1529 
Q 2069 2156 2228 2338 
Q 2531 2678 2651 2914 
Q 2772 3150 2772 3378 
Q 2772 3750 2511 3984 
Q 2250 4219 1831 4219 
Q 1534 4219 1204 4116 
Q 875 4013 500 3803 
L 500 4441 
Q 881 4594 1212 4672 
Q 1544 4750 1819 4750 
Q 2544 4750 2975 4387 
Q 3406 4025 3406 3419 
Q 3406 3131 3298 2873 
Q 3191 2616 2906 2266 
Q 2828 2175 2409 1742 
Q 1991 1309 1228 531 
z
" transform="scale(0.015625)"/>
       </defs>
       <use xlink:href="#DejaVuSans-2212"/>
       <use xlink:href="#DejaVuSans-30" x="83.789062"/>
       <use xlink:href="#DejaVuSans-2e" x="147.412109"/>
       <use xlink:href="#DejaVuSans-32" x="179.199219"/>
      </g>
     </g>
    </g>
    <g id="xtick_5">
     <g id="line2d_9">
      <path d="M 748.486906 512.64 
L 748.486906 69.12 
" clip-path="url(#p72680ba1d8)" style="fill: none; stroke: #b0b0b0; stroke-width: 0.8; stroke-linecap: square"/>
     </g>
     <g id="line2d_10">
      <g>
       <use xlink:href="#mfb9ffad849" x="748.486906" y="512.64" style="stroke: #000000; stroke-width: 0.8"/>
      </g>
     </g>
     <g id="text_5">
      <!-- 0.0 -->
      <g transform="translate(740.535344 527.238438) scale(0.1 -0.1)">
       <use xlink:href="#DejaVuSans-30"/>
       <use xlink:href="#DejaVuSans-2e" x="63.623047"/>
       <use xlink:href="#DejaVuSans-30" x="95.410156"/>
      </g>
     </g>
    </g>
    <g id="text_6">
     <!-- Distance from Cloud Droplet Probe Sample Volume [m] -->
     <g transform="translate(305.148438 540.916563) scale(0.1 -0.1)">
      <defs>
       <path id="DejaVuSans-44" d="M 1259 4147 
L 1259 519 
L 2022 519 
Q 2988 519 3436 956 
Q 3884 1394 3884 2338 
Q 3884 3275 3436 3711 
Q 2988 4147 2022 4147 
L 1259 4147 
z
M 628 4666 
L 1925 4666 
Q 3281 4666 3915 4102 
Q 4550 3538 4550 2338 
Q 4550 1131 3912 565 
Q 3275 0 1925 0 
L 628 0 
L 628 4666 
z
" transform="scale(0.015625)"/>
       <path id="DejaVuSans-69" d="M 603 3500 
L 1178 3500 
L 1178 0 
L 603 0 
L 603 3500 
z
M 603 4863 
L 1178 4863 
L 1178 4134 
L 603 4134 
L 603 4863 
z
" transform="scale(0.015625)"/>
       <path id="DejaVuSans-73" d="M 2834 3397 
L 2834 2853 
Q 2591 2978 2328 3040 
Q 2066 3103 1784 3103 
Q 1356 3103 1142 2972 
Q 928 2841 928 2578 
Q 928 2378 1081 2264 
Q 1234 2150 1697 2047 
L 1894 2003 
Q 2506 1872 2764 1633 
Q 3022 1394 3022 966 
Q 3022 478 2636 193 
Q 2250 -91 1575 -91 
Q 1294 -91 989 -36 
Q 684 19 347 128 
L 347 722 
Q 666 556 975 473 
Q 1284 391 1588 391 
Q 1994 391 2212 530 
Q 2431 669 2431 922 
Q 2431 1156 2273 1281 
Q 2116 1406 1581 1522 
L 1381 1569 
Q 847 1681 609 1914 
Q 372 2147 372 2553 
Q 372 3047 722 3315 
Q 1072 3584 1716 3584 
Q 2034 3584 2315 3537 
Q 2597 3491 2834 3397 
z
" transform="scale(0.015625)"/>
       <path id="DejaVuSans-74" d="M 1172 4494 
L 1172 3500 
L 2356 3500 
L 2356 3053 
L 1172 3053 
L 1172 1153 
Q 1172 725 1289 603 
Q 1406 481 1766 481 
L 2356 481 
L 2356 0 
L 1766 0 
Q 1100 0 847 248 
Q 594 497 594 1153 
L 594 3053 
L 172 3053 
L 172 3500 
L 594 3500 
L 594 4494 
L 1172 4494 
z
" transform="scale(0.015625)"/>
       <path id="DejaVuSans-61" d="M 2194 1759 
Q 1497 1759 1228 1600 
Q 959 1441 959 1056 
Q 959 750 1161 570 
Q 1363 391 1709 391 
Q 2188 391 2477 730 
Q 2766 1069 2766 1631 
L 2766 1759 
L 2194 1759 
z
M 3341 1997 
L 3341 0 
L 2766 0 
L 2766 531 
Q 2569 213 2275 61 
Q 1981 -91 1556 -91 
Q 1019 -91 701 211 
Q 384 513 384 1019 
Q 384 1609 779 1909 
Q 1175 2209 1959 2209 
L 2766 2209 
L 2766 2266 
Q 2766 2663 2505 2880 
Q 2244 3097 1772 3097 
Q 1472 3097 1187 3025 
Q 903 2953 641 2809 
L 641 3341 
Q 956 3463 1253 3523 
Q 1550 3584 1831 3584 
Q 2591 3584 2966 3190 
Q 3341 2797 3341 1997 
z
" transform="scale(0.015625)"/>
       <path id="DejaVuSans-6e" d="M 3513 2113 
L 3513 0 
L 2938 0 
L 2938 2094 
Q 2938 2591 2744 2837 
Q 2550 3084 2163 3084 
Q 1697 3084 1428 2787 
Q 1159 2491 1159 1978 
L 1159 0 
L 581 0 
L 581 3500 
L 1159 3500 
L 1159 2956 
Q 1366 3272 1645 3428 
Q 1925 3584 2291 3584 
Q 2894 3584 3203 3211 
Q 3513 2838 3513 2113 
z
" transform="scale(0.015625)"/>
       <path id="DejaVuSans-63" d="M 3122 3366 
L 3122 2828 
Q 2878 2963 2633 3030 
Q 2388 3097 2138 3097 
Q 1578 3097 1268 2742 
Q 959 2388 959 1747 
Q 959 1106 1268 751 
Q 1578 397 2138 397 
Q 2388 397 2633 464 
Q 2878 531 3122 666 
L 3122 134 
Q 2881 22 2623 -34 
Q 2366 -91 2075 -91 
Q 1284 -91 818 406 
Q 353 903 353 1747 
Q 353 2603 823 3093 
Q 1294 3584 2113 3584 
Q 2378 3584 2631 3529 
Q 2884 3475 3122 3366 
z
" transform="scale(0.015625)"/>
       <path id="DejaVuSans-65" d="M 3597 1894 
L 3597 1613 
L 953 1613 
Q 991 1019 1311 708 
Q 1631 397 2203 397 
Q 2534 397 2845 478 
Q 3156 559 3463 722 
L 3463 178 
Q 3153 47 2828 -22 
Q 2503 -91 2169 -91 
Q 1331 -91 842 396 
Q 353 884 353 1716 
Q 353 2575 817 3079 
Q 1281 3584 2069 3584 
Q 2775 3584 3186 3129 
Q 3597 2675 3597 1894 
z
M 3022 2063 
Q 3016 2534 2758 2815 
Q 2500 3097 2075 3097 
Q 1594 3097 1305 2825 
Q 1016 2553 972 2059 
L 3022 2063 
z
" transform="scale(0.015625)"/>
       <path id="DejaVuSans-20" transform="scale(0.015625)"/>
       <path id="DejaVuSans-66" d="M 2375 4863 
L 2375 4384 
L 1825 4384 
Q 1516 4384 1395 4259 
Q 1275 4134 1275 3809 
L 1275 3500 
L 2222 3500 
L 2222 3053 
L 1275 3053 
L 1275 0 
L 697 0 
L 697 3053 
L 147 3053 
L 147 3500 
L 697 3500 
L 697 3744 
Q 697 4328 969 4595 
Q 1241 4863 1831 4863 
L 2375 4863 
z
" transform="scale(0.015625)"/>
       <path id="DejaVuSans-72" d="M 2631 2963 
Q 2534 3019 2420 3045 
Q 2306 3072 2169 3072 
Q 1681 3072 1420 2755 
Q 1159 2438 1159 1844 
L 1159 0 
L 581 0 
L 581 3500 
L 1159 3500 
L 1159 2956 
Q 1341 3275 1631 3429 
Q 1922 3584 2338 3584 
Q 2397 3584 2469 3576 
Q 2541 3569 2628 3553 
L 2631 2963 
z
" transform="scale(0.015625)"/>
       <path id="DejaVuSans-6f" d="M 1959 3097 
Q 1497 3097 1228 2736 
Q 959 2375 959 1747 
Q 959 1119 1226 758 
Q 1494 397 1959 397 
Q 2419 397 2687 759 
Q 2956 1122 2956 1747 
Q 2956 2369 2687 2733 
Q 2419 3097 1959 3097 
z
M 1959 3584 
Q 2709 3584 3137 3096 
Q 3566 2609 3566 1747 
Q 3566 888 3137 398 
Q 2709 -91 1959 -91 
Q 1206 -91 779 398 
Q 353 888 353 1747 
Q 353 2609 779 3096 
Q 1206 3584 1959 3584 
z
" transform="scale(0.015625)"/>
       <path id="DejaVuSans-6d" d="M 3328 2828 
Q 3544 3216 3844 3400 
Q 4144 3584 4550 3584 
Q 5097 3584 5394 3201 
Q 5691 2819 5691 2113 
L 5691 0 
L 5113 0 
L 5113 2094 
Q 5113 2597 4934 2840 
Q 4756 3084 4391 3084 
Q 3944 3084 3684 2787 
Q 3425 2491 3425 1978 
L 3425 0 
L 2847 0 
L 2847 2094 
Q 2847 2600 2669 2842 
Q 2491 3084 2119 3084 
Q 1678 3084 1418 2786 
Q 1159 2488 1159 1978 
L 1159 0 
L 581 0 
L 581 3500 
L 1159 3500 
L 1159 2956 
Q 1356 3278 1631 3431 
Q 1906 3584 2284 3584 
Q 2666 3584 2933 3390 
Q 3200 3197 3328 2828 
z
" transform="scale(0.015625)"/>
       <path id="DejaVuSans-43" d="M 4122 4306 
L 4122 3641 
Q 3803 3938 3442 4084 
Q 3081 4231 2675 4231 
Q 1875 4231 1450 3742 
Q 1025 3253 1025 2328 
Q 1025 1406 1450 917 
Q 1875 428 2675 428 
Q 3081 428 3442 575 
Q 3803 722 4122 1019 
L 4122 359 
Q 3791 134 3420 21 
Q 3050 -91 2638 -91 
Q 1578 -91 968 557 
Q 359 1206 359 2328 
Q 359 3453 968 4101 
Q 1578 4750 2638 4750 
Q 3056 4750 3426 4639 
Q 3797 4528 4122 4306 
z
" transform="scale(0.015625)"/>
       <path id="DejaVuSans-6c" d="M 603 4863 
L 1178 4863 
L 1178 0 
L 603 0 
L 603 4863 
z
" transform="scale(0.015625)"/>
       <path id="DejaVuSans-75" d="M 544 1381 
L 544 3500 
L 1119 3500 
L 1119 1403 
Q 1119 906 1312 657 
Q 1506 409 1894 409 
Q 2359 409 2629 706 
Q 2900 1003 2900 1516 
L 2900 3500 
L 3475 3500 
L 3475 0 
L 2900 0 
L 2900 538 
Q 2691 219 2414 64 
Q 2138 -91 1772 -91 
Q 1169 -91 856 284 
Q 544 659 544 1381 
z
M 1991 3584 
L 1991 3584 
z
" transform="scale(0.015625)"/>
       <path id="DejaVuSans-64" d="M 2906 2969 
L 2906 4863 
L 3481 4863 
L 3481 0 
L 2906 0 
L 2906 525 
Q 2725 213 2448 61 
Q 2172 -91 1784 -91 
Q 1150 -91 751 415 
Q 353 922 353 1747 
Q 353 2572 751 3078 
Q 1150 3584 1784 3584 
Q 2172 3584 2448 3432 
Q 2725 3281 2906 2969 
z
M 947 1747 
Q 947 1113 1208 752 
Q 1469 391 1925 391 
Q 2381 391 2643 752 
Q 2906 1113 2906 1747 
Q 2906 2381 2643 2742 
Q 2381 3103 1925 3103 
Q 1469 3103 1208 2742 
Q 947 2381 947 1747 
z
" transform="scale(0.015625)"/>
       <path id="DejaVuSans-70" d="M 1159 525 
L 1159 -1331 
L 581 -1331 
L 581 3500 
L 1159 3500 
L 1159 2969 
Q 1341 3281 1617 3432 
Q 1894 3584 2278 3584 
Q 2916 3584 3314 3078 
Q 3713 2572 3713 1747 
Q 3713 922 3314 415 
Q 2916 -91 2278 -91 
Q 1894 -91 1617 61 
Q 1341 213 1159 525 
z
M 3116 1747 
Q 3116 2381 2855 2742 
Q 2594 3103 2138 3103 
Q 1681 3103 1420 2742 
Q 1159 2381 1159 1747 
Q 1159 1113 1420 752 
Q 1681 391 2138 391 
Q 2594 391 2855 752 
Q 3116 1113 3116 1747 
z
" transform="scale(0.015625)"/>
       <path id="DejaVuSans-50" d="M 1259 4147 
L 1259 2394 
L 2053 2394 
Q 2494 2394 2734 2622 
Q 2975 2850 2975 3272 
Q 2975 3691 2734 3919 
Q 2494 4147 2053 4147 
L 1259 4147 
z
M 628 4666 
L 2053 4666 
Q 2838 4666 3239 4311 
Q 3641 3956 3641 3272 
Q 3641 2581 3239 2228 
Q 2838 1875 2053 1875 
L 1259 1875 
L 1259 0 
L 628 0 
L 628 4666 
z
" transform="scale(0.015625)"/>
       <path id="DejaVuSans-62" d="M 3116 1747 
Q 3116 2381 2855 2742 
Q 2594 3103 2138 3103 
Q 1681 3103 1420 2742 
Q 1159 2381 1159 1747 
Q 1159 1113 1420 752 
Q 1681 391 2138 391 
Q 2594 391 2855 752 
Q 3116 1113 3116 1747 
z
M 1159 2969 
Q 1341 3281 1617 3432 
Q 1894 3584 2278 3584 
Q 2916 3584 3314 3078 
Q 3713 2572 3713 1747 
Q 3713 922 3314 415 
Q 2916 -91 2278 -91 
Q 1894 -91 1617 61 
Q 1341 213 1159 525 
L 1159 0 
L 581 0 
L 581 4863 
L 1159 4863 
L 1159 2969 
z
" transform="scale(0.015625)"/>
       <path id="DejaVuSans-53" d="M 3425 4513 
L 3425 3897 
Q 3066 4069 2747 4153 
Q 2428 4238 2131 4238 
Q 1616 4238 1336 4038 
Q 1056 3838 1056 3469 
Q 1056 3159 1242 3001 
Q 1428 2844 1947 2747 
L 2328 2669 
Q 3034 2534 3370 2195 
Q 3706 1856 3706 1288 
Q 3706 609 3251 259 
Q 2797 -91 1919 -91 
Q 1588 -91 1214 -16 
Q 841 59 441 206 
L 441 856 
Q 825 641 1194 531 
Q 1563 422 1919 422 
Q 2459 422 2753 634 
Q 3047 847 3047 1241 
Q 3047 1584 2836 1778 
Q 2625 1972 2144 2069 
L 1759 2144 
Q 1053 2284 737 2584 
Q 422 2884 422 3419 
Q 422 4038 858 4394 
Q 1294 4750 2059 4750 
Q 2388 4750 2728 4690 
Q 3069 4631 3425 4513 
z
" transform="scale(0.015625)"/>
       <path id="DejaVuSans-56" d="M 1831 0 
L 50 4666 
L 709 4666 
L 2188 738 
L 3669 4666 
L 4325 4666 
L 2547 0 
L 1831 0 
z
" transform="scale(0.015625)"/>
       <path id="DejaVuSans-5b" d="M 550 4863 
L 1875 4863 
L 1875 4416 
L 1125 4416 
L 1125 -397 
L 1875 -397 
L 1875 -844 
L 550 -844 
L 550 4863 
z
" transform="scale(0.015625)"/>
       <path id="DejaVuSans-5d" d="M 1947 4863 
L 1947 -844 
L 622 -844 
L 622 -397 
L 1369 -397 
L 1369 4416 
L 622 4416 
L 622 4863 
L 1947 4863 
z
" transform="scale(0.015625)"/>
      </defs>
      <use xlink:href="#DejaVuSans-44"/>
      <use xlink:href="#DejaVuSans-69" x="77.001953"/>
      <use xlink:href="#DejaVuSans-73" x="104.785156"/>
      <use xlink:href="#DejaVuSans-74" x="156.884766"/>
      <use xlink:href="#DejaVuSans-61" x="196.09375"/>
      <use xlink:href="#DejaVuSans-6e" x="257.373047"/>
      <use xlink:href="#DejaVuSans-63" x="320.751953"/>
      <use xlink:href="#DejaVuSans-65" x="375.732422"/>
      <use xlink:href="#DejaVuSans-20" x="437.255859"/>
      <use xlink:href="#DejaVuSans-66" x="469.042969"/>
      <use xlink:href="#DejaVuSans-72" x="504.248047"/>
      <use xlink:href="#DejaVuSans-6f" x="543.111328"/>
      <use xlink:href="#DejaVuSans-6d" x="604.292969"/>
      <use xlink:href="#DejaVuSans-20" x="701.705078"/>
      <use xlink:href="#DejaVuSans-43" x="733.492188"/>
      <use xlink:href="#DejaVuSans-6c" x="803.316406"/>
      <use xlink:href="#DejaVuSans-6f" x="831.099609"/>
      <use xlink:href="#DejaVuSans-75" x="892.28125"/>
      <use xlink:href="#DejaVuSans-64" x="955.660156"/>
      <use xlink:href="#DejaVuSans-20" x="1019.136719"/>
      <use xlink:href="#DejaVuSans-44" x="1050.923828"/>
      <use xlink:href="#DejaVuSans-72" x="1127.925781"/>
      <use xlink:href="#DejaVuSans-6f" x="1166.789062"/>
      <use xlink:href="#DejaVuSans-70" x="1227.970703"/>
      <use xlink:href="#DejaVuSans-6c" x="1291.447266"/>
      <use xlink:href="#DejaVuSans-65" x="1319.230469"/>
      <use xlink:href="#DejaVuSans-74" x="1380.753906"/>
      <use xlink:href="#DejaVuSans-20" x="1419.962891"/>
      <use xlink:href="#DejaVuSans-50" x="1451.75"/>
      <use xlink:href="#DejaVuSans-72" x="1510.302734"/>
      <use xlink:href="#DejaVuSans-6f" x="1549.166016"/>
      <use xlink:href="#DejaVuSans-62" x="1610.347656"/>
      <use xlink:href="#DejaVuSans-65" x="1673.824219"/>
      <use xlink:href="#DejaVuSans-20" x="1735.347656"/>
      <use xlink:href="#DejaVuSans-53" x="1767.134766"/>
      <use xlink:href="#DejaVuSans-61" x="1830.611328"/>
      <use xlink:href="#DejaVuSans-6d" x="1891.890625"/>
      <use xlink:href="#DejaVuSans-70" x="1989.302734"/>
      <use xlink:href="#DejaVuSans-6c" x="2052.779297"/>
      <use xlink:href="#DejaVuSans-65" x="2080.5625"/>
      <use xlink:href="#DejaVuSans-20" x="2142.085938"/>
      <use xlink:href="#DejaVuSans-56" x="2173.873047"/>
      <use xlink:href="#DejaVuSans-6f" x="2234.53125"/>
      <use xlink:href="#DejaVuSans-6c" x="2295.712891"/>
      <use xlink:href="#DejaVuSans-75" x="2323.496094"/>
      <use xlink:href="#DejaVuSans-6d" x="2386.875"/>
      <use xlink:href="#DejaVuSans-65" x="2484.287109"/>
      <use xlink:href="#DejaVuSans-20" x="2545.810547"/>
      <use xlink:href="#DejaVuSans-5b" x="2577.597656"/>
      <use xlink:href="#DejaVuSans-6d" x="2616.611328"/>
      <use xlink:href="#DejaVuSans-5d" x="2714.023438"/>
     </g>
    </g>
   </g>
   <g id="matplotlib.axis_2">
    <g id="ytick_1">
     <g id="line2d_11">
      <path d="M 108 489.895385 
L 777.6 489.895385 
" clip-path="url(#p72680ba1d8)" style="fill: none; stroke: #b0b0b0; stroke-width: 0.8; stroke-linecap: square"/>
     </g>
     <g id="line2d_12">
      <defs>
       <path id="mfa35e2e5b3" d="M 0 0 
L -3.5 0 
" style="stroke: #000000; stroke-width: 0.8"/>
      </defs>
      <g>
       <use xlink:href="#mfa35e2e5b3" x="108" y="489.895385" style="stroke: #000000; stroke-width: 0.8"/>
      </g>
     </g>
     <g id="text_7">
      <!-- −25 -->
      <g transform="translate(79.895313 493.694603) scale(0.1 -0.1)">
       <defs>
        <path id="DejaVuSans-35" d="M 691 4666 
L 3169 4666 
L 3169 4134 
L 1269 4134 
L 1269 2991 
Q 1406 3038 1543 3061 
Q 1681 3084 1819 3084 
Q 2600 3084 3056 2656 
Q 3513 2228 3513 1497 
Q 3513 744 3044 326 
Q 2575 -91 1722 -91 
Q 1428 -91 1123 -41 
Q 819 9 494 109 
L 494 744 
Q 775 591 1075 516 
Q 1375 441 1709 441 
Q 2250 441 2565 725 
Q 2881 1009 2881 1497 
Q 2881 1984 2565 2268 
Q 2250 2553 1709 2553 
Q 1456 2553 1204 2497 
Q 953 2441 691 2322 
L 691 4666 
z
" transform="scale(0.015625)"/>
       </defs>
       <use xlink:href="#DejaVuSans-2212"/>
       <use xlink:href="#DejaVuSans-32" x="83.789062"/>
       <use xlink:href="#DejaVuSans-35" x="147.412109"/>
      </g>
     </g>
    </g>
    <g id="ytick_2">
     <g id="line2d_13">
      <path d="M 108 433.033846 
L 777.6 433.033846 
" clip-path="url(#p72680ba1d8)" style="fill: none; stroke: #b0b0b0; stroke-width: 0.8; stroke-linecap: square"/>
     </g>
     <g id="line2d_14">
      <g>
       <use xlink:href="#mfa35e2e5b3" x="108" y="433.033846" style="stroke: #000000; stroke-width: 0.8"/>
      </g>
     </g>
     <g id="text_8">
      <!-- 0 -->
      <g transform="translate(94.6375 436.833065) scale(0.1 -0.1)">
       <use xlink:href="#DejaVuSans-30"/>
      </g>
     </g>
    </g>
    <g id="ytick_3">
     <g id="line2d_15">
      <path d="M 108 376.172308 
L 777.6 376.172308 
" clip-path="url(#p72680ba1d8)" style="fill: none; stroke: #b0b0b0; stroke-width: 0.8; stroke-linecap: square"/>
     </g>
     <g id="line2d_16">
      <g>
       <use xlink:href="#mfa35e2e5b3" x="108" y="376.172308" style="stroke: #000000; stroke-width: 0.8"/>
      </g>
     </g>
     <g id="text_9">
      <!-- 25 -->
      <g transform="translate(88.275 379.971526) scale(0.1 -0.1)">
       <use xlink:href="#DejaVuSans-32"/>
       <use xlink:href="#DejaVuSans-35" x="63.623047"/>
      </g>
     </g>
    </g>
    <g id="ytick_4">
     <g id="line2d_17">
      <path d="M 108 319.310769 
L 777.6 319.310769 
" clip-path="url(#p72680ba1d8)" style="fill: none; stroke: #b0b0b0; stroke-width: 0.8; stroke-linecap: square"/>
     </g>
     <g id="line2d_18">
      <g>
       <use xlink:href="#mfa35e2e5b3" x="108" y="319.310769" style="stroke: #000000; stroke-width: 0.8"/>
      </g>
     </g>
     <g id="text_10">
      <!-- 50 -->
      <g transform="translate(88.275 323.109988) scale(0.1 -0.1)">
       <use xlink:href="#DejaVuSans-35"/>
       <use xlink:href="#DejaVuSans-30" x="63.623047"/>
      </g>
     </g>
    </g>
    <g id="ytick_5">
     <g id="line2d_19">
      <path d="M 108 262.449231 
L 777.6 262.449231 
" clip-path="url(#p72680ba1d8)" style="fill: none; stroke: #b0b0b0; stroke-width: 0.8; stroke-linecap: square"/>
     </g>
     <g id="line2d_20">
      <g>
       <use xlink:href="#mfa35e2e5b3" x="108" y="262.449231" style="stroke: #000000; stroke-width: 0.8"/>
      </g>
     </g>
     <g id="text_11">
      <!-- 75 -->
      <g transform="translate(88.275 266.24845) scale(0.1 -0.1)">
       <defs>
        <path id="DejaVuSans-37" d="M 525 4666 
L 3525 4666 
L 3525 4397 
L 1831 0 
L 1172 0 
L 2766 4134 
L 525 4134 
L 525 4666 
z
" transform="scale(0.015625)"/>
       </defs>
       <use xlink:href="#DejaVuSans-37"/>
       <use xlink:href="#DejaVuSans-35" x="63.623047"/>
      </g>
     </g>
    </g>
    <g id="ytick_6">
     <g id="line2d_21">
      <path d="M 108 205.587692 
L 777.6 205.587692 
" clip-path="url(#p72680ba1d8)" style="fill: none; stroke: #b0b0b0; stroke-width: 0.8; stroke-linecap: square"/>
     </g>
     <g id="line2d_22">
      <g>
       <use xlink:href="#mfa35e2e5b3" x="108" y="205.587692" style="stroke: #000000; stroke-width: 0.8"/>
      </g>
     </g>
     <g id="text_12">
      <!-- 100 -->
      <g transform="translate(81.9125 209.386911) scale(0.1 -0.1)">
       <defs>
        <path id="DejaVuSans-31" d="M 794 531 
L 1825 531 
L 1825 4091 
L 703 3866 
L 703 4441 
L 1819 4666 
L 2450 4666 
L 2450 531 
L 3481 531 
L 3481 0 
L 794 0 
L 794 531 
z
" transform="scale(0.015625)"/>
       </defs>
       <use xlink:href="#DejaVuSans-31"/>
       <use xlink:href="#DejaVuSans-30" x="63.623047"/>
       <use xlink:href="#DejaVuSans-30" x="127.246094"/>
      </g>
     </g>
    </g>
    <g id="ytick_7">
     <g id="line2d_23">
      <path d="M 108 148.726154 
L 777.6 148.726154 
" clip-path="url(#p72680ba1d8)" style="fill: none; stroke: #b0b0b0; stroke-width: 0.8; stroke-linecap: square"/>
     </g>
     <g id="line2d_24">
      <g>
       <use xlink:href="#mfa35e2e5b3" x="108" y="148.726154" style="stroke: #000000; stroke-width: 0.8"/>
      </g>
     </g>
     <g id="text_13">
      <!-- 125 -->
      <g transform="translate(81.9125 152.525373) scale(0.1 -0.1)">
       <use xlink:href="#DejaVuSans-31"/>
       <use xlink:href="#DejaVuSans-32" x="63.623047"/>
       <use xlink:href="#DejaVuSans-35" x="127.246094"/>
      </g>
     </g>
    </g>
    <g id="ytick_8">
     <g id="line2d_25">
      <path d="M 108 91.864615 
L 777.6 91.864615 
" clip-path="url(#p72680ba1d8)" style="fill: none; stroke: #b0b0b0; stroke-width: 0.8; stroke-linecap: square"/>
     </g>
     <g id="line2d_26">
      <g>
       <use xlink:href="#mfa35e2e5b3" x="108" y="91.864615" style="stroke: #000000; stroke-width: 0.8"/>
      </g>
     </g>
     <g id="text_14">
      <!-- 150 -->
      <g transform="translate(81.9125 95.663834) scale(0.1 -0.1)">
       <use xlink:href="#DejaVuSans-31"/>
       <use xlink:href="#DejaVuSans-35" x="63.623047"/>
       <use xlink:href="#DejaVuSans-30" x="127.246094"/>
      </g>
     </g>
    </g>
    <g id="text_15">
     <!-- Velocity [m/s] -->
     <g transform="translate(73.815625 325.145625) rotate(-90) scale(0.1 -0.1)">
      <defs>
       <path id="DejaVuSans-79" d="M 2059 -325 
Q 1816 -950 1584 -1140 
Q 1353 -1331 966 -1331 
L 506 -1331 
L 506 -850 
L 844 -850 
Q 1081 -850 1212 -737 
Q 1344 -625 1503 -206 
L 1606 56 
L 191 3500 
L 800 3500 
L 1894 763 
L 2988 3500 
L 3597 3500 
L 2059 -325 
z
" transform="scale(0.015625)"/>
       <path id="DejaVuSans-2f" d="M 1625 4666 
L 2156 4666 
L 531 -594 
L 0 -594 
L 1625 4666 
z
" transform="scale(0.015625)"/>
      </defs>
      <use xlink:href="#DejaVuSans-56"/>
      <use xlink:href="#DejaVuSans-65" x="60.658203"/>
      <use xlink:href="#DejaVuSans-6c" x="122.181641"/>
      <use xlink:href="#DejaVuSans-6f" x="149.964844"/>
      <use xlink:href="#DejaVuSans-63" x="211.146484"/>
      <use xlink:href="#DejaVuSans-69" x="266.126953"/>
      <use xlink:href="#DejaVuSans-74" x="293.910156"/>
      <use xlink:href="#DejaVuSans-79" x="333.119141"/>
      <use xlink:href="#DejaVuSans-20" x="392.298828"/>
      <use xlink:href="#DejaVuSans-5b" x="424.085938"/>
      <use xlink:href="#DejaVuSans-6d" x="463.099609"/>
      <use xlink:href="#DejaVuSans-2f" x="560.511719"/>
      <use xlink:href="#DejaVuSans-73" x="594.203125"/>
      <use xlink:href="#DejaVuSans-5d" x="646.302734"/>
     </g>
    </g>
   </g>
   <g id="line2d_27">
    <path d="M 138.436364 121.665594 
L 144.52356 121.848526 
L 150.610897 121.860326 
L 156.698234 121.881011 
L 162.785571 121.912454 
L 168.872278 121.956183 
L 174.959615 122.013169 
L 181.046952 122.083587 
L 187.134289 122.167019 
L 193.221627 122.26239 
L 199.308964 122.368138 
L 205.396301 122.482388 
L 211.483638 122.603198 
L 217.570976 122.728659 
L 223.658313 122.856965 
L 229.745019 122.986694 
L 235.832356 123.116632 
L 241.919694 123.245945 
L 248.007031 123.374043 
L 254.094368 123.500544 
L 260.181705 123.625033 
L 266.269043 123.74678 
L 272.35638 123.864328 
L 278.443717 123.974899 
L 284.531054 124.073914 
L 290.61776 124.154952 
L 296.705098 124.210932 
L 302.792435 124.236163 
L 308.879772 124.284577 
L 314.967109 124.433811 
L 321.054447 124.583079 
L 327.141784 124.732313 
L 333.229121 124.881547 
L 339.316458 125.03078 
L 345.403796 125.180014 
L 351.490502 125.329248 
L 357.577839 125.478482 
L 363.665176 125.62775 
L 369.752514 125.776984 
L 375.839851 125.926218 
L 381.927188 126.075452 
L 388.014525 126.630497 
L 394.101863 126.66378 
L 400.1892 126.728957 
L 406.276537 126.839355 
L 412.363243 126.999625 
L 418.45058 127.204145 
L 424.537918 127.439414 
L 430.625255 127.688703 
L 436.712592 127.936466 
L 442.799929 128.170729 
L 448.887267 128.383473 
L 454.974604 128.568419 
L 461.061941 128.714287 
L 467.149278 128.797684 
L 473.235985 129.093618 
L 479.323322 129.3427 
L 485.410659 129.591746 
L 491.497996 129.840828 
L 497.585334 130.08991 
L 503.672671 130.338956 
L 509.760008 130.588038 
L 515.847345 130.928499 
L 521.934683 131.280934 
L 528.02202 131.633369 
L 534.108726 131.985803 
L 540.196063 132.338273 
L 546.2834 132.690742 
L 552.370738 133.969155 
L 558.458075 134.192624 
L 564.545412 134.596665 
L 570.632749 135.167155 
L 576.720087 135.77943 
L 582.807424 136.297653 
L 588.894761 136.621559 
L 594.981467 137.255699 
L 601.068805 138.061908 
L 607.156142 138.868118 
L 613.243479 139.674327 
L 619.330816 141.144523 
L 625.418154 143.231488 
L 631.505491 143.952322 
L 637.592828 145.4499 
L 643.680165 147.530878 
L 649.767503 149.389082 
L 655.854209 151.551652 
L 661.941546 155.205468 
L 668.028883 166.719079 
L 674.116221 186.610987 
L 680.203558 203.876554 
L 686.290895 218.073197 
L 692.378232 219.641662 
L 698.465569 222.062979 
L 704.552907 226.091649 
L 710.640244 231.955409 
L 716.72695 239.110873 
L 722.814287 246.216848 
L 728.901625 253.239893 
L 734.988962 257.963906 
L 741.076299 293.285874 
L 747.163636 399.124892 
" clip-path="url(#p72680ba1d8)" style="fill: none; stroke: #1f77b4; stroke-width: 1.5; stroke-linecap: square"/>
   </g>
   <g id="line2d_28">
    <path d="M 138.436364 432.498722 
L 144.52356 432.485414 
L 150.610897 432.515006 
L 156.698234 432.564176 
L 162.785571 432.632928 
L 168.872278 432.720061 
L 174.959615 432.823286 
L 181.046952 432.93939 
L 187.134289 433.064589 
L 193.221627 433.19487 
L 199.308964 433.326305 
L 205.396301 433.455301 
L 211.483638 433.578755 
L 217.570976 433.694131 
L 223.658313 433.799459 
L 229.745019 433.89328 
L 235.832356 433.974616 
L 241.919694 434.042825 
L 248.007031 434.097576 
L 254.094368 434.138796 
L 260.181705 434.166676 
L 266.269043 434.181766 
L 272.35638 434.185157 
L 278.443717 434.178774 
L 284.531054 434.165676 
L 290.61776 434.150144 
L 296.705098 434.13724 
L 302.792435 434.131669 
L 308.879772 434.375269 
L 314.967109 434.495036 
L 321.054447 434.614803 
L 327.141784 434.73457 
L 333.229121 434.854337 
L 339.316458 434.974104 
L 345.403796 435.093872 
L 351.490502 435.213627 
L 357.577839 435.333394 
L 363.665176 435.453162 
L 369.752514 435.572929 
L 375.839851 435.692697 
L 381.927188 435.812465 
L 388.014525 436.046923 
L 394.101863 436.131617 
L 400.1892 436.297952 
L 406.276537 436.536259 
L 412.363243 436.822703 
L 418.45058 437.127343 
L 424.537918 437.421875 
L 430.625255 437.684535 
L 436.712592 437.901528 
L 442.799929 438.06626 
L 448.887267 438.177727 
L 454.974604 438.239799 
L 461.061941 438.263468 
L 467.149278 438.270414 
L 473.235985 438.58611 
L 479.323322 438.817878 
L 485.410659 439.049648 
L 491.497996 439.281417 
L 497.585334 439.513188 
L 503.672671 439.744958 
L 509.760008 439.97673 
L 515.847345 440.287219 
L 521.934683 440.608044 
L 528.02202 440.928867 
L 534.108726 441.249655 
L 540.196063 441.570475 
L 546.2834 441.891292 
L 552.370738 442.84694 
L 558.458075 443.124603 
L 564.545412 443.599284 
L 570.632749 444.180302 
L 576.720087 444.744711 
L 582.807424 445.237069 
L 588.894761 445.649579 
L 594.981467 445.78696 
L 601.068805 446.367022 
L 607.156142 446.947083 
L 613.243479 447.527143 
L 619.330816 448.307605 
L 625.418154 449.289889 
L 631.505491 450.128178 
L 637.592828 450.794565 
L 643.680165 451.515807 
L 649.767503 452.846955 
L 655.854209 454.188198 
L 661.941546 455.190634 
L 668.028883 455.630516 
L 674.116221 455.466624 
L 680.203558 455.910818 
L 686.290895 456.936715 
L 692.378232 459.843164 
L 698.465569 462.847028 
L 704.552907 466.142127 
L 710.640244 469.140617 
L 716.72695 471.96486 
L 722.814287 477.374441 
L 728.901625 483.361709 
L 734.988962 488.968374 
L 741.076299 480.142203 
L 747.163636 443.089036 
" clip-path="url(#p72680ba1d8)" style="fill: none; stroke-dasharray: 5.55,2.4; stroke-dashoffset: 0; stroke: #ff7f0e; stroke-width: 1.5"/>
   </g>
   <g id="line2d_29">
    <path d="M 138.436364 426.472579 
L 144.52356 426.432024 
L 150.610897 426.423029 
L 156.698234 426.407837 
L 162.785571 426.385992 
L 168.872278 426.357383 
L 174.959615 426.322263 
L 181.046952 426.281246 
L 187.134289 426.235226 
L 193.221627 426.185295 
L 199.308964 426.132637 
L 205.396301 426.078436 
L 211.483638 426.023799 
L 217.570976 425.969702 
L 223.658313 425.916961 
L 229.745019 425.866221 
L 235.832356 425.817943 
L 241.919694 425.772447 
L 248.007031 425.729922 
L 254.094368 425.690457 
L 260.181705 425.654094 
L 266.269043 425.620884 
L 272.35638 425.590967 
L 278.443717 425.564658 
L 284.531054 425.542508 
L 290.61776 425.525285 
L 296.705098 425.513798 
L 302.792435 425.508573 
L 308.879772 425.447559 
L 314.967109 425.382485 
L 321.054447 425.31741 
L 327.141784 425.252335 
L 333.229121 425.18726 
L 339.316458 425.122184 
L 345.403796 425.057108 
L 351.490502 424.99204 
L 357.577839 424.926964 
L 363.665176 424.861888 
L 369.752514 424.796812 
L 375.839851 424.731736 
L 381.927188 424.666659 
L 388.014525 424.469311 
L 394.101863 424.443786 
L 400.1892 424.393696 
L 406.276537 424.317304 
L 412.363243 424.217941 
L 418.45058 424.102931 
L 424.537918 423.98141 
L 430.625255 423.862074 
L 436.712592 423.751738 
L 442.799929 423.654801 
L 448.887267 423.573466 
L 454.974604 423.508626 
L 461.061941 423.461572 
L 467.149278 423.43565 
L 473.235985 423.292716 
L 479.323322 423.168899 
L 485.410659 423.045082 
L 491.497996 422.921263 
L 497.585334 422.797444 
L 503.672671 422.673624 
L 509.760008 422.549804 
L 515.847345 422.399381 
L 521.934683 422.245464 
L 528.02202 422.091545 
L 534.108726 421.937642 
L 540.196063 421.78372 
L 546.2834 421.629798 
L 552.370738 421.190529 
L 558.458075 421.115951 
L 564.545412 420.983473 
L 570.632749 420.803863 
L 576.720087 420.6218 
L 582.807424 420.483607 
L 588.894761 420.41624 
L 594.981467 420.248284 
L 601.068805 420.056539 
L 607.156142 419.864791 
L 613.243479 419.673041 
L 619.330816 419.241307 
L 625.418154 418.609976 
L 631.505491 418.370038 
L 637.592828 417.884002 
L 643.680165 417.165152 
L 649.767503 415.765066 
L 655.854209 413.732334 
L 661.941546 409.306756 
L 668.028883 405.307721 
L 674.116221 401.752536 
L 680.203558 401.763278 
L 686.290895 403.850913 
L 692.378232 408.605798 
L 698.465569 413.138956 
L 704.552907 417.15422 
L 710.640244 420.145846 
L 716.72695 422.411745 
L 722.814287 425.010954 
L 728.901625 427.828181 
L 734.988962 435.24261 
L 741.076299 439.284447 
L 747.163636 434.529398 
" clip-path="url(#p72680ba1d8)" style="fill: none; stroke-dasharray: 9.6,2.4,1.5,2.4; stroke-dashoffset: 0; stroke: #2ca02c; stroke-width: 1.5"/>
   </g>
   <g id="line2d_30">
    <path d="M 138.436364 126.980572 
L 144.52356 127.170515 
L 150.610897 127.198037 
L 156.698234 127.244854 
L 162.785571 127.313016 
L 168.872278 127.403598 
L 174.959615 127.51646 
L 181.046952 127.650215 
L 187.134289 127.802538 
L 193.221627 127.970235 
L 199.308964 128.149697 
L 205.396301 128.337176 
L 211.483638 128.528994 
L 217.570976 128.721887 
L 223.658313 128.912976 
L 229.745019 129.099969 
L 235.832356 129.281236 
L 241.919694 129.455527 
L 248.007031 129.622114 
L 254.094368 129.780614 
L 260.181705 129.930681 
L 266.269043 130.071897 
L 272.35638 130.203119 
L 278.443717 130.322194 
L 284.531054 130.425477 
L 290.61776 130.507868 
L 296.705098 130.563814 
L 302.792435 130.589149 
L 308.879772 130.738799 
L 314.967109 130.945644 
L 321.054447 131.152489 
L 327.141784 131.359334 
L 333.229121 131.566179 
L 339.316458 131.773024 
L 345.403796 131.979869 
L 351.490502 132.186679 
L 357.577839 132.393524 
L 363.665176 132.600369 
L 369.752514 132.807214 
L 375.839851 133.014059 
L 381.927188 133.220938 
L 388.014525 133.877116 
L 394.101863 133.934796 
L 400.1892 134.047936 
L 406.276537 134.227642 
L 412.363243 134.472281 
L 418.45058 134.767833 
L 424.537918 135.092469 
L 430.625255 135.423004 
L 436.712592 135.739518 
L 442.799929 136.027991 
L 448.887267 136.279953 
L 454.974604 136.490095 
L 461.061941 136.649532 
L 467.149278 136.739177 
L 473.235985 137.116287 
L 479.323322 137.423188 
L 485.410659 137.730089 
L 491.497996 138.037024 
L 497.585334 138.343925 
L 503.672671 138.650861 
L 509.760008 138.957762 
L 515.847345 139.358368 
L 521.934683 139.771294 
L 528.02202 140.184221 
L 534.108726 140.597113 
L 540.196063 141.010039 
L 546.2834 141.422965 
L 552.370738 142.832149 
L 558.458075 143.088761 
L 564.545412 143.548835 
L 570.632749 144.186011 
L 576.720087 144.859958 
L 582.807424 145.42774 
L 588.894761 145.789927 
L 594.981467 146.427711 
L 601.068805 147.280443 
L 607.156142 148.133175 
L 613.243479 148.985907 
L 619.330816 150.466445 
L 625.418154 152.562972 
L 631.505491 153.350752 
L 637.592828 154.817529 
L 643.680165 156.82278 
L 649.767503 158.654573 
L 655.854209 160.753199 
L 661.941546 164.144831 
L 668.028883 175.2059 
L 674.116221 194.444806 
L 680.203558 211.360957 
L 686.290895 225.421919 
L 692.378232 227.390053 
L 698.465569 230.189435 
L 704.552907 234.56143 
L 710.640244 240.58388 
L 716.72695 247.767872 
L 722.814287 254.514367 
L 728.901625 261.104912 
L 734.988962 265.631797 
L 741.076299 299.293262 
L 747.163636 400.474609 
" clip-path="url(#p72680ba1d8)" style="fill: none; stroke: #d62728; stroke-width: 1.5; stroke-linecap: square"/>
   </g>
   <g id="line2d_31">
    <path d="M 138.436364 403.645501 
L 144.52356 403.554907 
L 150.610897 403.588608 
L 156.698234 403.644217 
L 162.785571 403.721014 
L 168.872278 403.816886 
L 174.959615 403.928542 
L 181.046952 404.051773 
L 187.134289 404.181906 
L 193.221627 404.314216 
L 199.308964 404.444275 
L 205.396301 404.5682 
L 211.483638 404.682789 
L 217.570976 404.785552 
L 223.658313 404.874667 
L 229.745019 404.948876 
L 235.832356 405.007403 
L 241.919694 405.049811 
L 248.007031 405.07594 
L 254.094368 405.085889 
L 260.181705 405.080078 
L 266.269043 405.059455 
L 272.35638 405.025862 
L 278.443717 404.982578 
L 284.531054 404.934821 
L 290.61776 404.889866 
L 296.705098 404.856165 
L 302.792435 404.841278 
L 308.879772 405.12679 
L 314.967109 405.232019 
L 321.054447 405.337249 
L 327.141784 405.44248 
L 333.229121 405.547709 
L 339.316458 405.652939 
L 345.403796 405.758168 
L 351.490502 405.863387 
L 357.577839 405.968618 
L 363.665176 406.073847 
L 369.752514 406.179077 
L 375.839851 406.284308 
L 381.927188 406.389538 
L 388.014525 406.529898 
L 394.101863 406.622325 
L 400.1892 406.803932 
L 406.276537 407.060157 
L 412.363243 407.361761 
L 418.45058 407.674807 
L 424.537918 407.969203 
L 430.625255 408.223343 
L 436.712592 408.424763 
L 442.799929 408.568622 
L 448.887267 408.6557 
L 454.974604 408.6919 
L 461.061941 408.691928 
L 467.149278 408.684562 
L 473.235985 408.984908 
L 479.323322 409.202735 
L 485.410659 409.420562 
L 491.497996 409.638389 
L 497.585334 409.856219 
L 503.672671 410.074048 
L 509.760008 410.291877 
L 515.847345 410.584434 
L 521.934683 410.886806 
L 528.02202 411.189173 
L 534.108726 411.491511 
L 540.196063 411.793874 
L 546.2834 412.096237 
L 552.370738 412.963778 
L 558.458075 413.232257 
L 564.545412 413.688785 
L 570.632749 414.238959 
L 576.720087 414.766268 
L 582.807424 415.225468 
L 588.894761 415.617899 
L 594.981467 415.703703 
L 601.068805 416.227515 
L 607.156142 416.751325 
L 613.243479 417.275134 
L 619.330816 417.923889 
L 625.418154 418.713152 
L 631.505491 419.465574 
L 637.592828 419.996826 
L 643.680165 420.543037 
L 649.767503 421.690056 
L 655.854209 422.749359 
L 661.941546 423.042458 
L 668.028883 424.018249 
L 674.116221 425.71844 
L 680.203558 427.991768 
L 686.290895 430.540308 
L 692.378232 432.922751 
L 698.465569 435.345236 
L 704.552907 437.941271 
L 710.640244 440.716112 
L 716.72695 443.656193 
L 722.814287 448.983263 
L 728.901625 454.818062 
L 734.988962 459.514698 
L 741.076299 455.872104 
L 747.163636 437.418058 
" clip-path="url(#p72680ba1d8)" style="fill: none; stroke-dasharray: 5.55,2.4; stroke-dashoffset: 0; stroke: #9467bd; stroke-width: 1.5"/>
   </g>
   <g id="line2d_32">
    <path d="M 138.436364 424.832618 
L 144.52356 424.803498 
L 150.610897 424.787534 
L 156.698234 424.760802 
L 162.785571 424.722925 
L 168.872278 424.674152 
L 174.959615 424.615347 
L 181.046952 424.547933 
L 187.134289 424.473731 
L 193.221627 424.394785 
L 199.308964 424.313193 
L 205.396301 424.230951 
L 211.483638 424.149848 
L 217.570976 424.071403 
L 223.658313 423.996831 
L 229.745019 423.927063 
L 235.832356 423.862732 
L 241.919694 423.804259 
L 248.007031 423.751861 
L 254.094368 423.705607 
L 260.181705 423.665456 
L 266.269043 423.631295 
L 272.35638 423.602966 
L 278.443717 423.58028 
L 284.531054 423.563011 
L 290.61776 423.550845 
L 296.705098 423.543328 
L 302.792435 423.539832 
L 308.879772 423.431338 
L 314.967109 423.347349 
L 321.054447 423.263358 
L 327.141784 423.179367 
L 333.229121 423.095377 
L 339.316458 423.011386 
L 345.403796 422.927394 
L 351.490502 422.843412 
L 357.577839 422.759421 
L 363.665176 422.675429 
L 369.752514 422.591437 
L 375.839851 422.507446 
L 381.927188 422.423453 
L 388.014525 422.204564 
L 394.101863 422.167523 
L 400.1892 422.094804 
L 406.276537 421.986485 
L 412.363243 421.849532 
L 418.45058 421.69548 
L 424.537918 421.537195 
L 430.625255 421.386034 
L 436.712592 421.250335 
L 442.799929 421.135063 
L 448.887267 421.04229 
L 454.974604 420.972165 
L 461.061941 420.924268 
L 467.149278 420.898708 
L 473.235985 420.723631 
L 479.323322 420.578422 
L 485.410659 420.433212 
L 491.497996 420.288001 
L 497.585334 420.142789 
L 503.672671 419.997576 
L 509.760008 419.852363 
L 515.847345 419.678574 
L 521.934683 419.50103 
L 528.02202 419.323487 
L 534.108726 419.145959 
L 540.196063 418.968412 
L 546.2834 418.790865 
L 552.370738 418.294507 
L 558.458075 418.201573 
L 564.545412 418.03804 
L 570.632749 417.82161 
L 576.720087 417.604579 
L 582.807424 417.435635 
L 588.894761 417.341184 
L 594.981467 417.170731 
L 601.068805 416.948836 
L 607.156142 416.726938 
L 613.243479 416.505037 
L 619.330816 416.040757 
L 625.418154 415.372209 
L 631.505491 415.093943 
L 637.592828 414.577264 
L 643.680165 413.824191 
L 649.767503 412.347416 
L 655.854209 410.278288 
L 661.941546 406.022501 
L 668.028883 402.184492 
L 674.116221 398.776695 
L 680.203558 399.013741 
L 686.290895 401.381267 
L 692.378232 406.33646 
L 698.465569 410.902319 
L 704.552907 414.662344 
L 710.640244 417.278047 
L 716.72695 419.085884 
L 722.814287 421.310256 
L 728.901625 423.769989 
L 734.988962 430.92236 
L 741.076299 435.902869 
L 747.163636 433.988279 
" clip-path="url(#p72680ba1d8)" style="fill: none; stroke-dasharray: 9.6,2.4,1.5,2.4; stroke-dashoffset: 0; stroke: #8c564b; stroke-width: 1.5"/>
   </g>
   <g id="line2d_33">
    <path d="M 138.436364 118.336153 
L 144.52356 118.526652 
L 150.610897 118.522002 
L 156.698234 118.515303 
L 162.785571 118.508432 
L 168.872278 118.503642 
L 174.959615 118.503052 
L 181.046952 118.508744 
L 187.134289 118.522314 
L 193.221627 118.544907 
L 199.308964 118.577114 
L 205.396301 118.619142 
L 211.483638 118.670645 
L 217.570976 118.731102 
L 223.658313 118.799819 
L 229.745019 118.876137 
L 235.832356 118.959361 
L 241.919694 119.04897 
L 248.007031 119.144515 
L 254.094368 119.245577 
L 260.181705 119.351637 
L 266.269043 119.461723 
L 272.35638 119.573718 
L 278.443717 119.683977 
L 284.531054 119.786463 
L 290.61776 119.87281 
L 296.705098 119.933579 
L 302.792435 119.960823 
L 308.879772 119.897937 
L 314.967109 119.995633 
L 321.054447 120.093329 
L 327.141784 120.191025 
L 333.229121 120.288721 
L 339.316458 120.386417 
L 345.403796 120.484113 
L 351.490502 120.581809 
L 357.577839 120.679505 
L 363.665176 120.777201 
L 369.752514 120.874898 
L 375.839851 120.972594 
L 381.927188 121.07029 
L 388.014525 121.559846 
L 394.101863 121.569043 
L 400.1892 121.586951 
L 406.276537 121.630194 
L 412.363243 121.71085 
L 418.45058 121.831937 
L 424.537918 121.987869 
L 430.625255 122.167713 
L 436.712592 122.359253 
L 442.799929 122.551765 
L 448.887267 122.736919 
L 454.974604 122.906837 
L 461.061941 123.047047 
L 467.149278 123.128709 
L 473.235985 123.360889 
L 479.323322 123.562181 
L 485.410659 123.763508 
L 491.497996 123.964835 
L 497.585334 124.166127 
L 503.672671 124.367454 
L 509.760008 124.56878 
L 515.847345 124.864541 
L 521.934683 125.172726 
L 528.02202 125.480911 
L 534.108726 125.789062 
L 540.196063 126.097247 
L 546.2834 126.405432 
L 552.370738 127.615961 
L 558.458075 127.820411 
L 564.545412 128.193044 
L 570.632749 128.729175 
L 576.720087 129.312506 
L 582.807424 129.808691 
L 588.894761 130.11403 
L 594.981467 130.764377 
L 601.068805 131.563472 
L 607.156142 132.362601 
L 613.243479 133.161731 
L 619.330816 134.689954 
L 625.418154 136.859986 
L 631.505491 137.568222 
L 637.592828 139.147671 
L 643.680165 141.368304 
L 649.767503 143.413084 
L 655.854209 145.806881 
L 661.941546 149.863541 
L 668.028883 161.936102 
L 674.116221 182.551707 
L 680.203558 200.345492 
L 686.290895 214.937292 
L 692.378232 216.594013 
L 698.465569 219.244613 
L 704.552907 223.782101 
L 710.640244 230.391768 
L 716.72695 238.472396 
L 722.814287 247.094464 
L 728.901625 255.780477 
L 734.988962 262.534745 
L 741.076299 297.841756 
L 747.163636 399.935754 
" clip-path="url(#p72680ba1d8)" style="fill: none; stroke: #e377c2; stroke-width: 1.5; stroke-linecap: square"/>
   </g>
   <g id="line2d_34">
    <path d="M 138.436364 462.136161 
L 144.52356 462.200409 
L 150.610897 462.228918 
L 156.698234 462.27669 
L 162.785571 462.344466 
L 168.872278 462.431856 
L 174.959615 462.537355 
L 181.046952 462.658434 
L 187.134289 462.791816 
L 193.221627 462.933794 
L 199.308964 463.08054 
L 205.396301 463.228374 
L 211.483638 463.373966 
L 217.570976 463.514456 
L 223.658313 463.647513 
L 229.745019 463.77131 
L 235.832356 463.884545 
L 241.919694 463.986297 
L 248.007031 464.076009 
L 254.094368 464.153411 
L 260.181705 464.218471 
L 266.269043 464.271384 
L 272.35638 464.312588 
L 278.443717 464.342849 
L 284.531054 464.363371 
L 290.61776 464.375884 
L 296.705098 464.382585 
L 302.792435 464.385814 
L 308.879772 464.612964 
L 314.967109 464.757905 
L 321.054447 464.902847 
L 327.141784 465.04779 
L 333.229121 465.192731 
L 339.316458 465.337672 
L 345.403796 465.482615 
L 351.490502 465.627541 
L 357.577839 465.772485 
L 363.665176 465.917428 
L 369.752514 466.062369 
L 375.839851 466.207312 
L 381.927188 466.352256 
L 388.014525 466.698552 
L 394.101863 466.780793 
L 400.1892 466.942232 
L 406.276537 467.177529 
L 412.363243 467.466796 
L 418.45058 467.782256 
L 424.537918 468.095649 
L 430.625255 468.383727 
L 436.712592 468.630548 
L 442.799929 468.827417 
L 448.887267 468.971582 
L 454.974604 469.06515 
L 461.061941 469.11584 
L 467.149278 469.138806 
L 473.235985 469.484829 
L 479.323322 469.743593 
L 485.410659 470.002358 
L 491.497996 470.261122 
L 497.585334 470.519887 
L 503.672671 470.778651 
L 509.760008 471.03742 
L 515.847345 471.379031 
L 521.934683 471.731522 
L 528.02202 472.084013 
L 534.108726 472.43646 
L 540.196063 472.788947 
L 546.2834 473.141429 
L 552.370738 474.213605 
L 558.458075 474.506953 
L 564.545412 475.010604 
L 570.632749 475.634753 
L 576.720087 476.24603 
L 582.807424 476.776131 
L 588.894761 477.20841 
L 594.981467 477.399681 
L 601.068805 478.045828 
L 607.156142 478.691976 
L 613.243479 479.338119 
L 619.330816 480.233821 
L 625.418154 481.388083 
L 631.505491 482.314053 
L 637.592828 483.101304 
L 643.680165 483.981528 
L 649.767503 485.473349 
L 655.854209 487.064932 
L 661.941546 488.713935 
L 668.028883 488.500778 
L 674.116221 486.297801 
L 680.203558 484.926338 
L 686.290895 484.463666 
L 692.378232 487.460926 
L 698.465569 490.397947 
L 704.552907 493.293689 
L 710.640244 495.590263 
L 716.72695 497.495609 
L 722.814287 501.601768 
L 728.901625 506.129104 
L 734.988962 507.817554 
L 741.076299 492.96334 
L 747.163636 446.054302 
" clip-path="url(#p72680ba1d8)" style="fill: none; stroke-dasharray: 5.55,2.4; stroke-dashoffset: 0; stroke: #7f7f7f; stroke-width: 1.5"/>
   </g>
   <g id="line2d_35">
    <path d="M 138.436364 427.800224 
L 144.52356 427.739662 
L 150.610897 427.738415 
L 156.698234 427.736011 
L 162.785571 427.731841 
L 168.872278 427.725317 
L 174.959615 427.715949 
L 181.046952 427.703392 
L 187.134289 427.687478 
L 193.221627 427.66822 
L 199.308964 427.645793 
L 205.396301 427.620495 
L 211.483638 427.592704 
L 217.570976 427.562834 
L 223.658313 427.531287 
L 229.745019 427.498434 
L 235.832356 427.46457 
L 241.919694 427.429932 
L 248.007031 427.394691 
L 254.094368 427.358975 
L 260.181705 427.322935 
L 266.269043 427.286836 
L 272.35638 427.251213 
L 278.443717 427.217054 
L 284.531054 427.185971 
L 290.61776 427.160199 
L 296.705098 427.142251 
L 302.792435 427.134181 
L 308.879772 427.127147 
L 314.967109 427.079302 
L 321.054447 427.031457 
L 327.141784 426.983611 
L 333.229121 426.935765 
L 339.316458 426.887919 
L 345.403796 426.840074 
L 351.490502 426.792232 
L 357.577839 426.744386 
L 363.665176 426.69654 
L 369.752514 426.648693 
L 375.839851 426.600846 
L 381.927188 426.552999 
L 388.014525 426.363557 
L 394.101863 426.350298 
L 400.1892 426.324323 
L 406.276537 426.281406 
L 412.363243 426.220553 
L 418.45058 426.144421 
L 424.537918 426.058285 
L 430.625255 425.968309 
L 436.712592 425.880072 
L 442.799929 425.797752 
L 448.887267 425.724022 
L 454.974604 425.660852 
L 461.061941 425.611677 
L 467.149278 425.583706 
L 473.235985 425.466696 
L 479.323322 425.361125 
L 485.410659 425.255553 
L 491.497996 425.14998 
L 497.585334 425.044407 
L 503.672671 424.938833 
L 509.760008 424.833258 
L 515.847345 424.703122 
L 521.934683 424.569759 
L 528.02202 424.436395 
L 534.108726 424.303043 
L 540.196063 424.169676 
L 546.2834 424.036308 
L 552.370738 423.638574 
L 558.458075 423.578946 
L 564.545412 423.471165 
L 570.632749 423.318772 
L 576.720087 423.159487 
L 582.807424 423.0373 
L 588.894761 422.980977 
L 594.981467 422.814002 
L 601.068805 422.651091 
L 607.156142 422.488178 
L 613.243479 422.325261 
L 619.330816 421.924458 
L 625.418154 421.331492 
L 631.505491 421.124903 
L 637.592828 420.671902 
L 643.680165 419.999184 
L 649.767503 418.708468 
L 655.854209 416.770734 
L 661.941546 412.33577 
L 668.028883 408.333377 
L 674.116221 404.786593 
L 680.203558 404.492848 
L 686.290895 406.094855 
L 692.378232 410.32039 
L 698.465569 414.424624 
L 704.552907 418.177521 
L 710.640244 421.108032 
L 716.72695 423.447964 
L 722.814287 426.314861 
L 728.901625 429.443363 
L 734.988962 437.275607 
L 741.076299 441.020557 
L 747.163636 434.777797 
" clip-path="url(#p72680ba1d8)" style="fill: none; stroke-dasharray: 9.6,2.4,1.5,2.4; stroke-dashoffset: 0; stroke: #bcbd22; stroke-width: 1.5"/>
   </g>
   <g id="patch_3">
    <path d="M 108 512.64 
L 108 69.12 
" style="fill: none; stroke: #000000; stroke-width: 0.8; stroke-linejoin: miter; stroke-linecap: square"/>
   </g>
   <g id="patch_4">
    <path d="M 777.6 512.64 
L 777.6 69.12 
" style="fill: none; stroke: #000000; stroke-width: 0.8; stroke-linejoin: miter; stroke-linecap: square"/>
   </g>
   <g id="patch_5">
    <path d="M 108 512.64 
L 777.6 512.64 
" style="fill: none; stroke: #000000; stroke-width: 0.8; stroke-linejoin: miter; stroke-linecap: square"/>
   </g>
   <g id="patch_6">
    <path d="M 108 69.12 
L 777.6 69.12 
" style="fill: none; stroke: #000000; stroke-width: 0.8; stroke-linejoin: miter; stroke-linecap: square"/>
   </g>
   <g id="legend_1">
    <g id="patch_7">
     <path d="M 115 359.683125 
L 258.689062 359.683125 
Q 260.689062 359.683125 260.689062 357.683125 
L 260.689062 224.076875 
Q 260.689062 222.076875 258.689062 222.076875 
L 115 222.076875 
Q 113 222.076875 113 224.076875 
L 113 357.683125 
Q 113 359.683125 115 359.683125 
z
" style="fill: #ffffff; opacity: 0.8; stroke: #cccccc; stroke-linejoin: miter"/>
    </g>
    <g id="line2d_36">
     <path d="M 117 230.175313 
L 127 230.175313 
L 137 230.175313 
" style="fill: none; stroke: #1f77b4; stroke-width: 1.5; stroke-linecap: square"/>
    </g>
    <g id="text_16">
     <!-- Extend140_AoA0_Ux -->
     <g transform="translate(145 233.675313) scale(0.1 -0.1)">
      <defs>
       <path id="DejaVuSans-45" d="M 628 4666 
L 3578 4666 
L 3578 4134 
L 1259 4134 
L 1259 2753 
L 3481 2753 
L 3481 2222 
L 1259 2222 
L 1259 531 
L 3634 531 
L 3634 0 
L 628 0 
L 628 4666 
z
" transform="scale(0.015625)"/>
       <path id="DejaVuSans-78" d="M 3513 3500 
L 2247 1797 
L 3578 0 
L 2900 0 
L 1881 1375 
L 863 0 
L 184 0 
L 1544 1831 
L 300 3500 
L 978 3500 
L 1906 2253 
L 2834 3500 
L 3513 3500 
z
" transform="scale(0.015625)"/>
       <path id="DejaVuSans-5f" d="M 3263 -1063 
L 3263 -1509 
L -63 -1509 
L -63 -1063 
L 3263 -1063 
z
" transform="scale(0.015625)"/>
       <path id="DejaVuSans-41" d="M 2188 4044 
L 1331 1722 
L 3047 1722 
L 2188 4044 
z
M 1831 4666 
L 2547 4666 
L 4325 0 
L 3669 0 
L 3244 1197 
L 1141 1197 
L 716 0 
L 50 0 
L 1831 4666 
z
" transform="scale(0.015625)"/>
       <path id="DejaVuSans-55" d="M 556 4666 
L 1191 4666 
L 1191 1831 
Q 1191 1081 1462 751 
Q 1734 422 2344 422 
Q 2950 422 3222 751 
Q 3494 1081 3494 1831 
L 3494 4666 
L 4128 4666 
L 4128 1753 
Q 4128 841 3676 375 
Q 3225 -91 2344 -91 
Q 1459 -91 1007 375 
Q 556 841 556 1753 
L 556 4666 
z
" transform="scale(0.015625)"/>
      </defs>
      <use xlink:href="#DejaVuSans-45"/>
      <use xlink:href="#DejaVuSans-78" x="63.183594"/>
      <use xlink:href="#DejaVuSans-74" x="122.363281"/>
      <use xlink:href="#DejaVuSans-65" x="161.572266"/>
      <use xlink:href="#DejaVuSans-6e" x="223.095703"/>
      <use xlink:href="#DejaVuSans-64" x="286.474609"/>
      <use xlink:href="#DejaVuSans-31" x="349.951172"/>
      <use xlink:href="#DejaVuSans-34" x="413.574219"/>
      <use xlink:href="#DejaVuSans-30" x="477.197266"/>
      <use xlink:href="#DejaVuSans-5f" x="540.820312"/>
      <use xlink:href="#DejaVuSans-41" x="590.820312"/>
      <use xlink:href="#DejaVuSans-6f" x="657.478516"/>
      <use xlink:href="#DejaVuSans-41" x="718.660156"/>
      <use xlink:href="#DejaVuSans-30" x="787.068359"/>
      <use xlink:href="#DejaVuSans-5f" x="850.691406"/>
      <use xlink:href="#DejaVuSans-55" x="900.691406"/>
      <use xlink:href="#DejaVuSans-78" x="973.884766"/>
     </g>
    </g>
    <g id="line2d_37">
     <path d="M 117 245.131563 
L 127 245.131563 
L 137 245.131563 
" style="fill: none; stroke-dasharray: 5.55,2.4; stroke-dashoffset: 0; stroke: #ff7f0e; stroke-width: 1.5"/>
    </g>
    <g id="text_17">
     <!-- Extend140_AoA0_Uy -->
     <g transform="translate(145 248.631563) scale(0.1 -0.1)">
      <use xlink:href="#DejaVuSans-45"/>
      <use xlink:href="#DejaVuSans-78" x="63.183594"/>
      <use xlink:href="#DejaVuSans-74" x="122.363281"/>
      <use xlink:href="#DejaVuSans-65" x="161.572266"/>
      <use xlink:href="#DejaVuSans-6e" x="223.095703"/>
      <use xlink:href="#DejaVuSans-64" x="286.474609"/>
      <use xlink:href="#DejaVuSans-31" x="349.951172"/>
      <use xlink:href="#DejaVuSans-34" x="413.574219"/>
      <use xlink:href="#DejaVuSans-30" x="477.197266"/>
      <use xlink:href="#DejaVuSans-5f" x="540.820312"/>
      <use xlink:href="#DejaVuSans-41" x="590.820312"/>
      <use xlink:href="#DejaVuSans-6f" x="657.478516"/>
      <use xlink:href="#DejaVuSans-41" x="718.660156"/>
      <use xlink:href="#DejaVuSans-30" x="787.068359"/>
      <use xlink:href="#DejaVuSans-5f" x="850.691406"/>
      <use xlink:href="#DejaVuSans-55" x="900.691406"/>
      <use xlink:href="#DejaVuSans-79" x="973.884766"/>
     </g>
    </g>
    <g id="line2d_38">
     <path d="M 117 260.087813 
L 127 260.087813 
L 137 260.087813 
" style="fill: none; stroke-dasharray: 9.6,2.4,1.5,2.4; stroke-dashoffset: 0; stroke: #2ca02c; stroke-width: 1.5"/>
    </g>
    <g id="text_18">
     <!-- Extend140_AoA0_Uz -->
     <g transform="translate(145 263.587813) scale(0.1 -0.1)">
      <defs>
       <path id="DejaVuSans-7a" d="M 353 3500 
L 3084 3500 
L 3084 2975 
L 922 459 
L 3084 459 
L 3084 0 
L 275 0 
L 275 525 
L 2438 3041 
L 353 3041 
L 353 3500 
z
" transform="scale(0.015625)"/>
      </defs>
      <use xlink:href="#DejaVuSans-45"/>
      <use xlink:href="#DejaVuSans-78" x="63.183594"/>
      <use xlink:href="#DejaVuSans-74" x="122.363281"/>
      <use xlink:href="#DejaVuSans-65" x="161.572266"/>
      <use xlink:href="#DejaVuSans-6e" x="223.095703"/>
      <use xlink:href="#DejaVuSans-64" x="286.474609"/>
      <use xlink:href="#DejaVuSans-31" x="349.951172"/>
      <use xlink:href="#DejaVuSans-34" x="413.574219"/>
      <use xlink:href="#DejaVuSans-30" x="477.197266"/>
      <use xlink:href="#DejaVuSans-5f" x="540.820312"/>
      <use xlink:href="#DejaVuSans-41" x="590.820312"/>
      <use xlink:href="#DejaVuSans-6f" x="657.478516"/>
      <use xlink:href="#DejaVuSans-41" x="718.660156"/>
      <use xlink:href="#DejaVuSans-30" x="787.068359"/>
      <use xlink:href="#DejaVuSans-5f" x="850.691406"/>
      <use xlink:href="#DejaVuSans-55" x="900.691406"/>
      <use xlink:href="#DejaVuSans-7a" x="973.884766"/>
     </g>
    </g>
    <g id="line2d_39">
     <path d="M 117 275.044062 
L 127 275.044062 
L 137 275.044062 
" style="fill: none; stroke: #d62728; stroke-width: 1.5; stroke-linecap: square"/>
    </g>
    <g id="text_19">
     <!-- Extend140_AoA+4_Ux -->
     <g transform="translate(145 278.544062) scale(0.1 -0.1)">
      <defs>
       <path id="DejaVuSans-2b" d="M 2944 4013 
L 2944 2272 
L 4684 2272 
L 4684 1741 
L 2944 1741 
L 2944 0 
L 2419 0 
L 2419 1741 
L 678 1741 
L 678 2272 
L 2419 2272 
L 2419 4013 
L 2944 4013 
z
" transform="scale(0.015625)"/>
      </defs>
      <use xlink:href="#DejaVuSans-45"/>
      <use xlink:href="#DejaVuSans-78" x="63.183594"/>
      <use xlink:href="#DejaVuSans-74" x="122.363281"/>
      <use xlink:href="#DejaVuSans-65" x="161.572266"/>
      <use xlink:href="#DejaVuSans-6e" x="223.095703"/>
      <use xlink:href="#DejaVuSans-64" x="286.474609"/>
      <use xlink:href="#DejaVuSans-31" x="349.951172"/>
      <use xlink:href="#DejaVuSans-34" x="413.574219"/>
      <use xlink:href="#DejaVuSans-30" x="477.197266"/>
      <use xlink:href="#DejaVuSans-5f" x="540.820312"/>
      <use xlink:href="#DejaVuSans-41" x="590.820312"/>
      <use xlink:href="#DejaVuSans-6f" x="657.478516"/>
      <use xlink:href="#DejaVuSans-41" x="718.660156"/>
      <use xlink:href="#DejaVuSans-2b" x="787.068359"/>
      <use xlink:href="#DejaVuSans-34" x="870.857422"/>
      <use xlink:href="#DejaVuSans-5f" x="934.480469"/>
      <use xlink:href="#DejaVuSans-55" x="984.480469"/>
      <use xlink:href="#DejaVuSans-78" x="1057.673828"/>
     </g>
    </g>
    <g id="line2d_40">
     <path d="M 117 290.000313 
L 127 290.000313 
L 137 290.000313 
" style="fill: none; stroke-dasharray: 5.55,2.4; stroke-dashoffset: 0; stroke: #9467bd; stroke-width: 1.5"/>
    </g>
    <g id="text_20">
     <!-- Extend140_AoA+4_Uy -->
     <g transform="translate(145 293.500313) scale(0.1 -0.1)">
      <use xlink:href="#DejaVuSans-45"/>
      <use xlink:href="#DejaVuSans-78" x="63.183594"/>
      <use xlink:href="#DejaVuSans-74" x="122.363281"/>
      <use xlink:href="#DejaVuSans-65" x="161.572266"/>
      <use xlink:href="#DejaVuSans-6e" x="223.095703"/>
      <use xlink:href="#DejaVuSans-64" x="286.474609"/>
      <use xlink:href="#DejaVuSans-31" x="349.951172"/>
      <use xlink:href="#DejaVuSans-34" x="413.574219"/>
      <use xlink:href="#DejaVuSans-30" x="477.197266"/>
      <use xlink:href="#DejaVuSans-5f" x="540.820312"/>
      <use xlink:href="#DejaVuSans-41" x="590.820312"/>
      <use xlink:href="#DejaVuSans-6f" x="657.478516"/>
      <use xlink:href="#DejaVuSans-41" x="718.660156"/>
      <use xlink:href="#DejaVuSans-2b" x="787.068359"/>
      <use xlink:href="#DejaVuSans-34" x="870.857422"/>
      <use xlink:href="#DejaVuSans-5f" x="934.480469"/>
      <use xlink:href="#DejaVuSans-55" x="984.480469"/>
      <use xlink:href="#DejaVuSans-79" x="1057.673828"/>
     </g>
    </g>
    <g id="line2d_41">
     <path d="M 117 304.956563 
L 127 304.956563 
L 137 304.956563 
" style="fill: none; stroke-dasharray: 9.6,2.4,1.5,2.4; stroke-dashoffset: 0; stroke: #8c564b; stroke-width: 1.5"/>
    </g>
    <g id="text_21">
     <!-- Extend140_AoA+4_Uz -->
     <g transform="translate(145 308.456563) scale(0.1 -0.1)">
      <use xlink:href="#DejaVuSans-45"/>
      <use xlink:href="#DejaVuSans-78" x="63.183594"/>
      <use xlink:href="#DejaVuSans-74" x="122.363281"/>
      <use xlink:href="#DejaVuSans-65" x="161.572266"/>
      <use xlink:href="#DejaVuSans-6e" x="223.095703"/>
      <use xlink:href="#DejaVuSans-64" x="286.474609"/>
      <use xlink:href="#DejaVuSans-31" x="349.951172"/>
      <use xlink:href="#DejaVuSans-34" x="413.574219"/>
      <use xlink:href="#DejaVuSans-30" x="477.197266"/>
      <use xlink:href="#DejaVuSans-5f" x="540.820312"/>
      <use xlink:href="#DejaVuSans-41" x="590.820312"/>
      <use xlink:href="#DejaVuSans-6f" x="657.478516"/>
      <use xlink:href="#DejaVuSans-41" x="718.660156"/>
      <use xlink:href="#DejaVuSans-2b" x="787.068359"/>
      <use xlink:href="#DejaVuSans-34" x="870.857422"/>
      <use xlink:href="#DejaVuSans-5f" x="934.480469"/>
      <use xlink:href="#DejaVuSans-55" x="984.480469"/>
      <use xlink:href="#DejaVuSans-7a" x="1057.673828"/>
     </g>
    </g>
    <g id="line2d_42">
     <path d="M 117 319.912813 
L 127 319.912813 
L 137 319.912813 
" style="fill: none; stroke: #e377c2; stroke-width: 1.5; stroke-linecap: square"/>
    </g>
    <g id="text_22">
     <!-- Extend140_AoA-4_Ux -->
     <g transform="translate(145 323.412813) scale(0.1 -0.1)">
      <defs>
       <path id="DejaVuSans-2d" d="M 313 2009 
L 1997 2009 
L 1997 1497 
L 313 1497 
L 313 2009 
z
" transform="scale(0.015625)"/>
      </defs>
      <use xlink:href="#DejaVuSans-45"/>
      <use xlink:href="#DejaVuSans-78" x="63.183594"/>
      <use xlink:href="#DejaVuSans-74" x="122.363281"/>
      <use xlink:href="#DejaVuSans-65" x="161.572266"/>
      <use xlink:href="#DejaVuSans-6e" x="223.095703"/>
      <use xlink:href="#DejaVuSans-64" x="286.474609"/>
      <use xlink:href="#DejaVuSans-31" x="349.951172"/>
      <use xlink:href="#DejaVuSans-34" x="413.574219"/>
      <use xlink:href="#DejaVuSans-30" x="477.197266"/>
      <use xlink:href="#DejaVuSans-5f" x="540.820312"/>
      <use xlink:href="#DejaVuSans-41" x="590.820312"/>
      <use xlink:href="#DejaVuSans-6f" x="657.478516"/>
      <use xlink:href="#DejaVuSans-41" x="718.660156"/>
      <use xlink:href="#DejaVuSans-2d" x="784.818359"/>
      <use xlink:href="#DejaVuSans-34" x="820.902344"/>
      <use xlink:href="#DejaVuSans-5f" x="884.525391"/>
      <use xlink:href="#DejaVuSans-55" x="934.525391"/>
      <use xlink:href="#DejaVuSans-78" x="1007.71875"/>
     </g>
    </g>
    <g id="line2d_43">
     <path d="M 117 334.869063 
L 127 334.869063 
L 137 334.869063 
" style="fill: none; stroke-dasharray: 5.55,2.4; stroke-dashoffset: 0; stroke: #7f7f7f; stroke-width: 1.5"/>
    </g>
    <g id="text_23">
     <!-- Extend140_AoA-4_Uy -->
     <g transform="translate(145 338.369063) scale(0.1 -0.1)">
      <use xlink:href="#DejaVuSans-45"/>
      <use xlink:href="#DejaVuSans-78" x="63.183594"/>
      <use xlink:href="#DejaVuSans-74" x="122.363281"/>
      <use xlink:href="#DejaVuSans-65" x="161.572266"/>
      <use xlink:href="#DejaVuSans-6e" x="223.095703"/>
      <use xlink:href="#DejaVuSans-64" x="286.474609"/>
      <use xlink:href="#DejaVuSans-31" x="349.951172"/>
      <use xlink:href="#DejaVuSans-34" x="413.574219"/>
      <use xlink:href="#DejaVuSans-30" x="477.197266"/>
      <use xlink:href="#DejaVuSans-5f" x="540.820312"/>
      <use xlink:href="#DejaVuSans-41" x="590.820312"/>
      <use xlink:href="#DejaVuSans-6f" x="657.478516"/>
      <use xlink:href="#DejaVuSans-41" x="718.660156"/>
      <use xlink:href="#DejaVuSans-2d" x="784.818359"/>
      <use xlink:href="#DejaVuSans-34" x="820.902344"/>
      <use xlink:href="#DejaVuSans-5f" x="884.525391"/>
      <use xlink:href="#DejaVuSans-55" x="934.525391"/>
      <use xlink:href="#DejaVuSans-79" x="1007.71875"/>
     </g>
    </g>
    <g id="line2d_44">
     <path d="M 117 349.825312 
L 127 349.825312 
L 137 349.825312 
" style="fill: none; stroke-dasharray: 9.6,2.4,1.5,2.4; stroke-dashoffset: 0; stroke: #bcbd22; stroke-width: 1.5"/>
    </g>
    <g id="text_24">
     <!-- Extend140_AoA-4_Uz -->
     <g transform="translate(145 353.325312) scale(0.1 -0.1)">
      <use xlink:href="#DejaVuSans-45"/>
      <use xlink:href="#DejaVuSans-78" x="63.183594"/>
      <use xlink:href="#DejaVuSans-74" x="122.363281"/>
      <use xlink:href="#DejaVuSans-65" x="161.572266"/>
      <use xlink:href="#DejaVuSans-6e" x="223.095703"/>
      <use xlink:href="#DejaVuSans-64" x="286.474609"/>
      <use xlink:href="#DejaVuSans-31" x="349.951172"/>
      <use xlink:href="#DejaVuSans-34" x="413.574219"/>
      <use xlink:href="#DejaVuSans-30" x="477.197266"/>
      <use xlink:href="#DejaVuSans-5f" x="540.820312"/>
      <use xlink:href="#DejaVuSans-41" x="590.820312"/>
      <use xlink:href="#DejaVuSans-6f" x="657.478516"/>
      <use xlink:href="#DejaVuSans-41" x="718.660156"/>
      <use xlink:href="#DejaVuSans-2d" x="784.818359"/>
      <use xlink:href="#DejaVuSans-34" x="820.902344"/>
      <use xlink:href="#DejaVuSans-5f" x="884.525391"/>
      <use xlink:href="#DejaVuSans-55" x="934.525391"/>
      <use xlink:href="#DejaVuSans-7a" x="1007.71875"/>
     </g>
    </g>
   </g>
  </g>
 </g>
 <defs>
  <clipPath id="p72680ba1d8">
   <rect x="108" y="69.12" width="669.6" height="443.52"/>
  </clipPath>
 </defs>
</svg>
