<?xml version="1.0" encoding="utf-8" standalone="no"?>
<!DOCTYPE svg PUBLIC "-//W3C//DTD SVG 1.1//EN"
  "http://www.w3.org/Graphics/SVG/1.1/DTD/svg11.dtd">
<svg xmlns:xlink="http://www.w3.org/1999/xlink" width="864pt" height="576pt" viewBox="0 0 864 576" xmlns="http://www.w3.org/2000/svg" version="1.1">
 <metadata>
  <rdf:RDF xmlns:dc="http://purl.org/dc/elements/1.1/" xmlns:cc="http://creativecommons.org/ns#" xmlns:rdf="http://www.w3.org/1999/02/22-rdf-syntax-ns#">
   <cc:Work>
    <dc:type rdf:resource="http://purl.org/dc/dcmitype/StillImage"/>
    <dc:date>2023-06-08T14:54:50.708196</dc:date>
    <dc:format>image/svg+xml</dc:format>
    <dc:creator>
     <cc:Agent>
      <dc:title>Matplotlib v3.6.3, https://matplotlib.org/</dc:title>
     </cc:Agent>
    </dc:creator>
   </cc:Work>
  </rdf:RDF>
 </metadata>
 <defs>
  <style type="text/css">*{stroke-linejoin: round; stroke-linecap: butt}</style>
 </defs>
 <g id="figure_1">
  <g id="patch_1">
   <path d="M 0 576 
L 864 576 
L 864 0 
L 0 0 
z
" style="fill: #ffffff"/>
  </g>
  <g id="axes_1">
   <g id="patch_2">
    <path d="M 108 512.64 
L 777.6 512.64 
L 777.6 69.12 
L 108 69.12 
z
" style="fill: #ffffff"/>
   </g>
   <g id="matplotlib.axis_1">
    <g id="xtick_1">
     <g id="line2d_1">
      <path d="M 138.434097 512.64 
L 138.434097 69.12 
" clip-path="url(#p7dcc511d4c)" style="fill: none; stroke: #b0b0b0; stroke-width: 0.8; stroke-linecap: square"/>
     </g>
     <g id="line2d_2">
      <defs>
       <path id="m1446186f2a" d="M 0 0 
L 0 3.5 
" style="stroke: #000000; stroke-width: 0.8"/>
      </defs>
      <g>
       <use xlink:href="#m1446186f2a" x="138.434097" y="512.64" style="stroke: #000000; stroke-width: 0.8"/>
      </g>
     </g>
     <g id="text_1">
      <!-- −0.10 -->
      <g transform="translate(123.111441 527.238438) scale(0.1 -0.1)">
       <defs>
        <path id="DejaVuSans-2212" d="M 678 2272 
L 4684 2272 
L 4684 1741 
L 678 1741 
L 678 2272 
z
" transform="scale(0.015625)"/>
        <path id="DejaVuSans-30" d="M 2034 4250 
Q 1547 4250 1301 3770 
Q 1056 3291 1056 2328 
Q 1056 1369 1301 889 
Q 1547 409 2034 409 
Q 2525 409 2770 889 
Q 3016 1369 3016 2328 
Q 3016 3291 2770 3770 
Q 2525 4250 2034 4250 
z
M 2034 4750 
Q 2819 4750 3233 4129 
Q 3647 3509 3647 2328 
Q 3647 1150 3233 529 
Q 2819 -91 2034 -91 
Q 1250 -91 836 529 
Q 422 1150 422 2328 
Q 422 3509 836 4129 
Q 1250 4750 2034 4750 
z
" transform="scale(0.015625)"/>
        <path id="DejaVuSans-2e" d="M 684 794 
L 1344 794 
L 1344 0 
L 684 0 
L 684 794 
z
" transform="scale(0.015625)"/>
        <path id="DejaVuSans-31" d="M 794 531 
L 1825 531 
L 1825 4091 
L 703 3866 
L 703 4441 
L 1819 4666 
L 2450 4666 
L 2450 531 
L 3481 531 
L 3481 0 
L 794 0 
L 794 531 
z
" transform="scale(0.015625)"/>
       </defs>
       <use xlink:href="#DejaVuSans-2212"/>
       <use xlink:href="#DejaVuSans-30" x="83.789062"/>
       <use xlink:href="#DejaVuSans-2e" x="147.412109"/>
       <use xlink:href="#DejaVuSans-31" x="179.199219"/>
       <use xlink:href="#DejaVuSans-30" x="242.822266"/>
      </g>
     </g>
    </g>
    <g id="xtick_2">
     <g id="line2d_3">
      <path d="M 260.179912 512.64 
L 260.179912 69.12 
" clip-path="url(#p7dcc511d4c)" style="fill: none; stroke: #b0b0b0; stroke-width: 0.8; stroke-linecap: square"/>
     </g>
     <g id="line2d_4">
      <g>
       <use xlink:href="#m1446186f2a" x="260.179912" y="512.64" style="stroke: #000000; stroke-width: 0.8"/>
      </g>
     </g>
     <g id="text_2">
      <!-- −0.08 -->
      <g transform="translate(244.857256 527.238438) scale(0.1 -0.1)">
       <defs>
        <path id="DejaVuSans-38" d="M 2034 2216 
Q 1584 2216 1326 1975 
Q 1069 1734 1069 1313 
Q 1069 891 1326 650 
Q 1584 409 2034 409 
Q 2484 409 2743 651 
Q 3003 894 3003 1313 
Q 3003 1734 2745 1975 
Q 2488 2216 2034 2216 
z
M 1403 2484 
Q 997 2584 770 2862 
Q 544 3141 544 3541 
Q 544 4100 942 4425 
Q 1341 4750 2034 4750 
Q 2731 4750 3128 4425 
Q 3525 4100 3525 3541 
Q 3525 3141 3298 2862 
Q 3072 2584 2669 2484 
Q 3125 2378 3379 2068 
Q 3634 1759 3634 1313 
Q 3634 634 3220 271 
Q 2806 -91 2034 -91 
Q 1263 -91 848 271 
Q 434 634 434 1313 
Q 434 1759 690 2068 
Q 947 2378 1403 2484 
z
M 1172 3481 
Q 1172 3119 1398 2916 
Q 1625 2713 2034 2713 
Q 2441 2713 2670 2916 
Q 2900 3119 2900 3481 
Q 2900 3844 2670 4047 
Q 2441 4250 2034 4250 
Q 1625 4250 1398 4047 
Q 1172 3844 1172 3481 
z
" transform="scale(0.015625)"/>
       </defs>
       <use xlink:href="#DejaVuSans-2212"/>
       <use xlink:href="#DejaVuSans-30" x="83.789062"/>
       <use xlink:href="#DejaVuSans-2e" x="147.412109"/>
       <use xlink:href="#DejaVuSans-30" x="179.199219"/>
       <use xlink:href="#DejaVuSans-38" x="242.822266"/>
      </g>
     </g>
    </g>
    <g id="xtick_3">
     <g id="line2d_5">
      <path d="M 381.925727 512.64 
L 381.925727 69.12 
" clip-path="url(#p7dcc511d4c)" style="fill: none; stroke: #b0b0b0; stroke-width: 0.8; stroke-linecap: square"/>
     </g>
     <g id="line2d_6">
      <g>
       <use xlink:href="#m1446186f2a" x="381.925727" y="512.64" style="stroke: #000000; stroke-width: 0.8"/>
      </g>
     </g>
     <g id="text_3">
      <!-- −0.06 -->
      <g transform="translate(366.603071 527.238438) scale(0.1 -0.1)">
       <defs>
        <path id="DejaVuSans-36" d="M 2113 2584 
Q 1688 2584 1439 2293 
Q 1191 2003 1191 1497 
Q 1191 994 1439 701 
Q 1688 409 2113 409 
Q 2538 409 2786 701 
Q 3034 994 3034 1497 
Q 3034 2003 2786 2293 
Q 2538 2584 2113 2584 
z
M 3366 4563 
L 3366 3988 
Q 3128 4100 2886 4159 
Q 2644 4219 2406 4219 
Q 1781 4219 1451 3797 
Q 1122 3375 1075 2522 
Q 1259 2794 1537 2939 
Q 1816 3084 2150 3084 
Q 2853 3084 3261 2657 
Q 3669 2231 3669 1497 
Q 3669 778 3244 343 
Q 2819 -91 2113 -91 
Q 1303 -91 875 529 
Q 447 1150 447 2328 
Q 447 3434 972 4092 
Q 1497 4750 2381 4750 
Q 2619 4750 2861 4703 
Q 3103 4656 3366 4563 
z
" transform="scale(0.015625)"/>
       </defs>
       <use xlink:href="#DejaVuSans-2212"/>
       <use xlink:href="#DejaVuSans-30" x="83.789062"/>
       <use xlink:href="#DejaVuSans-2e" x="147.412109"/>
       <use xlink:href="#DejaVuSans-30" x="179.199219"/>
       <use xlink:href="#DejaVuSans-36" x="242.822266"/>
      </g>
     </g>
    </g>
    <g id="xtick_4">
     <g id="line2d_7">
      <path d="M 503.671542 512.64 
L 503.671542 69.12 
" clip-path="url(#p7dcc511d4c)" style="fill: none; stroke: #b0b0b0; stroke-width: 0.8; stroke-linecap: square"/>
     </g>
     <g id="line2d_8">
      <g>
       <use xlink:href="#m1446186f2a" x="503.671542" y="512.64" style="stroke: #000000; stroke-width: 0.8"/>
      </g>
     </g>
     <g id="text_4">
      <!-- −0.04 -->
      <g transform="translate(488.348886 527.238438) scale(0.1 -0.1)">
       <defs>
        <path id="DejaVuSans-34" d="M 2419 4116 
L 825 1625 
L 2419 1625 
L 2419 4116 
z
M 2253 4666 
L 3047 4666 
L 3047 1625 
L 3713 1625 
L 3713 1100 
L 3047 1100 
L 3047 0 
L 2419 0 
L 2419 1100 
L 313 1100 
L 313 1709 
L 2253 4666 
z
" transform="scale(0.015625)"/>
       </defs>
       <use xlink:href="#DejaVuSans-2212"/>
       <use xlink:href="#DejaVuSans-30" x="83.789062"/>
       <use xlink:href="#DejaVuSans-2e" x="147.412109"/>
       <use xlink:href="#DejaVuSans-30" x="179.199219"/>
       <use xlink:href="#DejaVuSans-34" x="242.822266"/>
      </g>
     </g>
    </g>
    <g id="xtick_5">
     <g id="line2d_9">
      <path d="M 625.417357 512.64 
L 625.417357 69.12 
" clip-path="url(#p7dcc511d4c)" style="fill: none; stroke: #b0b0b0; stroke-width: 0.8; stroke-linecap: square"/>
     </g>
     <g id="line2d_10">
      <g>
       <use xlink:href="#m1446186f2a" x="625.417357" y="512.64" style="stroke: #000000; stroke-width: 0.8"/>
      </g>
     </g>
     <g id="text_5">
      <!-- −0.02 -->
      <g transform="translate(610.094701 527.238438) scale(0.1 -0.1)">
       <defs>
        <path id="DejaVuSans-32" d="M 1228 531 
L 3431 531 
L 3431 0 
L 469 0 
L 469 531 
Q 828 903 1448 1529 
Q 2069 2156 2228 2338 
Q 2531 2678 2651 2914 
Q 2772 3150 2772 3378 
Q 2772 3750 2511 3984 
Q 2250 4219 1831 4219 
Q 1534 4219 1204 4116 
Q 875 4013 500 3803 
L 500 4441 
Q 881 4594 1212 4672 
Q 1544 4750 1819 4750 
Q 2544 4750 2975 4387 
Q 3406 4025 3406 3419 
Q 3406 3131 3298 2873 
Q 3191 2616 2906 2266 
Q 2828 2175 2409 1742 
Q 1991 1309 1228 531 
z
" transform="scale(0.015625)"/>
       </defs>
       <use xlink:href="#DejaVuSans-2212"/>
       <use xlink:href="#DejaVuSans-30" x="83.789062"/>
       <use xlink:href="#DejaVuSans-2e" x="147.412109"/>
       <use xlink:href="#DejaVuSans-30" x="179.199219"/>
       <use xlink:href="#DejaVuSans-32" x="242.822266"/>
      </g>
     </g>
    </g>
    <g id="xtick_6">
     <g id="line2d_11">
      <path d="M 747.163172 512.64 
L 747.163172 69.12 
" clip-path="url(#p7dcc511d4c)" style="fill: none; stroke: #b0b0b0; stroke-width: 0.8; stroke-linecap: square"/>
     </g>
     <g id="line2d_12">
      <g>
       <use xlink:href="#m1446186f2a" x="747.163172" y="512.64" style="stroke: #000000; stroke-width: 0.8"/>
      </g>
     </g>
     <g id="text_6">
      <!-- 0.00 -->
      <g transform="translate(736.030359 527.238438) scale(0.1 -0.1)">
       <use xlink:href="#DejaVuSans-30"/>
       <use xlink:href="#DejaVuSans-2e" x="63.623047"/>
       <use xlink:href="#DejaVuSans-30" x="95.410156"/>
       <use xlink:href="#DejaVuSans-30" x="159.033203"/>
      </g>
     </g>
    </g>
    <g id="text_7">
     <!-- Distance from Cloud Droplet Probe Strut [m] -->
     <g transform="translate(331.764063 540.916563) scale(0.1 -0.1)">
      <defs>
       <path id="DejaVuSans-44" d="M 1259 4147 
L 1259 519 
L 2022 519 
Q 2988 519 3436 956 
Q 3884 1394 3884 2338 
Q 3884 3275 3436 3711 
Q 2988 4147 2022 4147 
L 1259 4147 
z
M 628 4666 
L 1925 4666 
Q 3281 4666 3915 4102 
Q 4550 3538 4550 2338 
Q 4550 1131 3912 565 
Q 3275 0 1925 0 
L 628 0 
L 628 4666 
z
" transform="scale(0.015625)"/>
       <path id="DejaVuSans-69" d="M 603 3500 
L 1178 3500 
L 1178 0 
L 603 0 
L 603 3500 
z
M 603 4863 
L 1178 4863 
L 1178 4134 
L 603 4134 
L 603 4863 
z
" transform="scale(0.015625)"/>
       <path id="DejaVuSans-73" d="M 2834 3397 
L 2834 2853 
Q 2591 2978 2328 3040 
Q 2066 3103 1784 3103 
Q 1356 3103 1142 2972 
Q 928 2841 928 2578 
Q 928 2378 1081 2264 
Q 1234 2150 1697 2047 
L 1894 2003 
Q 2506 1872 2764 1633 
Q 3022 1394 3022 966 
Q 3022 478 2636 193 
Q 2250 -91 1575 -91 
Q 1294 -91 989 -36 
Q 684 19 347 128 
L 347 722 
Q 666 556 975 473 
Q 1284 391 1588 391 
Q 1994 391 2212 530 
Q 2431 669 2431 922 
Q 2431 1156 2273 1281 
Q 2116 1406 1581 1522 
L 1381 1569 
Q 847 1681 609 1914 
Q 372 2147 372 2553 
Q 372 3047 722 3315 
Q 1072 3584 1716 3584 
Q 2034 3584 2315 3537 
Q 2597 3491 2834 3397 
z
" transform="scale(0.015625)"/>
       <path id="DejaVuSans-74" d="M 1172 4494 
L 1172 3500 
L 2356 3500 
L 2356 3053 
L 1172 3053 
L 1172 1153 
Q 1172 725 1289 603 
Q 1406 481 1766 481 
L 2356 481 
L 2356 0 
L 1766 0 
Q 1100 0 847 248 
Q 594 497 594 1153 
L 594 3053 
L 172 3053 
L 172 3500 
L 594 3500 
L 594 4494 
L 1172 4494 
z
" transform="scale(0.015625)"/>
       <path id="DejaVuSans-61" d="M 2194 1759 
Q 1497 1759 1228 1600 
Q 959 1441 959 1056 
Q 959 750 1161 570 
Q 1363 391 1709 391 
Q 2188 391 2477 730 
Q 2766 1069 2766 1631 
L 2766 1759 
L 2194 1759 
z
M 3341 1997 
L 3341 0 
L 2766 0 
L 2766 531 
Q 2569 213 2275 61 
Q 1981 -91 1556 -91 
Q 1019 -91 701 211 
Q 384 513 384 1019 
Q 384 1609 779 1909 
Q 1175 2209 1959 2209 
L 2766 2209 
L 2766 2266 
Q 2766 2663 2505 2880 
Q 2244 3097 1772 3097 
Q 1472 3097 1187 3025 
Q 903 2953 641 2809 
L 641 3341 
Q 956 3463 1253 3523 
Q 1550 3584 1831 3584 
Q 2591 3584 2966 3190 
Q 3341 2797 3341 1997 
z
" transform="scale(0.015625)"/>
       <path id="DejaVuSans-6e" d="M 3513 2113 
L 3513 0 
L 2938 0 
L 2938 2094 
Q 2938 2591 2744 2837 
Q 2550 3084 2163 3084 
Q 1697 3084 1428 2787 
Q 1159 2491 1159 1978 
L 1159 0 
L 581 0 
L 581 3500 
L 1159 3500 
L 1159 2956 
Q 1366 3272 1645 3428 
Q 1925 3584 2291 3584 
Q 2894 3584 3203 3211 
Q 3513 2838 3513 2113 
z
" transform="scale(0.015625)"/>
       <path id="DejaVuSans-63" d="M 3122 3366 
L 3122 2828 
Q 2878 2963 2633 3030 
Q 2388 3097 2138 3097 
Q 1578 3097 1268 2742 
Q 959 2388 959 1747 
Q 959 1106 1268 751 
Q 1578 397 2138 397 
Q 2388 397 2633 464 
Q 2878 531 3122 666 
L 3122 134 
Q 2881 22 2623 -34 
Q 2366 -91 2075 -91 
Q 1284 -91 818 406 
Q 353 903 353 1747 
Q 353 2603 823 3093 
Q 1294 3584 2113 3584 
Q 2378 3584 2631 3529 
Q 2884 3475 3122 3366 
z
" transform="scale(0.015625)"/>
       <path id="DejaVuSans-65" d="M 3597 1894 
L 3597 1613 
L 953 1613 
Q 991 1019 1311 708 
Q 1631 397 2203 397 
Q 2534 397 2845 478 
Q 3156 559 3463 722 
L 3463 178 
Q 3153 47 2828 -22 
Q 2503 -91 2169 -91 
Q 1331 -91 842 396 
Q 353 884 353 1716 
Q 353 2575 817 3079 
Q 1281 3584 2069 3584 
Q 2775 3584 3186 3129 
Q 3597 2675 3597 1894 
z
M 3022 2063 
Q 3016 2534 2758 2815 
Q 2500 3097 2075 3097 
Q 1594 3097 1305 2825 
Q 1016 2553 972 2059 
L 3022 2063 
z
" transform="scale(0.015625)"/>
       <path id="DejaVuSans-20" transform="scale(0.015625)"/>
       <path id="DejaVuSans-66" d="M 2375 4863 
L 2375 4384 
L 1825 4384 
Q 1516 4384 1395 4259 
Q 1275 4134 1275 3809 
L 1275 3500 
L 2222 3500 
L 2222 3053 
L 1275 3053 
L 1275 0 
L 697 0 
L 697 3053 
L 147 3053 
L 147 3500 
L 697 3500 
L 697 3744 
Q 697 4328 969 4595 
Q 1241 4863 1831 4863 
L 2375 4863 
z
" transform="scale(0.015625)"/>
       <path id="DejaVuSans-72" d="M 2631 2963 
Q 2534 3019 2420 3045 
Q 2306 3072 2169 3072 
Q 1681 3072 1420 2755 
Q 1159 2438 1159 1844 
L 1159 0 
L 581 0 
L 581 3500 
L 1159 3500 
L 1159 2956 
Q 1341 3275 1631 3429 
Q 1922 3584 2338 3584 
Q 2397 3584 2469 3576 
Q 2541 3569 2628 3553 
L 2631 2963 
z
" transform="scale(0.015625)"/>
       <path id="DejaVuSans-6f" d="M 1959 3097 
Q 1497 3097 1228 2736 
Q 959 2375 959 1747 
Q 959 1119 1226 758 
Q 1494 397 1959 397 
Q 2419 397 2687 759 
Q 2956 1122 2956 1747 
Q 2956 2369 2687 2733 
Q 2419 3097 1959 3097 
z
M 1959 3584 
Q 2709 3584 3137 3096 
Q 3566 2609 3566 1747 
Q 3566 888 3137 398 
Q 2709 -91 1959 -91 
Q 1206 -91 779 398 
Q 353 888 353 1747 
Q 353 2609 779 3096 
Q 1206 3584 1959 3584 
z
" transform="scale(0.015625)"/>
       <path id="DejaVuSans-6d" d="M 3328 2828 
Q 3544 3216 3844 3400 
Q 4144 3584 4550 3584 
Q 5097 3584 5394 3201 
Q 5691 2819 5691 2113 
L 5691 0 
L 5113 0 
L 5113 2094 
Q 5113 2597 4934 2840 
Q 4756 3084 4391 3084 
Q 3944 3084 3684 2787 
Q 3425 2491 3425 1978 
L 3425 0 
L 2847 0 
L 2847 2094 
Q 2847 2600 2669 2842 
Q 2491 3084 2119 3084 
Q 1678 3084 1418 2786 
Q 1159 2488 1159 1978 
L 1159 0 
L 581 0 
L 581 3500 
L 1159 3500 
L 1159 2956 
Q 1356 3278 1631 3431 
Q 1906 3584 2284 3584 
Q 2666 3584 2933 3390 
Q 3200 3197 3328 2828 
z
" transform="scale(0.015625)"/>
       <path id="DejaVuSans-43" d="M 4122 4306 
L 4122 3641 
Q 3803 3938 3442 4084 
Q 3081 4231 2675 4231 
Q 1875 4231 1450 3742 
Q 1025 3253 1025 2328 
Q 1025 1406 1450 917 
Q 1875 428 2675 428 
Q 3081 428 3442 575 
Q 3803 722 4122 1019 
L 4122 359 
Q 3791 134 3420 21 
Q 3050 -91 2638 -91 
Q 1578 -91 968 557 
Q 359 1206 359 2328 
Q 359 3453 968 4101 
Q 1578 4750 2638 4750 
Q 3056 4750 3426 4639 
Q 3797 4528 4122 4306 
z
" transform="scale(0.015625)"/>
       <path id="DejaVuSans-6c" d="M 603 4863 
L 1178 4863 
L 1178 0 
L 603 0 
L 603 4863 
z
" transform="scale(0.015625)"/>
       <path id="DejaVuSans-75" d="M 544 1381 
L 544 3500 
L 1119 3500 
L 1119 1403 
Q 1119 906 1312 657 
Q 1506 409 1894 409 
Q 2359 409 2629 706 
Q 2900 1003 2900 1516 
L 2900 3500 
L 3475 3500 
L 3475 0 
L 2900 0 
L 2900 538 
Q 2691 219 2414 64 
Q 2138 -91 1772 -91 
Q 1169 -91 856 284 
Q 544 659 544 1381 
z
M 1991 3584 
L 1991 3584 
z
" transform="scale(0.015625)"/>
       <path id="DejaVuSans-64" d="M 2906 2969 
L 2906 4863 
L 3481 4863 
L 3481 0 
L 2906 0 
L 2906 525 
Q 2725 213 2448 61 
Q 2172 -91 1784 -91 
Q 1150 -91 751 415 
Q 353 922 353 1747 
Q 353 2572 751 3078 
Q 1150 3584 1784 3584 
Q 2172 3584 2448 3432 
Q 2725 3281 2906 2969 
z
M 947 1747 
Q 947 1113 1208 752 
Q 1469 391 1925 391 
Q 2381 391 2643 752 
Q 2906 1113 2906 1747 
Q 2906 2381 2643 2742 
Q 2381 3103 1925 3103 
Q 1469 3103 1208 2742 
Q 947 2381 947 1747 
z
" transform="scale(0.015625)"/>
       <path id="DejaVuSans-70" d="M 1159 525 
L 1159 -1331 
L 581 -1331 
L 581 3500 
L 1159 3500 
L 1159 2969 
Q 1341 3281 1617 3432 
Q 1894 3584 2278 3584 
Q 2916 3584 3314 3078 
Q 3713 2572 3713 1747 
Q 3713 922 3314 415 
Q 2916 -91 2278 -91 
Q 1894 -91 1617 61 
Q 1341 213 1159 525 
z
M 3116 1747 
Q 3116 2381 2855 2742 
Q 2594 3103 2138 3103 
Q 1681 3103 1420 2742 
Q 1159 2381 1159 1747 
Q 1159 1113 1420 752 
Q 1681 391 2138 391 
Q 2594 391 2855 752 
Q 3116 1113 3116 1747 
z
" transform="scale(0.015625)"/>
       <path id="DejaVuSans-50" d="M 1259 4147 
L 1259 2394 
L 2053 2394 
Q 2494 2394 2734 2622 
Q 2975 2850 2975 3272 
Q 2975 3691 2734 3919 
Q 2494 4147 2053 4147 
L 1259 4147 
z
M 628 4666 
L 2053 4666 
Q 2838 4666 3239 4311 
Q 3641 3956 3641 3272 
Q 3641 2581 3239 2228 
Q 2838 1875 2053 1875 
L 1259 1875 
L 1259 0 
L 628 0 
L 628 4666 
z
" transform="scale(0.015625)"/>
       <path id="DejaVuSans-62" d="M 3116 1747 
Q 3116 2381 2855 2742 
Q 2594 3103 2138 3103 
Q 1681 3103 1420 2742 
Q 1159 2381 1159 1747 
Q 1159 1113 1420 752 
Q 1681 391 2138 391 
Q 2594 391 2855 752 
Q 3116 1113 3116 1747 
z
M 1159 2969 
Q 1341 3281 1617 3432 
Q 1894 3584 2278 3584 
Q 2916 3584 3314 3078 
Q 3713 2572 3713 1747 
Q 3713 922 3314 415 
Q 2916 -91 2278 -91 
Q 1894 -91 1617 61 
Q 1341 213 1159 525 
L 1159 0 
L 581 0 
L 581 4863 
L 1159 4863 
L 1159 2969 
z
" transform="scale(0.015625)"/>
       <path id="DejaVuSans-53" d="M 3425 4513 
L 3425 3897 
Q 3066 4069 2747 4153 
Q 2428 4238 2131 4238 
Q 1616 4238 1336 4038 
Q 1056 3838 1056 3469 
Q 1056 3159 1242 3001 
Q 1428 2844 1947 2747 
L 2328 2669 
Q 3034 2534 3370 2195 
Q 3706 1856 3706 1288 
Q 3706 609 3251 259 
Q 2797 -91 1919 -91 
Q 1588 -91 1214 -16 
Q 841 59 441 206 
L 441 856 
Q 825 641 1194 531 
Q 1563 422 1919 422 
Q 2459 422 2753 634 
Q 3047 847 3047 1241 
Q 3047 1584 2836 1778 
Q 2625 1972 2144 2069 
L 1759 2144 
Q 1053 2284 737 2584 
Q 422 2884 422 3419 
Q 422 4038 858 4394 
Q 1294 4750 2059 4750 
Q 2388 4750 2728 4690 
Q 3069 4631 3425 4513 
z
" transform="scale(0.015625)"/>
       <path id="DejaVuSans-5b" d="M 550 4863 
L 1875 4863 
L 1875 4416 
L 1125 4416 
L 1125 -397 
L 1875 -397 
L 1875 -844 
L 550 -844 
L 550 4863 
z
" transform="scale(0.015625)"/>
       <path id="DejaVuSans-5d" d="M 1947 4863 
L 1947 -844 
L 622 -844 
L 622 -397 
L 1369 -397 
L 1369 4416 
L 622 4416 
L 622 4863 
L 1947 4863 
z
" transform="scale(0.015625)"/>
      </defs>
      <use xlink:href="#DejaVuSans-44"/>
      <use xlink:href="#DejaVuSans-69" x="77.001953"/>
      <use xlink:href="#DejaVuSans-73" x="104.785156"/>
      <use xlink:href="#DejaVuSans-74" x="156.884766"/>
      <use xlink:href="#DejaVuSans-61" x="196.09375"/>
      <use xlink:href="#DejaVuSans-6e" x="257.373047"/>
      <use xlink:href="#DejaVuSans-63" x="320.751953"/>
      <use xlink:href="#DejaVuSans-65" x="375.732422"/>
      <use xlink:href="#DejaVuSans-20" x="437.255859"/>
      <use xlink:href="#DejaVuSans-66" x="469.042969"/>
      <use xlink:href="#DejaVuSans-72" x="504.248047"/>
      <use xlink:href="#DejaVuSans-6f" x="543.111328"/>
      <use xlink:href="#DejaVuSans-6d" x="604.292969"/>
      <use xlink:href="#DejaVuSans-20" x="701.705078"/>
      <use xlink:href="#DejaVuSans-43" x="733.492188"/>
      <use xlink:href="#DejaVuSans-6c" x="803.316406"/>
      <use xlink:href="#DejaVuSans-6f" x="831.099609"/>
      <use xlink:href="#DejaVuSans-75" x="892.28125"/>
      <use xlink:href="#DejaVuSans-64" x="955.660156"/>
      <use xlink:href="#DejaVuSans-20" x="1019.136719"/>
      <use xlink:href="#DejaVuSans-44" x="1050.923828"/>
      <use xlink:href="#DejaVuSans-72" x="1127.925781"/>
      <use xlink:href="#DejaVuSans-6f" x="1166.789062"/>
      <use xlink:href="#DejaVuSans-70" x="1227.970703"/>
      <use xlink:href="#DejaVuSans-6c" x="1291.447266"/>
      <use xlink:href="#DejaVuSans-65" x="1319.230469"/>
      <use xlink:href="#DejaVuSans-74" x="1380.753906"/>
      <use xlink:href="#DejaVuSans-20" x="1419.962891"/>
      <use xlink:href="#DejaVuSans-50" x="1451.75"/>
      <use xlink:href="#DejaVuSans-72" x="1510.302734"/>
      <use xlink:href="#DejaVuSans-6f" x="1549.166016"/>
      <use xlink:href="#DejaVuSans-62" x="1610.347656"/>
      <use xlink:href="#DejaVuSans-65" x="1673.824219"/>
      <use xlink:href="#DejaVuSans-20" x="1735.347656"/>
      <use xlink:href="#DejaVuSans-53" x="1767.134766"/>
      <use xlink:href="#DejaVuSans-74" x="1830.611328"/>
      <use xlink:href="#DejaVuSans-72" x="1869.820312"/>
      <use xlink:href="#DejaVuSans-75" x="1910.933594"/>
      <use xlink:href="#DejaVuSans-74" x="1974.3125"/>
      <use xlink:href="#DejaVuSans-20" x="2013.521484"/>
      <use xlink:href="#DejaVuSans-5b" x="2045.308594"/>
      <use xlink:href="#DejaVuSans-6d" x="2084.322266"/>
      <use xlink:href="#DejaVuSans-5d" x="2181.734375"/>
     </g>
    </g>
   </g>
   <g id="matplotlib.axis_2">
    <g id="ytick_1">
     <g id="line2d_13">
      <path d="M 108 489.895385 
L 777.6 489.895385 
" clip-path="url(#p7dcc511d4c)" style="fill: none; stroke: #b0b0b0; stroke-width: 0.8; stroke-linecap: square"/>
     </g>
     <g id="line2d_14">
      <defs>
       <path id="ma13e03bea5" d="M 0 0 
L -3.5 0 
" style="stroke: #000000; stroke-width: 0.8"/>
      </defs>
      <g>
       <use xlink:href="#ma13e03bea5" x="108" y="489.895385" style="stroke: #000000; stroke-width: 0.8"/>
      </g>
     </g>
     <g id="text_8">
      <!-- −25 -->
      <g transform="translate(79.895313 493.694603) scale(0.1 -0.1)">
       <defs>
        <path id="DejaVuSans-35" d="M 691 4666 
L 3169 4666 
L 3169 4134 
L 1269 4134 
L 1269 2991 
Q 1406 3038 1543 3061 
Q 1681 3084 1819 3084 
Q 2600 3084 3056 2656 
Q 3513 2228 3513 1497 
Q 3513 744 3044 326 
Q 2575 -91 1722 -91 
Q 1428 -91 1123 -41 
Q 819 9 494 109 
L 494 744 
Q 775 591 1075 516 
Q 1375 441 1709 441 
Q 2250 441 2565 725 
Q 2881 1009 2881 1497 
Q 2881 1984 2565 2268 
Q 2250 2553 1709 2553 
Q 1456 2553 1204 2497 
Q 953 2441 691 2322 
L 691 4666 
z
" transform="scale(0.015625)"/>
       </defs>
       <use xlink:href="#DejaVuSans-2212"/>
       <use xlink:href="#DejaVuSans-32" x="83.789062"/>
       <use xlink:href="#DejaVuSans-35" x="147.412109"/>
      </g>
     </g>
    </g>
    <g id="ytick_2">
     <g id="line2d_15">
      <path d="M 108 433.033846 
L 777.6 433.033846 
" clip-path="url(#p7dcc511d4c)" style="fill: none; stroke: #b0b0b0; stroke-width: 0.8; stroke-linecap: square"/>
     </g>
     <g id="line2d_16">
      <g>
       <use xlink:href="#ma13e03bea5" x="108" y="433.033846" style="stroke: #000000; stroke-width: 0.8"/>
      </g>
     </g>
     <g id="text_9">
      <!-- 0 -->
      <g transform="translate(94.6375 436.833065) scale(0.1 -0.1)">
       <use xlink:href="#DejaVuSans-30"/>
      </g>
     </g>
    </g>
    <g id="ytick_3">
     <g id="line2d_17">
      <path d="M 108 376.172308 
L 777.6 376.172308 
" clip-path="url(#p7dcc511d4c)" style="fill: none; stroke: #b0b0b0; stroke-width: 0.8; stroke-linecap: square"/>
     </g>
     <g id="line2d_18">
      <g>
       <use xlink:href="#ma13e03bea5" x="108" y="376.172308" style="stroke: #000000; stroke-width: 0.8"/>
      </g>
     </g>
     <g id="text_10">
      <!-- 25 -->
      <g transform="translate(88.275 379.971526) scale(0.1 -0.1)">
       <use xlink:href="#DejaVuSans-32"/>
       <use xlink:href="#DejaVuSans-35" x="63.623047"/>
      </g>
     </g>
    </g>
    <g id="ytick_4">
     <g id="line2d_19">
      <path d="M 108 319.310769 
L 777.6 319.310769 
" clip-path="url(#p7dcc511d4c)" style="fill: none; stroke: #b0b0b0; stroke-width: 0.8; stroke-linecap: square"/>
     </g>
     <g id="line2d_20">
      <g>
       <use xlink:href="#ma13e03bea5" x="108" y="319.310769" style="stroke: #000000; stroke-width: 0.8"/>
      </g>
     </g>
     <g id="text_11">
      <!-- 50 -->
      <g transform="translate(88.275 323.109988) scale(0.1 -0.1)">
       <use xlink:href="#DejaVuSans-35"/>
       <use xlink:href="#DejaVuSans-30" x="63.623047"/>
      </g>
     </g>
    </g>
    <g id="ytick_5">
     <g id="line2d_21">
      <path d="M 108 262.449231 
L 777.6 262.449231 
" clip-path="url(#p7dcc511d4c)" style="fill: none; stroke: #b0b0b0; stroke-width: 0.8; stroke-linecap: square"/>
     </g>
     <g id="line2d_22">
      <g>
       <use xlink:href="#ma13e03bea5" x="108" y="262.449231" style="stroke: #000000; stroke-width: 0.8"/>
      </g>
     </g>
     <g id="text_12">
      <!-- 75 -->
      <g transform="translate(88.275 266.24845) scale(0.1 -0.1)">
       <defs>
        <path id="DejaVuSans-37" d="M 525 4666 
L 3525 4666 
L 3525 4397 
L 1831 0 
L 1172 0 
L 2766 4134 
L 525 4134 
L 525 4666 
z
" transform="scale(0.015625)"/>
       </defs>
       <use xlink:href="#DejaVuSans-37"/>
       <use xlink:href="#DejaVuSans-35" x="63.623047"/>
      </g>
     </g>
    </g>
    <g id="ytick_6">
     <g id="line2d_23">
      <path d="M 108 205.587692 
L 777.6 205.587692 
" clip-path="url(#p7dcc511d4c)" style="fill: none; stroke: #b0b0b0; stroke-width: 0.8; stroke-linecap: square"/>
     </g>
     <g id="line2d_24">
      <g>
       <use xlink:href="#ma13e03bea5" x="108" y="205.587692" style="stroke: #000000; stroke-width: 0.8"/>
      </g>
     </g>
     <g id="text_13">
      <!-- 100 -->
      <g transform="translate(81.9125 209.386911) scale(0.1 -0.1)">
       <use xlink:href="#DejaVuSans-31"/>
       <use xlink:href="#DejaVuSans-30" x="63.623047"/>
       <use xlink:href="#DejaVuSans-30" x="127.246094"/>
      </g>
     </g>
    </g>
    <g id="ytick_7">
     <g id="line2d_25">
      <path d="M 108 148.726154 
L 777.6 148.726154 
" clip-path="url(#p7dcc511d4c)" style="fill: none; stroke: #b0b0b0; stroke-width: 0.8; stroke-linecap: square"/>
     </g>
     <g id="line2d_26">
      <g>
       <use xlink:href="#ma13e03bea5" x="108" y="148.726154" style="stroke: #000000; stroke-width: 0.8"/>
      </g>
     </g>
     <g id="text_14">
      <!-- 125 -->
      <g transform="translate(81.9125 152.525373) scale(0.1 -0.1)">
       <use xlink:href="#DejaVuSans-31"/>
       <use xlink:href="#DejaVuSans-32" x="63.623047"/>
       <use xlink:href="#DejaVuSans-35" x="127.246094"/>
      </g>
     </g>
    </g>
    <g id="ytick_8">
     <g id="line2d_27">
      <path d="M 108 91.864615 
L 777.6 91.864615 
" clip-path="url(#p7dcc511d4c)" style="fill: none; stroke: #b0b0b0; stroke-width: 0.8; stroke-linecap: square"/>
     </g>
     <g id="line2d_28">
      <g>
       <use xlink:href="#ma13e03bea5" x="108" y="91.864615" style="stroke: #000000; stroke-width: 0.8"/>
      </g>
     </g>
     <g id="text_15">
      <!-- 150 -->
      <g transform="translate(81.9125 95.663834) scale(0.1 -0.1)">
       <use xlink:href="#DejaVuSans-31"/>
       <use xlink:href="#DejaVuSans-35" x="63.623047"/>
       <use xlink:href="#DejaVuSans-30" x="127.246094"/>
      </g>
     </g>
    </g>
    <g id="text_16">
     <!-- Velocity [m/s] -->
     <g transform="translate(73.815625 325.145625) rotate(-90) scale(0.1 -0.1)">
      <defs>
       <path id="DejaVuSans-56" d="M 1831 0 
L 50 4666 
L 709 4666 
L 2188 738 
L 3669 4666 
L 4325 4666 
L 2547 0 
L 1831 0 
z
" transform="scale(0.015625)"/>
       <path id="DejaVuSans-79" d="M 2059 -325 
Q 1816 -950 1584 -1140 
Q 1353 -1331 966 -1331 
L 506 -1331 
L 506 -850 
L 844 -850 
Q 1081 -850 1212 -737 
Q 1344 -625 1503 -206 
L 1606 56 
L 191 3500 
L 800 3500 
L 1894 763 
L 2988 3500 
L 3597 3500 
L 2059 -325 
z
" transform="scale(0.015625)"/>
       <path id="DejaVuSans-2f" d="M 1625 4666 
L 2156 4666 
L 531 -594 
L 0 -594 
L 1625 4666 
z
" transform="scale(0.015625)"/>
      </defs>
      <use xlink:href="#DejaVuSans-56"/>
      <use xlink:href="#DejaVuSans-65" x="60.658203"/>
      <use xlink:href="#DejaVuSans-6c" x="122.181641"/>
      <use xlink:href="#DejaVuSans-6f" x="149.964844"/>
      <use xlink:href="#DejaVuSans-63" x="211.146484"/>
      <use xlink:href="#DejaVuSans-69" x="266.126953"/>
      <use xlink:href="#DejaVuSans-74" x="293.910156"/>
      <use xlink:href="#DejaVuSans-79" x="333.119141"/>
      <use xlink:href="#DejaVuSans-20" x="392.298828"/>
      <use xlink:href="#DejaVuSans-5b" x="424.085938"/>
      <use xlink:href="#DejaVuSans-6d" x="463.099609"/>
      <use xlink:href="#DejaVuSans-2f" x="560.511719"/>
      <use xlink:href="#DejaVuSans-73" x="594.203125"/>
      <use xlink:href="#DejaVuSans-5d" x="646.302734"/>
     </g>
    </g>
   </g>
   <g id="line2d_29">
    <path d="M 138.436364 236.824907 
L 144.521992 238.343222 
L 150.605939 239.859645 
L 156.695691 241.377075 
L 162.785443 242.894106 
L 168.86939 244.409297 
L 174.959142 245.925529 
L 181.043089 247.263861 
L 187.132841 247.417815 
L 193.222593 247.572671 
L 199.30654 247.728308 
L 205.396293 247.885004 
L 211.480239 248.04248 
L 217.569992 248.201049 
L 223.653939 248.360383 
L 229.743691 248.520826 
L 235.833443 248.682224 
L 241.91739 248.844403 
L 248.007142 249.007693 
L 254.091089 249.171798 
L 260.180841 249.337031 
L 266.264788 249.503079 
L 272.35454 249.670273 
L 278.444292 249.838439 
L 284.528239 250.125176 
L 290.617991 250.482521 
L 296.701938 250.839919 
L 302.791691 251.198097 
L 308.875637 251.556345 
L 314.96539 251.915357 
L 321.055142 252.274784 
L 327.139089 252.634282 
L 333.228841 252.99456 
L 339.312788 253.354907 
L 345.40254 253.716018 
L 351.486487 254.077199 
L 357.576239 254.43916 
L 363.665991 254.801538 
L 369.749938 255.164002 
L 375.83969 255.52723 
L 381.923637 256.044516 
L 388.013389 256.682855 
L 394.103142 257.321194 
L 400.187089 257.958925 
L 406.276841 258.597264 
L 412.360788 259.234996 
L 418.45054 259.873317 
L 424.534487 260.511031 
L 430.624239 261.14937 
L 436.713991 261.787691 
L 442.797938 262.425405 
L 448.88769 263.063727 
L 454.971637 263.701441 
L 461.061389 264.339762 
L 467.145336 264.977459 
L 473.235088 265.615781 
L 479.324841 266.253547 
L 485.408787 266.889855 
L 491.49854 267.526771 
L 497.582487 268.163097 
L 503.672239 268.800048 
L 509.756186 269.436408 
L 515.845938 270.073376 
L 521.93569 270.710379 
L 528.019637 271.346774 
L 534.109389 271.983794 
L 540.193336 272.620224 
L 546.283088 273.257279 
L 552.367035 273.893726 
L 558.456787 274.530815 
L 564.546539 275.167905 
L 570.630486 275.804404 
L 576.720239 276.441528 
L 582.804185 276.889021 
L 588.893938 277.311422 
L 594.98369 277.735715 
L 601.067637 278.1615 
L 607.157389 278.589592 
L 613.241336 279.019212 
L 619.331088 279.451192 
L 625.415035 279.884733 
L 631.504787 280.320669 
L 637.594539 280.758601 
L 643.678486 281.198147 
L 649.768238 281.640156 
L 655.852185 282.083797 
L 661.941937 282.529937 
L 668.025884 282.977759 
L 674.115637 283.428133 
L 680.205389 290.777619 
L 686.289336 302.243814 
L 692.379088 313.467929 
L 698.463035 324.430616 
L 704.552787 335.155145 
L 710.636734 345.623651 
L 716.726486 355.858988 
L 722.816238 365.854159 
L 728.900185 375.603293 
L 734.989937 385.128529 
L 741.073884 394.415412 
L 747.163636 403.485552 
" clip-path="url(#p7dcc511d4c)" style="fill: none; stroke: #1f77b4; stroke-width: 1.5; stroke-linecap: square"/>
   </g>
   <g id="line2d_30">
    <path d="M 138.436364 452.698452 
L 144.521992 452.767811 
L 150.605939 452.837443 
L 156.695691 452.907473 
L 162.785443 452.977825 
L 168.86939 453.048423 
L 174.959142 453.119393 
L 181.043089 453.216046 
L 187.132841 453.484038 
L 193.222593 453.751472 
L 199.30654 454.018091 
L 205.396293 454.284399 
L 211.480239 454.54989 
L 217.569992 454.815062 
L 223.653939 455.079408 
L 229.743691 455.343432 
L 235.833443 455.606873 
L 241.91739 455.869483 
L 248.007142 456.131755 
L 254.091089 456.39319 
L 260.180841 456.654282 
L 266.264788 456.914528 
L 272.35454 457.174422 
L 278.444292 457.433714 
L 284.528239 457.720891 
L 290.617991 458.025202 
L 296.701938 458.32914 
L 302.791691 458.633286 
L 308.875637 458.937059 
L 314.96539 459.241041 
L 321.055142 459.544938 
L 327.139089 459.848464 
L 333.228841 460.152195 
L 339.312788 460.455554 
L 345.40254 460.759121 
L 351.486487 461.062315 
L 357.576239 461.365713 
L 363.665991 461.669031 
L 369.749938 461.971973 
L 375.83969 462.275122 
L 381.923637 462.554441 
L 388.013389 462.816001 
L 394.103142 463.078002 
L 400.187089 463.340195 
L 406.276841 463.603077 
L 412.360788 463.866147 
L 418.45054 464.129905 
L 424.534487 464.393844 
L 430.624239 464.658472 
L 436.713991 464.923531 
L 442.797938 465.188772 
L 448.88769 465.454695 
L 454.971637 465.720795 
L 461.061389 465.987577 
L 467.145336 466.254529 
L 473.235088 466.522165 
L 479.324841 466.90282 
L 485.408787 467.463186 
L 491.49854 468.024422 
L 497.582487 468.585457 
L 503.672239 469.147361 
L 509.756186 469.709066 
L 515.845938 470.271642 
L 521.93569 470.834553 
L 528.019637 471.397264 
L 534.109389 471.960851 
L 540.193336 472.524231 
L 546.283088 473.08849 
L 552.367035 473.652546 
L 558.456787 474.217474 
L 564.546539 474.782745 
L 570.630486 475.347812 
L 576.720239 475.913755 
L 582.804185 476.477038 
L 588.893938 477.032171 
L 594.98369 477.578301 
L 601.067637 478.114844 
L 607.157389 478.642733 
L 613.241336 479.160886 
L 619.331088 479.670203 
L 625.415035 480.169624 
L 631.504787 480.660026 
L 637.594539 481.140828 
L 643.678486 481.611505 
L 649.768238 482.072858 
L 655.852185 482.523926 
L 661.941937 482.965463 
L 668.025884 483.396549 
L 674.115637 483.8179 
L 680.205389 481.190223 
L 686.289336 476.790928 
L 692.379088 472.553865 
L 698.463035 468.48575 
L 704.552787 464.577289 
L 710.636734 460.834222 
L 716.726486 457.247523 
L 722.816238 453.818794 
L 728.900185 450.548896 
L 734.989937 447.429266 
L 741.073884 444.463413 
L 747.163636 441.643121 
" clip-path="url(#p7dcc511d4c)" style="fill: none; stroke-dasharray: 5.55,2.4; stroke-dashoffset: 0; stroke: #ff7f0e; stroke-width: 1.5"/>
   </g>
   <g id="line2d_31">
    <path d="M 138.436364 406.712 
L 144.521992 406.873343 
L 150.605939 407.03442 
L 156.695691 407.195543 
L 162.785443 407.356559 
L 168.86939 407.51732 
L 174.959142 407.678132 
L 181.043089 407.874555 
L 187.132841 408.312862 
L 193.222593 408.751505 
L 199.30654 409.19007 
L 205.396293 409.629394 
L 211.480239 410.06864 
L 217.569992 410.50865 
L 223.653939 410.948586 
L 229.743691 411.389292 
L 235.833443 411.830347 
L 241.91739 412.271333 
L 248.007142 412.713095 
L 254.091089 413.154793 
L 260.180841 413.597269 
L 266.264788 414.039682 
L 272.35454 414.48288 
L 278.444292 414.926444 
L 284.528239 415.322874 
L 290.617991 415.691802 
L 296.701938 416.060331 
L 302.791691 416.42916 
L 308.875637 416.79759 
L 314.96539 417.166322 
L 321.055142 417.535006 
L 327.139089 417.903289 
L 333.228841 418.271872 
L 339.312788 418.640057 
L 345.40254 419.008542 
L 351.486487 419.376627 
L 357.576239 419.745013 
L 363.665991 420.113351 
L 369.749938 420.481287 
L 375.83969 420.849523 
L 381.923637 421.129211 
L 388.013389 421.340244 
L 394.103142 421.551344 
L 400.187089 421.762307 
L 406.276841 421.973538 
L 412.360788 422.184632 
L 418.45054 422.395994 
L 424.534487 422.607219 
L 430.624239 422.81871 
L 436.713991 423.030266 
L 442.797938 423.241686 
L 448.88769 423.45337 
L 454.971637 423.664917 
L 461.061389 423.876731 
L 467.145336 424.088406 
L 473.235088 424.300346 
L 479.324841 424.527994 
L 485.408787 424.780467 
L 491.49854 425.033263 
L 497.582487 425.285898 
L 503.672239 425.538854 
L 509.756186 425.791649 
L 515.845938 426.044767 
L 521.93569 426.297965 
L 528.019637 426.551003 
L 534.109389 426.804363 
L 540.193336 427.057562 
L 546.283088 427.311084 
L 552.367035 427.564445 
L 558.456787 427.818128 
L 564.546539 428.071893 
L 570.630486 428.325497 
L 576.720239 428.579425 
L 582.804185 429.213804 
L 588.893938 429.903973 
L 594.98369 430.594437 
L 601.067637 431.28454 
L 607.157389 431.975603 
L 613.241336 432.66631 
L 619.331088 433.357983 
L 625.415035 434.049306 
L 631.504787 434.7416 
L 637.594539 435.434209 
L 643.678486 436.126475 
L 649.768238 436.819723 
L 655.852185 437.512633 
L 661.941937 438.206532 
L 668.025884 438.900098 
L 674.115637 439.59466 
L 680.205389 439.533162 
L 686.289336 439.006774 
L 692.379088 438.491838 
L 698.463035 437.989238 
L 704.552787 437.497906 
L 710.636734 437.018654 
L 716.726486 436.550433 
L 722.816238 436.093559 
L 728.900185 435.648295 
L 734.989937 435.213624 
L 741.073884 434.790199 
L 747.163636 434.377029 
" clip-path="url(#p7dcc511d4c)" style="fill: none; stroke-dasharray: 9.6,2.4,1.5,2.4; stroke-dashoffset: 0; stroke: #2ca02c; stroke-width: 1.5"/>
   </g>
   <g id="line2d_32">
    <path d="M 138.436364 242.943596 
L 144.521992 244.446449 
L 150.605939 245.947377 
L 156.695691 247.449241 
L 162.785443 248.950637 
L 168.86939 250.450141 
L 174.959142 251.950617 
L 181.043089 253.280082 
L 187.132841 253.471657 
L 193.222593 253.664081 
L 199.30654 253.857166 
L 205.396293 254.051291 
L 211.480239 254.246076 
L 217.569992 254.441902 
L 223.653939 254.638422 
L 229.743691 254.835983 
L 235.833443 255.034412 
L 241.91739 255.233552 
L 248.007142 255.433751 
L 254.091089 255.634644 
L 260.180841 255.83663 
L 266.264788 256.03931 
L 272.35454 256.243101 
L 278.444292 256.447795 
L 284.528239 256.771667 
L 290.617991 257.166563 
L 296.701938 257.561443 
L 302.791691 257.957069 
L 308.875637 258.352677 
L 314.96539 258.749049 
L 321.055142 259.145768 
L 327.139089 259.542487 
L 333.228841 259.939952 
L 339.312788 260.337417 
L 345.40254 260.735611 
L 351.486487 261.133822 
L 357.576239 261.532762 
L 363.665991 261.932084 
L 369.749938 262.331388 
L 375.83969 262.731456 
L 381.923637 263.271943 
L 388.013389 263.92288 
L 394.103142 264.573816 
L 400.187089 265.224111 
L 406.276841 265.875014 
L 412.360788 266.525274 
L 418.45054 267.176159 
L 424.534487 267.826401 
L 430.624239 268.477251 
L 436.713991 269.128102 
L 442.797938 269.77831 
L 448.88769 270.429125 
L 454.971637 271.079316 
L 461.061389 271.730114 
L 467.145336 272.38027 
L 473.235088 273.031051 
L 479.324841 273.664878 
L 485.408787 274.271097 
L 491.49854 274.87794 
L 497.582487 275.484246 
L 503.672239 276.091159 
L 509.756186 276.697534 
L 515.845938 277.304516 
L 521.93569 277.911533 
L 528.019637 278.518012 
L 534.109389 279.125116 
L 540.193336 279.731664 
L 546.283088 280.338838 
L 552.367035 280.945456 
L 558.456787 281.552698 
L 564.546539 282.159976 
L 570.630486 282.766715 
L 576.720239 283.374079 
L 582.804185 283.810744 
L 588.893938 284.224746 
L 594.98369 284.640328 
L 601.067637 285.057106 
L 607.157389 285.475898 
L 613.241336 285.895904 
L 619.331088 286.317941 
L 625.415035 286.741227 
L 631.504787 287.166595 
L 637.594539 287.593638 
L 643.678486 288.021965 
L 649.768238 288.452418 
L 655.852185 288.884189 
L 661.941937 289.318121 
L 668.025884 289.753389 
L 674.115637 290.190861 
L 680.205389 297.183001 
L 686.289336 308.090732 
L 692.379088 318.773831 
L 698.463035 329.213818 
L 704.552787 339.432801 
L 710.636734 349.41372 
L 716.726486 359.178268 
L 722.816238 368.719703 
L 728.900185 378.032333 
L 734.989937 387.137212 
L 741.073884 396.020426 
L 747.163636 404.702539 
" clip-path="url(#p7dcc511d4c)" style="fill: none; stroke: #d62728; stroke-width: 1.5; stroke-linecap: square"/>
   </g>
   <g id="line2d_33">
    <path d="M 138.436364 428.918491 
L 144.521992 429.159429 
L 150.605939 429.400433 
L 156.695691 429.641954 
L 162.785443 429.883755 
L 168.86939 430.125599 
L 174.959142 430.36794 
L 181.043089 430.607884 
L 187.132841 430.831515 
L 193.222593 431.054564 
L 199.30654 431.276814 
L 205.396293 431.498687 
L 211.480239 431.719757 
L 217.569992 431.940442 
L 223.653939 432.160318 
L 229.743691 432.379801 
L 235.833443 432.598678 
L 241.91739 432.816738 
L 248.007142 433.034394 
L 254.091089 433.251226 
L 260.180841 433.467646 
L 266.264788 433.683237 
L 272.35454 433.898407 
L 278.444292 434.112947 
L 284.528239 434.344151 
L 290.617991 434.585697 
L 296.701938 434.826845 
L 302.791691 435.068054 
L 308.875637 435.308865 
L 314.96539 435.549736 
L 321.055142 435.790437 
L 327.139089 436.03074 
L 333.228841 436.271103 
L 339.312788 436.511066 
L 345.40254 436.751089 
L 351.486487 436.990712 
L 357.576239 437.230393 
L 363.665991 437.469903 
L 369.749938 437.709014 
L 375.83969 437.948182 
L 381.923637 438.204166 
L 388.013389 438.474119 
L 394.103142 438.744449 
L 400.187089 439.014897 
L 406.276841 439.285977 
L 412.360788 439.557172 
L 418.45054 439.828999 
L 424.534487 440.100937 
L 430.624239 440.373506 
L 436.713991 440.646444 
L 442.797938 440.919489 
L 448.88769 441.193164 
L 454.971637 441.466943 
L 461.061389 441.741348 
L 467.145336 442.015856 
L 473.235088 442.29099 
L 479.324841 442.669604 
L 485.408787 443.212761 
L 491.49854 443.756734 
L 497.582487 444.300486 
L 503.672239 444.845055 
L 509.756186 445.389403 
L 515.845938 445.934568 
L 521.93569 446.480033 
L 528.019637 447.025275 
L 534.109389 447.571337 
L 540.193336 448.117178 
L 546.283088 448.663839 
L 552.367035 449.210278 
L 558.456787 449.757538 
L 564.546539 450.305098 
L 570.630486 450.852436 
L 576.720239 451.400598 
L 582.804185 451.878074 
L 588.893938 452.338645 
L 594.98369 452.791439 
L 601.067637 453.235967 
L 607.157389 453.673007 
L 613.241336 454.101655 
L 619.331088 454.522651 
L 625.415035 454.935122 
L 631.504787 455.339779 
L 637.594539 455.736149 
L 643.678486 456.123788 
L 649.768238 456.50336 
L 655.852185 456.874061 
L 661.941937 457.236517 
L 668.025884 457.589958 
L 674.115637 457.934976 
L 680.205389 456.575313 
L 686.289336 454.240267 
L 692.379088 452.013118 
L 698.463035 449.897224 
L 704.552787 447.887526 
L 710.636734 445.986725 
L 716.726486 444.189947 
L 722.816238 442.497704 
L 728.900185 440.910016 
L 734.989937 439.422315 
L 741.073884 438.035823 
L 747.163636 436.746205 
" clip-path="url(#p7dcc511d4c)" style="fill: none; stroke-dasharray: 5.55,2.4; stroke-dashoffset: 0; stroke: #9467bd; stroke-width: 1.5"/>
   </g>
   <g id="line2d_34">
    <path d="M 138.436364 404.233741 
L 144.521992 404.421485 
L 150.605939 404.609207 
L 156.695691 404.797265 
L 162.785443 404.985473 
L 168.86939 405.173651 
L 174.959142 405.36215 
L 181.043089 405.585467 
L 187.132841 406.043847 
L 193.222593 406.502213 
L 199.30654 406.960131 
L 205.396293 407.418472 
L 211.480239 407.876361 
L 217.569992 408.334676 
L 223.653939 408.79254 
L 229.743691 409.250826 
L 235.833443 409.709102 
L 241.91739 410.166924 
L 248.007142 410.625172 
L 254.091089 411.082968 
L 260.180841 411.541187 
L 266.264788 411.998955 
L 272.35454 412.457146 
L 278.444292 412.915324 
L 284.528239 413.303339 
L 290.617991 413.650238 
L 296.701938 413.996619 
L 302.791691 414.343138 
L 308.875637 414.689137 
L 314.96539 415.035277 
L 321.055142 415.381225 
L 327.139089 415.726653 
L 333.228841 416.072218 
L 339.312788 416.417264 
L 345.40254 416.762446 
L 351.486487 417.107108 
L 357.576239 417.451906 
L 363.665991 417.796512 
L 369.749938 418.140595 
L 375.83969 418.484815 
L 381.923637 418.729923 
L 388.013389 418.898115 
L 394.103142 419.066333 
L 400.187089 419.234416 
L 406.276841 419.402686 
L 412.360788 419.570821 
L 418.45054 419.739142 
L 424.534487 419.907329 
L 430.624239 420.075702 
L 436.713991 420.244101 
L 442.797938 420.412365 
L 448.88769 420.580815 
L 454.971637 420.74913 
L 461.061389 420.917631 
L 467.145336 421.085997 
L 473.235088 421.254548 
L 479.324841 421.441515 
L 485.408787 421.657696 
L 491.49854 421.874128 
L 497.582487 422.090401 
L 503.672239 422.306926 
L 509.756186 422.52329 
L 515.845938 422.739906 
L 521.93569 422.956569 
L 528.019637 423.173072 
L 534.109389 423.389826 
L 540.193336 423.60642 
L 546.283088 423.823267 
L 552.367035 424.039953 
L 558.456787 424.256893 
L 564.546539 424.473878 
L 570.630486 424.690703 
L 576.720239 424.907781 
L 582.804185 425.511847 
L 588.893938 426.17295 
L 594.98369 426.83471 
L 601.067637 427.496501 
L 607.157389 428.159592 
L 613.241336 428.822725 
L 619.331088 429.487172 
L 625.415035 430.151673 
L 631.504787 430.817501 
L 637.594539 431.484029 
L 643.678486 432.150628 
L 649.768238 432.818576 
L 655.852185 433.486607 
L 661.941937 434.156002 
L 668.025884 434.825491 
L 674.115637 435.496359 
L 680.205389 435.690865 
L 686.289336 435.577033 
L 692.379088 435.452167 
L 698.463035 435.316593 
L 704.552787 435.170155 
L 710.636734 435.013242 
L 716.726486 434.845681 
L 722.816238 434.667748 
L 728.900185 434.479773 
L 734.989937 434.281548 
L 741.073884 434.073613 
L 747.163636 433.855737 
" clip-path="url(#p7dcc511d4c)" style="fill: none; stroke-dasharray: 9.6,2.4,1.5,2.4; stroke-dashoffset: 0; stroke: #8c564b; stroke-width: 1.5"/>
   </g>
   <g id="line2d_35">
    <path d="M 138.436364 233.272084 
L 144.521992 234.839681 
L 150.605939 236.405386 
L 156.695691 237.972185 
L 162.785443 239.538601 
L 168.86939 241.103144 
L 174.959142 242.668815 
L 181.043089 244.052073 
L 187.132841 244.220881 
L 193.222593 244.390695 
L 199.30654 244.561394 
L 205.396293 244.733308 
L 211.480239 244.906089 
L 217.569992 245.080085 
L 223.653939 245.254966 
L 229.743691 245.43108 
L 235.833443 245.608269 
L 241.91739 245.78636 
L 248.007142 245.965701 
L 254.091089 246.145944 
L 260.180841 246.327471 
L 266.264788 246.509918 
L 272.35454 246.693632 
L 278.444292 246.878474 
L 284.528239 247.20356 
L 290.617991 247.612235 
L 296.701938 248.021119 
L 302.791691 248.430991 
L 308.875637 248.841054 
L 314.96539 249.252124 
L 321.055142 249.663801 
L 327.139089 250.075669 
L 333.228841 250.488543 
L 339.312788 250.901625 
L 345.40254 251.315697 
L 351.486487 251.729977 
L 357.576239 252.145263 
L 363.665991 252.561157 
L 369.749938 252.977259 
L 375.83969 253.39435 
L 381.923637 253.983615 
L 388.013389 254.708267 
L 394.103142 255.433178 
L 400.187089 256.157622 
L 406.276841 256.883002 
L 412.360788 257.607914 
L 418.45054 258.33378 
L 424.534487 259.05916 
L 430.624239 259.785495 
L 436.713991 260.512038 
L 442.797938 261.238147 
L 448.88769 261.965158 
L 454.971637 262.691736 
L 461.061389 263.419216 
L 467.145336 264.146244 
L 473.235088 264.874193 
L 479.324841 265.627893 
L 485.408787 266.421747 
L 491.49854 267.216504 
L 497.582487 268.010618 
L 503.672239 268.805618 
L 509.756186 269.599993 
L 515.845938 270.395252 
L 521.93569 271.190634 
L 528.019637 271.98539 
L 534.109389 272.781049 
L 540.193336 273.576066 
L 546.283088 274.371968 
L 552.367035 275.167245 
L 558.456787 275.963408 
L 564.546539 276.759691 
L 570.630486 277.55535 
L 576.720239 278.351894 
L 582.804185 278.994137 
L 588.893938 279.61488 
L 594.98369 280.235658 
L 601.067637 280.855898 
L 607.157389 281.47678 
L 613.241336 282.097124 
L 619.331088 282.718127 
L 625.415035 283.338575 
L 631.504787 283.959665 
L 637.594539 284.580808 
L 643.678486 285.201412 
L 649.768238 285.822676 
L 655.852185 286.443384 
L 661.941937 287.064752 
L 668.025884 287.685573 
L 674.115637 288.307054 
L 680.205389 295.409983 
L 686.289336 306.389632 
L 692.379088 317.152632 
L 698.463035 327.680294 
L 704.552787 337.994829 
L 710.636734 348.078894 
L 716.726486 357.9543 
L 722.816238 367.614115 
L 728.900185 377.052423 
L 734.989937 386.290397 
L 741.073884 395.313756 
L 747.163636 404.143207 
" clip-path="url(#p7dcc511d4c)" style="fill: none; stroke: #e377c2; stroke-width: 1.5; stroke-linecap: square"/>
   </g>
   <g id="line2d_36">
    <path d="M 138.436364 477.264273 
L 144.521992 477.170828 
L 150.605939 477.077822 
L 156.695691 476.985058 
L 162.785443 476.892624 
L 168.86939 476.800594 
L 174.959142 476.708785 
L 181.043089 476.664466 
L 187.132841 476.937208 
L 193.222593 477.209477 
L 199.30654 477.481009 
L 205.396293 477.752324 
L 211.480239 478.022892 
L 217.569992 478.29324 
L 223.653939 478.562841 
L 229.743691 478.832212 
L 235.833443 479.101089 
L 241.91739 479.369211 
L 248.007142 479.637094 
L 254.091089 479.904222 
L 260.180841 480.171099 
L 266.264788 480.437217 
L 272.35454 480.703079 
L 278.444292 480.968428 
L 284.528239 481.234177 
L 290.617991 481.500768 
L 296.701938 481.767102 
L 302.791691 482.033684 
L 308.875637 482.300006 
L 314.96539 482.566575 
L 321.055142 482.833139 
L 327.139089 483.099439 
L 333.228841 483.365991 
L 339.312788 483.632282 
L 345.40254 483.89882 
L 351.486487 484.165098 
L 357.576239 484.431628 
L 363.665991 484.698145 
L 369.749938 484.964406 
L 375.83969 485.230914 
L 381.923637 485.446795 
L 388.013389 485.623863 
L 394.103142 485.801416 
L 400.187089 485.979291 
L 406.276841 486.15782 
L 412.360788 486.336667 
L 418.45054 486.516168 
L 424.534487 486.695982 
L 430.624239 486.876446 
L 436.713991 487.057392 
L 442.797938 487.238642 
L 448.88769 487.420546 
L 454.971637 487.60275 
L 461.061389 487.785605 
L 467.145336 487.968759 
L 473.235088 488.152555 
L 479.324841 488.431892 
L 485.408787 488.863069 
L 491.49854 489.294992 
L 497.582487 489.726837 
L 503.672239 490.159433 
L 509.756186 490.591955 
L 515.845938 491.025223 
L 521.93569 491.45883 
L 528.019637 491.892358 
L 534.109389 492.326641 
L 540.193336 492.760847 
L 546.283088 493.195802 
L 552.367035 493.63068 
L 558.456787 494.066317 
L 564.546539 494.502288 
L 570.630486 494.93818 
L 576.720239 495.374832 
L 582.804185 495.602453 
L 588.893938 495.791056 
L 594.98369 495.96985 
L 601.067637 496.138584 
L 607.157389 496.297492 
L 613.241336 496.446179 
L 619.331088 496.584836 
L 625.415035 496.713108 
L 631.504787 496.831141 
L 637.594539 496.938716 
L 643.678486 497.035644 
L 649.768238 497.122013 
L 655.852185 497.197562 
L 661.941937 497.262332 
L 668.025884 497.316095 
L 674.115637 497.358856 
L 680.205389 493.905018 
L 686.289336 488.425245 
L 692.379088 483.137958 
L 698.463035 478.051637 
L 704.552787 473.154752 
L 710.636734 468.4546 
L 716.726486 463.939974 
L 722.816238 459.613028 
L 728.900185 455.47502 
L 734.989937 451.515295 
L 741.073884 447.738505 
L 747.163636 444.134406 
" clip-path="url(#p7dcc511d4c)" style="fill: none; stroke-dasharray: 5.55,2.4; stroke-dashoffset: 0; stroke: #7f7f7f; stroke-width: 1.5"/>
   </g>
   <g id="line2d_37">
    <path d="M 138.436364 408.851632 
L 144.521992 408.970371 
L 150.605939 409.088634 
L 156.695691 409.206659 
L 162.785443 409.324341 
L 168.86939 409.441579 
L 174.959142 409.558603 
L 181.043089 409.71069 
L 187.132841 410.102179 
L 193.222593 410.494271 
L 199.30654 410.886593 
L 205.396293 411.2799 
L 211.480239 411.673441 
L 217.569992 412.067974 
L 223.653939 412.462749 
L 229.743691 412.858522 
L 235.833443 413.254922 
L 241.91739 413.651572 
L 248.007142 414.049234 
L 254.091089 414.447151 
L 260.180841 414.846088 
L 266.264788 415.245288 
L 272.35454 415.645515 
L 278.444292 416.046394 
L 284.528239 416.41263 
L 290.617991 416.758699 
L 296.701938 417.104515 
L 302.791691 417.450735 
L 308.875637 417.796699 
L 314.96539 418.14307 
L 321.055142 418.489516 
L 327.139089 418.835708 
L 333.228841 419.182305 
L 339.312788 419.528647 
L 345.40254 419.875397 
L 351.486487 420.22189 
L 357.576239 420.568792 
L 363.665991 420.915769 
L 369.749938 421.262491 
L 375.83969 421.60962 
L 381.923637 421.883876 
L 388.013389 422.101623 
L 394.103142 422.319405 
L 400.187089 422.537013 
L 406.276841 422.754861 
L 412.360788 422.972535 
L 418.45054 423.190451 
L 424.534487 423.408192 
L 430.624239 423.626174 
L 436.713991 423.84419 
L 442.797938 424.06203 
L 448.88769 424.280111 
L 454.971637 424.498018 
L 461.061389 424.716165 
L 467.145336 424.934136 
L 473.235088 425.152348 
L 479.324841 425.394683 
L 485.408787 425.675294 
L 491.49854 425.956241 
L 497.582487 426.236988 
L 503.672239 426.518072 
L 509.756186 426.798955 
L 515.845938 427.080174 
L 521.93569 427.361462 
L 528.019637 427.64255 
L 534.109389 427.923974 
L 540.193336 428.205198 
L 546.283088 428.486759 
L 552.367035 428.76812 
L 558.456787 429.049818 
L 564.546539 429.331584 
L 570.630486 429.61315 
L 576.720239 429.895054 
L 582.804185 430.568089 
L 588.893938 431.298461 
L 594.98369 432.029091 
L 601.067637 432.759285 
L 607.157389 433.490438 
L 613.241336 434.221158 
L 619.331088 434.952844 
L 625.415035 435.684101 
L 631.504787 436.416329 
L 637.594539 437.148831 
L 643.678486 437.880912 
L 649.768238 438.613972 
L 655.852185 439.346616 
L 661.941937 440.080244 
L 668.025884 440.81346 
L 674.115637 441.547666 
L 680.205389 441.363036 
L 686.289336 440.622558 
L 692.379088 439.90697 
L 698.463035 439.217431 
L 704.552787 438.552388 
L 710.636734 437.912845 
L 716.726486 437.297292 
L 722.816238 436.706037 
L 728.900185 436.139274 
L 734.989937 435.595562 
L 741.073884 435.075564 
L 747.163636 434.577894 
" clip-path="url(#p7dcc511d4c)" style="fill: none; stroke-dasharray: 9.6,2.4,1.5,2.4; stroke-dashoffset: 0; stroke: #bcbd22; stroke-width: 1.5"/>
   </g>
   <g id="line2d_38">
    <path d="M 515.846124 577 
L 515.846124 -1 
" clip-path="url(#p7dcc511d4c)" style="fill: none; stroke: #1f77b4; stroke-width: 1.5; stroke-linecap: square"/>
   </g>
   <g id="patch_3">
    <path d="M 108 512.64 
L 108 69.12 
" style="fill: none; stroke: #000000; stroke-width: 0.8; stroke-linejoin: miter; stroke-linecap: square"/>
   </g>
   <g id="patch_4">
    <path d="M 777.6 512.64 
L 777.6 69.12 
" style="fill: none; stroke: #000000; stroke-width: 0.8; stroke-linejoin: miter; stroke-linecap: square"/>
   </g>
   <g id="patch_5">
    <path d="M 108 512.64 
L 777.6 512.64 
" style="fill: none; stroke: #000000; stroke-width: 0.8; stroke-linejoin: miter; stroke-linecap: square"/>
   </g>
   <g id="patch_6">
    <path d="M 108 69.12 
L 777.6 69.12 
" style="fill: none; stroke: #000000; stroke-width: 0.8; stroke-linejoin: miter; stroke-linecap: square"/>
   </g>
   <g id="legend_1">
    <g id="patch_7">
     <path d="M 115 359.683125 
L 258.689062 359.683125 
Q 260.689062 359.683125 260.689062 357.683125 
L 260.689062 224.076875 
Q 260.689062 222.076875 258.689062 222.076875 
L 115 222.076875 
Q 113 222.076875 113 224.076875 
L 113 357.683125 
Q 113 359.683125 115 359.683125 
z
" style="fill: #ffffff; opacity: 0.8; stroke: #cccccc; stroke-linejoin: miter"/>
    </g>
    <g id="line2d_39">
     <path d="M 117 230.175313 
L 127 230.175313 
L 137 230.175313 
" style="fill: none; stroke: #1f77b4; stroke-width: 1.5; stroke-linecap: square"/>
    </g>
    <g id="text_17">
     <!-- Extend120_AoA0_Ux -->
     <g transform="translate(145 233.675313) scale(0.1 -0.1)">
      <defs>
       <path id="DejaVuSans-45" d="M 628 4666 
L 3578 4666 
L 3578 4134 
L 1259 4134 
L 1259 2753 
L 3481 2753 
L 3481 2222 
L 1259 2222 
L 1259 531 
L 3634 531 
L 3634 0 
L 628 0 
L 628 4666 
z
" transform="scale(0.015625)"/>
       <path id="DejaVuSans-78" d="M 3513 3500 
L 2247 1797 
L 3578 0 
L 2900 0 
L 1881 1375 
L 863 0 
L 184 0 
L 1544 1831 
L 300 3500 
L 978 3500 
L 1906 2253 
L 2834 3500 
L 3513 3500 
z
" transform="scale(0.015625)"/>
       <path id="DejaVuSans-5f" d="M 3263 -1063 
L 3263 -1509 
L -63 -1509 
L -63 -1063 
L 3263 -1063 
z
" transform="scale(0.015625)"/>
       <path id="DejaVuSans-41" d="M 2188 4044 
L 1331 1722 
L 3047 1722 
L 2188 4044 
z
M 1831 4666 
L 2547 4666 
L 4325 0 
L 3669 0 
L 3244 1197 
L 1141 1197 
L 716 0 
L 50 0 
L 1831 4666 
z
" transform="scale(0.015625)"/>
       <path id="DejaVuSans-55" d="M 556 4666 
L 1191 4666 
L 1191 1831 
Q 1191 1081 1462 751 
Q 1734 422 2344 422 
Q 2950 422 3222 751 
Q 3494 1081 3494 1831 
L 3494 4666 
L 4128 4666 
L 4128 1753 
Q 4128 841 3676 375 
Q 3225 -91 2344 -91 
Q 1459 -91 1007 375 
Q 556 841 556 1753 
L 556 4666 
z
" transform="scale(0.015625)"/>
      </defs>
      <use xlink:href="#DejaVuSans-45"/>
      <use xlink:href="#DejaVuSans-78" x="63.183594"/>
      <use xlink:href="#DejaVuSans-74" x="122.363281"/>
      <use xlink:href="#DejaVuSans-65" x="161.572266"/>
      <use xlink:href="#DejaVuSans-6e" x="223.095703"/>
      <use xlink:href="#DejaVuSans-64" x="286.474609"/>
      <use xlink:href="#DejaVuSans-31" x="349.951172"/>
      <use xlink:href="#DejaVuSans-32" x="413.574219"/>
      <use xlink:href="#DejaVuSans-30" x="477.197266"/>
      <use xlink:href="#DejaVuSans-5f" x="540.820312"/>
      <use xlink:href="#DejaVuSans-41" x="590.820312"/>
      <use xlink:href="#DejaVuSans-6f" x="657.478516"/>
      <use xlink:href="#DejaVuSans-41" x="718.660156"/>
      <use xlink:href="#DejaVuSans-30" x="787.068359"/>
      <use xlink:href="#DejaVuSans-5f" x="850.691406"/>
      <use xlink:href="#DejaVuSans-55" x="900.691406"/>
      <use xlink:href="#DejaVuSans-78" x="973.884766"/>
     </g>
    </g>
    <g id="line2d_40">
     <path d="M 117 245.131563 
L 127 245.131563 
L 137 245.131563 
" style="fill: none; stroke-dasharray: 5.55,2.4; stroke-dashoffset: 0; stroke: #ff7f0e; stroke-width: 1.5"/>
    </g>
    <g id="text_18">
     <!-- Extend120_AoA0_Uy -->
     <g transform="translate(145 248.631563) scale(0.1 -0.1)">
      <use xlink:href="#DejaVuSans-45"/>
      <use xlink:href="#DejaVuSans-78" x="63.183594"/>
      <use xlink:href="#DejaVuSans-74" x="122.363281"/>
      <use xlink:href="#DejaVuSans-65" x="161.572266"/>
      <use xlink:href="#DejaVuSans-6e" x="223.095703"/>
      <use xlink:href="#DejaVuSans-64" x="286.474609"/>
      <use xlink:href="#DejaVuSans-31" x="349.951172"/>
      <use xlink:href="#DejaVuSans-32" x="413.574219"/>
      <use xlink:href="#DejaVuSans-30" x="477.197266"/>
      <use xlink:href="#DejaVuSans-5f" x="540.820312"/>
      <use xlink:href="#DejaVuSans-41" x="590.820312"/>
      <use xlink:href="#DejaVuSans-6f" x="657.478516"/>
      <use xlink:href="#DejaVuSans-41" x="718.660156"/>
      <use xlink:href="#DejaVuSans-30" x="787.068359"/>
      <use xlink:href="#DejaVuSans-5f" x="850.691406"/>
      <use xlink:href="#DejaVuSans-55" x="900.691406"/>
      <use xlink:href="#DejaVuSans-79" x="973.884766"/>
     </g>
    </g>
    <g id="line2d_41">
     <path d="M 117 260.087813 
L 127 260.087813 
L 137 260.087813 
" style="fill: none; stroke-dasharray: 9.6,2.4,1.5,2.4; stroke-dashoffset: 0; stroke: #2ca02c; stroke-width: 1.5"/>
    </g>
    <g id="text_19">
     <!-- Extend120_AoA0_Uz -->
     <g transform="translate(145 263.587813) scale(0.1 -0.1)">
      <defs>
       <path id="DejaVuSans-7a" d="M 353 3500 
L 3084 3500 
L 3084 2975 
L 922 459 
L 3084 459 
L 3084 0 
L 275 0 
L 275 525 
L 2438 3041 
L 353 3041 
L 353 3500 
z
" transform="scale(0.015625)"/>
      </defs>
      <use xlink:href="#DejaVuSans-45"/>
      <use xlink:href="#DejaVuSans-78" x="63.183594"/>
      <use xlink:href="#DejaVuSans-74" x="122.363281"/>
      <use xlink:href="#DejaVuSans-65" x="161.572266"/>
      <use xlink:href="#DejaVuSans-6e" x="223.095703"/>
      <use xlink:href="#DejaVuSans-64" x="286.474609"/>
      <use xlink:href="#DejaVuSans-31" x="349.951172"/>
      <use xlink:href="#DejaVuSans-32" x="413.574219"/>
      <use xlink:href="#DejaVuSans-30" x="477.197266"/>
      <use xlink:href="#DejaVuSans-5f" x="540.820312"/>
      <use xlink:href="#DejaVuSans-41" x="590.820312"/>
      <use xlink:href="#DejaVuSans-6f" x="657.478516"/>
      <use xlink:href="#DejaVuSans-41" x="718.660156"/>
      <use xlink:href="#DejaVuSans-30" x="787.068359"/>
      <use xlink:href="#DejaVuSans-5f" x="850.691406"/>
      <use xlink:href="#DejaVuSans-55" x="900.691406"/>
      <use xlink:href="#DejaVuSans-7a" x="973.884766"/>
     </g>
    </g>
    <g id="line2d_42">
     <path d="M 117 275.044062 
L 127 275.044062 
L 137 275.044062 
" style="fill: none; stroke: #d62728; stroke-width: 1.5; stroke-linecap: square"/>
    </g>
    <g id="text_20">
     <!-- Extend120_AoA+4_Ux -->
     <g transform="translate(145 278.544062) scale(0.1 -0.1)">
      <defs>
       <path id="DejaVuSans-2b" d="M 2944 4013 
L 2944 2272 
L 4684 2272 
L 4684 1741 
L 2944 1741 
L 2944 0 
L 2419 0 
L 2419 1741 
L 678 1741 
L 678 2272 
L 2419 2272 
L 2419 4013 
L 2944 4013 
z
" transform="scale(0.015625)"/>
      </defs>
      <use xlink:href="#DejaVuSans-45"/>
      <use xlink:href="#DejaVuSans-78" x="63.183594"/>
      <use xlink:href="#DejaVuSans-74" x="122.363281"/>
      <use xlink:href="#DejaVuSans-65" x="161.572266"/>
      <use xlink:href="#DejaVuSans-6e" x="223.095703"/>
      <use xlink:href="#DejaVuSans-64" x="286.474609"/>
      <use xlink:href="#DejaVuSans-31" x="349.951172"/>
      <use xlink:href="#DejaVuSans-32" x="413.574219"/>
      <use xlink:href="#DejaVuSans-30" x="477.197266"/>
      <use xlink:href="#DejaVuSans-5f" x="540.820312"/>
      <use xlink:href="#DejaVuSans-41" x="590.820312"/>
      <use xlink:href="#DejaVuSans-6f" x="657.478516"/>
      <use xlink:href="#DejaVuSans-41" x="718.660156"/>
      <use xlink:href="#DejaVuSans-2b" x="787.068359"/>
      <use xlink:href="#DejaVuSans-34" x="870.857422"/>
      <use xlink:href="#DejaVuSans-5f" x="934.480469"/>
      <use xlink:href="#DejaVuSans-55" x="984.480469"/>
      <use xlink:href="#DejaVuSans-78" x="1057.673828"/>
     </g>
    </g>
    <g id="line2d_43">
     <path d="M 117 290.000313 
L 127 290.000313 
L 137 290.000313 
" style="fill: none; stroke-dasharray: 5.55,2.4; stroke-dashoffset: 0; stroke: #9467bd; stroke-width: 1.5"/>
    </g>
    <g id="text_21">
     <!-- Extend120_AoA+4_Uy -->
     <g transform="translate(145 293.500313) scale(0.1 -0.1)">
      <use xlink:href="#DejaVuSans-45"/>
      <use xlink:href="#DejaVuSans-78" x="63.183594"/>
      <use xlink:href="#DejaVuSans-74" x="122.363281"/>
      <use xlink:href="#DejaVuSans-65" x="161.572266"/>
      <use xlink:href="#DejaVuSans-6e" x="223.095703"/>
      <use xlink:href="#DejaVuSans-64" x="286.474609"/>
      <use xlink:href="#DejaVuSans-31" x="349.951172"/>
      <use xlink:href="#DejaVuSans-32" x="413.574219"/>
      <use xlink:href="#DejaVuSans-30" x="477.197266"/>
      <use xlink:href="#DejaVuSans-5f" x="540.820312"/>
      <use xlink:href="#DejaVuSans-41" x="590.820312"/>
      <use xlink:href="#DejaVuSans-6f" x="657.478516"/>
      <use xlink:href="#DejaVuSans-41" x="718.660156"/>
      <use xlink:href="#DejaVuSans-2b" x="787.068359"/>
      <use xlink:href="#DejaVuSans-34" x="870.857422"/>
      <use xlink:href="#DejaVuSans-5f" x="934.480469"/>
      <use xlink:href="#DejaVuSans-55" x="984.480469"/>
      <use xlink:href="#DejaVuSans-79" x="1057.673828"/>
     </g>
    </g>
    <g id="line2d_44">
     <path d="M 117 304.956563 
L 127 304.956563 
L 137 304.956563 
" style="fill: none; stroke-dasharray: 9.6,2.4,1.5,2.4; stroke-dashoffset: 0; stroke: #8c564b; stroke-width: 1.5"/>
    </g>
    <g id="text_22">
     <!-- Extend120_AoA+4_Uz -->
     <g transform="translate(145 308.456563) scale(0.1 -0.1)">
      <use xlink:href="#DejaVuSans-45"/>
      <use xlink:href="#DejaVuSans-78" x="63.183594"/>
      <use xlink:href="#DejaVuSans-74" x="122.363281"/>
      <use xlink:href="#DejaVuSans-65" x="161.572266"/>
      <use xlink:href="#DejaVuSans-6e" x="223.095703"/>
      <use xlink:href="#DejaVuSans-64" x="286.474609"/>
      <use xlink:href="#DejaVuSans-31" x="349.951172"/>
      <use xlink:href="#DejaVuSans-32" x="413.574219"/>
      <use xlink:href="#DejaVuSans-30" x="477.197266"/>
      <use xlink:href="#DejaVuSans-5f" x="540.820312"/>
      <use xlink:href="#DejaVuSans-41" x="590.820312"/>
      <use xlink:href="#DejaVuSans-6f" x="657.478516"/>
      <use xlink:href="#DejaVuSans-41" x="718.660156"/>
      <use xlink:href="#DejaVuSans-2b" x="787.068359"/>
      <use xlink:href="#DejaVuSans-34" x="870.857422"/>
      <use xlink:href="#DejaVuSans-5f" x="934.480469"/>
      <use xlink:href="#DejaVuSans-55" x="984.480469"/>
      <use xlink:href="#DejaVuSans-7a" x="1057.673828"/>
     </g>
    </g>
    <g id="line2d_45">
     <path d="M 117 319.912813 
L 127 319.912813 
L 137 319.912813 
" style="fill: none; stroke: #e377c2; stroke-width: 1.5; stroke-linecap: square"/>
    </g>
    <g id="text_23">
     <!-- Extend120_AoA-4_Ux -->
     <g transform="translate(145 323.412813) scale(0.1 -0.1)">
      <defs>
       <path id="DejaVuSans-2d" d="M 313 2009 
L 1997 2009 
L 1997 1497 
L 313 1497 
L 313 2009 
z
" transform="scale(0.015625)"/>
      </defs>
      <use xlink:href="#DejaVuSans-45"/>
      <use xlink:href="#DejaVuSans-78" x="63.183594"/>
      <use xlink:href="#DejaVuSans-74" x="122.363281"/>
      <use xlink:href="#DejaVuSans-65" x="161.572266"/>
      <use xlink:href="#DejaVuSans-6e" x="223.095703"/>
      <use xlink:href="#DejaVuSans-64" x="286.474609"/>
      <use xlink:href="#DejaVuSans-31" x="349.951172"/>
      <use xlink:href="#DejaVuSans-32" x="413.574219"/>
      <use xlink:href="#DejaVuSans-30" x="477.197266"/>
      <use xlink:href="#DejaVuSans-5f" x="540.820312"/>
      <use xlink:href="#DejaVuSans-41" x="590.820312"/>
      <use xlink:href="#DejaVuSans-6f" x="657.478516"/>
      <use xlink:href="#DejaVuSans-41" x="718.660156"/>
      <use xlink:href="#DejaVuSans-2d" x="784.818359"/>
      <use xlink:href="#DejaVuSans-34" x="820.902344"/>
      <use xlink:href="#DejaVuSans-5f" x="884.525391"/>
      <use xlink:href="#DejaVuSans-55" x="934.525391"/>
      <use xlink:href="#DejaVuSans-78" x="1007.71875"/>
     </g>
    </g>
    <g id="line2d_46">
     <path d="M 117 334.869063 
L 127 334.869063 
L 137 334.869063 
" style="fill: none; stroke-dasharray: 5.55,2.4; stroke-dashoffset: 0; stroke: #7f7f7f; stroke-width: 1.5"/>
    </g>
    <g id="text_24">
     <!-- Extend120_AoA-4_Uy -->
     <g transform="translate(145 338.369063) scale(0.1 -0.1)">
      <use xlink:href="#DejaVuSans-45"/>
      <use xlink:href="#DejaVuSans-78" x="63.183594"/>
      <use xlink:href="#DejaVuSans-74" x="122.363281"/>
      <use xlink:href="#DejaVuSans-65" x="161.572266"/>
      <use xlink:href="#DejaVuSans-6e" x="223.095703"/>
      <use xlink:href="#DejaVuSans-64" x="286.474609"/>
      <use xlink:href="#DejaVuSans-31" x="349.951172"/>
      <use xlink:href="#DejaVuSans-32" x="413.574219"/>
      <use xlink:href="#DejaVuSans-30" x="477.197266"/>
      <use xlink:href="#DejaVuSans-5f" x="540.820312"/>
      <use xlink:href="#DejaVuSans-41" x="590.820312"/>
      <use xlink:href="#DejaVuSans-6f" x="657.478516"/>
      <use xlink:href="#DejaVuSans-41" x="718.660156"/>
      <use xlink:href="#DejaVuSans-2d" x="784.818359"/>
      <use xlink:href="#DejaVuSans-34" x="820.902344"/>
      <use xlink:href="#DejaVuSans-5f" x="884.525391"/>
      <use xlink:href="#DejaVuSans-55" x="934.525391"/>
      <use xlink:href="#DejaVuSans-79" x="1007.71875"/>
     </g>
    </g>
    <g id="line2d_47">
     <path d="M 117 349.825312 
L 127 349.825312 
L 137 349.825312 
" style="fill: none; stroke-dasharray: 9.6,2.4,1.5,2.4; stroke-dashoffset: 0; stroke: #bcbd22; stroke-width: 1.5"/>
    </g>
    <g id="text_25">
     <!-- Extend120_AoA-4_Uz -->
     <g transform="translate(145 353.325312) scale(0.1 -0.1)">
      <use xlink:href="#DejaVuSans-45"/>
      <use xlink:href="#DejaVuSans-78" x="63.183594"/>
      <use xlink:href="#DejaVuSans-74" x="122.363281"/>
      <use xlink:href="#DejaVuSans-65" x="161.572266"/>
      <use xlink:href="#DejaVuSans-6e" x="223.095703"/>
      <use xlink:href="#DejaVuSans-64" x="286.474609"/>
      <use xlink:href="#DejaVuSans-31" x="349.951172"/>
      <use xlink:href="#DejaVuSans-32" x="413.574219"/>
      <use xlink:href="#DejaVuSans-30" x="477.197266"/>
      <use xlink:href="#DejaVuSans-5f" x="540.820312"/>
      <use xlink:href="#DejaVuSans-41" x="590.820312"/>
      <use xlink:href="#DejaVuSans-6f" x="657.478516"/>
      <use xlink:href="#DejaVuSans-41" x="718.660156"/>
      <use xlink:href="#DejaVuSans-2d" x="784.818359"/>
      <use xlink:href="#DejaVuSans-34" x="820.902344"/>
      <use xlink:href="#DejaVuSans-5f" x="884.525391"/>
      <use xlink:href="#DejaVuSans-55" x="934.525391"/>
      <use xlink:href="#DejaVuSans-7a" x="1007.71875"/>
     </g>
    </g>
   </g>
  </g>
 </g>
 <defs>
  <clipPath id="p7dcc511d4c">
   <rect x="108" y="69.12" width="669.6" height="443.52"/>
  </clipPath>
 </defs>
</svg>
