<?xml version="1.0" encoding="utf-8" standalone="no"?>
<!DOCTYPE svg PUBLIC "-//W3C//DTD SVG 1.1//EN"
  "http://www.w3.org/Graphics/SVG/1.1/DTD/svg11.dtd">
<svg xmlns:xlink="http://www.w3.org/1999/xlink" width="864pt" height="576pt" viewBox="0 0 864 576" xmlns="http://www.w3.org/2000/svg" version="1.1">
 <metadata>
  <rdf:RDF xmlns:dc="http://purl.org/dc/elements/1.1/" xmlns:cc="http://creativecommons.org/ns#" xmlns:rdf="http://www.w3.org/1999/02/22-rdf-syntax-ns#">
   <cc:Work>
    <dc:type rdf:resource="http://purl.org/dc/dcmitype/StillImage"/>
    <dc:date>2023-06-08T14:56:00.328045</dc:date>
    <dc:format>image/svg+xml</dc:format>
    <dc:creator>
     <cc:Agent>
      <dc:title>Matplotlib v3.6.3, https://matplotlib.org/</dc:title>
     </cc:Agent>
    </dc:creator>
   </cc:Work>
  </rdf:RDF>
 </metadata>
 <defs>
  <style type="text/css">*{stroke-linejoin: round; stroke-linecap: butt}</style>
 </defs>
 <g id="figure_1">
  <g id="patch_1">
   <path d="M 0 576 
L 864 576 
L 864 0 
L 0 0 
z
" style="fill: #ffffff"/>
  </g>
  <g id="axes_1">
   <g id="patch_2">
    <path d="M 108 512.64 
L 777.6 512.64 
L 777.6 69.12 
L 108 69.12 
z
" style="fill: #ffffff"/>
   </g>
   <g id="matplotlib.axis_1">
    <g id="xtick_1">
     <g id="line2d_1">
      <path d="M 138.434254 512.64 
L 138.434254 69.12 
" clip-path="url(#pe2848951f9)" style="fill: none; stroke: #b0b0b0; stroke-width: 0.8; stroke-linecap: square"/>
     </g>
     <g id="line2d_2">
      <defs>
       <path id="m2dd9cdecdf" d="M 0 0 
L 0 3.5 
" style="stroke: #000000; stroke-width: 0.8"/>
      </defs>
      <g>
       <use xlink:href="#m2dd9cdecdf" x="138.434254" y="512.64" style="stroke: #000000; stroke-width: 0.8"/>
      </g>
     </g>
     <g id="text_1">
      <!-- −0.10 -->
      <g transform="translate(123.111597 527.238438) scale(0.1 -0.1)">
       <defs>
        <path id="DejaVuSans-2212" d="M 678 2272 
L 4684 2272 
L 4684 1741 
L 678 1741 
L 678 2272 
z
" transform="scale(0.015625)"/>
        <path id="DejaVuSans-30" d="M 2034 4250 
Q 1547 4250 1301 3770 
Q 1056 3291 1056 2328 
Q 1056 1369 1301 889 
Q 1547 409 2034 409 
Q 2525 409 2770 889 
Q 3016 1369 3016 2328 
Q 3016 3291 2770 3770 
Q 2525 4250 2034 4250 
z
M 2034 4750 
Q 2819 4750 3233 4129 
Q 3647 3509 3647 2328 
Q 3647 1150 3233 529 
Q 2819 -91 2034 -91 
Q 1250 -91 836 529 
Q 422 1150 422 2328 
Q 422 3509 836 4129 
Q 1250 4750 2034 4750 
z
" transform="scale(0.015625)"/>
        <path id="DejaVuSans-2e" d="M 684 794 
L 1344 794 
L 1344 0 
L 684 0 
L 684 794 
z
" transform="scale(0.015625)"/>
        <path id="DejaVuSans-31" d="M 794 531 
L 1825 531 
L 1825 4091 
L 703 3866 
L 703 4441 
L 1819 4666 
L 2450 4666 
L 2450 531 
L 3481 531 
L 3481 0 
L 794 0 
L 794 531 
z
" transform="scale(0.015625)"/>
       </defs>
       <use xlink:href="#DejaVuSans-2212"/>
       <use xlink:href="#DejaVuSans-30" x="83.789062"/>
       <use xlink:href="#DejaVuSans-2e" x="147.412109"/>
       <use xlink:href="#DejaVuSans-31" x="179.199219"/>
       <use xlink:href="#DejaVuSans-30" x="242.822266"/>
      </g>
     </g>
    </g>
    <g id="xtick_2">
     <g id="line2d_3">
      <path d="M 260.180409 512.64 
L 260.180409 69.12 
" clip-path="url(#pe2848951f9)" style="fill: none; stroke: #b0b0b0; stroke-width: 0.8; stroke-linecap: square"/>
     </g>
     <g id="line2d_4">
      <g>
       <use xlink:href="#m2dd9cdecdf" x="260.180409" y="512.64" style="stroke: #000000; stroke-width: 0.8"/>
      </g>
     </g>
     <g id="text_2">
      <!-- −0.08 -->
      <g transform="translate(244.857753 527.238438) scale(0.1 -0.1)">
       <defs>
        <path id="DejaVuSans-38" d="M 2034 2216 
Q 1584 2216 1326 1975 
Q 1069 1734 1069 1313 
Q 1069 891 1326 650 
Q 1584 409 2034 409 
Q 2484 409 2743 651 
Q 3003 894 3003 1313 
Q 3003 1734 2745 1975 
Q 2488 2216 2034 2216 
z
M 1403 2484 
Q 997 2584 770 2862 
Q 544 3141 544 3541 
Q 544 4100 942 4425 
Q 1341 4750 2034 4750 
Q 2731 4750 3128 4425 
Q 3525 4100 3525 3541 
Q 3525 3141 3298 2862 
Q 3072 2584 2669 2484 
Q 3125 2378 3379 2068 
Q 3634 1759 3634 1313 
Q 3634 634 3220 271 
Q 2806 -91 2034 -91 
Q 1263 -91 848 271 
Q 434 634 434 1313 
Q 434 1759 690 2068 
Q 947 2378 1403 2484 
z
M 1172 3481 
Q 1172 3119 1398 2916 
Q 1625 2713 2034 2713 
Q 2441 2713 2670 2916 
Q 2900 3119 2900 3481 
Q 2900 3844 2670 4047 
Q 2441 4250 2034 4250 
Q 1625 4250 1398 4047 
Q 1172 3844 1172 3481 
z
" transform="scale(0.015625)"/>
       </defs>
       <use xlink:href="#DejaVuSans-2212"/>
       <use xlink:href="#DejaVuSans-30" x="83.789062"/>
       <use xlink:href="#DejaVuSans-2e" x="147.412109"/>
       <use xlink:href="#DejaVuSans-30" x="179.199219"/>
       <use xlink:href="#DejaVuSans-38" x="242.822266"/>
      </g>
     </g>
    </g>
    <g id="xtick_3">
     <g id="line2d_5">
      <path d="M 381.926564 512.64 
L 381.926564 69.12 
" clip-path="url(#pe2848951f9)" style="fill: none; stroke: #b0b0b0; stroke-width: 0.8; stroke-linecap: square"/>
     </g>
     <g id="line2d_6">
      <g>
       <use xlink:href="#m2dd9cdecdf" x="381.926564" y="512.64" style="stroke: #000000; stroke-width: 0.8"/>
      </g>
     </g>
     <g id="text_3">
      <!-- −0.06 -->
      <g transform="translate(366.603908 527.238438) scale(0.1 -0.1)">
       <defs>
        <path id="DejaVuSans-36" d="M 2113 2584 
Q 1688 2584 1439 2293 
Q 1191 2003 1191 1497 
Q 1191 994 1439 701 
Q 1688 409 2113 409 
Q 2538 409 2786 701 
Q 3034 994 3034 1497 
Q 3034 2003 2786 2293 
Q 2538 2584 2113 2584 
z
M 3366 4563 
L 3366 3988 
Q 3128 4100 2886 4159 
Q 2644 4219 2406 4219 
Q 1781 4219 1451 3797 
Q 1122 3375 1075 2522 
Q 1259 2794 1537 2939 
Q 1816 3084 2150 3084 
Q 2853 3084 3261 2657 
Q 3669 2231 3669 1497 
Q 3669 778 3244 343 
Q 2819 -91 2113 -91 
Q 1303 -91 875 529 
Q 447 1150 447 2328 
Q 447 3434 972 4092 
Q 1497 4750 2381 4750 
Q 2619 4750 2861 4703 
Q 3103 4656 3366 4563 
z
" transform="scale(0.015625)"/>
       </defs>
       <use xlink:href="#DejaVuSans-2212"/>
       <use xlink:href="#DejaVuSans-30" x="83.789062"/>
       <use xlink:href="#DejaVuSans-2e" x="147.412109"/>
       <use xlink:href="#DejaVuSans-30" x="179.199219"/>
       <use xlink:href="#DejaVuSans-36" x="242.822266"/>
      </g>
     </g>
    </g>
    <g id="xtick_4">
     <g id="line2d_7">
      <path d="M 503.672719 512.64 
L 503.672719 69.12 
" clip-path="url(#pe2848951f9)" style="fill: none; stroke: #b0b0b0; stroke-width: 0.8; stroke-linecap: square"/>
     </g>
     <g id="line2d_8">
      <g>
       <use xlink:href="#m2dd9cdecdf" x="503.672719" y="512.64" style="stroke: #000000; stroke-width: 0.8"/>
      </g>
     </g>
     <g id="text_4">
      <!-- −0.04 -->
      <g transform="translate(488.350063 527.238438) scale(0.1 -0.1)">
       <defs>
        <path id="DejaVuSans-34" d="M 2419 4116 
L 825 1625 
L 2419 1625 
L 2419 4116 
z
M 2253 4666 
L 3047 4666 
L 3047 1625 
L 3713 1625 
L 3713 1100 
L 3047 1100 
L 3047 0 
L 2419 0 
L 2419 1100 
L 313 1100 
L 313 1709 
L 2253 4666 
z
" transform="scale(0.015625)"/>
       </defs>
       <use xlink:href="#DejaVuSans-2212"/>
       <use xlink:href="#DejaVuSans-30" x="83.789062"/>
       <use xlink:href="#DejaVuSans-2e" x="147.412109"/>
       <use xlink:href="#DejaVuSans-30" x="179.199219"/>
       <use xlink:href="#DejaVuSans-34" x="242.822266"/>
      </g>
     </g>
    </g>
    <g id="xtick_5">
     <g id="line2d_9">
      <path d="M 625.418874 512.64 
L 625.418874 69.12 
" clip-path="url(#pe2848951f9)" style="fill: none; stroke: #b0b0b0; stroke-width: 0.8; stroke-linecap: square"/>
     </g>
     <g id="line2d_10">
      <g>
       <use xlink:href="#m2dd9cdecdf" x="625.418874" y="512.64" style="stroke: #000000; stroke-width: 0.8"/>
      </g>
     </g>
     <g id="text_5">
      <!-- −0.02 -->
      <g transform="translate(610.096218 527.238438) scale(0.1 -0.1)">
       <defs>
        <path id="DejaVuSans-32" d="M 1228 531 
L 3431 531 
L 3431 0 
L 469 0 
L 469 531 
Q 828 903 1448 1529 
Q 2069 2156 2228 2338 
Q 2531 2678 2651 2914 
Q 2772 3150 2772 3378 
Q 2772 3750 2511 3984 
Q 2250 4219 1831 4219 
Q 1534 4219 1204 4116 
Q 875 4013 500 3803 
L 500 4441 
Q 881 4594 1212 4672 
Q 1544 4750 1819 4750 
Q 2544 4750 2975 4387 
Q 3406 4025 3406 3419 
Q 3406 3131 3298 2873 
Q 3191 2616 2906 2266 
Q 2828 2175 2409 1742 
Q 1991 1309 1228 531 
z
" transform="scale(0.015625)"/>
       </defs>
       <use xlink:href="#DejaVuSans-2212"/>
       <use xlink:href="#DejaVuSans-30" x="83.789062"/>
       <use xlink:href="#DejaVuSans-2e" x="147.412109"/>
       <use xlink:href="#DejaVuSans-30" x="179.199219"/>
       <use xlink:href="#DejaVuSans-32" x="242.822266"/>
      </g>
     </g>
    </g>
    <g id="xtick_6">
     <g id="line2d_11">
      <path d="M 747.16503 512.64 
L 747.16503 69.12 
" clip-path="url(#pe2848951f9)" style="fill: none; stroke: #b0b0b0; stroke-width: 0.8; stroke-linecap: square"/>
     </g>
     <g id="line2d_12">
      <g>
       <use xlink:href="#m2dd9cdecdf" x="747.16503" y="512.64" style="stroke: #000000; stroke-width: 0.8"/>
      </g>
     </g>
     <g id="text_6">
      <!-- 0.00 -->
      <g transform="translate(736.032217 527.238438) scale(0.1 -0.1)">
       <use xlink:href="#DejaVuSans-30"/>
       <use xlink:href="#DejaVuSans-2e" x="63.623047"/>
       <use xlink:href="#DejaVuSans-30" x="95.410156"/>
       <use xlink:href="#DejaVuSans-30" x="159.033203"/>
      </g>
     </g>
    </g>
    <g id="text_7">
     <!-- Distance from Cloud Droplet Probe Strut [m] -->
     <g transform="translate(331.764063 540.916563) scale(0.1 -0.1)">
      <defs>
       <path id="DejaVuSans-44" d="M 1259 4147 
L 1259 519 
L 2022 519 
Q 2988 519 3436 956 
Q 3884 1394 3884 2338 
Q 3884 3275 3436 3711 
Q 2988 4147 2022 4147 
L 1259 4147 
z
M 628 4666 
L 1925 4666 
Q 3281 4666 3915 4102 
Q 4550 3538 4550 2338 
Q 4550 1131 3912 565 
Q 3275 0 1925 0 
L 628 0 
L 628 4666 
z
" transform="scale(0.015625)"/>
       <path id="DejaVuSans-69" d="M 603 3500 
L 1178 3500 
L 1178 0 
L 603 0 
L 603 3500 
z
M 603 4863 
L 1178 4863 
L 1178 4134 
L 603 4134 
L 603 4863 
z
" transform="scale(0.015625)"/>
       <path id="DejaVuSans-73" d="M 2834 3397 
L 2834 2853 
Q 2591 2978 2328 3040 
Q 2066 3103 1784 3103 
Q 1356 3103 1142 2972 
Q 928 2841 928 2578 
Q 928 2378 1081 2264 
Q 1234 2150 1697 2047 
L 1894 2003 
Q 2506 1872 2764 1633 
Q 3022 1394 3022 966 
Q 3022 478 2636 193 
Q 2250 -91 1575 -91 
Q 1294 -91 989 -36 
Q 684 19 347 128 
L 347 722 
Q 666 556 975 473 
Q 1284 391 1588 391 
Q 1994 391 2212 530 
Q 2431 669 2431 922 
Q 2431 1156 2273 1281 
Q 2116 1406 1581 1522 
L 1381 1569 
Q 847 1681 609 1914 
Q 372 2147 372 2553 
Q 372 3047 722 3315 
Q 1072 3584 1716 3584 
Q 2034 3584 2315 3537 
Q 2597 3491 2834 3397 
z
" transform="scale(0.015625)"/>
       <path id="DejaVuSans-74" d="M 1172 4494 
L 1172 3500 
L 2356 3500 
L 2356 3053 
L 1172 3053 
L 1172 1153 
Q 1172 725 1289 603 
Q 1406 481 1766 481 
L 2356 481 
L 2356 0 
L 1766 0 
Q 1100 0 847 248 
Q 594 497 594 1153 
L 594 3053 
L 172 3053 
L 172 3500 
L 594 3500 
L 594 4494 
L 1172 4494 
z
" transform="scale(0.015625)"/>
       <path id="DejaVuSans-61" d="M 2194 1759 
Q 1497 1759 1228 1600 
Q 959 1441 959 1056 
Q 959 750 1161 570 
Q 1363 391 1709 391 
Q 2188 391 2477 730 
Q 2766 1069 2766 1631 
L 2766 1759 
L 2194 1759 
z
M 3341 1997 
L 3341 0 
L 2766 0 
L 2766 531 
Q 2569 213 2275 61 
Q 1981 -91 1556 -91 
Q 1019 -91 701 211 
Q 384 513 384 1019 
Q 384 1609 779 1909 
Q 1175 2209 1959 2209 
L 2766 2209 
L 2766 2266 
Q 2766 2663 2505 2880 
Q 2244 3097 1772 3097 
Q 1472 3097 1187 3025 
Q 903 2953 641 2809 
L 641 3341 
Q 956 3463 1253 3523 
Q 1550 3584 1831 3584 
Q 2591 3584 2966 3190 
Q 3341 2797 3341 1997 
z
" transform="scale(0.015625)"/>
       <path id="DejaVuSans-6e" d="M 3513 2113 
L 3513 0 
L 2938 0 
L 2938 2094 
Q 2938 2591 2744 2837 
Q 2550 3084 2163 3084 
Q 1697 3084 1428 2787 
Q 1159 2491 1159 1978 
L 1159 0 
L 581 0 
L 581 3500 
L 1159 3500 
L 1159 2956 
Q 1366 3272 1645 3428 
Q 1925 3584 2291 3584 
Q 2894 3584 3203 3211 
Q 3513 2838 3513 2113 
z
" transform="scale(0.015625)"/>
       <path id="DejaVuSans-63" d="M 3122 3366 
L 3122 2828 
Q 2878 2963 2633 3030 
Q 2388 3097 2138 3097 
Q 1578 3097 1268 2742 
Q 959 2388 959 1747 
Q 959 1106 1268 751 
Q 1578 397 2138 397 
Q 2388 397 2633 464 
Q 2878 531 3122 666 
L 3122 134 
Q 2881 22 2623 -34 
Q 2366 -91 2075 -91 
Q 1284 -91 818 406 
Q 353 903 353 1747 
Q 353 2603 823 3093 
Q 1294 3584 2113 3584 
Q 2378 3584 2631 3529 
Q 2884 3475 3122 3366 
z
" transform="scale(0.015625)"/>
       <path id="DejaVuSans-65" d="M 3597 1894 
L 3597 1613 
L 953 1613 
Q 991 1019 1311 708 
Q 1631 397 2203 397 
Q 2534 397 2845 478 
Q 3156 559 3463 722 
L 3463 178 
Q 3153 47 2828 -22 
Q 2503 -91 2169 -91 
Q 1331 -91 842 396 
Q 353 884 353 1716 
Q 353 2575 817 3079 
Q 1281 3584 2069 3584 
Q 2775 3584 3186 3129 
Q 3597 2675 3597 1894 
z
M 3022 2063 
Q 3016 2534 2758 2815 
Q 2500 3097 2075 3097 
Q 1594 3097 1305 2825 
Q 1016 2553 972 2059 
L 3022 2063 
z
" transform="scale(0.015625)"/>
       <path id="DejaVuSans-20" transform="scale(0.015625)"/>
       <path id="DejaVuSans-66" d="M 2375 4863 
L 2375 4384 
L 1825 4384 
Q 1516 4384 1395 4259 
Q 1275 4134 1275 3809 
L 1275 3500 
L 2222 3500 
L 2222 3053 
L 1275 3053 
L 1275 0 
L 697 0 
L 697 3053 
L 147 3053 
L 147 3500 
L 697 3500 
L 697 3744 
Q 697 4328 969 4595 
Q 1241 4863 1831 4863 
L 2375 4863 
z
" transform="scale(0.015625)"/>
       <path id="DejaVuSans-72" d="M 2631 2963 
Q 2534 3019 2420 3045 
Q 2306 3072 2169 3072 
Q 1681 3072 1420 2755 
Q 1159 2438 1159 1844 
L 1159 0 
L 581 0 
L 581 3500 
L 1159 3500 
L 1159 2956 
Q 1341 3275 1631 3429 
Q 1922 3584 2338 3584 
Q 2397 3584 2469 3576 
Q 2541 3569 2628 3553 
L 2631 2963 
z
" transform="scale(0.015625)"/>
       <path id="DejaVuSans-6f" d="M 1959 3097 
Q 1497 3097 1228 2736 
Q 959 2375 959 1747 
Q 959 1119 1226 758 
Q 1494 397 1959 397 
Q 2419 397 2687 759 
Q 2956 1122 2956 1747 
Q 2956 2369 2687 2733 
Q 2419 3097 1959 3097 
z
M 1959 3584 
Q 2709 3584 3137 3096 
Q 3566 2609 3566 1747 
Q 3566 888 3137 398 
Q 2709 -91 1959 -91 
Q 1206 -91 779 398 
Q 353 888 353 1747 
Q 353 2609 779 3096 
Q 1206 3584 1959 3584 
z
" transform="scale(0.015625)"/>
       <path id="DejaVuSans-6d" d="M 3328 2828 
Q 3544 3216 3844 3400 
Q 4144 3584 4550 3584 
Q 5097 3584 5394 3201 
Q 5691 2819 5691 2113 
L 5691 0 
L 5113 0 
L 5113 2094 
Q 5113 2597 4934 2840 
Q 4756 3084 4391 3084 
Q 3944 3084 3684 2787 
Q 3425 2491 3425 1978 
L 3425 0 
L 2847 0 
L 2847 2094 
Q 2847 2600 2669 2842 
Q 2491 3084 2119 3084 
Q 1678 3084 1418 2786 
Q 1159 2488 1159 1978 
L 1159 0 
L 581 0 
L 581 3500 
L 1159 3500 
L 1159 2956 
Q 1356 3278 1631 3431 
Q 1906 3584 2284 3584 
Q 2666 3584 2933 3390 
Q 3200 3197 3328 2828 
z
" transform="scale(0.015625)"/>
       <path id="DejaVuSans-43" d="M 4122 4306 
L 4122 3641 
Q 3803 3938 3442 4084 
Q 3081 4231 2675 4231 
Q 1875 4231 1450 3742 
Q 1025 3253 1025 2328 
Q 1025 1406 1450 917 
Q 1875 428 2675 428 
Q 3081 428 3442 575 
Q 3803 722 4122 1019 
L 4122 359 
Q 3791 134 3420 21 
Q 3050 -91 2638 -91 
Q 1578 -91 968 557 
Q 359 1206 359 2328 
Q 359 3453 968 4101 
Q 1578 4750 2638 4750 
Q 3056 4750 3426 4639 
Q 3797 4528 4122 4306 
z
" transform="scale(0.015625)"/>
       <path id="DejaVuSans-6c" d="M 603 4863 
L 1178 4863 
L 1178 0 
L 603 0 
L 603 4863 
z
" transform="scale(0.015625)"/>
       <path id="DejaVuSans-75" d="M 544 1381 
L 544 3500 
L 1119 3500 
L 1119 1403 
Q 1119 906 1312 657 
Q 1506 409 1894 409 
Q 2359 409 2629 706 
Q 2900 1003 2900 1516 
L 2900 3500 
L 3475 3500 
L 3475 0 
L 2900 0 
L 2900 538 
Q 2691 219 2414 64 
Q 2138 -91 1772 -91 
Q 1169 -91 856 284 
Q 544 659 544 1381 
z
M 1991 3584 
L 1991 3584 
z
" transform="scale(0.015625)"/>
       <path id="DejaVuSans-64" d="M 2906 2969 
L 2906 4863 
L 3481 4863 
L 3481 0 
L 2906 0 
L 2906 525 
Q 2725 213 2448 61 
Q 2172 -91 1784 -91 
Q 1150 -91 751 415 
Q 353 922 353 1747 
Q 353 2572 751 3078 
Q 1150 3584 1784 3584 
Q 2172 3584 2448 3432 
Q 2725 3281 2906 2969 
z
M 947 1747 
Q 947 1113 1208 752 
Q 1469 391 1925 391 
Q 2381 391 2643 752 
Q 2906 1113 2906 1747 
Q 2906 2381 2643 2742 
Q 2381 3103 1925 3103 
Q 1469 3103 1208 2742 
Q 947 2381 947 1747 
z
" transform="scale(0.015625)"/>
       <path id="DejaVuSans-70" d="M 1159 525 
L 1159 -1331 
L 581 -1331 
L 581 3500 
L 1159 3500 
L 1159 2969 
Q 1341 3281 1617 3432 
Q 1894 3584 2278 3584 
Q 2916 3584 3314 3078 
Q 3713 2572 3713 1747 
Q 3713 922 3314 415 
Q 2916 -91 2278 -91 
Q 1894 -91 1617 61 
Q 1341 213 1159 525 
z
M 3116 1747 
Q 3116 2381 2855 2742 
Q 2594 3103 2138 3103 
Q 1681 3103 1420 2742 
Q 1159 2381 1159 1747 
Q 1159 1113 1420 752 
Q 1681 391 2138 391 
Q 2594 391 2855 752 
Q 3116 1113 3116 1747 
z
" transform="scale(0.015625)"/>
       <path id="DejaVuSans-50" d="M 1259 4147 
L 1259 2394 
L 2053 2394 
Q 2494 2394 2734 2622 
Q 2975 2850 2975 3272 
Q 2975 3691 2734 3919 
Q 2494 4147 2053 4147 
L 1259 4147 
z
M 628 4666 
L 2053 4666 
Q 2838 4666 3239 4311 
Q 3641 3956 3641 3272 
Q 3641 2581 3239 2228 
Q 2838 1875 2053 1875 
L 1259 1875 
L 1259 0 
L 628 0 
L 628 4666 
z
" transform="scale(0.015625)"/>
       <path id="DejaVuSans-62" d="M 3116 1747 
Q 3116 2381 2855 2742 
Q 2594 3103 2138 3103 
Q 1681 3103 1420 2742 
Q 1159 2381 1159 1747 
Q 1159 1113 1420 752 
Q 1681 391 2138 391 
Q 2594 391 2855 752 
Q 3116 1113 3116 1747 
z
M 1159 2969 
Q 1341 3281 1617 3432 
Q 1894 3584 2278 3584 
Q 2916 3584 3314 3078 
Q 3713 2572 3713 1747 
Q 3713 922 3314 415 
Q 2916 -91 2278 -91 
Q 1894 -91 1617 61 
Q 1341 213 1159 525 
L 1159 0 
L 581 0 
L 581 4863 
L 1159 4863 
L 1159 2969 
z
" transform="scale(0.015625)"/>
       <path id="DejaVuSans-53" d="M 3425 4513 
L 3425 3897 
Q 3066 4069 2747 4153 
Q 2428 4238 2131 4238 
Q 1616 4238 1336 4038 
Q 1056 3838 1056 3469 
Q 1056 3159 1242 3001 
Q 1428 2844 1947 2747 
L 2328 2669 
Q 3034 2534 3370 2195 
Q 3706 1856 3706 1288 
Q 3706 609 3251 259 
Q 2797 -91 1919 -91 
Q 1588 -91 1214 -16 
Q 841 59 441 206 
L 441 856 
Q 825 641 1194 531 
Q 1563 422 1919 422 
Q 2459 422 2753 634 
Q 3047 847 3047 1241 
Q 3047 1584 2836 1778 
Q 2625 1972 2144 2069 
L 1759 2144 
Q 1053 2284 737 2584 
Q 422 2884 422 3419 
Q 422 4038 858 4394 
Q 1294 4750 2059 4750 
Q 2388 4750 2728 4690 
Q 3069 4631 3425 4513 
z
" transform="scale(0.015625)"/>
       <path id="DejaVuSans-5b" d="M 550 4863 
L 1875 4863 
L 1875 4416 
L 1125 4416 
L 1125 -397 
L 1875 -397 
L 1875 -844 
L 550 -844 
L 550 4863 
z
" transform="scale(0.015625)"/>
       <path id="DejaVuSans-5d" d="M 1947 4863 
L 1947 -844 
L 622 -844 
L 622 -397 
L 1369 -397 
L 1369 4416 
L 622 4416 
L 622 4863 
L 1947 4863 
z
" transform="scale(0.015625)"/>
      </defs>
      <use xlink:href="#DejaVuSans-44"/>
      <use xlink:href="#DejaVuSans-69" x="77.001953"/>
      <use xlink:href="#DejaVuSans-73" x="104.785156"/>
      <use xlink:href="#DejaVuSans-74" x="156.884766"/>
      <use xlink:href="#DejaVuSans-61" x="196.09375"/>
      <use xlink:href="#DejaVuSans-6e" x="257.373047"/>
      <use xlink:href="#DejaVuSans-63" x="320.751953"/>
      <use xlink:href="#DejaVuSans-65" x="375.732422"/>
      <use xlink:href="#DejaVuSans-20" x="437.255859"/>
      <use xlink:href="#DejaVuSans-66" x="469.042969"/>
      <use xlink:href="#DejaVuSans-72" x="504.248047"/>
      <use xlink:href="#DejaVuSans-6f" x="543.111328"/>
      <use xlink:href="#DejaVuSans-6d" x="604.292969"/>
      <use xlink:href="#DejaVuSans-20" x="701.705078"/>
      <use xlink:href="#DejaVuSans-43" x="733.492188"/>
      <use xlink:href="#DejaVuSans-6c" x="803.316406"/>
      <use xlink:href="#DejaVuSans-6f" x="831.099609"/>
      <use xlink:href="#DejaVuSans-75" x="892.28125"/>
      <use xlink:href="#DejaVuSans-64" x="955.660156"/>
      <use xlink:href="#DejaVuSans-20" x="1019.136719"/>
      <use xlink:href="#DejaVuSans-44" x="1050.923828"/>
      <use xlink:href="#DejaVuSans-72" x="1127.925781"/>
      <use xlink:href="#DejaVuSans-6f" x="1166.789062"/>
      <use xlink:href="#DejaVuSans-70" x="1227.970703"/>
      <use xlink:href="#DejaVuSans-6c" x="1291.447266"/>
      <use xlink:href="#DejaVuSans-65" x="1319.230469"/>
      <use xlink:href="#DejaVuSans-74" x="1380.753906"/>
      <use xlink:href="#DejaVuSans-20" x="1419.962891"/>
      <use xlink:href="#DejaVuSans-50" x="1451.75"/>
      <use xlink:href="#DejaVuSans-72" x="1510.302734"/>
      <use xlink:href="#DejaVuSans-6f" x="1549.166016"/>
      <use xlink:href="#DejaVuSans-62" x="1610.347656"/>
      <use xlink:href="#DejaVuSans-65" x="1673.824219"/>
      <use xlink:href="#DejaVuSans-20" x="1735.347656"/>
      <use xlink:href="#DejaVuSans-53" x="1767.134766"/>
      <use xlink:href="#DejaVuSans-74" x="1830.611328"/>
      <use xlink:href="#DejaVuSans-72" x="1869.820312"/>
      <use xlink:href="#DejaVuSans-75" x="1910.933594"/>
      <use xlink:href="#DejaVuSans-74" x="1974.3125"/>
      <use xlink:href="#DejaVuSans-20" x="2013.521484"/>
      <use xlink:href="#DejaVuSans-5b" x="2045.308594"/>
      <use xlink:href="#DejaVuSans-6d" x="2084.322266"/>
      <use xlink:href="#DejaVuSans-5d" x="2181.734375"/>
     </g>
    </g>
   </g>
   <g id="matplotlib.axis_2">
    <g id="ytick_1">
     <g id="line2d_13">
      <path d="M 108 489.895385 
L 777.6 489.895385 
" clip-path="url(#pe2848951f9)" style="fill: none; stroke: #b0b0b0; stroke-width: 0.8; stroke-linecap: square"/>
     </g>
     <g id="line2d_14">
      <defs>
       <path id="ma71ddeb47e" d="M 0 0 
L -3.5 0 
" style="stroke: #000000; stroke-width: 0.8"/>
      </defs>
      <g>
       <use xlink:href="#ma71ddeb47e" x="108" y="489.895385" style="stroke: #000000; stroke-width: 0.8"/>
      </g>
     </g>
     <g id="text_8">
      <!-- −25 -->
      <g transform="translate(79.895313 493.694603) scale(0.1 -0.1)">
       <defs>
        <path id="DejaVuSans-35" d="M 691 4666 
L 3169 4666 
L 3169 4134 
L 1269 4134 
L 1269 2991 
Q 1406 3038 1543 3061 
Q 1681 3084 1819 3084 
Q 2600 3084 3056 2656 
Q 3513 2228 3513 1497 
Q 3513 744 3044 326 
Q 2575 -91 1722 -91 
Q 1428 -91 1123 -41 
Q 819 9 494 109 
L 494 744 
Q 775 591 1075 516 
Q 1375 441 1709 441 
Q 2250 441 2565 725 
Q 2881 1009 2881 1497 
Q 2881 1984 2565 2268 
Q 2250 2553 1709 2553 
Q 1456 2553 1204 2497 
Q 953 2441 691 2322 
L 691 4666 
z
" transform="scale(0.015625)"/>
       </defs>
       <use xlink:href="#DejaVuSans-2212"/>
       <use xlink:href="#DejaVuSans-32" x="83.789062"/>
       <use xlink:href="#DejaVuSans-35" x="147.412109"/>
      </g>
     </g>
    </g>
    <g id="ytick_2">
     <g id="line2d_15">
      <path d="M 108 433.033846 
L 777.6 433.033846 
" clip-path="url(#pe2848951f9)" style="fill: none; stroke: #b0b0b0; stroke-width: 0.8; stroke-linecap: square"/>
     </g>
     <g id="line2d_16">
      <g>
       <use xlink:href="#ma71ddeb47e" x="108" y="433.033846" style="stroke: #000000; stroke-width: 0.8"/>
      </g>
     </g>
     <g id="text_9">
      <!-- 0 -->
      <g transform="translate(94.6375 436.833065) scale(0.1 -0.1)">
       <use xlink:href="#DejaVuSans-30"/>
      </g>
     </g>
    </g>
    <g id="ytick_3">
     <g id="line2d_17">
      <path d="M 108 376.172308 
L 777.6 376.172308 
" clip-path="url(#pe2848951f9)" style="fill: none; stroke: #b0b0b0; stroke-width: 0.8; stroke-linecap: square"/>
     </g>
     <g id="line2d_18">
      <g>
       <use xlink:href="#ma71ddeb47e" x="108" y="376.172308" style="stroke: #000000; stroke-width: 0.8"/>
      </g>
     </g>
     <g id="text_10">
      <!-- 25 -->
      <g transform="translate(88.275 379.971526) scale(0.1 -0.1)">
       <use xlink:href="#DejaVuSans-32"/>
       <use xlink:href="#DejaVuSans-35" x="63.623047"/>
      </g>
     </g>
    </g>
    <g id="ytick_4">
     <g id="line2d_19">
      <path d="M 108 319.310769 
L 777.6 319.310769 
" clip-path="url(#pe2848951f9)" style="fill: none; stroke: #b0b0b0; stroke-width: 0.8; stroke-linecap: square"/>
     </g>
     <g id="line2d_20">
      <g>
       <use xlink:href="#ma71ddeb47e" x="108" y="319.310769" style="stroke: #000000; stroke-width: 0.8"/>
      </g>
     </g>
     <g id="text_11">
      <!-- 50 -->
      <g transform="translate(88.275 323.109988) scale(0.1 -0.1)">
       <use xlink:href="#DejaVuSans-35"/>
       <use xlink:href="#DejaVuSans-30" x="63.623047"/>
      </g>
     </g>
    </g>
    <g id="ytick_5">
     <g id="line2d_21">
      <path d="M 108 262.449231 
L 777.6 262.449231 
" clip-path="url(#pe2848951f9)" style="fill: none; stroke: #b0b0b0; stroke-width: 0.8; stroke-linecap: square"/>
     </g>
     <g id="line2d_22">
      <g>
       <use xlink:href="#ma71ddeb47e" x="108" y="262.449231" style="stroke: #000000; stroke-width: 0.8"/>
      </g>
     </g>
     <g id="text_12">
      <!-- 75 -->
      <g transform="translate(88.275 266.24845) scale(0.1 -0.1)">
       <defs>
        <path id="DejaVuSans-37" d="M 525 4666 
L 3525 4666 
L 3525 4397 
L 1831 0 
L 1172 0 
L 2766 4134 
L 525 4134 
L 525 4666 
z
" transform="scale(0.015625)"/>
       </defs>
       <use xlink:href="#DejaVuSans-37"/>
       <use xlink:href="#DejaVuSans-35" x="63.623047"/>
      </g>
     </g>
    </g>
    <g id="ytick_6">
     <g id="line2d_23">
      <path d="M 108 205.587692 
L 777.6 205.587692 
" clip-path="url(#pe2848951f9)" style="fill: none; stroke: #b0b0b0; stroke-width: 0.8; stroke-linecap: square"/>
     </g>
     <g id="line2d_24">
      <g>
       <use xlink:href="#ma71ddeb47e" x="108" y="205.587692" style="stroke: #000000; stroke-width: 0.8"/>
      </g>
     </g>
     <g id="text_13">
      <!-- 100 -->
      <g transform="translate(81.9125 209.386911) scale(0.1 -0.1)">
       <use xlink:href="#DejaVuSans-31"/>
       <use xlink:href="#DejaVuSans-30" x="63.623047"/>
       <use xlink:href="#DejaVuSans-30" x="127.246094"/>
      </g>
     </g>
    </g>
    <g id="ytick_7">
     <g id="line2d_25">
      <path d="M 108 148.726154 
L 777.6 148.726154 
" clip-path="url(#pe2848951f9)" style="fill: none; stroke: #b0b0b0; stroke-width: 0.8; stroke-linecap: square"/>
     </g>
     <g id="line2d_26">
      <g>
       <use xlink:href="#ma71ddeb47e" x="108" y="148.726154" style="stroke: #000000; stroke-width: 0.8"/>
      </g>
     </g>
     <g id="text_14">
      <!-- 125 -->
      <g transform="translate(81.9125 152.525373) scale(0.1 -0.1)">
       <use xlink:href="#DejaVuSans-31"/>
       <use xlink:href="#DejaVuSans-32" x="63.623047"/>
       <use xlink:href="#DejaVuSans-35" x="127.246094"/>
      </g>
     </g>
    </g>
    <g id="ytick_8">
     <g id="line2d_27">
      <path d="M 108 91.864615 
L 777.6 91.864615 
" clip-path="url(#pe2848951f9)" style="fill: none; stroke: #b0b0b0; stroke-width: 0.8; stroke-linecap: square"/>
     </g>
     <g id="line2d_28">
      <g>
       <use xlink:href="#ma71ddeb47e" x="108" y="91.864615" style="stroke: #000000; stroke-width: 0.8"/>
      </g>
     </g>
     <g id="text_15">
      <!-- 150 -->
      <g transform="translate(81.9125 95.663834) scale(0.1 -0.1)">
       <use xlink:href="#DejaVuSans-31"/>
       <use xlink:href="#DejaVuSans-35" x="63.623047"/>
       <use xlink:href="#DejaVuSans-30" x="127.246094"/>
      </g>
     </g>
    </g>
    <g id="text_16">
     <!-- Velocity [m/s] -->
     <g transform="translate(73.815625 325.145625) rotate(-90) scale(0.1 -0.1)">
      <defs>
       <path id="DejaVuSans-56" d="M 1831 0 
L 50 4666 
L 709 4666 
L 2188 738 
L 3669 4666 
L 4325 4666 
L 2547 0 
L 1831 0 
z
" transform="scale(0.015625)"/>
       <path id="DejaVuSans-79" d="M 2059 -325 
Q 1816 -950 1584 -1140 
Q 1353 -1331 966 -1331 
L 506 -1331 
L 506 -850 
L 844 -850 
Q 1081 -850 1212 -737 
Q 1344 -625 1503 -206 
L 1606 56 
L 191 3500 
L 800 3500 
L 1894 763 
L 2988 3500 
L 3597 3500 
L 2059 -325 
z
" transform="scale(0.015625)"/>
       <path id="DejaVuSans-2f" d="M 1625 4666 
L 2156 4666 
L 531 -594 
L 0 -594 
L 1625 4666 
z
" transform="scale(0.015625)"/>
      </defs>
      <use xlink:href="#DejaVuSans-56"/>
      <use xlink:href="#DejaVuSans-65" x="60.658203"/>
      <use xlink:href="#DejaVuSans-6c" x="122.181641"/>
      <use xlink:href="#DejaVuSans-6f" x="149.964844"/>
      <use xlink:href="#DejaVuSans-63" x="211.146484"/>
      <use xlink:href="#DejaVuSans-69" x="266.126953"/>
      <use xlink:href="#DejaVuSans-74" x="293.910156"/>
      <use xlink:href="#DejaVuSans-79" x="333.119141"/>
      <use xlink:href="#DejaVuSans-20" x="392.298828"/>
      <use xlink:href="#DejaVuSans-5b" x="424.085938"/>
      <use xlink:href="#DejaVuSans-6d" x="463.099609"/>
      <use xlink:href="#DejaVuSans-2f" x="560.511719"/>
      <use xlink:href="#DejaVuSans-73" x="594.203125"/>
      <use xlink:href="#DejaVuSans-5d" x="646.302734"/>
     </g>
    </g>
   </g>
   <g id="line2d_29">
    <path d="M 138.436364 170.85577 
L 144.520307 170.919368 
L 150.610077 170.983035 
L 156.694041 171.046598 
L 162.78381 171.110231 
L 168.873579 171.173846 
L 174.957543 171.237375 
L 181.047312 171.300955 
L 187.131276 171.364466 
L 193.221045 171.428012 
L 199.305009 171.491488 
L 205.394778 171.555017 
L 211.484548 171.618528 
L 217.568511 171.68197 
L 223.658281 171.745446 
L 229.742245 171.808853 
L 235.832014 173.135958 
L 241.915978 173.198532 
L 248.005747 173.272576 
L 254.095516 173.358871 
L 260.17948 173.458095 
L 266.269249 173.570992 
L 272.353213 173.697667 
L 278.442982 173.83838 
L 284.526946 173.992577 
L 290.616715 174.15991 
L 296.706485 174.339303 
L 302.790449 174.529367 
L 308.880218 174.729028 
L 314.964182 174.936411 
L 321.053951 175.150406 
L 327.137915 175.369224 
L 333.227684 175.592085 
L 339.317453 175.817949 
L 345.401417 176.046121 
L 351.491186 176.276912 
L 357.57515 176.510081 
L 363.664919 176.746426 
L 369.754689 176.985894 
L 375.838653 177.227879 
L 381.928422 177.471112 
L 388.012386 177.711327 
L 394.102155 177.942188 
L 400.186119 178.15292 
L 406.275888 178.330543 
L 412.365657 178.460272 
L 418.449621 178.529891 
L 424.53939 178.665763 
L 430.623354 179.084069 
L 436.713123 179.502791 
L 442.797087 179.921114 
L 448.886857 180.339854 
L 454.976626 180.758593 
L 461.06059 181.176951 
L 467.150359 181.595726 
L 473.234323 182.014101 
L 479.324092 182.432875 
L 485.408056 182.851267 
L 491.497825 183.270076 
L 497.587594 183.688885 
L 503.671558 184.107295 
L 509.761327 184.526122 
L 515.845291 184.944566 
L 521.935061 185.710899 
L 528.02483 186.487661 
L 534.108794 187.263485 
L 540.198563 188.039865 
L 546.282527 188.815343 
L 552.372296 189.591393 
L 558.45626 190.366524 
L 564.546029 191.14221 
L 570.635798 191.917722 
L 576.719762 192.708575 
L 582.809531 193.502238 
L 588.893495 194.295121 
L 594.983264 195.088732 
L 601.067228 195.881562 
L 607.156998 196.675104 
L 613.246767 203.822639 
L 619.330731 213.129048 
L 625.4205 222.37972 
L 631.504464 231.619199 
L 637.594233 240.865029 
L 643.678197 250.099477 
L 649.767966 259.340049 
L 655.857735 268.577811 
L 661.941699 277.803859 
L 668.031468 287.035651 
L 674.115432 296.25547 
L 680.205202 305.480737 
L 686.289165 314.693728 
L 692.378935 323.911863 
L 698.468704 333.126164 
L 704.552668 342.327676 
L 710.642437 351.53376 
L 716.726401 360.726651 
L 722.81617 369.923673 
L 728.905939 379.115809 
L 734.989903 383.647293 
L 741.079672 387.360767 
L 747.163636 393.846163 
" clip-path="url(#pe2848951f9)" style="fill: none; stroke: #1f77b4; stroke-width: 1.5; stroke-linecap: square"/>
   </g>
   <g id="line2d_30">
    <path d="M 138.436364 452.344005 
L 144.520307 452.391749 
L 150.610077 452.439551 
L 156.694041 452.487321 
L 162.78381 452.535147 
L 168.873579 452.582987 
L 174.957543 452.630792 
L 181.047312 452.678657 
L 187.131276 452.726488 
L 193.221045 452.774377 
L 199.305009 452.822232 
L 205.394778 452.870145 
L 211.484548 452.918071 
L 217.568511 452.965965 
L 223.658281 453.013915 
L 229.742245 453.061832 
L 235.832014 453.582443 
L 241.915978 453.609867 
L 248.005747 453.642952 
L 254.095516 453.681864 
L 260.17948 453.726649 
L 266.269249 453.777373 
L 272.353213 453.833802 
L 278.442982 453.895782 
L 284.526946 453.962818 
L 290.616715 454.034541 
L 296.706485 454.110295 
L 302.790449 454.189332 
L 308.880218 454.27109 
L 314.964182 454.354687 
L 321.053951 454.439607 
L 327.137915 454.525091 
L 333.227684 454.610842 
L 339.317453 454.696482 
L 345.401417 454.781825 
L 351.491186 454.86712 
L 357.57515 454.952459 
L 363.664919 455.038366 
L 369.754689 455.125102 
L 375.838653 455.212718 
L 381.928422 455.301033 
L 388.012386 455.388686 
L 394.102155 455.473448 
L 400.186119 455.551314 
L 406.275888 455.617304 
L 412.365657 455.665692 
L 418.449621 455.691706 
L 424.53939 455.583954 
L 430.623354 455.685242 
L 436.713123 455.786665 
L 442.797087 455.888031 
L 448.886857 455.989534 
L 454.976626 456.091076 
L 461.06059 456.192559 
L 467.150359 456.294179 
L 473.234323 456.395741 
L 479.324092 456.497436 
L 485.408056 456.599076 
L 491.497825 456.700852 
L 497.587594 456.802665 
L 503.671558 456.90442 
L 509.761327 457.006311 
L 515.845291 457.108143 
L 521.935061 457.36142 
L 528.02483 457.618497 
L 534.108794 457.874513 
L 540.198563 458.129963 
L 546.282527 458.384363 
L 552.372296 458.638201 
L 558.45626 458.890997 
L 564.546029 459.143238 
L 570.635798 459.394684 
L 576.719762 459.697345 
L 582.809531 460.006935 
L 588.893495 460.316094 
L 594.983264 460.625407 
L 601.067228 460.934287 
L 607.156998 461.24332 
L 613.246767 460.491511 
L 619.330731 459.356905 
L 625.4205 458.23288 
L 631.504464 457.112013 
L 637.594233 455.992256 
L 643.678197 454.875831 
L 649.767966 453.760708 
L 655.857735 452.648051 
L 661.941699 451.539029 
L 668.031468 450.431637 
L 674.115432 449.328106 
L 680.205202 448.22646 
L 686.289165 447.128935 
L 692.378935 446.033581 
L 698.468704 444.941598 
L 704.552668 443.854188 
L 710.642437 442.769449 
L 716.726401 441.689633 
L 722.81617 440.612878 
L 728.905939 439.540426 
L 734.989903 439.275859 
L 741.079672 438.718912 
L 747.163636 437.799448 
" clip-path="url(#pe2848951f9)" style="fill: none; stroke-dasharray: 5.55,2.4; stroke-dashoffset: 0; stroke: #ff7f0e; stroke-width: 1.5"/>
   </g>
   <g id="line2d_31">
    <path d="M 138.436364 415.921013 
L 144.520307 415.880656 
L 150.610077 415.840268 
L 156.694041 415.799926 
L 162.78381 415.759555 
L 168.873579 415.719193 
L 174.957543 415.678877 
L 181.047312 415.638529 
L 187.131276 415.59823 
L 193.221045 415.5579 
L 199.305009 415.517617 
L 205.394778 415.477302 
L 211.484548 415.436997 
L 217.568511 415.396737 
L 223.658281 415.356448 
L 229.742245 415.316205 
L 235.832014 415.248643 
L 241.915978 415.249689 
L 248.005747 415.251306 
L 254.095516 415.253448 
L 260.17948 415.256051 
L 266.269249 415.259057 
L 272.353213 415.262405 
L 278.442982 415.266062 
L 284.526946 415.270012 
L 290.616715 415.274282 
L 296.706485 415.278928 
L 302.790449 415.28404 
L 308.880218 415.289765 
L 314.964182 415.296267 
L 321.053951 415.303774 
L 327.137915 415.31253 
L 333.227684 415.322844 
L 339.317453 415.335047 
L 345.401417 415.349495 
L 351.491186 415.36662 
L 357.57515 415.386802 
L 363.664919 415.41047 
L 369.754689 415.437914 
L 375.838653 415.469227 
L 381.928422 415.504246 
L 388.012386 415.542142 
L 394.102155 415.581454 
L 400.186119 415.619653 
L 406.275888 415.653486 
L 412.365657 415.679163 
L 418.449621 415.69332 
L 424.53939 415.669221 
L 430.623354 415.766454 
L 436.713123 415.863788 
L 442.797087 415.961037 
L 448.886857 416.058387 
L 454.976626 416.155746 
L 461.06059 416.25302 
L 467.150359 416.350395 
L 473.234323 416.447686 
L 479.324092 416.545077 
L 485.408056 416.642384 
L 491.497825 416.739791 
L 497.587594 416.837206 
L 503.671558 416.934538 
L 509.761327 417.031969 
L 515.845291 417.129316 
L 521.935061 417.984274 
L 528.02483 418.861979 
L 534.108794 419.738529 
L 540.198563 420.615597 
L 546.282527 421.491515 
L 552.372296 422.367954 
L 558.45626 423.243245 
L 564.546029 424.11906 
L 570.635798 424.994564 
L 576.719762 425.864926 
L 582.809531 426.73553 
L 588.893495 427.605253 
L 594.983264 428.475754 
L 601.067228 429.345375 
L 607.156998 430.215773 
L 613.246767 430.783815 
L 619.330731 430.926515 
L 625.4205 431.062227 
L 631.504464 431.19837 
L 637.594233 431.335227 
L 643.678197 431.472563 
L 649.767966 431.610664 
L 655.857735 431.749428 
L 661.941699 431.88875 
L 668.031468 432.028927 
L 674.115432 432.169724 
L 680.205202 432.311443 
L 686.289165 432.453852 
L 692.378935 432.597261 
L 698.468704 432.741574 
L 704.552668 432.886699 
L 710.642437 433.032957 
L 716.726401 433.18012 
L 722.81617 433.328521 
L 728.905939 433.478078 
L 734.989903 433.594896 
L 741.079672 433.511221 
L 747.163636 433.390356 
" clip-path="url(#pe2848951f9)" style="fill: none; stroke-dasharray: 9.6,2.4,1.5,2.4; stroke-dashoffset: 0; stroke: #2ca02c; stroke-width: 1.5"/>
   </g>
   <g id="line2d_32">
    <path d="M 138.436364 185.415711 
L 144.520307 185.473877 
L 150.610077 185.532113 
L 156.694041 185.590262 
L 162.78381 185.648464 
L 168.873579 185.706665 
L 174.957543 185.764779 
L 181.047312 185.822946 
L 187.131276 185.88106 
L 193.221045 185.939209 
L 199.305009 185.997289 
L 205.394778 186.055403 
L 211.484548 186.113535 
L 217.568511 186.17158 
L 223.658281 186.229677 
L 229.742245 186.287705 
L 235.832014 187.532054 
L 241.915978 187.590012 
L 248.005747 187.658434 
L 254.095516 187.738118 
L 260.17948 187.829723 
L 266.269249 187.934014 
L 272.353213 188.051093 
L 278.442982 188.181308 
L 284.526946 188.324138 
L 290.616715 188.479359 
L 296.706485 188.64598 
L 302.790449 188.822718 
L 308.880218 189.00867 
L 314.964182 189.202067 
L 321.053951 189.401919 
L 327.137915 189.606577 
L 333.227684 189.815331 
L 339.317453 190.02726 
L 345.401417 190.241723 
L 351.491186 190.459032 
L 357.57515 190.678978 
L 363.664919 190.902325 
L 369.754689 191.129057 
L 375.838653 191.358547 
L 381.928422 191.589599 
L 388.012386 191.8181 
L 394.102155 192.037977 
L 400.186119 192.238905 
L 406.275888 192.408389 
L 412.365657 192.532271 
L 418.449621 192.598784 
L 424.53939 192.733302 
L 430.623354 193.137014 
L 436.713123 193.541108 
L 442.797087 193.944838 
L 448.886857 194.348984 
L 454.976626 194.753129 
L 461.06059 195.156911 
L 467.150359 195.561074 
L 473.234323 195.96489 
L 479.324092 196.369088 
L 485.408056 196.772922 
L 491.497825 197.177172 
L 497.587594 197.581422 
L 503.671558 197.98529 
L 509.761327 198.389575 
L 515.845291 198.793478 
L 521.935061 199.511309 
L 528.02483 200.238512 
L 534.108794 200.964812 
L 540.198563 201.691632 
L 546.282527 202.41755 
L 552.372296 203.143989 
L 558.45626 203.86956 
L 564.546029 204.595617 
L 570.635798 205.321501 
L 576.719762 206.062742 
L 582.809531 206.806776 
L 588.893495 207.550082 
L 594.983264 208.294047 
L 601.067228 209.037266 
L 607.156998 209.781179 
L 613.246767 216.532237 
L 619.330731 225.327815 
L 625.4205 234.070884 
L 631.504464 242.80342 
L 637.594233 251.541995 
L 643.678197 260.269862 
L 649.767966 269.003595 
L 655.857735 277.734726 
L 661.941699 286.454837 
L 668.031468 295.180458 
L 674.115432 303.894808 
L 680.205202 312.614389 
L 686.289165 321.322449 
L 692.378935 330.035437 
L 698.468704 338.744885 
L 704.552668 347.442333 
L 710.642437 356.144181 
L 716.726401 364.833664 
L 722.81617 373.527143 
L 728.905939 382.216111 
L 734.989903 386.509801 
L 741.079672 390.001376 
L 747.163636 396.103255 
" clip-path="url(#pe2848951f9)" style="fill: none; stroke: #d62728; stroke-width: 1.5; stroke-linecap: square"/>
   </g>
   <g id="line2d_33">
    <path d="M 138.436364 431.696511 
L 144.520307 431.75377 
L 150.610077 431.811093 
L 156.694041 431.868371 
L 162.78381 431.925713 
L 168.873579 431.983064 
L 174.957543 432.040371 
L 181.047312 432.097742 
L 187.131276 432.155068 
L 193.221045 432.212458 
L 199.305009 432.269803 
L 205.394778 432.327213 
L 211.484548 432.384631 
L 217.568511 432.442005 
L 223.658281 432.499443 
L 229.742245 432.556836 
L 235.832014 433.082361 
L 241.915978 433.109612 
L 248.005747 433.142479 
L 254.095516 433.181128 
L 260.17948 433.225602 
L 266.269249 433.275962 
L 272.353213 433.33197 
L 278.442982 433.39347 
L 284.526946 433.45996 
L 290.616715 433.531064 
L 296.706485 433.606118 
L 302.790449 433.684364 
L 308.880218 433.765221 
L 314.964182 433.847799 
L 321.053951 433.931556 
L 327.137915 434.015715 
L 333.227684 434.099947 
L 339.317453 434.183842 
L 345.401417 434.267178 
L 351.491186 434.350159 
L 357.57515 434.432836 
L 363.664919 434.515684 
L 369.754689 434.598933 
L 375.838653 434.682625 
L 381.928422 434.766597 
L 388.012386 434.849592 
L 394.102155 434.929549 
L 400.186119 435.002773 
L 406.275888 435.064665 
L 412.365657 435.10995 
L 418.449621 435.134259 
L 424.53939 435.030979 
L 430.623354 435.12264 
L 436.713123 435.214424 
L 442.797087 435.306156 
L 448.886857 435.398011 
L 454.976626 435.489901 
L 461.06059 435.581739 
L 467.150359 435.673699 
L 473.234323 435.765607 
L 479.324092 435.857638 
L 485.408056 435.949616 
L 491.497825 436.041716 
L 497.587594 436.133852 
L 503.671558 436.225934 
L 509.761327 436.318139 
L 515.845291 436.410291 
L 521.935061 436.602161 
L 528.02483 436.796287 
L 534.108794 436.989445 
L 540.198563 437.182006 
L 546.282527 437.373607 
L 552.372296 437.564618 
L 558.45626 437.754677 
L 564.546029 437.944149 
L 570.635798 438.132858 
L 576.719762 438.370632 
L 582.809531 438.614991 
L 588.893495 438.858984 
L 594.983264 439.103074 
L 601.067228 439.346798 
L 607.156998 439.590619 
L 613.246767 439.454012 
L 619.330731 439.186723 
L 625.4205 438.924514 
L 631.504464 438.664291 
L 637.594233 438.40563 
L 643.678197 438.1491 
L 649.767966 437.894291 
L 655.857735 437.641533 
L 661.941699 437.391153 
L 668.031468 437.14277 
L 674.115432 436.896956 
L 680.205202 436.653349 
L 686.289165 436.412527 
L 692.378935 436.174149 
L 698.468704 435.938574 
L 704.552668 435.706159 
L 710.642437 435.476603 
L 716.726401 435.2505 
L 722.81617 435.027581 
L 728.905939 434.808239 
L 734.989903 434.928949 
L 741.079672 434.70339 
L 747.163636 434.359825 
" clip-path="url(#pe2848951f9)" style="fill: none; stroke-dasharray: 5.55,2.4; stroke-dashoffset: 0; stroke: #9467bd; stroke-width: 1.5"/>
   </g>
   <g id="line2d_34">
    <path d="M 138.436364 409.570742 
L 144.520307 409.521438 
L 150.610077 409.472098 
L 156.694041 409.422812 
L 162.78381 409.373489 
L 168.873579 409.324174 
L 174.957543 409.274918 
L 181.047312 409.225621 
L 187.131276 409.176383 
L 193.221045 409.127105 
L 199.305009 409.077884 
L 205.394778 409.028624 
L 211.484548 408.979375 
L 217.568511 408.93018 
L 223.658281 408.880948 
L 229.742245 408.831772 
L 235.832014 408.675428 
L 241.915978 408.672239 
L 248.005747 408.66881 
L 254.095516 408.665047 
L 260.17948 408.660867 
L 266.269249 408.656177 
L 272.353213 408.650937 
L 278.442982 408.645117 
L 284.526946 408.638762 
L 290.616715 408.631944 
L 296.706485 408.624819 
L 302.790449 408.617589 
L 308.880218 408.610494 
L 314.964182 408.603848 
L 321.053951 408.597974 
L 327.137915 408.593258 
L 333.227684 408.590085 
L 339.317453 408.588877 
L 345.401417 408.590068 
L 351.491186 408.594091 
L 357.57515 408.601369 
L 363.664919 408.612307 
L 369.754689 408.627205 
L 375.838653 408.646182 
L 381.928422 408.669129 
L 388.012386 408.69539 
L 394.102155 408.723766 
L 400.186119 408.752173 
L 406.275888 408.777887 
L 412.365657 408.797715 
L 418.449621 408.808764 
L 424.53939 408.784727 
L 430.623354 408.872473 
L 436.713123 408.960315 
L 442.797087 409.048083 
L 448.886857 409.135947 
L 454.976626 409.223819 
L 461.06059 409.311619 
L 467.150359 409.399513 
L 473.234323 409.487333 
L 479.324092 409.575249 
L 485.408056 409.663091 
L 491.497825 409.751026 
L 497.587594 409.838972 
L 503.671558 409.926844 
L 509.761327 410.014812 
L 515.845291 410.102706 
L 521.935061 410.849328 
L 528.02483 411.615724 
L 534.108794 412.381109 
L 540.198563 413.146945 
L 546.282527 413.911772 
L 552.372296 414.677053 
L 558.45626 415.441328 
L 564.546029 416.206058 
L 570.635798 416.970515 
L 576.719762 417.72912 
L 582.809531 418.487758 
L 588.893495 419.245628 
L 594.983264 420.004176 
L 601.067228 420.761956 
L 607.156998 421.520414 
L 613.246767 422.291723 
L 619.330731 422.790283 
L 625.4205 423.280428 
L 631.504464 423.770486 
L 637.594233 424.261409 
L 643.678197 424.752278 
L 649.767966 425.244047 
L 655.857735 425.736265 
L 661.941699 426.228483 
L 668.031468 426.721662 
L 674.115432 427.214882 
L 680.205202 427.709109 
L 686.289165 428.203424 
L 692.378935 428.698798 
L 698.468704 429.194787 
L 704.552668 429.690947 
L 710.642437 430.188257 
L 716.726401 430.685802 
L 722.81617 431.184569 
L 728.905939 431.68412 
L 734.989903 431.958785 
L 741.079672 431.996861 
L 747.163636 432.089356 
" clip-path="url(#pe2848951f9)" style="fill: none; stroke-dasharray: 9.6,2.4,1.5,2.4; stroke-dashoffset: 0; stroke: #8c564b; stroke-width: 1.5"/>
   </g>
   <g id="line2d_35">
    <path d="M 138.436364 154.499453 
L 144.520307 154.569437 
L 150.610077 154.639473 
L 156.694041 154.709422 
L 162.78381 154.779423 
L 168.873579 154.849406 
L 174.957543 154.919303 
L 181.047312 154.989252 
L 187.131276 155.059115 
L 193.221045 155.129029 
L 199.305009 155.198856 
L 205.394778 155.268736 
L 211.484548 155.338598 
L 217.568511 155.408356 
L 223.658281 155.478184 
L 229.742245 155.547925 
L 235.832014 156.972604 
L 241.915978 157.040505 
L 248.005747 157.120935 
L 254.095516 157.214762 
L 260.17948 157.322661 
L 266.269249 157.445363 
L 272.353213 157.582953 
L 278.442982 157.73564 
L 284.526946 157.902782 
L 290.616715 158.083962 
L 296.706485 158.277966 
L 302.790449 158.483232 
L 308.880218 158.698597 
L 314.964182 158.921979 
L 321.053951 159.152146 
L 327.137915 159.38712 
L 333.227684 159.626067 
L 339.317453 159.867826 
L 345.401417 160.111563 
L 351.491186 160.357642 
L 357.57515 160.605718 
L 363.664919 160.856639 
L 369.754689 161.110353 
L 375.838653 161.366185 
L 381.928422 161.62285 
L 388.012386 161.875905 
L 394.102155 162.118705 
L 400.186119 162.340057 
L 406.275888 162.526426 
L 412.365657 162.662419 
L 418.449621 162.735353 
L 424.53939 162.875355 
L 430.623354 163.312055 
L 436.713123 163.749153 
L 442.797087 164.18587 
L 448.886857 164.622987 
L 454.976626 165.060103 
L 461.06059 165.49682 
L 467.150359 165.933953 
L 473.234323 166.37067 
L 479.324092 166.807821 
L 485.408056 167.244556 
L 491.497825 167.681706 
L 497.587594 168.118857 
L 503.671558 168.555592 
L 509.761327 168.99276 
L 515.845291 169.429511 
L 521.935061 170.24674 
L 528.02483 171.075404 
L 534.108794 171.903113 
L 540.198563 172.73143 
L 546.282527 173.558827 
L 552.372296 174.386832 
L 558.45626 175.213899 
L 564.546029 176.041591 
L 570.635798 176.869145 
L 576.719762 177.711604 
L 582.809531 178.556927 
L 588.893495 179.401416 
L 594.983264 180.24667 
L 601.067228 181.09109 
L 607.156998 181.936308 
L 613.246767 189.530902 
L 619.330731 199.417657 
L 625.4205 209.245134 
L 631.504464 219.060656 
L 637.594233 228.882859 
L 643.678197 238.692897 
L 649.767966 248.509373 
L 655.857735 258.322795 
L 661.941699 268.123689 
L 668.031468 277.930621 
L 674.115432 287.724729 
L 680.205202 297.524556 
L 686.289165 307.311255 
L 692.378935 317.103315 
L 698.468704 326.891203 
L 704.552668 336.665408 
L 710.642437 346.444359 
L 716.726401 356.209176 
L 722.81617 365.978266 
L 728.905939 375.742033 
L 734.989903 380.537153 
L 741.079672 384.490824 
L 747.163636 391.391888 
" clip-path="url(#pe2848951f9)" style="fill: none; stroke: #e377c2; stroke-width: 1.5; stroke-linecap: square"/>
   </g>
   <g id="line2d_36">
    <path d="M 138.436364 473.642204 
L 144.520307 473.679565 
L 150.610077 473.716977 
L 156.694041 473.754372 
L 162.78381 473.79182 
L 168.873579 473.82928 
L 174.957543 473.866719 
L 181.047312 473.904209 
L 187.131276 473.941682 
L 193.221045 473.979208 
L 199.305009 474.016712 
L 205.394778 474.054263 
L 211.484548 474.091836 
L 217.568511 474.129383 
L 223.658281 474.166986 
L 229.742245 474.204568 
L 235.832014 474.715 
L 241.915978 474.742552 
L 248.005747 474.775821 
L 254.095516 474.814982 
L 260.17948 474.86006 
L 266.269249 474.911129 
L 272.353213 474.967938 
L 278.442982 475.030339 
L 284.526946 475.097832 
L 290.616715 475.170054 
L 296.706485 475.246359 
L 302.790449 475.326004 
L 308.880218 475.408442 
L 314.964182 475.49282 
L 321.053951 475.578643 
L 327.137915 475.665189 
L 333.227684 475.752192 
L 339.317453 475.839324 
L 345.401417 475.92644 
L 351.491186 476.01385 
L 357.57515 476.101703 
L 363.664919 476.190575 
L 369.754689 476.280774 
L 375.838653 476.372371 
L 381.928422 476.465169 
L 388.012386 476.557703 
L 394.102155 476.647547 
L 400.186119 476.73038 
L 406.275888 476.80078 
L 412.365657 476.852522 
L 418.449621 476.880386 
L 424.53939 476.76437 
L 430.623354 476.874595 
L 436.713123 476.984963 
L 442.797087 477.095274 
L 448.886857 477.205729 
L 454.976626 477.316227 
L 461.06059 477.42666 
L 467.150359 477.537245 
L 473.234323 477.647764 
L 479.324092 477.758432 
L 485.408056 477.869038 
L 491.497825 477.979792 
L 497.587594 478.090585 
L 503.671558 478.201313 
L 509.761327 478.312193 
L 515.845291 478.423008 
L 521.935061 478.735119 
L 528.02483 479.052492 
L 534.108794 479.36869 
L 540.198563 479.684328 
L 546.282527 479.998804 
L 552.372296 480.312724 
L 558.45626 480.62549 
L 564.546029 480.937701 
L 570.635798 481.249066 
L 576.719762 481.61537 
L 582.809531 481.989153 
L 588.893495 482.362432 
L 594.983264 482.73592 
L 601.067228 483.108901 
L 607.156998 483.482089 
L 613.246767 482.096363 
L 619.330731 480.071573 
L 625.4205 478.063125 
L 631.504464 476.059088 
L 637.594233 474.055742 
L 643.678197 472.057007 
L 649.767966 470.059197 
L 655.857735 468.064334 
L 661.941699 466.074444 
L 668.031468 464.085868 
L 674.115432 462.10254 
L 680.205202 460.12083 
L 686.289165 458.144678 
L 692.378935 456.170482 
L 698.468704 454.200317 
L 704.552668 452.236248 
L 710.642437 450.274734 
L 716.726401 448.319737 
L 722.81617 446.367762 
L 728.905939 444.420929 
L 734.989903 443.761377 
L 741.079672 442.861635 
L 747.163636 441.346914 
" clip-path="url(#pe2848951f9)" style="fill: none; stroke-dasharray: 5.55,2.4; stroke-dashoffset: 0; stroke: #7f7f7f; stroke-width: 1.5"/>
   </g>
   <g id="line2d_37">
    <path d="M 138.436364 421.097548 
L 144.520307 421.063339 
L 150.610077 421.029104 
L 156.694041 420.99491 
L 162.78381 420.960692 
L 168.873579 420.926481 
L 174.957543 420.892311 
L 181.047312 420.858115 
L 187.131276 420.82396 
L 193.221045 420.78978 
L 199.305009 420.75564 
L 205.394778 420.721475 
L 211.484548 420.687318 
L 217.568511 420.653202 
L 223.658281 420.61906 
L 229.742245 420.584959 
L 235.832014 420.578538 
L 241.915978 420.582589 
L 248.005747 420.587803 
L 254.095516 420.594157 
L 260.17948 420.601604 
L 266.269249 420.610103 
L 272.353213 420.619574 
L 278.442982 420.629982 
L 284.526946 420.641258 
L 290.616715 420.653397 
L 296.706485 420.666385 
L 302.790449 420.68023 
L 308.880218 420.695013 
L 314.964182 420.710797 
L 321.053951 420.727742 
L 327.137915 420.745993 
L 333.227684 420.765813 
L 339.317453 420.787467 
L 345.401417 420.811268 
L 351.491186 420.837644 
L 357.57515 420.866956 
L 363.664919 420.899658 
L 369.754689 420.936036 
L 375.838653 420.976164 
L 381.928422 421.01985 
L 388.012386 421.066136 
L 394.102155 421.113369 
L 400.186119 421.158689 
L 406.275888 421.198451 
L 412.365657 421.22841 
L 418.449621 421.244845 
L 424.53939 421.219554 
L 430.623354 421.325018 
L 436.713123 421.430591 
L 442.797087 421.536068 
L 448.886857 421.641653 
L 454.976626 421.747244 
L 461.06059 421.85274 
L 467.150359 421.958343 
L 473.234323 422.063851 
L 479.324092 422.169467 
L 485.408056 422.274988 
L 491.497825 422.380615 
L 497.587594 422.486249 
L 503.671558 422.591789 
L 509.761327 422.697435 
L 515.845291 422.802986 
L 521.935061 423.752279 
L 528.02483 424.726907 
L 534.108794 425.700253 
L 540.198563 426.674178 
L 546.282527 427.646825 
L 552.372296 428.620052 
L 558.45626 429.592005 
L 564.546029 430.564541 
L 570.635798 431.536733 
L 576.719762 432.504115 
L 582.809531 433.471885 
L 588.893495 434.438675 
L 594.983264 435.40633 
L 601.067228 436.373006 
L 607.156998 437.340547 
L 613.246767 437.746815 
L 619.330731 437.598438 
L 625.4205 437.444119 
L 631.504464 437.290661 
L 637.594233 437.137801 
L 643.678197 436.985861 
L 649.767966 436.834584 
L 655.857735 436.684151 
L 661.941699 436.534739 
L 668.031468 436.386104 
L 674.115432 436.23857 
L 680.205202 436.091898 
L 686.289165 435.946416 
L 692.378935 435.801894 
L 698.468704 435.658524 
L 704.552668 435.516498 
L 710.642437 435.375603 
L 716.726401 435.236172 
L 722.81617 435.098005 
L 728.905939 434.961309 
L 734.989903 434.949086 
L 741.079672 434.764371 
L 747.163636 434.466618 
" clip-path="url(#pe2848951f9)" style="fill: none; stroke-dasharray: 9.6,2.4,1.5,2.4; stroke-dashoffset: 0; stroke: #bcbd22; stroke-width: 1.5"/>
   </g>
   <g id="line2d_38">
    <path d="M 515.847335 577 
L 515.847335 -1 
" clip-path="url(#pe2848951f9)" style="fill: none; stroke: #1f77b4; stroke-width: 1.5; stroke-linecap: square"/>
   </g>
   <g id="patch_3">
    <path d="M 108 512.64 
L 108 69.12 
" style="fill: none; stroke: #000000; stroke-width: 0.8; stroke-linejoin: miter; stroke-linecap: square"/>
   </g>
   <g id="patch_4">
    <path d="M 777.6 512.64 
L 777.6 69.12 
" style="fill: none; stroke: #000000; stroke-width: 0.8; stroke-linejoin: miter; stroke-linecap: square"/>
   </g>
   <g id="patch_5">
    <path d="M 108 512.64 
L 777.6 512.64 
" style="fill: none; stroke: #000000; stroke-width: 0.8; stroke-linejoin: miter; stroke-linecap: square"/>
   </g>
   <g id="patch_6">
    <path d="M 108 69.12 
L 777.6 69.12 
" style="fill: none; stroke: #000000; stroke-width: 0.8; stroke-linejoin: miter; stroke-linecap: square"/>
   </g>
   <g id="legend_1">
    <g id="patch_7">
     <path d="M 115 359.683125 
L 249.139063 359.683125 
Q 251.139063 359.683125 251.139063 357.683125 
L 251.139063 224.076875 
Q 251.139063 222.076875 249.139063 222.076875 
L 115 222.076875 
Q 113 222.076875 113 224.076875 
L 113 357.683125 
Q 113 359.683125 115 359.683125 
z
" style="fill: #ffffff; opacity: 0.8; stroke: #cccccc; stroke-linejoin: miter"/>
    </g>
    <g id="line2d_39">
     <path d="M 117 230.175313 
L 127 230.175313 
L 137 230.175313 
" style="fill: none; stroke: #1f77b4; stroke-width: 1.5; stroke-linecap: square"/>
    </g>
    <g id="text_17">
     <!-- Navy120_AoA0_Ux -->
     <g transform="translate(145 233.675313) scale(0.1 -0.1)">
      <defs>
       <path id="DejaVuSans-4e" d="M 628 4666 
L 1478 4666 
L 3547 763 
L 3547 4666 
L 4159 4666 
L 4159 0 
L 3309 0 
L 1241 3903 
L 1241 0 
L 628 0 
L 628 4666 
z
" transform="scale(0.015625)"/>
       <path id="DejaVuSans-76" d="M 191 3500 
L 800 3500 
L 1894 563 
L 2988 3500 
L 3597 3500 
L 2284 0 
L 1503 0 
L 191 3500 
z
" transform="scale(0.015625)"/>
       <path id="DejaVuSans-5f" d="M 3263 -1063 
L 3263 -1509 
L -63 -1509 
L -63 -1063 
L 3263 -1063 
z
" transform="scale(0.015625)"/>
       <path id="DejaVuSans-41" d="M 2188 4044 
L 1331 1722 
L 3047 1722 
L 2188 4044 
z
M 1831 4666 
L 2547 4666 
L 4325 0 
L 3669 0 
L 3244 1197 
L 1141 1197 
L 716 0 
L 50 0 
L 1831 4666 
z
" transform="scale(0.015625)"/>
       <path id="DejaVuSans-55" d="M 556 4666 
L 1191 4666 
L 1191 1831 
Q 1191 1081 1462 751 
Q 1734 422 2344 422 
Q 2950 422 3222 751 
Q 3494 1081 3494 1831 
L 3494 4666 
L 4128 4666 
L 4128 1753 
Q 4128 841 3676 375 
Q 3225 -91 2344 -91 
Q 1459 -91 1007 375 
Q 556 841 556 1753 
L 556 4666 
z
" transform="scale(0.015625)"/>
       <path id="DejaVuSans-78" d="M 3513 3500 
L 2247 1797 
L 3578 0 
L 2900 0 
L 1881 1375 
L 863 0 
L 184 0 
L 1544 1831 
L 300 3500 
L 978 3500 
L 1906 2253 
L 2834 3500 
L 3513 3500 
z
" transform="scale(0.015625)"/>
      </defs>
      <use xlink:href="#DejaVuSans-4e"/>
      <use xlink:href="#DejaVuSans-61" x="74.804688"/>
      <use xlink:href="#DejaVuSans-76" x="136.083984"/>
      <use xlink:href="#DejaVuSans-79" x="195.263672"/>
      <use xlink:href="#DejaVuSans-31" x="254.443359"/>
      <use xlink:href="#DejaVuSans-32" x="318.066406"/>
      <use xlink:href="#DejaVuSans-30" x="381.689453"/>
      <use xlink:href="#DejaVuSans-5f" x="445.3125"/>
      <use xlink:href="#DejaVuSans-41" x="495.3125"/>
      <use xlink:href="#DejaVuSans-6f" x="561.970703"/>
      <use xlink:href="#DejaVuSans-41" x="623.152344"/>
      <use xlink:href="#DejaVuSans-30" x="691.560547"/>
      <use xlink:href="#DejaVuSans-5f" x="755.183594"/>
      <use xlink:href="#DejaVuSans-55" x="805.183594"/>
      <use xlink:href="#DejaVuSans-78" x="878.376953"/>
     </g>
    </g>
    <g id="line2d_40">
     <path d="M 117 245.131563 
L 127 245.131563 
L 137 245.131563 
" style="fill: none; stroke-dasharray: 5.55,2.4; stroke-dashoffset: 0; stroke: #ff7f0e; stroke-width: 1.5"/>
    </g>
    <g id="text_18">
     <!-- Navy120_AoA0_Uy -->
     <g transform="translate(145 248.631563) scale(0.1 -0.1)">
      <use xlink:href="#DejaVuSans-4e"/>
      <use xlink:href="#DejaVuSans-61" x="74.804688"/>
      <use xlink:href="#DejaVuSans-76" x="136.083984"/>
      <use xlink:href="#DejaVuSans-79" x="195.263672"/>
      <use xlink:href="#DejaVuSans-31" x="254.443359"/>
      <use xlink:href="#DejaVuSans-32" x="318.066406"/>
      <use xlink:href="#DejaVuSans-30" x="381.689453"/>
      <use xlink:href="#DejaVuSans-5f" x="445.3125"/>
      <use xlink:href="#DejaVuSans-41" x="495.3125"/>
      <use xlink:href="#DejaVuSans-6f" x="561.970703"/>
      <use xlink:href="#DejaVuSans-41" x="623.152344"/>
      <use xlink:href="#DejaVuSans-30" x="691.560547"/>
      <use xlink:href="#DejaVuSans-5f" x="755.183594"/>
      <use xlink:href="#DejaVuSans-55" x="805.183594"/>
      <use xlink:href="#DejaVuSans-79" x="878.376953"/>
     </g>
    </g>
    <g id="line2d_41">
     <path d="M 117 260.087813 
L 127 260.087813 
L 137 260.087813 
" style="fill: none; stroke-dasharray: 9.6,2.4,1.5,2.4; stroke-dashoffset: 0; stroke: #2ca02c; stroke-width: 1.5"/>
    </g>
    <g id="text_19">
     <!-- Navy120_AoA0_Uz -->
     <g transform="translate(145 263.587813) scale(0.1 -0.1)">
      <defs>
       <path id="DejaVuSans-7a" d="M 353 3500 
L 3084 3500 
L 3084 2975 
L 922 459 
L 3084 459 
L 3084 0 
L 275 0 
L 275 525 
L 2438 3041 
L 353 3041 
L 353 3500 
z
" transform="scale(0.015625)"/>
      </defs>
      <use xlink:href="#DejaVuSans-4e"/>
      <use xlink:href="#DejaVuSans-61" x="74.804688"/>
      <use xlink:href="#DejaVuSans-76" x="136.083984"/>
      <use xlink:href="#DejaVuSans-79" x="195.263672"/>
      <use xlink:href="#DejaVuSans-31" x="254.443359"/>
      <use xlink:href="#DejaVuSans-32" x="318.066406"/>
      <use xlink:href="#DejaVuSans-30" x="381.689453"/>
      <use xlink:href="#DejaVuSans-5f" x="445.3125"/>
      <use xlink:href="#DejaVuSans-41" x="495.3125"/>
      <use xlink:href="#DejaVuSans-6f" x="561.970703"/>
      <use xlink:href="#DejaVuSans-41" x="623.152344"/>
      <use xlink:href="#DejaVuSans-30" x="691.560547"/>
      <use xlink:href="#DejaVuSans-5f" x="755.183594"/>
      <use xlink:href="#DejaVuSans-55" x="805.183594"/>
      <use xlink:href="#DejaVuSans-7a" x="878.376953"/>
     </g>
    </g>
    <g id="line2d_42">
     <path d="M 117 275.044062 
L 127 275.044062 
L 137 275.044062 
" style="fill: none; stroke: #d62728; stroke-width: 1.5; stroke-linecap: square"/>
    </g>
    <g id="text_20">
     <!-- Navy120_AoA+4_Ux -->
     <g transform="translate(145 278.544062) scale(0.1 -0.1)">
      <defs>
       <path id="DejaVuSans-2b" d="M 2944 4013 
L 2944 2272 
L 4684 2272 
L 4684 1741 
L 2944 1741 
L 2944 0 
L 2419 0 
L 2419 1741 
L 678 1741 
L 678 2272 
L 2419 2272 
L 2419 4013 
L 2944 4013 
z
" transform="scale(0.015625)"/>
      </defs>
      <use xlink:href="#DejaVuSans-4e"/>
      <use xlink:href="#DejaVuSans-61" x="74.804688"/>
      <use xlink:href="#DejaVuSans-76" x="136.083984"/>
      <use xlink:href="#DejaVuSans-79" x="195.263672"/>
      <use xlink:href="#DejaVuSans-31" x="254.443359"/>
      <use xlink:href="#DejaVuSans-32" x="318.066406"/>
      <use xlink:href="#DejaVuSans-30" x="381.689453"/>
      <use xlink:href="#DejaVuSans-5f" x="445.3125"/>
      <use xlink:href="#DejaVuSans-41" x="495.3125"/>
      <use xlink:href="#DejaVuSans-6f" x="561.970703"/>
      <use xlink:href="#DejaVuSans-41" x="623.152344"/>
      <use xlink:href="#DejaVuSans-2b" x="691.560547"/>
      <use xlink:href="#DejaVuSans-34" x="775.349609"/>
      <use xlink:href="#DejaVuSans-5f" x="838.972656"/>
      <use xlink:href="#DejaVuSans-55" x="888.972656"/>
      <use xlink:href="#DejaVuSans-78" x="962.166016"/>
     </g>
    </g>
    <g id="line2d_43">
     <path d="M 117 290.000313 
L 127 290.000313 
L 137 290.000313 
" style="fill: none; stroke-dasharray: 5.55,2.4; stroke-dashoffset: 0; stroke: #9467bd; stroke-width: 1.5"/>
    </g>
    <g id="text_21">
     <!-- Navy120_AoA+4_Uy -->
     <g transform="translate(145 293.500313) scale(0.1 -0.1)">
      <use xlink:href="#DejaVuSans-4e"/>
      <use xlink:href="#DejaVuSans-61" x="74.804688"/>
      <use xlink:href="#DejaVuSans-76" x="136.083984"/>
      <use xlink:href="#DejaVuSans-79" x="195.263672"/>
      <use xlink:href="#DejaVuSans-31" x="254.443359"/>
      <use xlink:href="#DejaVuSans-32" x="318.066406"/>
      <use xlink:href="#DejaVuSans-30" x="381.689453"/>
      <use xlink:href="#DejaVuSans-5f" x="445.3125"/>
      <use xlink:href="#DejaVuSans-41" x="495.3125"/>
      <use xlink:href="#DejaVuSans-6f" x="561.970703"/>
      <use xlink:href="#DejaVuSans-41" x="623.152344"/>
      <use xlink:href="#DejaVuSans-2b" x="691.560547"/>
      <use xlink:href="#DejaVuSans-34" x="775.349609"/>
      <use xlink:href="#DejaVuSans-5f" x="838.972656"/>
      <use xlink:href="#DejaVuSans-55" x="888.972656"/>
      <use xlink:href="#DejaVuSans-79" x="962.166016"/>
     </g>
    </g>
    <g id="line2d_44">
     <path d="M 117 304.956563 
L 127 304.956563 
L 137 304.956563 
" style="fill: none; stroke-dasharray: 9.6,2.4,1.5,2.4; stroke-dashoffset: 0; stroke: #8c564b; stroke-width: 1.5"/>
    </g>
    <g id="text_22">
     <!-- Navy120_AoA+4_Uz -->
     <g transform="translate(145 308.456563) scale(0.1 -0.1)">
      <use xlink:href="#DejaVuSans-4e"/>
      <use xlink:href="#DejaVuSans-61" x="74.804688"/>
      <use xlink:href="#DejaVuSans-76" x="136.083984"/>
      <use xlink:href="#DejaVuSans-79" x="195.263672"/>
      <use xlink:href="#DejaVuSans-31" x="254.443359"/>
      <use xlink:href="#DejaVuSans-32" x="318.066406"/>
      <use xlink:href="#DejaVuSans-30" x="381.689453"/>
      <use xlink:href="#DejaVuSans-5f" x="445.3125"/>
      <use xlink:href="#DejaVuSans-41" x="495.3125"/>
      <use xlink:href="#DejaVuSans-6f" x="561.970703"/>
      <use xlink:href="#DejaVuSans-41" x="623.152344"/>
      <use xlink:href="#DejaVuSans-2b" x="691.560547"/>
      <use xlink:href="#DejaVuSans-34" x="775.349609"/>
      <use xlink:href="#DejaVuSans-5f" x="838.972656"/>
      <use xlink:href="#DejaVuSans-55" x="888.972656"/>
      <use xlink:href="#DejaVuSans-7a" x="962.166016"/>
     </g>
    </g>
    <g id="line2d_45">
     <path d="M 117 319.912813 
L 127 319.912813 
L 137 319.912813 
" style="fill: none; stroke: #e377c2; stroke-width: 1.5; stroke-linecap: square"/>
    </g>
    <g id="text_23">
     <!-- Navy120_AoA-4_Ux -->
     <g transform="translate(145 323.412813) scale(0.1 -0.1)">
      <defs>
       <path id="DejaVuSans-2d" d="M 313 2009 
L 1997 2009 
L 1997 1497 
L 313 1497 
L 313 2009 
z
" transform="scale(0.015625)"/>
      </defs>
      <use xlink:href="#DejaVuSans-4e"/>
      <use xlink:href="#DejaVuSans-61" x="74.804688"/>
      <use xlink:href="#DejaVuSans-76" x="136.083984"/>
      <use xlink:href="#DejaVuSans-79" x="195.263672"/>
      <use xlink:href="#DejaVuSans-31" x="254.443359"/>
      <use xlink:href="#DejaVuSans-32" x="318.066406"/>
      <use xlink:href="#DejaVuSans-30" x="381.689453"/>
      <use xlink:href="#DejaVuSans-5f" x="445.3125"/>
      <use xlink:href="#DejaVuSans-41" x="495.3125"/>
      <use xlink:href="#DejaVuSans-6f" x="561.970703"/>
      <use xlink:href="#DejaVuSans-41" x="623.152344"/>
      <use xlink:href="#DejaVuSans-2d" x="689.310547"/>
      <use xlink:href="#DejaVuSans-34" x="725.394531"/>
      <use xlink:href="#DejaVuSans-5f" x="789.017578"/>
      <use xlink:href="#DejaVuSans-55" x="839.017578"/>
      <use xlink:href="#DejaVuSans-78" x="912.210938"/>
     </g>
    </g>
    <g id="line2d_46">
     <path d="M 117 334.869063 
L 127 334.869063 
L 137 334.869063 
" style="fill: none; stroke-dasharray: 5.55,2.4; stroke-dashoffset: 0; stroke: #7f7f7f; stroke-width: 1.5"/>
    </g>
    <g id="text_24">
     <!-- Navy120_AoA-4_Uy -->
     <g transform="translate(145 338.369063) scale(0.1 -0.1)">
      <use xlink:href="#DejaVuSans-4e"/>
      <use xlink:href="#DejaVuSans-61" x="74.804688"/>
      <use xlink:href="#DejaVuSans-76" x="136.083984"/>
      <use xlink:href="#DejaVuSans-79" x="195.263672"/>
      <use xlink:href="#DejaVuSans-31" x="254.443359"/>
      <use xlink:href="#DejaVuSans-32" x="318.066406"/>
      <use xlink:href="#DejaVuSans-30" x="381.689453"/>
      <use xlink:href="#DejaVuSans-5f" x="445.3125"/>
      <use xlink:href="#DejaVuSans-41" x="495.3125"/>
      <use xlink:href="#DejaVuSans-6f" x="561.970703"/>
      <use xlink:href="#DejaVuSans-41" x="623.152344"/>
      <use xlink:href="#DejaVuSans-2d" x="689.310547"/>
      <use xlink:href="#DejaVuSans-34" x="725.394531"/>
      <use xlink:href="#DejaVuSans-5f" x="789.017578"/>
      <use xlink:href="#DejaVuSans-55" x="839.017578"/>
      <use xlink:href="#DejaVuSans-79" x="912.210938"/>
     </g>
    </g>
    <g id="line2d_47">
     <path d="M 117 349.825312 
L 127 349.825312 
L 137 349.825312 
" style="fill: none; stroke-dasharray: 9.6,2.4,1.5,2.4; stroke-dashoffset: 0; stroke: #bcbd22; stroke-width: 1.5"/>
    </g>
    <g id="text_25">
     <!-- Navy120_AoA-4_Uz -->
     <g transform="translate(145 353.325312) scale(0.1 -0.1)">
      <use xlink:href="#DejaVuSans-4e"/>
      <use xlink:href="#DejaVuSans-61" x="74.804688"/>
      <use xlink:href="#DejaVuSans-76" x="136.083984"/>
      <use xlink:href="#DejaVuSans-79" x="195.263672"/>
      <use xlink:href="#DejaVuSans-31" x="254.443359"/>
      <use xlink:href="#DejaVuSans-32" x="318.066406"/>
      <use xlink:href="#DejaVuSans-30" x="381.689453"/>
      <use xlink:href="#DejaVuSans-5f" x="445.3125"/>
      <use xlink:href="#DejaVuSans-41" x="495.3125"/>
      <use xlink:href="#DejaVuSans-6f" x="561.970703"/>
      <use xlink:href="#DejaVuSans-41" x="623.152344"/>
      <use xlink:href="#DejaVuSans-2d" x="689.310547"/>
      <use xlink:href="#DejaVuSans-34" x="725.394531"/>
      <use xlink:href="#DejaVuSans-5f" x="789.017578"/>
      <use xlink:href="#DejaVuSans-55" x="839.017578"/>
      <use xlink:href="#DejaVuSans-7a" x="912.210938"/>
     </g>
    </g>
   </g>
  </g>
 </g>
 <defs>
  <clipPath id="pe2848951f9">
   <rect x="108" y="69.12" width="669.6" height="443.52"/>
  </clipPath>
 </defs>
</svg>
